<?xml version="1.0" standalone="no"?>
<!DOCTYPE svg PUBLIC "-//W3C//DTD SVG 20010904//EN"
 "http://www.w3.org/TR/2001/REC-SVG-20010904/DTD/svg10.dtd">
<svg version="1.0" xmlns="http://www.w3.org/2000/svg"
 width="800.000000pt" height="418.000000pt" viewBox="0 0 800.000000 418.000000"
 preserveAspectRatio="xMidYMid meet">

<g transform="translate(0.000000,418.000000) scale(0.100000,-0.100000)"
fill="#000000" stroke="none">
<path d="M4107 4076 c4 -64 2 -121 -5 -148 -6 -25 -14 -104 -17 -177 -7 -148
-11 -178 -49 -305 -14 -48 -26 -108 -26 -132 0 -37 -3 -44 -20 -44 -18 0 -20
-7 -20 -58 0 -52 -3 -60 -25 -72 -22 -12 -29 -11 -53 6 -45 33 -49 34 -66 16
-15 -17 -14 -21 14 -59 23 -31 29 -48 24 -67 -5 -22 -12 -25 -57 -28 -48 -3
-52 -5 -55 -30 -3 -26 0 -28 48 -34 43 -6 53 -11 61 -33 8 -20 7 -28 -7 -38
-10 -7 -25 -13 -33 -13 -8 0 -36 -21 -62 -46 l-46 -45 -57 25 -57 25 3 47 c3
44 6 48 36 58 18 7 42 25 53 43 l20 31 -34 26 c-19 15 -56 34 -83 43 -27 9
-53 19 -59 24 -16 12 -146 59 -179 64 -17 3 -58 9 -91 15 -33 5 -86 12 -118
16 -77 7 -68 18 81 91 63 31 129 67 147 79 18 12 54 33 81 46 27 14 89 51 137
82 71 46 92 65 108 99 23 51 24 74 4 121 -13 31 -19 36 -38 30 -31 -9 -77 -33
-112 -58 -33 -24 -93 -58 -145 -82 -19 -9 -44 -21 -54 -26 -27 -14 -127 -48
-140 -48 -6 0 -4 6 5 13 129 98 165 136 179 187 20 74 -13 160 -56 146 -10 -3
-62 -46 -113 -96 -95 -89 -175 -146 -241 -170 -19 -7 -93 -52 -164 -99 -121
-80 -132 -90 -161 -146 -17 -33 -50 -91 -73 -129 -23 -38 -48 -92 -57 -121
-13 -48 -22 -58 -81 -100 -64 -46 -165 -144 -364 -351 -135 -141 -255 -243
-320 -272 -44 -21 -79 -28 -170 -34 -63 -4 -133 -12 -155 -17 -22 -6 -128 -15
-235 -21 -107 -6 -296 -17 -420 -26 -451 -30 -537 -34 -663 -28 l-127 7 0
-1037 c0 -570 3 -1036 6 -1036 5 0 329 75 389 90 17 4 95 26 175 48 80 23 188
52 240 66 52 13 183 50 290 81 187 55 198 57 277 51 143 -10 292 -52 493 -139
102 -44 214 -92 250 -107 36 -15 84 -36 105 -47 64 -32 92 -35 153 -18 62 18
175 73 237 115 22 14 70 43 106 63 81 44 231 159 280 214 38 42 144 214 198
321 30 59 86 210 100 266 8 35 19 40 44 22 15 -12 16 -19 5 -65 -10 -44 -9
-54 3 -62 24 -15 35 -10 48 19 37 82 72 89 110 21 22 -39 35 -46 59 -30 11 6
11 16 3 47 -15 55 -14 59 15 73 22 10 33 8 71 -10 24 -12 45 -20 46 -18 2 2 9
12 16 22 12 16 9 21 -27 52 -55 48 -49 71 23 80 39 5 54 12 58 25 7 29 -5 38
-60 46 -70 9 -78 35 -23 82 44 37 46 41 27 66 -12 16 -15 15 -59 -9 -45 -25
-48 -25 -73 -9 -15 10 -24 23 -21 33 16 54 18 94 5 102 -27 17 -39 9 -60 -41
-18 -42 -26 -50 -48 -50 -22 0 -31 8 -49 46 -19 39 -25 44 -45 38 -31 -9 -31
-8 -18 -58 14 -59 14 -59 -9 -74 -17 -10 -28 -9 -66 8 -36 17 -49 19 -60 9
-22 -18 -17 -35 22 -64 24 -19 34 -33 32 -48 -2 -18 -13 -23 -60 -31 -55 -8
-58 -10 -58 -37 0 -27 3 -29 41 -29 50 0 79 -15 79 -40 0 -19 0 -19 -32 0 -84
51 -306 -8 -472 -126 -26 -19 -54 -34 -60 -34 -7 0 -18 15 -24 34 -7 19 -29
48 -48 65 -30 26 -43 31 -89 31 -30 0 -77 -5 -105 -11 -28 -6 -53 -9 -56 -6
-3 2 -1 22 4 44 7 29 5 49 -4 72 -22 53 -51 70 -119 71 -55 0 -68 -4 -130 -44
-39 -24 -84 -57 -102 -75 -29 -29 -34 -30 -75 -22 -23 5 -88 26 -143 46 -171
62 -211 60 -475 -20 -160 -49 -188 -53 -515 -65 -159 -6 -335 -13 -390 -16
l-100 -4 70 19 c39 10 185 54 325 96 140 42 300 90 355 105 99 29 164 53 379
144 138 59 295 104 413 121 86 12 97 12 155 -7 84 -26 232 -20 370 16 126 33
170 31 298 -9 194 -62 213 -65 418 -65 140 0 192 3 200 13 20 25 23 57 9 87
-14 28 -14 33 15 85 l30 55 71 0 72 -1 27 -59 c23 -51 29 -58 48 -53 20 5 22
11 18 68 l-4 63 36 18 c19 10 49 28 67 41 17 13 35 23 38 23 4 0 30 -16 57
-36 45 -33 51 -35 65 -21 14 14 14 19 -5 49 -55 86 -54 76 -10 152 l41 69 69
-7 c54 -5 70 -3 74 8 5 12 9 12 32 0 15 -8 34 -14 43 -14 8 0 25 -20 37 -47
l21 -46 -25 -30 c-33 -39 -26 -52 27 -52 35 0 55 -8 97 -38 47 -35 52 -42 52
-78 0 -51 21 -60 54 -24 24 25 28 26 89 20 54 -6 67 -11 77 -30 11 -21 8 -29
-31 -79 l-44 -56 -85 6 c-47 4 -88 9 -92 13 -3 3 -13 26 -21 51 -12 36 -20 45
-38 45 -22 0 -24 -4 -27 -60 l-3 -60 -67 -33 c-37 -17 -71 -32 -76 -32 -5 0
-29 16 -53 36 -41 34 -46 35 -61 20 -15 -15 -14 -20 11 -72 l28 -56 -38 -59
c-32 -49 -42 -58 -61 -54 -12 3 -42 8 -66 11 -38 6 -44 4 -49 -15 -4 -17 5
-27 50 -53 l55 -33 -6 -44 c-3 -24 -6 -54 -6 -66 0 -18 -11 -27 -60 -45 -33
-12 -60 -26 -60 -30 0 -29 15 -40 54 -40 53 0 86 -9 86 -24 0 -6 11 -35 25
-64 l25 -53 -47 -50 c-43 -47 -45 -51 -30 -67 16 -15 21 -14 73 11 58 29 62
29 113 -15 36 -31 37 -40 15 -116 -16 -53 -16 -56 2 -69 17 -13 24 -9 69 42
l50 55 78 -14 c43 -8 81 -17 85 -22 4 -4 0 -5 -10 -1 -24 9 -43 -19 -88 -126
l-41 -97 1 -143 c1 -78 6 -159 11 -180 7 -26 33 -63 85 -116 45 -48 74 -87 74
-100 0 -12 6 -24 13 -26 6 -3 306 -4 664 -3 l653 3 -101 140 c-55 77 -137 178
-183 225 -106 109 -182 199 -236 278 -50 74 -67 88 -140 109 -69 20 -134 54
-229 121 -41 29 -80 52 -86 52 -7 0 -16 -10 -19 -22 -6 -23 -7 -23 -21 -3 -19
24 -18 27 36 99 40 53 46 57 74 51 92 -19 112 -18 117 3 5 17 -5 27 -49 54
l-55 33 6 79 c4 44 9 83 12 87 2 4 29 15 59 24 48 13 55 19 55 40 0 24 -3 25
-58 25 -32 0 -65 6 -74 13 -8 6 -25 38 -38 70 -25 63 -26 55 33 130 17 21 25
41 21 51 -8 22 -15 21 -83 -14 l-59 -29 -61 46 c-51 38 -60 49 -55 67 4 11 17
58 29 104 l21 83 54 25 c53 25 55 25 92 8 51 -23 65 -10 42 38 l-16 35 38 51
c36 50 39 51 76 46 52 -9 62 17 21 54 -29 26 -30 30 -24 87 5 46 10 61 24 63
13 3 17 -3 17 -25 1 -15 9 -38 20 -51 l19 -24 50 27 c27 15 64 41 81 58 18 18
28 23 24 12 -6 -14 -3 -16 12 -11 11 3 44 12 74 20 30 8 107 29 170 46 193 52
335 51 525 -4 97 -28 185 -33 275 -16 73 14 350 14 440 0 41 -7 81 -12 88 -13
6 0 12 -4 12 -8 0 -10 142 -63 236 -88 43 -11 162 -41 264 -65 194 -46 261
-65 500 -139 157 -48 255 -77 264 -77 3 0 6 239 6 531 l0 531 -207 -7 c-115
-3 -239 -8 -278 -10 -38 -1 -178 -6 -310 -9 -261 -7 -301 -9 -509 -33 -76 -8
-159 -13 -184 -9 -91 12 -257 122 -448 295 -27 25 -92 84 -143 131 -52 47
-103 90 -115 95 -12 6 -38 22 -57 37 -59 46 -82 45 -205 -5 -61 -24 -153 -54
-205 -67 -98 -23 -363 -140 -408 -180 -22 -20 -23 -25 -17 -98 l6 -78 -37 -35
c-37 -35 -142 -119 -187 -149 -53 -36 -104 -77 -143 -113 l-42 -40 36 -29 c20
-15 41 -28 46 -28 7 0 7 -3 1 -8 -5 -4 -37 -6 -72 -4 -61 4 -63 5 -77 39 -20
49 -49 42 -53 -12 -3 -37 -7 -42 -54 -67 l-51 -27 -27 19 c-53 38 -76 24 -54
-31 15 -37 15 -39 -16 -83 -30 -44 -33 -46 -69 -40 -31 5 -39 3 -45 -11 -6
-16 0 -24 46 -56 4 -3 5 -32 2 -65 -6 -56 -9 -61 -43 -80 l-36 -19 -65 35 -64
35 -1 75 0 74 55 31 c38 21 55 37 55 50 0 18 -7 20 -74 20 -68 0 -75 2 -89 25
-8 14 -28 44 -44 67 -28 41 -28 42 -12 76 11 23 31 41 62 56 41 20 47 21 60 7
14 -14 14 -22 3 -65 -7 -28 -10 -55 -6 -61 14 -22 41 -8 69 36 37 59 63 57 84
-6 18 -55 16 -53 41 -45 18 5 21 14 21 63 0 47 4 59 21 70 19 12 25 10 60 -17
44 -36 55 -38 68 -12 8 14 4 27 -19 57 -31 41 -37 68 -19 80 6 3 34 9 63 13
46 5 51 8 51 30 0 22 -7 26 -50 35 -37 8 -53 17 -62 36 -11 23 -9 28 27 65 45
46 46 48 24 69 -14 15 -13 19 11 47 14 18 35 48 45 69 17 33 24 38 65 42 75 9
136 46 163 100 l23 46 37 -13 c20 -8 49 -16 64 -19 25 -6 26 -9 18 -32 -42
-109 46 -188 147 -132 23 13 75 46 116 75 60 42 84 67 125 131 28 43 66 99 85
124 53 69 66 100 88 201 21 95 53 160 130 263 21 27 45 67 54 87 l15 37 -694
0 -695 0 6 -104z m927 -232 c-3 -38 -86 -210 -116 -239 -28 -27 -25 -20 25 76
31 58 59 124 63 148 7 41 31 54 28 15z m-927 -830 c20 -20 24 -31 19 -57 -8
-44 -42 -70 -81 -63 -37 8 -55 30 -55 70 0 36 7 48 35 64 31 18 54 14 82 -14z
m-716 -59 c35 -14 83 -29 107 -32 32 -4 42 -10 37 -20 -3 -8 -8 -26 -11 -39
-4 -16 -13 -24 -28 -24 -11 0 -45 -3 -73 -6 l-53 -7 -21 52 c-17 41 -26 51
-45 51 -23 0 -24 -3 -24 -64 l0 -64 -48 -31 c-27 -17 -52 -31 -57 -31 -5 0
-30 14 -57 31 -46 29 -51 31 -66 16 -15 -15 -13 -20 16 -61 18 -24 32 -49 32
-55 0 -6 -15 -34 -34 -63 l-33 -52 -64 -1 c-58 0 -64 -2 -67 -22 -3 -18 6 -27
45 -45 26 -12 50 -24 52 -25 2 -1 0 -38 -4 -81 l-7 -79 -49 -24 c-39 -18 -49
-27 -47 -43 3 -19 9 -21 58 -19 l55 3 38 -75 39 -75 -32 -55 -32 -56 -61 6
c-90 9 -199 50 -249 95 -46 40 -49 44 -98 161 l-33 77 55 68 c55 68 95 123
144 197 34 52 57 148 49 207 l-6 47 43 26 c24 14 65 46 92 71 58 54 86 61 199
52 45 -4 96 -2 112 3 46 14 56 13 126 -14z m2148 -91 c23 -20 39 -40 34 -44
-4 -4 -33 -18 -63 -31 -30 -12 -63 -29 -72 -37 -11 -9 -18 -11 -18 -4 0 6 -13
24 -30 39 l-30 28 18 37 c17 36 26 41 98 46 11 1 40 -14 63 -34z m-570 -51
c24 -68 56 -108 102 -126 28 -11 50 -28 61 -46 l16 -30 -42 -25 c-59 -34 -112
-92 -133 -143 -15 -34 -23 -43 -43 -43 -34 0 -41 7 -71 67 -23 45 -25 54 -12
64 22 19 34 46 27 63 -5 13 -11 13 -49 -2 -43 -15 -43 -15 -75 12 -18 15 -45
33 -60 41 -21 11 -26 20 -23 39 4 20 13 25 48 31 42 6 126 54 190 109 40 34
49 33 64 -11z m-1379 -129 c7 -7 1 -24 -17 -52 l-27 -41 -60 6 c-34 3 -64 8
-67 12 -4 3 -10 26 -14 50 l-7 44 91 -5 c50 -2 96 -9 101 -14z m-235 -70 c5
-37 3 -41 -41 -78 l-47 -40 -36 20 c-20 10 -37 26 -39 35 -3 19 64 86 111 111
37 19 43 13 52 -48z m343 -16 c45 -44 78 -95 67 -106 -3 -4 -25 -12 -47 -19
l-41 -12 -38 42 c-21 23 -38 48 -39 56 0 16 38 81 48 81 4 0 27 -19 50 -42z
m862 -10 c0 -7 -12 -43 -26 -80 -23 -61 -28 -68 -54 -68 -15 0 -40 -10 -55
-22 l-27 -21 -66 23 c-37 13 -71 26 -75 30 -5 5 8 27 29 50 60 66 129 98 217
99 39 1 57 -3 57 -11z m179 -105 c39 -47 61 -112 61 -180 0 -61 0 -61 -85 -30
-53 20 -60 26 -66 55 -4 18 -17 44 -29 57 l-22 23 22 64 c12 34 24 69 26 76 5
18 52 -15 93 -65z m-1534 -17 c31 -24 32 -25 22 -78 -5 -29 -11 -58 -12 -64
-4 -13 -74 -29 -84 -19 -10 11 -5 128 7 158 14 33 26 34 67 3z m305 -54 c62
-78 -38 -170 -112 -104 -36 31 -14 113 35 131 30 11 54 3 77 -27z m280 -39 c0
-62 -15 -129 -30 -138 -5 -3 -25 5 -45 17 -35 22 -36 25 -31 67 3 24 6 54 6
66 0 18 8 25 38 33 62 17 62 17 62 -45z m772 -21 c44 -45 11 -122 -52 -122
-38 0 -80 39 -80 75 0 14 11 37 26 52 20 20 31 24 57 19 18 -4 39 -14 49 -24z
m-270 -18 c59 -22 67 -29 74 -57 3 -18 15 -44 26 -59 19 -28 19 -28 -3 -90
-12 -35 -26 -67 -30 -72 -13 -14 -106 82 -127 132 -26 62 -39 172 -21 172 8 0
44 -12 81 -26z m-1018 -120 l38 -46 -18 -35 c-11 -19 -25 -38 -32 -40 -22 -9
-101 75 -116 124 -6 19 -2 24 26 32 55 15 62 13 102 -35z m437 -30 c12 -14
-29 -65 -85 -105 -53 -39 -64 -37 -72 16 -6 44 -5 46 42 89 49 44 49 44 77 27
16 -9 33 -21 38 -27z m987 -4 c34 -12 62 -27 62 -32 0 -5 -22 -31 -48 -57 -58
-58 -142 -93 -211 -89 -54 3 -55 10 -21 101 18 48 25 57 53 63 18 3 43 15 56
26 14 10 29 17 35 15 6 -2 39 -14 74 -27z m-1258 -50 c48 0 48 0 58 -42 6 -23
8 -46 5 -51 -8 -12 -171 -3 -184 10 -15 15 39 96 58 88 8 -3 36 -5 63 -5z
m-227 -165 c56 -29 57 -31 57 -72 0 -24 -2 -43 -5 -43 -3 0 -23 13 -46 29 -22
17 -63 37 -91 47 l-50 16 34 29 c18 15 36 27 39 26 3 -1 31 -15 62 -32z m1275
-364 l42 -21 -27 -41 c-21 -31 -32 -39 -47 -35 -12 2 -42 10 -67 16 -45 11
-47 12 -53 57 -3 25 -4 48 -1 52 7 13 110 -6 153 -28z m-214 -3 c14 -53 7 -77
-26 -94 -18 -9 -41 -23 -50 -31 -15 -14 -22 -13 -63 11 -25 15 -45 31 -45 36
0 15 66 60 117 80 61 24 60 24 67 -2z m344 -97 c28 -38 68 -129 61 -136 -2 -2
-25 -6 -51 -10 -45 -7 -48 -6 -60 21 -6 16 -20 41 -30 56 -19 27 -18 28 7 68
14 22 30 40 35 40 5 0 23 -18 38 -39z m-518 -61 l39 -31 -15 -41 c-8 -22 -14
-49 -14 -59 0 -18 -11 -24 -72 -35 l-38 -6 0 50 c0 59 35 152 57 152 3 0 22
-14 43 -30z m-587 -12 c9 -11 17 -31 17 -45 0 -29 -42 -73 -70 -73 -27 0 -70
43 -70 70 0 70 77 100 123 48z m888 -84 c39 -35 27 -104 -22 -124 -78 -33
-149 42 -103 108 30 43 87 50 125 16z m291 -83 c-4 -40 -45 -151 -57 -151 -3
0 -21 10 -41 23 -25 16 -34 27 -30 42 29 119 24 111 69 122 59 14 62 12 59
-36z m-562 -78 c11 -21 26 -45 32 -55 10 -13 7 -24 -15 -57 -15 -23 -31 -41
-37 -41 -20 0 -100 135 -100 170 0 9 28 16 72 19 22 1 32 -6 48 -36z m433 -98
c20 -14 37 -29 37 -34 0 -21 -130 -101 -167 -101 -6 0 -15 21 -19 47 -6 39 -4
49 11 58 9 5 31 20 49 32 40 28 45 28 89 -2z m-264 -30 c48 -13 59 -28 60 -82
1 -32 0 -33 -41 -33 -41 0 -148 41 -148 57 0 4 12 24 27 45 19 28 31 37 42 32
9 -4 36 -12 60 -19z m-1399 -145 c0 -5 -4 -10 -10 -10 -5 0 -10 5 -10 10 0 6
5 10 10 10 6 0 10 -4 10 -10z m1746 -94 c33 -27 63 -63 85 -106 29 -54 47 -73
104 -113 87 -60 105 -77 130 -124 11 -21 41 -75 67 -120 46 -78 56 -103 41
-103 -3 0 -45 19 -92 43 -80 39 -91 42 -184 45 -55 2 -135 -1 -179 -8 l-80
-11 -45 29 c-39 26 -48 38 -68 98 -21 62 -23 76 -13 139 6 39 14 79 19 90 5
11 10 46 11 78 l3 58 65 28 c36 15 70 26 75 23 6 -3 33 -24 61 -46z"/>
</g>
</svg>
