<?xml version="1.0" encoding="UTF-8" standalone="no"?> <svg xmlns="http://www.w3.org/2000/svg" viewBox="0 0 64 64"><defs><style>.cls-1{fill:red;}</style></defs><title>2</title><g id="Layer_10" data-name="Layer 10"><path d="M58,30H12.17a2,2,0,0,0,0,4H58a2,2,0,0,0,0-4Z"/><path d="M48,50a2,2,0,0,0-2,2v6H8V6H46v5.75a2,2,0,0,0,4,0V4a2,2,0,0,0-2-2H6A2,2,0,0,0,4,4V60a2,2,0,0,0,2,2H48a2,2,0,0,0,2-2V52A2,2,0,0,0,48,50Z"/><path class="cls-1" d="M41,50.71a2,2,0,0,1-1.4-3.43L55.15,32,39.6,16.72a2,2,0,1,1,2.8-2.85l17,16.71a2,2,0,0,1,0,2.85l-17,16.71A2,2,0,0,1,41,50.71Z"/></g></svg>