<svg id="Out_line" height="512" viewBox="0 0 512 512" width="512" xmlns="http://www.w3.org/2000/svg" data-name="Out line"><path d="m258.34326 338.34326-45.65726 45.65674h-33.37252l34.34326-34.34326a7.99915 7.99915 0 0 0 0-11.31348 41.93989 41.93989 0 0 0 -59.31348 0l-21.65674 21.65674h-28.68652a7.99877 7.99877 0 0 0 -5.65674 2.34326l-34.59106 34.59107a8.00223 8.00223 0 0 0 -9.40894 1.40893l-36 36 11.31348 11.31348 30.34326-30.34274 52.686 52.686-14.34274 14.34326 11.31348 11.31348 20-20a7.99915 7.99915 0 0 0 0-11.31348l-6.3432-6.3432 16.00046-16.00006h84.686a7.99877 7.99877 0 0 0 5.65674-2.34326l88-88a7.99915 7.99915 0 0 0 0-11.31348 41.98714 41.98714 0 0 0 -59.31348 0zm-37.65726 85.65674h-84.686a7.99877 7.99877 0 0 0 -5.65674 2.34326l-18.34326 18.34326-36.68646-36.68646 32.00046-32.00006h28.686a7.99877 7.99877 0 0 0 5.65674-2.34326l24-24a25.984 25.984 0 0 1 30.145-4.77246l-49.4585 49.459 11.31348 11.31348 5.65676-5.65676h52.68652a7.99877 7.99877 0 0 0 5.65674-2.34326l48-48a25.98641 25.98641 0 0 1 30.13721-4.76416z"/><path d="m136 208a47.96029 47.96029 0 0 0 75.7879 39.10138l24.89862 24.89862-18.34326 18.34326a7.99915 7.99915 0 0 0 0 11.31348l24 24a7.99945 7.99945 0 0 0 11.31348 0l18.34326-18.34326 10.34326 10.34326 11.31348-11.31348-70.55536-70.55536a47.98732 47.98732 0 1 0 -87.10138-27.7879zm112 100.68652-12.68652-12.68652 12.68652-12.68652 12.68652 12.68652zm-72-116.68652a8 8 0 1 1 -8 8 8.00917 8.00917 0 0 1 8-8zm-23.70752 11.73645a24.00009 24.00009 0 1 0 27.444-27.444 32.05738 32.05738 0 1 1 -27.444 27.444z"/><path d="m309.65674 274.34326-11.31348 11.31348 48 48a7.99877 7.99877 0 0 0 5.65674 2.34326h144v-16h-140.686z"/><path d="m314.34326 114.34326-72 72 11.31348 11.31348 69.65674-69.65674h172.68652v-16h-176a7.99877 7.99877 0 0 0 -5.65674 2.34326z"/><path d="m154.34326 149.65674 11.31348-11.31348-16-16a7.99877 7.99877 0 0 0 -5.65674-2.34326h-128v16h124.68652z"/><path d="m464 104h-112a32.036 32.036 0 0 1 -32-32v-24a32.036 32.036 0 0 1 32-32h112a32.036 32.036 0 0 1 32 32v24a32.036 32.036 0 0 1 -32 32zm-112-72a16.01833 16.01833 0 0 0 -16 16v24a16.01833 16.01833 0 0 0 16 16h112a16.01833 16.01833 0 0 0 16-16v-24a16.01833 16.01833 0 0 0 -16-16z"/><path d="m360 40h32v16h-32z"/><path d="m408 40h64v16h-64z"/><path d="m344 64h64v16h-64z"/><path d="m424 64h32v16h-32z"/><path d="m464 440h-80a32.036 32.036 0 0 1 -32-32v-32a32.036 32.036 0 0 1 32-32h80a32.036 32.036 0 0 1 32 32v32a32.036 32.036 0 0 1 -32 32zm-80-80a16.01833 16.01833 0 0 0 -16 16v32a16.01833 16.01833 0 0 0 16 16h80a16.01833 16.01833 0 0 0 16-16v-32a16.01833 16.01833 0 0 0 -16-16z"/><path d="m392 368h48v16h-48z"/><path d="m456 368h16v16h-16z"/><path d="m376 400h16v16h-16z"/><path d="m408 400h48v16h-48z"/><path d="m112 112h-64a32.036 32.036 0 0 1 -32-32v-32a32.036 32.036 0 0 1 32-32h64a32.036 32.036 0 0 1 32 32v32a32.036 32.036 0 0 1 -32 32zm-64-80a16.01833 16.01833 0 0 0 -16 16v32a16.01833 16.01833 0 0 0 16 16h64a16.01833 16.01833 0 0 0 16-16v-32a16.01833 16.01833 0 0 0 -16-16z"/><path d="m56 40h32v16h-32z"/><path d="m104 40h16v16h-16z"/><path d="m40 72h16v16h-16z"/><path d="m72 72h32v16h-32z"/></svg>