<?xml version="1.0" ?><!DOCTYPE svg  PUBLIC '-//W3C//DTD SVG 1.1//EN'  'http://www.w3.org/Graphics/SVG/1.1/DTD/svg11.dtd'><svg enable-background="new 0 0 48 48" height="48px" id="Layer_4" version="1.1" viewBox="0 0 48 48" width="48px" xml:space="preserve" xmlns="http://www.w3.org/2000/svg" xmlns:xlink="http://www.w3.org/1999/xlink"><g><path d="M21.852,24.263l1.485-1.484l-2.693-2.694l-1.484,1.486c-0.864-0.572-1.828-0.999-2.858-1.267v-2.22h-4.781   v2.22c-1.053,0.272-2.039,0.711-2.917,1.302l-1.425-1.425l-2.693,2.692l1.449,1.449c-0.554,0.849-0.97,1.793-1.23,2.8H2.485v4.776   h2.218c0.267,1.031,0.694,1.998,1.267,2.862l-1.485,1.484l2.693,2.691l1.485-1.484c0.866,0.573,1.834,1.002,2.867,1.269v2.216   h4.761v-2.216c1.01-0.26,1.957-0.678,2.808-1.231l1.544,1.543l2.693-2.691l-1.521-1.522c0.594-0.883,1.034-1.876,1.306-2.934h2.216   v-4.747h-2.216C22.855,26.103,22.428,25.131,21.852,24.263z M13.911,33.428c-2.163,0-3.917-1.754-3.917-3.917   s1.754-3.917,3.917-3.917s3.917,1.754,3.917,3.917S16.074,33.428,13.911,33.428z" fill="#241F20"/><polygon fill="#241F20" points="9.36,5.672 9.36,4.797 9.36,3.859 28.25,3.859 29.297,3.859 29.369,3.859 29.369,4.81    29.369,5.828 29.369,11.984 32.234,11.984 36.543,11.984 37.422,11.984 37.422,17.084 37.422,19.084 37.422,19.308 41.326,19.308    41.326,19.084 41.326,17.084 41.326,11.984 41.326,9.422 31.932,0.025 29.369,0.025 5.452,0.025 5.452,17.766 9.36,17.766  "/><polygon fill="#241F20" points="32.664,37.938 36.508,42.408 40.355,37.938 38.391,37.938 38.391,32.512 40.379,32.512    36.531,28.042 32.688,32.51 34.619,32.51 34.619,37.938  "/><rect fill="#241F20" height="3.93" width="17.93" x="27.586" y="23.07"/><rect fill="#241F20" height="4.875" width="17.904" x="27.568" y="43.125"/></g></svg>