<?xml version="1.0" encoding="UTF-8" standalone="no"?> <svg id="Layer_1" data-name="Layer 1" xmlns="http://www.w3.org/2000/svg" viewBox="0 0 64 64"><path d="M2.084,55.034l-.582.321a.937.937,0,0,0-.367,1.312l1.611,2.666a1.029,1.029,0,0,0,1.372.352l.588-.325a1.068,1.068,0,0,1,1.145.094A8.533,8.533,0,0,0,7.73,60.5a.987.987,0,0,1,.655.9v.644a.983.983,0,0,0,1,.96h3.222a.983.983,0,0,0,1-.96V61.4a.987.987,0,0,1,.655-.9,8.533,8.533,0,0,0,1.879-1.043,1.068,1.068,0,0,1,1.145-.094l.588.325a1.029,1.029,0,0,0,1.372-.352l1.611-2.666a.937.937,0,0,0-.367-1.312l-.582-.321a.929.929,0,0,1-.5-.935,7.684,7.684,0,0,0,0-2.2.928.928,0,0,1,.5-.935l.582-.321a.937.937,0,0,0,.367-1.312l-1.611-2.666a1.029,1.029,0,0,0-1.372-.352l-.588.325a1.068,1.068,0,0,1-1.145-.094A8.533,8.533,0,0,0,14.27,45.5a.987.987,0,0,1-.655-.9V43.96a.983.983,0,0,0-1-.96H9.389a.983.983,0,0,0-1,.96V44.6a.987.987,0,0,1-.655.9,8.533,8.533,0,0,0-1.879,1.043,1.068,1.068,0,0,1-1.145.094l-.588-.325a1.029,1.029,0,0,0-1.372.352L1.135,49.333A.937.937,0,0,0,1.5,50.645l.582.321a.928.928,0,0,1,.5.935,7.684,7.684,0,0,0,0,2.2A.929.929,0,0,1,2.084,55.034ZM11,49.111A3.889,3.889,0,1,1,7.111,53,3.889,3.889,0,0,1,11,49.111Z"/><path d="M44.084,13.034l-.582.321a.937.937,0,0,0-.367,1.312l1.611,2.666a1.029,1.029,0,0,0,1.372.352l.588-.325a1.068,1.068,0,0,1,1.145.094A8.533,8.533,0,0,0,49.73,18.5a.987.987,0,0,1,.655.9v.644a.983.983,0,0,0,1,.96h3.222a.983.983,0,0,0,1-.96V19.4a.987.987,0,0,1,.655-.9,8.533,8.533,0,0,0,1.879-1.043,1.068,1.068,0,0,1,1.145-.094l.588.325a1.029,1.029,0,0,0,1.372-.352l1.611-2.666a.937.937,0,0,0-.367-1.312l-.582-.321a.929.929,0,0,1-.495-.935,7.684,7.684,0,0,0,0-2.2.928.928,0,0,1,.495-.935l.582-.321a.937.937,0,0,0,.367-1.312L61.254,4.667a1.029,1.029,0,0,0-1.372-.352l-.588.325a1.068,1.068,0,0,1-1.145-.094A8.533,8.533,0,0,0,56.27,3.5a.987.987,0,0,1-.655-.9V1.96a.983.983,0,0,0-1-.96H51.389a.983.983,0,0,0-1,.96V2.6a.987.987,0,0,1-.655.9,8.533,8.533,0,0,0-1.879,1.043,1.068,1.068,0,0,1-1.145.094l-.588-.325a1.029,1.029,0,0,0-1.372.352L43.135,7.333A.937.937,0,0,0,43.5,8.645l.582.321a.928.928,0,0,1,.495.935,7.684,7.684,0,0,0,0,2.2A.929.929,0,0,1,44.084,13.034ZM53,7.111A3.889,3.889,0,1,1,49.111,11,3.889,3.889,0,0,1,53,7.111Z"/><path d="M5,31.528c.011-.626.043-1.254.1-1.864L3.108,29.49q-.086.985-.1,2.021l1,.061Z"/><path d="M6.839,22.183l-1.863-.727c-.249.638-.478,1.3-.682,1.953L6.2,24C6.394,23.388,6.607,22.777,6.839,22.183Z"/><path d="M3.044,33.625c.038.686.1,1.379.187,2.06l1.984-.252c-.08-.634-.139-1.279-.174-1.918Z"/><path d="M5.7,25.86l-1.948-.453c-.155.667-.288,1.35-.4,2.031l1.976.312C5.433,27.116,5.557,26.48,5.7,25.86Z"/><path d="M5.972,39.207c-.17-.615-.32-1.246-.446-1.874l-1.961.393c.136.675.3,1.353.479,2.014Z"/><path d="M60.632,36.624l-1.974-.317c-.1.633-.227,1.269-.373,1.89l1.947.457C60.389,37.986,60.523,37.3,60.632,36.624Z"/><path d="M8.495,18.7l-1.739-.987c-.34.6-.662,1.218-.957,1.837l1.806.86C7.879,19.837,8.179,19.262,8.495,18.7Z"/><path d="M58.174,44.5l-1.8-.863c-.277.579-.578,1.154-.893,1.708l1.737.99C57.553,45.742,57.876,45.125,58.174,44.5Z"/><path d="M60.952,30.314c-.039-.684-.1-1.376-.191-2.06l-1.984.255c.082.637.142,1.282.178,1.918Z"/><path d="M61,32.513l0-.133-2-.025,0,.116c-.012.64-.045,1.288-.1,1.925l1.992.174C60.947,33.887,60.983,33.193,61,32.513Z"/><path d="M47.81,53.889l1.172,1.62c.554-.4,1.1-.827,1.632-1.271L49.33,52.705C48.836,53.118,48.325,53.516,47.81,53.889Z"/><path d="M59.687,40.65l-1.909-.595c-.19.61-.405,1.221-.639,1.817L59,42.6C59.252,41.962,59.483,41.306,59.687,40.65Z"/><path d="M38.562,3.746c-.67-.154-1.353-.287-2.031-.393l-.31,1.976c.631.1,1.267.222,1.891.366Z"/><path d="M58.012,24.737c.172.615.323,1.245.45,1.872l1.96-.4c-.136-.675-.3-1.352-.483-2.013Z"/><path d="M10.629,15.5,9.046,14.273c-.421.546-.828,1.112-1.206,1.681l1.665,1.108C9.857,16.532,10.236,16.005,10.629,15.5Z"/><path d="M35.4,58.788c-.632.08-1.277.137-1.918.172l.107,2c.689-.037,1.382-.1,2.061-.185Z"/><path d="M30.457,5.043l-.113-2c-.688.039-1.381.1-2.059.19l.254,1.983C29.17,5.139,29.816,5.079,30.457,5.043Z"/><path d="M42.805,56.751c-.585.256-1.187.494-1.789.708l.669,1.885c.647-.23,1.293-.485,1.921-.76Z"/><path d="M39.179,58.036c-.616.169-1.247.318-1.874.444l.391,1.961c.674-.134,1.351-.3,2.013-.477Z"/><path d="M47.265,56.662l-1.054-1.7c-.542.336-1.1.658-1.672.956l.931,1.771C46.079,57.368,46.683,57.022,47.265,56.662Z"/><path d="M25.831,58.292l-.454,1.947c.668.157,1.352.29,2.03.4l.315-1.974C27.09,58.562,26.454,58.437,25.831,58.292Z"/><path d="M31.529,59c-.633-.012-1.27-.045-1.9-.1L29.46,60.89c.671.058,1.355.093,2,.1l.081,0Z"/><path d="M16.143,10.145,14.967,8.527c-.556.4-1.105.833-1.63,1.275l1.288,1.53C15.114,10.921,15.625,10.521,16.143,10.145Z"/><path d="M13.2,12.625,11.8,11.189c-.491.476-.973.978-1.433,1.492l1.49,1.334C12.291,13.536,12.739,13.068,13.2,12.625Z"/><path d="M26.637,5.532l-.393-1.961c-.672.135-1.349.3-2.014.482l.535,1.926C25.383,5.808,26.013,5.658,26.637,5.532Z"/><path d="M19.409,8.11l-.934-1.769c-.606.32-1.209.667-1.793,1.031l1.058,1.7C18.284,8.73,18.845,8.408,19.409,8.11Z"/><path d="M50.763,51.416l1.388,1.438c.491-.473.974-.974,1.436-1.489L52.1,50.028C51.669,50.508,51.219,50.975,50.763,51.416Z"/><path d="M22.929,6.561l-.671-1.884c-.645.23-1.291.487-1.922.764l.8,1.831C21.728,7.014,22.33,6.775,22.929,6.561Z"/><path d="M56.125,48.1l-1.662-1.112c-.355.531-.734,1.057-1.128,1.564l1.58,1.226C55.337,49.233,55.745,48.669,56.125,48.1Z"/><path d="M34.308,5.1l.17-1.994c-.651-.055-1.314-.089-1.973-.1h-.091l.057,2Q33.4,5.021,34.308,5.1Z"/><path d="M18.918,40.132,27.4,31.646,33.061,37.3a1,1,0,0,0,1.414,0l8.3-8.3,1.755,1.754,1.65-6.6-6.6,1.65L41.36,27.59l-7.592,7.592-5.657-5.657a1,1,0,0,0-1.414,0L17.5,38.718Z"/></svg>