<svg width="200" height="200" viewBox="0 0 100 100" xmlns="http://www.w3.org/2000/svg">
  <path d="M10,25 Q10,20 15,20 L35,20 Q40,20 45,25 L50,30 L85,30 Q90,30 90,35 L90,80 Q90,85 85,85 L15,85 Q10,85 10,80 Z" 
        fill="#82b1ff" stroke="#1565c0" stroke-width="2" />
  
  <circle cx="50" cy="58" r="18" fill="white" stroke="black" stroke-width="1.5" />
  
  <path d="M50,50 L57,55 L54,63 L46,63 L43,55 Z" fill="black" />
  
  <path d="M50,50 L50,40 M57,55 L67,52 M54,63 L61,72 M46,63 L39,72 M43,55 L33,52" 
        stroke="black" stroke-width="1.2" />
</svg>