<?xml version="1.0" standalone="no"?>
<!DOCTYPE svg PUBLIC "-//W3C//DTD SVG 20010904//EN"
 "http://www.w3.org/TR/2001/REC-SVG-20010904/DTD/svg10.dtd">
<svg version="1.0" xmlns="http://www.w3.org/2000/svg"
 width="1280.000000pt" height="1186.000000pt" viewBox="0 0 1280.000000 1186.000000"
 preserveAspectRatio="xMidYMid meet">
<g transform="translate(0.000000,1186.000000) scale(0.100000,-0.100000)"
fill="#000000" stroke="none">
<path d="M5529 10992 c-2722 -2445 -5513 -4947 -5520 -4950 -10 -4 -12 -1260
-3 -1376 l7 -77 3206 -2266 c1763 -1247 3222 -2279 3242 -2295 32 -24 46 -28
102 -28 48 0 66 4 71 15 3 8 407 581 897 1272 491 692 1313 1852 1828 2578
515 726 1488 2098 2163 3050 675 951 1228 1733 1228 1737 0 13 -242 179 -254
175 -7 -3 -176 -236 -376 -518 -470 -664 -4485 -6325 -5118 -7217 -267 -376
-491 -686 -498 -689 -11 -4 -6149 4327 -6166 4351 -11 16 -10 884 1 890 5 3
134 -83 287 -192 3980 -2828 5848 -4154 5859 -4158 8 -3 71 74 162 198 82 112
876 1191 1763 2398 888 1207 2238 3045 3002 4083 l1388 1888 0 78 c0 66 -3 79
-17 84 -10 2 -553 162 -1208 355 -654 193 -2040 601 -3079 906 -1038 306
-1896 561 -1906 566 -10 6 -36 10 -57 10 -36 -1 -84 -42 -1004 -868z m1671
343 c1237 -365 4853 -1429 4980 -1466 74 -21 146 -44 158 -49 24 -10 24 -11 6
-38 -16 -25 -488 -668 -3278 -4462 -572 -778 -1397 -1901 -1834 -2495 -437
-594 -800 -1083 -806 -1087 -14 -8 -5979 4225 -5984 4246 -1 7 1018 928 2265
2047 1247 1119 2629 2359 3072 2757 696 625 809 722 831 718 14 -2 279 -79
590 -171z"/>
<path d="M12378 9188 c-14 -18 -1340 -1840 -2947 -4048 -1608 -2208 -2931
-4023 -2940 -4033 -17 -17 -19 -17 -52 6 -19 13 -1358 971 -2976 2130 -1617
1159 -2944 2107 -2947 2107 -3 0 -19 -20 -35 -44 l-31 -44 38 -30 c122 -95
5996 -4295 6009 -4296 15 -1 125 148 1713 2329 1202 1651 2540 3489 3443 4729
456 627 832 1147 834 1155 3 13 -62 71 -80 71 -3 0 -16 -15 -29 -32z"/>
<path d="M11683 7957 c-396 -545 -1457 -2009 -2358 -3252 -902 -1243 -1908
-2631 -2237 -3085 -407 -561 -604 -825 -616 -825 -10 0 -1351 947 -2980 2105
-1630 1158 -2967 2106 -2971 2108 -5 2 -23 -17 -40 -42 l-31 -45 23 -18 c40
-31 6017 -4278 6026 -4281 4 -1 64 75 133 170 68 95 572 790 1118 1543 1980
2730 3973 5479 4275 5895 169 234 343 473 386 531 44 58 79 111 79 117 0 10
-44 47 -76 65 -7 4 -292 -380 -731 -986z"/>
</g>
</svg>
