<?xml version="1.0" standalone="no"?>
<!DOCTYPE svg PUBLIC "-//W3C//DTD SVG 20010904//EN"
 "http://www.w3.org/TR/2001/REC-SVG-20010904/DTD/svg10.dtd">
<svg version="1.0" xmlns="http://www.w3.org/2000/svg"
 width="1003.000000pt" height="1280.000000pt" viewBox="0 0 1003.000000 1280.000000"
 preserveAspectRatio="xMidYMid meet">
<metadata>
Created by potrace 1.15, written by Peter Selinger 2001-2017
</metadata>
<g transform="translate(0.000000,1280.000000) scale(0.100000,-0.100000)"
fill="#000000" stroke="none">
<path d="M8651 12710 c-287 -49 -525 -90 -527 -92 -3 -4 237 -1451 721 -4347
57 -343 106 -625 107 -626 3 -3 1071 174 1075 178 1 2 -184 1120 -412 2485
-228 1365 -415 2484 -415 2487 0 7 19 10 -549 -85z"/>
<path d="M5350 11374 c-234 -168 -431 -311 -438 -318 -11 -11 241 -369 1439
-2042 798 -1116 1460 -2037 1470 -2048 17 -18 30 -10 441 284 232 167 431 310
441 319 17 16 -57 122 -1448 2064 -807 1126 -1469 2047 -1473 2047 -4 -1 -198
-138 -432 -306z"/>
<path d="M3047 8892 c-152 -253 -277 -464 -277 -468 0 -5 121 -81 268 -170
147 -89 798 -482 1447 -874 649 -392 1405 -849 1680 -1015 275 -166 594 -359
708 -428 l208 -125 23 36 c102 164 536 891 536 898 -1 5 -494 307 -1098 671
-603 364 -1567 946 -2142 1294 -575 347 -1052 634 -1060 636 -11 3 -93 -124
-293 -455z"/>
<path d="M2139 6858 c-6 -24 -71 -257 -145 -518 -74 -261 -134 -479 -134 -485
0 -5 143 -50 318 -99 174 -49 522 -147 772 -218 639 -181 1332 -376 1830 -517
1148 -324 1376 -388 1638 -462 156 -44 287 -78 290 -74 4 3 72 239 153 523
125 446 143 518 130 524 -15 7 -128 39 -1046 298 -192 54 -575 162 -850 240
-275 78 -657 186 -850 240 -192 54 -575 162 -850 240 -275 78 -660 186 -855
241 -195 55 -363 102 -372 105 -13 4 -20 -5 -29 -38z"/>
<path d="M7 5213 c-4 -70 -7 -1272 -7 -2670 l0 -2543 4180 0 4180 0 0 2655 0
2655 -510 0 -510 0 0 -2135 0 -2135 -3199 0 c-1760 0 -3202 3 -3204 8 -3 7 0
530 22 3117 6 638 9 1160 8 1161 -1 1 -216 5 -478 8 l-476 8 -6 -129z"/>
<path d="M1694 4716 c-8 -23 -105 -1060 -100 -1073 3 -7 20 -13 37 -13 18 0
498 -45 1068 -100 570 -55 1362 -132 1761 -170 399 -39 1045 -101 1435 -139
391 -38 711 -68 712 -67 6 6 105 1077 100 1083 -4 3 -253 30 -554 59 -302 29
-642 62 -758 73 -227 23 -1638 159 -2810 271 -401 39 -765 74 -809 78 -53 6
-79 5 -82 -2z"/>
<path d="M1570 2270 l0 -530 2510 0 2510 0 0 530 0 530 -2510 0 -2510 0 0
-530z"/>
</g>
</svg>
