<?xml version="1.0" standalone="no"?>
<!DOCTYPE svg PUBLIC "-//W3C//DTD SVG 20010904//EN"
 "http://www.w3.org/TR/2001/REC-SVG-20010904/DTD/svg10.dtd">
<svg version="1.0" xmlns="http://www.w3.org/2000/svg"
 width="1280.000000pt" height="1280.000000pt" viewBox="0 0 1280.000000 1280.000000"
 preserveAspectRatio="xMidYMid meet">
<metadata>
Created by potrace 1.15, written by Peter Selinger 2001-2017
</metadata>
<g transform="translate(0.000000,1280.000000) scale(0.100000,-0.100000)"
fill="#000000" stroke="none">
<path d="M6339 12791 c-14 -4 -36 -14 -50 -21 -13 -7 -1041 -736 -2284 -1619
-1243 -882 -2627 -1865 -3075 -2184 -448 -318 -834 -595 -856 -616 -43 -41
-74 -109 -74 -166 0 -83 58 -172 139 -212 33 -17 78 -18 588 -21 l553 -3 0
-3324 0 -3325 -318 0 c-310 0 -319 -1 -362 -22 -83 -42 -80 -19 -80 -628 0
-603 -3 -582 76 -627 l39 -23 5842 3 5842 2 27 21 c15 11 37 33 48 48 21 27
21 38 21 576 0 538 0 549 -21 576 -11 15 -33 37 -48 48 -26 20 -42 21 -357 24
l-329 3 0 3324 0 3324 483 3 c446 3 485 4 519 22 44 21 93 69 114 109 37 70
27 173 -23 240 -18 24 -327 249 -863 630 -459 326 -1852 1316 -3095 2199
-1243 883 -2275 1613 -2294 1622 -38 20 -124 29 -162 17z m3911 -8166 l0
-3325 -3780 0 -3780 0 0 3325 0 3325 3780 0 3780 0 0 -3325z"/>
<path d="M4820 6959 c-329 -42 -660 -174 -980 -389 -93 -62 -277 -205 -353
-272 l-48 -43 3 -2033 3 -2034 120 103 c235 200 427 331 643 436 543 264 1090
262 1637 -6 117 -58 232 -126 398 -235 l27 -18 0 2033 0 2034 -98 61 c-330
208 -614 319 -919 359 -121 16 -326 18 -433 4z"/>
<path d="M7740 6964 c-14 -2 -59 -9 -100 -15 -262 -38 -565 -157 -847 -334
l-123 -77 0 -2034 0 -2033 123 80 c145 96 425 235 555 278 381 124 744 126
1117 5 154 -50 405 -175 566 -283 75 -50 209 -152 298 -226 89 -74 163 -135
166 -135 8 0 5 4054 -3 4065 -10 15 -184 161 -258 217 -191 146 -479 307 -674
378 -126 46 -296 88 -426 105 -103 13 -328 18 -394 9z"/>
</g>
</svg>
