<?xml version="1.0" standalone="no"?>
<!DOCTYPE svg PUBLIC "-//W3C//DTD SVG 20010904//EN"
 "http://www.w3.org/TR/2001/REC-SVG-20010904/DTD/svg10.dtd">
<svg version="1.0" xmlns="http://www.w3.org/2000/svg"
 width="512.000000pt" height="512.000000pt" viewBox="0 0 512.000000 512.000000"
 preserveAspectRatio="xMidYMid meet">

<g transform="translate(0.000000,512.000000) scale(0.100000,-0.100000)"
fill="#000000" stroke="none">
<path d="M1545 5015 l-25 -24 0 -1311 0 -1310 -23 15 c-13 8 -59 28 -103 44
-388 142 -818 -33 -993 -403 -53 -112 -71 -185 -81 -333 -4 -71 -16 -157 -25
-193 -24 -93 -85 -205 -155 -283 -87 -99 -86 -103 52 -243 l111 -113 -29 -63
-29 -63 -3 -302 -3 -303 25 -25 25 -25 2351 0 2351 0 24 25 25 24 0 2033 0
2033 -423 422 -422 423 -1313 0 -1313 0 -24 -25z m2535 -295 l0 -160 -1015 0
-1016 0 -24 -25 -25 -24 0 -671 0 -671 25 -24 24 -25 1231 0 1231 0 24 25 25
24 0 456 0 455 160 0 160 0 0 -1920 0 -1920 -1439 0 -1439 0 -4 248 -3 247
-29 63 -29 63 32 33 33 34 23 -24 24 -24 351 0 351 0 24 25 25 24 0 278 0 278
110 110 110 110 -57 57 -57 58 -71 -70 -71 -71 -357 1 -357 0 -25 -24 c-24
-24 -25 -30 -26 -158 l-1 -133 -23 50 c-30 64 -55 186 -55 269 0 181 -71 369
-192 514 l-48 56 0 1313 0 1313 1200 0 1200 0 0 -160z m425 -220 l260 -260
-263 0 -262 0 0 260 c0 143 1 260 3 260 1 0 119 -117 262 -260z m-425 -235 c0
-131 1 -137 25 -160 23 -24 29 -25 160 -25 l135 0 0 -400 0 -400 -1120 0
-1120 0 0 560 0 560 960 0 960 0 0 -135z m-2669 -2444 c24 -19 24 -22 24 -198
0 -171 -1 -180 -26 -234 -55 -117 -160 -184 -289 -184 -129 0 -234 67 -289
184 -24 52 -26 67 -29 228 l-4 172 26 26 25 25 269 0 c251 0 271 -1 293 -19z
m1149 -319 c0 -9 -36 -53 -80 -97 l-80 -79 -50 49 -50 50 -63 -63 -62 -63 91
-89 91 -90 -98 0 -99 0 0 200 0 200 200 0 c185 0 200 -1 200 -18z m0 -327 l0
-55 -59 0 -59 0 56 55 c32 30 58 55 60 55 1 0 2 -25 2 -55z m-1440 -130 c47 0
102 4 123 9 l37 8 0 -64 c0 -88 -29 -145 -90 -175 -24 -13 -56 -23 -70 -23
-14 0 -46 10 -70 23 -61 30 -90 87 -90 175 l0 64 38 -8 c20 -5 75 -9 122 -9z"/>
<path d="M2834 2869 l-70 -70 -357 1 -357 0 -25 -24 -25 -25 0 -351 0 -351 25
-24 24 -25 351 0 351 0 24 25 25 24 0 278 0 278 110 110 110 110 -58 58 -57
57 -71 -71z m-274 -247 c0 -9 -36 -53 -80 -97 l-80 -79 -50 49 -50 50 -63 -63
-62 -63 91 -89 91 -90 -98 0 -99 0 0 200 0 200 200 0 c185 0 200 -1 200 -18z
m0 -327 l0 -55 -59 0 -59 0 56 55 c32 30 58 55 60 55 1 0 2 -25 2 -55z"/>
<path d="M3280 2480 l0 -80 640 0 640 0 0 80 0 80 -640 0 -640 0 0 -80z"/>
<path d="M2960 2160 l0 -80 800 0 800 0 0 80 0 80 -800 0 -800 0 0 -80z"/>
<path d="M3280 1360 l0 -80 640 0 640 0 0 80 0 80 -640 0 -640 0 0 -80z"/>
<path d="M2960 1040 l0 -80 800 0 800 0 0 80 0 80 -800 0 -800 0 0 -80z"/>
<path d="M2640 4160 l0 -80 640 0 640 0 0 80 0 80 -640 0 -640 0 0 -80z"/>
<path d="M2320 3840 l0 -80 960 0 960 0 0 80 0 80 -960 0 -960 0 0 -80z"/>
<path d="M2320 3520 l0 -80 960 0 960 0 0 80 0 80 -960 0 -960 0 0 -80z"/>
</g>
</svg>
