<?xml version="1.0" standalone="no"?>
<!DOCTYPE svg PUBLIC "-//W3C//DTD SVG 20010904//EN"
 "http://www.w3.org/TR/2001/REC-SVG-20010904/DTD/svg10.dtd">
<svg version="1.0" xmlns="http://www.w3.org/2000/svg"
 width="1280.000000pt" height="640.000000pt" viewBox="0 0 1280.000000 640.000000"
 preserveAspectRatio="xMidYMid meet">
<metadata>
Created by potrace 1.15, written by Peter Selinger 2001-2017
</metadata>
<g transform="translate(0.000000,640.000000) scale(0.100000,-0.100000)"
fill="#000000" stroke="none">
<path d="M2786 6169 c-48 -43 -76 -106 -76 -170 l0 -37 -50 0 c-57 0 -117 -27
-169 -75 -115 -109 -50 -207 153 -232 l56 -7 -28 -21 c-100 -75 -159 -160
-169 -246 -5 -44 -3 -49 27 -74 42 -36 113 -36 211 -2 l71 24 -7 -40 c-5 -29
-1 -59 16 -109 l22 -68 -31 -119 c-17 -65 -41 -172 -52 -238 -11 -66 -23 -131
-26 -144 -6 -26 -7 -26 -124 4 -116 30 -266 -7 -395 -100 -98 -70 -142 -137
-110 -169 31 -31 191 -15 325 32 30 11 106 43 168 70 70 32 112 46 112 38 0
-23 -42 -180 -60 -221 -10 -22 -38 -67 -62 -100 -64 -85 -85 -131 -112 -248
-60 -254 -70 -433 -36 -628 11 -63 24 -168 30 -234 6 -66 20 -174 30 -240 21
-126 30 -232 56 -635 8 -135 30 -387 49 -560 19 -173 43 -457 55 -630 11 -173
23 -336 26 -362 l6 -48 -54 -1 c-29 -1 -111 -4 -182 -7 -83 -5 -130 -3 -132 3
-5 17 -43 609 -49 775 -22 602 -24 627 -87 1028 -22 144 -38 265 -35 268 3 4
54 15 114 26 223 40 225 72 16 215 -65 45 -167 120 -228 168 -60 47 -171 126
-245 175 -194 127 -260 174 -260 183 0 5 42 68 93 140 52 73 96 139 100 148 3
9 -1 29 -9 44 -8 15 -14 52 -14 82 l0 55 -34 -21 c-18 -12 -38 -21 -45 -21
-22 0 -10 52 40 171 28 66 48 127 45 134 -6 18 -76 62 -110 71 -45 11 -84 -23
-126 -112 -36 -75 -41 -81 -65 -77 -14 3 -32 -1 -41 -8 -19 -15 -65 -106 -125
-244 -23 -55 -44 -102 -46 -104 -5 -7 -54 31 -123 95 -58 55 -74 65 -94 60
-51 -13 -332 -341 -475 -555 -188 -281 -521 -860 -521 -905 0 -34 25 -9 73 73
27 45 51 80 53 78 3 -3 -17 -45 -43 -95 -46 -86 -47 -92 -31 -108 16 -16 24
-17 76 -6 77 16 90 15 101 -6 19 -36 63 -286 97 -552 19 -151 39 -302 44 -335
21 -131 40 -386 40 -532 0 -85 9 -230 19 -326 11 -94 23 -205 26 -245 6 -56
13 -80 30 -100 l24 -27 16 38 c9 21 13 47 10 58 -4 10 -5 19 -3 19 10 1 327
42 456 60 164 21 490 50 577 50 48 0 55 -3 79 -35 15 -19 31 -35 36 -35 4 0
12 17 17 38 l9 37 144 12 c289 25 517 55 615 80 97 26 109 27 385 27 265 -1
792 -22 1079 -44 159 -13 534 -12 631 0 41 6 172 19 290 30 118 11 296 32 395
47 163 24 208 26 470 27 633 0 2655 -24 2900 -35 150 -6 769 -12 1465 -14 733
-2 1281 -7 1400 -14 107 -7 263 -16 345 -21 83 -5 267 -12 410 -15 322 -7 485
-15 483 -23 -3 -11 22 -52 31 -52 5 0 14 14 20 31 16 47 14 557 -4 854 -9 149
-15 396 -15 610 1 288 -3 398 -18 550 -11 105 -16 191 -11 193 34 13 74 51 77
72 1 14 -38 187 -87 386 -98 393 -106 440 -121 714 -13 241 -35 325 -95 352
-18 8 -45 7 -107 -5 -46 -8 -99 -18 -119 -21 l-35 -6 -13 167 c-28 378 -58
608 -101 783 -16 63 -34 162 -40 220 -6 57 -16 112 -21 122 -17 31 -47 31
-107 0 -31 -16 -106 -48 -167 -72 -60 -24 -116 -50 -122 -58 -22 -27 -15 -66
46 -265 73 -236 112 -384 146 -547 26 -126 56 -356 47 -365 -3 -3 -37 -5 -76
-5 -80 0 -115 -14 -133 -50 -11 -24 -97 -561 -163 -1012 -35 -242 -53 -334
-87 -442 -18 -59 -23 -88 -17 -115 10 -50 8 -225 -5 -428 -14 -217 -14 -708
-1 -901 6 -81 22 -238 35 -349 14 -112 25 -205 25 -208 0 -3 -182 -5 -404 -5
-329 0 -406 3 -415 14 -6 7 -27 103 -45 212 -19 110 -48 279 -65 377 -54 313
-42 471 51 631 l53 91 60 6 c99 10 227 89 338 209 107 115 147 242 127 403
-18 151 -61 223 -162 277 -34 18 -65 35 -67 37 -3 2 11 20 31 41 125 129 195
345 169 518 -23 153 -74 248 -196 362 -152 142 -348 207 -541 178 l-52 -8 -17
52 c-34 101 -104 153 -226 166 -127 13 -250 -30 -350 -124 -100 -92 -126 -168
-98 -289 10 -42 8 -64 -10 -149 -21 -96 -40 -258 -41 -339 0 -33 15 -64 85
-178 l85 -138 -44 -51 c-107 -123 -163 -326 -137 -495 32 -209 122 -308 316
-348 90 -18 105 -28 124 -82 7 -21 49 -110 92 -198 100 -203 117 -266 123
-472 2 -87 14 -276 26 -421 12 -145 21 -265 19 -266 -2 -2 -211 -6 -464 -7
l-459 -4 -17 95 c-8 52 -26 134 -38 183 -21 83 -22 104 -19 385 3 276 1 304
-19 397 -12 55 -34 188 -48 295 -15 107 -46 328 -70 490 -69 466 -84 581 -100
800 -8 113 -19 252 -25 310 -5 58 -9 209 -10 335 0 193 3 234 16 253 8 12 23
22 32 22 36 0 252 58 276 74 38 24 34 68 -13 157 -49 94 -143 390 -217 687
-51 205 -59 230 -87 256 -34 32 -16 32 -332 6 -66 -5 -183 -10 -260 -10 -86 0
-199 -8 -289 -21 -82 -11 -150 -19 -151 -17 -2 2 -11 77 -20 168 -23 222 -29
257 -50 280 -22 24 -44 25 -195 5 -135 -18 -231 -43 -355 -92 -104 -41 -143
-66 -155 -99 -15 -39 22 -135 91 -241 51 -76 60 -96 48 -104 -8 -5 -19 -9 -25
-9 -33 0 -44 -37 -59 -215 -25 -283 -44 -397 -124 -747 -44 -190 -49 -239 -26
-258 10 -8 54 -11 152 -8 l137 3 22 -85 c12 -47 38 -184 58 -305 21 -121 64
-339 96 -485 32 -146 63 -307 69 -358 6 -51 29 -183 51 -295 22 -111 49 -260
60 -332 11 -71 34 -186 51 -255 43 -177 66 -344 79 -580 13 -245 28 -488 37
-587 l6 -73 -492 0 -491 0 -10 23 c-19 45 -40 322 -40 527 0 200 2 219 35 383
19 94 41 219 50 277 9 58 19 113 21 123 11 38 60 79 140 117 243 116 333 329
245 581 -67 193 -138 289 -230 315 -87 24 -100 33 -132 100 l-30 63 35 46 c50
65 66 128 66 259 0 137 -15 175 -102 263 -72 73 -120 89 -227 79 -125 -11
-218 -75 -314 -218 -72 -106 -86 -235 -38 -329 31 -59 27 -72 -34 -113 -45
-29 -61 -49 -89 -104 -49 -97 -70 -175 -62 -233 6 -46 6 -47 -23 -54 -71 -15
-207 -163 -232 -252 -52 -187 127 -420 360 -468 38 -8 76 -18 85 -21 29 -11
97 -162 117 -259 30 -148 77 -502 84 -630 3 -66 13 -198 21 -294 8 -96 13
-175 12 -176 -5 -4 -833 17 -837 21 -2 2 -8 45 -12 96 -5 51 -15 138 -24 193
-11 66 -19 215 -25 440 -7 290 -13 374 -39 570 -17 127 -49 370 -70 540 -22
171 -45 332 -52 358 -7 28 -8 52 -3 56 5 4 76 17 158 29 155 22 192 36 202 76
9 36 -81 228 -194 416 -113 188 -288 531 -298 585 -4 21 -18 50 -31 63 -30 29
-34 29 -313 -21 -107 -19 -208 -37 -225 -39 l-30 -3 -27 205 c-14 113 -27 208
-27 211 -2 16 -36 18 -91 5 -53 -13 -59 -12 -65 3 -4 9 -23 61 -42 116 -19 55
-42 108 -52 118 -17 18 -20 18 -79 -7 -34 -14 -66 -26 -72 -26 -5 0 -10 15
-10 34 0 39 -35 161 -56 194 -22 34 -51 27 -155 -36 -180 -110 -183 -116 -90
-204 54 -52 59 -61 71 -123 7 -37 28 -95 46 -130 47 -88 63 -159 71 -307 l6
-127 -34 -5 c-19 -3 -110 -15 -204 -26 -93 -11 -210 -28 -260 -37 -54 -10
-141 -16 -219 -16 l-128 0 -39 -51 c-21 -28 -72 -96 -113 -151 -40 -55 -122
-150 -181 -210 -183 -187 -269 -328 -365 -601 -26 -74 -29 -92 -19 -115 12
-31 52 -49 106 -49 51 0 70 -15 77 -57 66 -429 113 -780 166 -1228 22 -192 56
-452 75 -577 19 -125 35 -233 35 -240 0 -11 -42 -13 -217 -9 -129 2 -221 7
-224 13 -8 12 -25 194 -39 408 -6 85 -35 432 -64 770 -30 338 -59 687 -65 775
-8 134 -61 561 -101 817 -16 108 -12 222 16 383 36 213 57 273 132 384 35 52
71 114 80 139 l15 45 23 -44 c50 -97 230 -364 253 -376 32 -15 56 -3 70 37 12
36 -15 152 -74 314 -52 146 -88 199 -172 257 -52 36 -59 61 -40 131 8 29 20
91 27 137 6 46 20 102 30 125 10 22 24 74 30 114 l12 72 41 0 c53 0 87 27 125
97 l28 53 30 -31 c42 -44 76 -59 134 -59 91 0 120 54 120 223 l0 97 38 -6
c113 -18 223 86 222 210 -1 87 -86 154 -226 177 -41 6 -76 15 -78 18 -3 4 4
42 15 86 23 96 24 144 5 190 -15 36 -60 65 -98 65 -32 -1 -96 -31 -167 -79
-33 -23 -62 -41 -65 -41 -3 0 -32 27 -64 60 -53 55 -62 60 -100 60 -36 0 -49
-6 -86 -41z m-2166 -2883 c-30 -79 -109 -214 -228 -390 -75 -111 -156 -232
-181 -269 -26 -41 -48 -64 -53 -59 -9 9 449 742 464 742 4 0 3 -11 -2 -24z
m1565 -1222 c27 -307 28 -320 18 -311 -3 4 -16 129 -29 279 -25 298 -27 324
-19 316 3 -3 17 -131 30 -284z"/>
<path d="M11344 5686 c-28 -20 -35 -50 -17 -75 18 -26 49 -27 91 -1 33 20 42
50 20 68 -25 19 -72 23 -94 8z"/>
<path d="M11076 5605 c-35 -29 -38 -35 -26 -50 13 -15 34 -15 92 1 24 7 30 34
13 60 -20 31 -32 30 -79 -11z"/>
<path d="M10928 5595 c-22 -29 -23 -49 -4 -64 11 -9 20 -10 35 -1 25 13 26 38
3 67 l-17 22 -17 -24z"/>
<path d="M11567 5560 c-52 -41 -27 -76 56 -78 79 -3 106 23 70 67 -28 32 -92
38 -126 11z"/>
<path d="M10670 5525 c-29 -35 15 -67 56 -40 l26 17 -28 19 c-35 23 -38 23
-54 4z"/>
<path d="M10355 5521 c-3 -5 2 -17 11 -26 15 -15 18 -15 35 1 15 14 17 19 7
26 -17 11 -46 10 -53 -1z"/>
</g>
</svg>
