<?xml version="1.0" encoding="UTF-8"?>
<!DOCTYPE svg PUBLIC "-//W3C//DTD SVG 1.1//EN" "http://www.w3.org/Graphics/SVG/1.1/DTD/svg11.dtd">
<svg xmlns="http://www.w3.org/2000/svg" version="1.1" width="858px" height="980px" style="shape-rendering:geometricPrecision; text-rendering:geometricPrecision; image-rendering:optimizeQuality; fill-rule:evenodd; clip-rule:evenodd" xmlns:xlink="http://www.w3.org/1999/xlink">
<g><path style="opacity:1" fill="#fefefe" d="M -0.5,-0.5 C 115.833,-0.5 232.167,-0.5 348.5,-0.5C 239.991,12.3326 162.158,67.9993 115,166.5C 96.1601,209.205 88.6601,253.872 92.5,300.5C 91.5013,342.663 91.168,384.997 91.5,427.5C 60.9954,427.169 30.6621,427.502 0.5,428.5C 0.5,612.167 0.5,795.833 0.5,979.5C 0.166667,979.5 -0.166667,979.5 -0.5,979.5C -0.5,652.833 -0.5,326.167 -0.5,-0.5 Z"/></g>
<g><path style="opacity:1" fill="#000000" d="M 348.5,-0.5 C 359.5,-0.5 370.5,-0.5 381.5,-0.5C 476.813,8.39337 550.647,52.7267 603,132.5C 619.494,160.307 631.494,189.974 639,221.5C 641.588,253.109 642.921,284.775 643,316.5C 643.5,353.832 643.667,391.165 643.5,428.5C 674.167,428.5 704.833,428.5 735.5,428.5C 735.92,453.531 735.42,478.531 734,503.5C 733.586,503.957 733.086,504.291 732.5,504.5C 618.041,470.738 519.541,496.738 437,582.5C 425.734,595.534 415.568,609.367 406.5,624C 398.611,620.732 390.611,617.399 382.5,614C 350.362,608.321 326.862,619.821 312,648.5C 302.238,675.227 307.404,698.727 327.5,719C 330.927,720.796 334.094,722.963 337,725.5C 337.5,759.165 337.667,792.832 337.5,826.5C 350.167,826.5 362.833,826.5 375.5,826.5C 385.208,868.912 403.708,906.912 431,940.5C 443.339,953.672 455.839,966.672 468.5,979.5C 312.5,979.5 156.5,979.5 0.5,979.5C 0.5,795.833 0.5,612.167 0.5,428.5C 31.1667,428.5 61.8333,428.5 92.5,428.5C 92.5,385.833 92.5,343.167 92.5,300.5C 88.6601,253.872 96.1601,209.205 115,166.5C 162.158,67.9993 239.991,12.3326 348.5,-0.5 Z"/></g>
<g><path style="opacity:1" fill="#fefefe" d="M 381.5,-0.5 C 540.167,-0.5 698.833,-0.5 857.5,-0.5C 857.5,326.167 857.5,652.833 857.5,979.5C 727.833,979.5 598.167,979.5 468.5,979.5C 455.839,966.672 443.339,953.672 431,940.5C 403.708,906.912 385.208,868.912 375.5,826.5C 362.833,826.5 350.167,826.5 337.5,826.5C 337.667,792.832 337.5,759.165 337,725.5C 334.094,722.963 330.927,720.796 327.5,719C 307.404,698.727 302.238,675.227 312,648.5C 326.862,619.821 350.362,608.321 382.5,614C 390.611,617.399 398.611,620.732 406.5,624C 415.568,609.367 425.734,595.534 437,582.5C 519.541,496.738 618.041,470.738 732.5,504.5C 733.086,504.291 733.586,503.957 734,503.5C 735.42,478.531 735.92,453.531 735.5,428.5C 704.833,428.5 674.167,428.5 643.5,428.5C 643.667,391.165 643.5,353.832 643,316.5C 642.921,284.775 641.588,253.109 639,221.5C 631.494,189.974 619.494,160.307 603,132.5C 550.647,52.7267 476.813,8.39337 381.5,-0.5 Z"/></g>
<g><path style="opacity:1" fill="#fefefe" d="M 551.5,427.5 C 429.167,427.5 306.833,427.5 184.5,427.5C 184.5,381.167 184.5,334.833 184.5,288.5C 182.257,212.134 213.59,154.301 278.5,115C 328.443,87.7827 380.11,84.116 433.5,104C 483.641,124.808 519.141,160.308 540,210.5C 547.218,228.808 550.885,247.808 551,267.5C 551.5,320.832 551.667,374.166 551.5,427.5 Z"/></g>
<g><path style="opacity:1" fill="#c0c0c0" d="M 92.5,300.5 C 92.5,343.167 92.5,385.833 92.5,428.5C 61.8333,428.5 31.1667,428.5 0.5,428.5C 30.6621,427.502 60.9954,427.169 91.5,427.5C 91.168,384.997 91.5013,342.663 92.5,300.5 Z"/></g>
<g><path style="opacity:1" fill="#b4b4b4" d="M 184.5,288.5 C 184.5,334.833 184.5,381.167 184.5,427.5C 306.833,427.5 429.167,427.5 551.5,427.5C 429.001,428.5 306.334,428.833 183.5,428.5C 183.168,381.664 183.501,334.997 184.5,288.5 Z"/></g>
<g><path style="opacity:1" fill="#4cfe00" d="M 630.5,550.5 C 713.728,549.525 778.561,583.192 825,651.5C 858.114,705.934 866.114,763.934 849,825.5C 820.888,907.605 764.388,958.105 679.5,977C 598.828,987.119 531.662,961.952 478,901.5C 432.284,842.588 418.95,776.921 438,704.5C 461.928,630.905 510.762,582.405 584.5,559C 599.713,554.745 615.046,551.911 630.5,550.5 Z"/></g>
</svg>
