<?xml version="1.0" standalone="no"?>
<!DOCTYPE svg PUBLIC "-//W3C//DTD SVG 20010904//EN"
 "http://www.w3.org/TR/2001/REC-SVG-20010904/DTD/svg10.dtd">
<svg version="1.0" xmlns="http://www.w3.org/2000/svg"
 width="858.000000pt" height="1280.000000pt" viewBox="0 0 858.000000 1280.000000"
 preserveAspectRatio="xMidYMid meet">
<metadata>
Created by potrace 1.15, written by Peter Selinger 2001-2017
</metadata>
<g transform="translate(0.000000,1280.000000) scale(0.100000,-0.100000)"
fill="#000000" stroke="none">
<path d="M4095 12794 c-215 -21 -272 -27 -353 -40 -549 -86 -1029 -292 -1432
-614 -132 -106 -350 -324 -456 -455 -710 -887 -1072 -2212 -1146 -4197 l-12
-318 -205 0 -206 0 -116 -123 -116 -122 -6 -895 c-7 -875 -17 -1914 -37 -3765
-5 -506 -10 -1168 -10 -1470 l0 -550 122 -122 123 -122 4050 4 4050 5 116 120
115 120 -4 3338 -4 3337 -121 123 -122 122 -201 0 -201 0 -6 473 c-6 411 -23
834 -42 1055 -73 823 -175 1356 -362 1887 -502 1427 -1581 2184 -3148 2209
-126 2 -248 2 -270 0z m454 -2073 c495 -114 848 -517 1079 -1231 177 -546 268
-1216 296 -2182 l3 -138 -1512 0 -1513 0 4 38 c2 20 11 134 19 252 90 1263
319 2272 636 2795 159 263 330 416 534 477 85 25 322 20 454 -11z"/>
</g>
</svg>
