<?xml version="1.0" standalone="no"?>
<!DOCTYPE svg PUBLIC "-//W3C//DTD SVG 20010904//EN"
 "http://www.w3.org/TR/2001/REC-SVG-20010904/DTD/svg10.dtd">
<svg version="1.0" xmlns="http://www.w3.org/2000/svg"
 width="1280.000000pt" height="570.000000pt" viewBox="0 0 1280.000000 570.000000"
 preserveAspectRatio="xMidYMid meet">
<metadata>
Created by potrace 1.15, written by Peter Selinger 2001-2017
</metadata>
<g transform="translate(0.000000,570.000000) scale(0.100000,-0.100000)"
fill="#000000" stroke="none">
<path d="M6287 5163 c-4 -3 -7 -29 -7 -57 0 -59 -15 -120 -33 -134 -6 -5 -24
-12 -39 -16 -35 -8 -78 28 -114 95 -15 27 -31 49 -35 49 -8 0 -89 -31 -89 -34
0 0 7 -23 15 -50 8 -27 15 -68 15 -92 0 -36 -5 -46 -30 -64 -41 -29 -66 -22
-133 40 -30 27 -58 50 -62 50 -3 0 -21 -11 -40 -25 l-33 -26 39 -75 c21 -41
39 -81 39 -88 0 -7 -10 -26 -22 -41 -19 -24 -26 -27 -64 -22 -23 2 -65 18 -93
36 -28 17 -53 31 -55 31 -2 0 -16 -18 -31 -40 l-28 -40 57 -59 c62 -66 69 -92
35 -135 -24 -31 -68 -34 -145 -11 -27 8 -52 15 -55 15 -11 0 -43 -94 -33 -97
5 -2 33 -17 61 -33 65 -37 87 -68 78 -110 -10 -47 -38 -60 -127 -60 l-77 0 -7
-45 c-3 -25 -3 -49 0 -53 4 -4 26 -12 49 -19 40 -12 39 -12 -40 -10 -45 1 -87
7 -93 13 -6 6 -14 25 -20 43 -8 28 -5 36 20 65 16 18 50 44 75 57 25 13 45 29
45 35 0 16 -29 84 -36 84 -3 0 -30 -7 -60 -16 -81 -23 -124 -16 -148 25 -19
32 -19 35 -2 66 10 18 38 52 62 75 l43 43 -30 39 -31 38 -62 -35 c-75 -42
-114 -45 -146 -10 -29 31 -23 79 21 149 l31 51 -33 27 c-18 16 -38 28 -44 28
-6 0 -30 -20 -54 -44 -61 -63 -91 -73 -133 -49 -41 23 -47 66 -23 149 9 31 15
57 13 59 -12 10 -70 35 -81 35 -8 0 -20 -13 -27 -29 -16 -39 -53 -90 -80 -108
-17 -12 -27 -12 -56 -3 -44 15 -54 40 -54 130 0 65 -2 70 -24 76 -13 3 -36 4
-51 2 -25 -3 -30 -10 -45 -66 -20 -74 -52 -112 -91 -112 -40 0 -66 33 -90 112
-20 66 -22 68 -54 68 -60 0 -65 -6 -65 -75 0 -88 -14 -121 -56 -135 -46 -16
-71 1 -119 80 -20 33 -40 60 -45 60 -15 0 -80 -30 -80 -38 0 -4 7 -36 17 -72
20 -80 13 -114 -28 -135 -40 -21 -62 -13 -129 51 l-56 53 -38 -32 -38 -33 36
-65 c42 -76 45 -107 13 -137 -33 -31 -71 -27 -143 13 l-63 34 -30 -36 -30 -37
49 -52 c65 -69 76 -96 53 -135 -23 -38 -53 -45 -128 -29 -88 18 -86 19 -106
-27 l-18 -42 47 -27 c64 -36 102 -73 102 -98 -1 -68 -28 -86 -131 -86 -76 0
-77 -1 -81 -64 l-3 -38 55 -15 c89 -23 114 -42 118 -90 4 -52 -21 -74 -114
-99 -58 -15 -65 -20 -60 -38 3 -12 6 -33 6 -47 0 -27 1 -27 86 -30 76 -4 88
-7 105 -28 43 -53 15 -107 -84 -157 l-47 -24 15 -38 c9 -20 20 -41 24 -45 5
-5 37 -1 72 8 80 21 119 14 141 -25 23 -40 13 -66 -52 -134 l-49 -52 26 -37
c14 -20 30 -37 35 -37 5 0 25 10 46 23 88 54 127 59 162 22 29 -31 23 -76 -19
-146 -17 -27 -31 -53 -31 -58 0 -4 17 -20 37 -34 l38 -27 45 45 c25 24 58 51
74 59 25 13 32 13 63 -2 44 -21 50 -49 29 -135 -9 -39 -13 -74 -9 -78 4 -4 25
-15 45 -24 l38 -15 24 48 c48 95 105 125 157 83 21 -17 24 -29 27 -104 l4 -85
46 -5 c26 -3 48 -4 50 -3 1 2 9 30 17 62 23 86 42 109 96 109 37 0 45 -4 61
-30 9 -17 24 -55 31 -85 l14 -55 55 3 55 4 27 -53 c33 -66 33 -99 1 -129 -31
-29 -76 -23 -148 21 l-51 32 -33 -38 -33 -38 54 -56 c65 -69 73 -91 49 -131
-24 -41 -53 -46 -136 -26 -39 9 -74 13 -78 9 -4 -4 -14 -25 -23 -46 l-15 -37
47 -25 c89 -46 115 -80 101 -131 -11 -40 -25 -46 -124 -53 l-80 -6 -6 -45 c-4
-25 -5 -46 -4 -48 1 -1 29 -9 61 -17 82 -22 108 -43 112 -92 4 -54 -21 -74
-135 -103 -41 -10 -42 -11 -36 -48 8 -63 7 -62 83 -62 59 0 97 -8 118 -25 1
-1 7 -16 12 -34 7 -26 5 -36 -17 -62 -14 -17 -50 -44 -79 -60 l-53 -30 18 -42
c20 -46 22 -47 111 -26 70 16 105 7 125 -31 20 -39 9 -67 -55 -134 l-49 -52
30 -37 30 -36 65 34 c78 42 112 44 144 10 29 -31 23 -79 -21 -149 l-31 -51 38
-32 38 -32 56 53 c31 29 65 56 77 60 31 10 81 -19 89 -50 6 -22 -4 -88 -22
-151 -5 -18 0 -24 31 -37 51 -22 60 -20 74 12 21 47 61 99 84 109 28 13 82 -2
93 -25 4 -9 10 -53 13 -97 l6 -80 48 -5 47 -6 11 41 c18 70 29 98 46 117 22
24 84 24 106 0 16 -18 39 -77 51 -132 5 -25 8 -26 53 -20 l48 5 6 80 c3 44 9
88 13 97 12 27 65 38 98 21 23 -11 77 -88 91 -128 4 -10 84 12 93 26 2 4 -3
38 -12 76 -21 84 -14 117 27 138 40 21 62 13 130 -51 l56 -54 38 33 38 33 -24
39 c-55 90 -62 130 -26 163 32 31 65 28 141 -13 l65 -34 30 36 30 37 -49 52
c-65 69 -76 96 -53 135 23 38 53 45 123 30 89 -21 91 -20 111 26 l18 42 -53
30 c-29 16 -64 43 -79 60 -22 27 -24 34 -15 65 14 44 42 56 129 56 75 0 74 -1
82 62 6 37 5 38 -36 48 -23 5 -62 20 -87 32 -43 22 -45 25 -45 67 0 54 22 73
109 96 32 8 61 16 62 18 2 2 0 23 -4 48 l-7 44 -82 5 c-86 6 -106 15 -121 59
-16 45 15 84 105 130 l42 21 -15 37 c-9 21 -19 42 -23 46 -4 4 -39 0 -78 -9
-83 -20 -112 -15 -136 25 -17 29 -17 33 -2 64 8 18 35 53 60 77 l44 43 -27 38
c-15 21 -30 39 -34 39 -4 0 -29 -14 -55 -30 -70 -43 -117 -49 -149 -19 -22 20
-25 30 -21 63 3 21 19 61 36 88 17 27 31 52 31 56 0 4 -18 19 -39 34 l-38 27
-44 -46 c-24 -25 -59 -52 -77 -59 -29 -13 -36 -13 -63 3 -40 24 -45 53 -25
136 9 39 13 74 9 78 -4 4 -25 14 -46 23 l-37 15 -21 -42 c-46 -90 -85 -121
-130 -105 -44 15 -53 35 -59 122 l-5 81 -45 6 c-25 4 -46 5 -48 4 -1 -1 -9
-29 -17 -61 -22 -82 -43 -108 -92 -112 -54 -4 -74 21 -103 136 -9 33 -15 42
-28 38 -9 -3 -33 -6 -52 -8 -33 -3 -37 0 -62 47 -34 62 -36 104 -5 133 32 30
61 27 137 -14 l65 -35 32 37 33 37 -54 56 c-65 69 -73 91 -49 131 24 40 50 46
131 26 37 -9 71 -16 75 -16 8 0 37 62 37 79 0 5 -27 26 -60 46 -70 43 -91 69
-83 107 9 47 36 62 126 68 l82 5 5 45 5 45 -50 17 -50 16 63 1 c85 1 127 -17
136 -60 10 -51 -10 -73 -129 -144 -16 -10 -16 -13 1 -53 14 -36 21 -43 38 -39
148 34 169 33 195 -16 20 -37 8 -68 -50 -131 l-51 -56 26 -35 c15 -19 28 -35
30 -35 2 0 33 16 70 35 83 43 107 44 140 4 31 -37 28 -59 -19 -141 l-34 -57
39 -31 40 -31 49 49 c64 64 98 77 140 51 28 -17 31 -24 31 -66 0 -27 -7 -70
-15 -96 l-14 -48 46 -20 c25 -11 47 -18 48 -17 1 2 12 22 23 44 37 72 70 104
108 104 48 0 71 -27 79 -94 4 -31 5 -67 2 -81 -5 -30 -5 -31 53 -39 l45 -7 17
66 c25 93 42 115 89 115 51 0 74 -26 96 -112 18 -68 18 -69 47 -64 16 3 37 6
47 6 16 0 19 8 19 58 0 111 24 152 88 152 33 0 57 -23 97 -95 16 -27 29 -51
30 -53 1 -1 22 7 47 18 l46 20 -14 47 c-8 25 -14 68 -14 95 0 43 3 50 31 67
42 25 68 15 136 -51 l52 -51 40 32 40 32 -30 47 c-16 26 -34 64 -40 86 -10 35
-8 41 17 67 36 38 58 36 138 -6 37 -19 68 -35 70 -35 2 0 16 16 31 35 l26 36
-50 55 c-58 63 -70 94 -50 131 26 49 47 50 195 16 17 -4 24 3 38 36 9 23 16
43 16 45 0 2 -24 18 -52 34 -80 45 -102 73 -94 117 9 46 49 65 140 65 l65 0 7
46 c7 50 -2 64 -42 64 -11 0 -45 12 -75 28 -56 28 -67 48 -55 96 4 18 52 56
71 56 3 0 5 -23 3 -51 l-3 -51 55 -15 c30 -7 68 -22 85 -31 26 -16 30 -24 30
-61 0 -54 -23 -73 -109 -96 -32 -8 -61 -17 -63 -19 -3 -2 -1 -25 2 -50 l7 -46
72 0 c89 0 118 -14 130 -63 8 -32 7 -40 -15 -63 -13 -14 -48 -40 -76 -56 -29
-16 -53 -31 -53 -33 0 -4 32 -80 35 -84 2 -1 38 5 79 15 85 20 118 13 137 -30
17 -37 3 -73 -52 -131 l-49 -52 22 -29 c12 -16 25 -33 28 -37 4 -5 38 8 74 27
80 42 108 45 141 11 33 -32 32 -51 -10 -131 -19 -37 -35 -70 -35 -74 0 -4 17
-19 37 -33 l38 -27 50 50 c66 64 93 74 133 50 41 -25 47 -54 29 -127 -9 -32
-17 -64 -19 -71 -2 -8 15 -21 42 -32 l45 -17 33 56 c18 31 42 64 54 74 26 22
70 22 99 -1 19 -16 23 -31 27 -105 4 -86 5 -87 31 -87 14 0 36 -3 48 -6 19 -5
22 0 34 51 19 86 45 119 97 123 38 3 43 0 62 -30 11 -18 25 -57 31 -86 7 -29
15 -55 19 -57 4 -3 27 -1 51 3 l44 7 1 70 c3 97 14 122 60 131 49 9 61 1 112
-78 l44 -66 36 15 c21 8 40 18 44 22 4 3 0 30 -8 58 -8 29 -14 71 -12 94 3 36
8 46 36 62 l32 19 44 -26 c24 -14 57 -41 75 -61 l32 -36 39 31 39 31 -34 63
c-41 74 -44 114 -12 144 32 30 55 28 134 -14 l68 -35 28 32 c15 18 27 37 27
42 0 4 -22 31 -49 58 -57 58 -68 87 -46 129 21 40 52 46 136 25 39 -9 72 -15
74 -13 7 9 35 68 35 76 0 5 -27 26 -60 46 -79 49 -96 74 -80 120 14 42 47 56
135 56 69 0 75 5 75 65 0 32 -3 35 -42 45 -65 16 -118 42 -129 61 -29 56 8
103 103 129 68 18 75 27 64 85 l-7 33 -84 3 c-93 4 -109 13 -120 67 -6 29 -3
37 30 66 20 18 54 41 76 51 21 10 39 22 39 26 0 15 -32 89 -39 89 -3 0 -28 -7
-55 -15 -81 -25 -121 -20 -146 15 -29 41 -21 70 40 135 28 28 50 56 50 61 0 5
-13 24 -28 42 l-28 34 -50 -31 c-70 -44 -118 -50 -149 -21 -34 32 -32 71 9
146 l35 63 -34 25 c-18 14 -37 26 -40 26 -4 0 -32 -23 -62 -50 -67 -62 -92
-69 -133 -40 -25 18 -30 28 -30 63 0 23 7 64 15 91 8 27 14 50 13 51 -12 10
-70 35 -80 35 -7 0 -24 -20 -37 -45 -35 -66 -85 -107 -119 -99 -15 4 -33 12
-41 19 -17 17 -33 110 -25 149 8 35 -7 46 -62 46 -40 0 -42 -1 -49 -37 -11
-62 -42 -122 -69 -134 -57 -26 -99 16 -127 125 -11 44 -13 46 -48 46 -20 0
-41 -4 -47 -8 -6 -4 -13 -42 -16 -85 -6 -85 -19 -109 -69 -121 -36 -8 -69 20
-109 89 -17 30 -36 55 -41 55 -5 0 -26 -7 -47 -15 l-38 -16 18 -72 c22 -86 17
-117 -22 -140 -41 -25 -72 -14 -135 47 -48 47 -55 51 -71 38 -11 -7 -28 -20
-38 -27 -19 -14 -18 -16 17 -86 43 -83 46 -108 14 -137 -33 -31 -71 -27 -145
13 -70 39 -64 40 -107 -21 -14 -19 -11 -24 35 -72 56 -58 68 -89 50 -132 -19
-46 -66 -49 -195 -14 -17 4 -23 -3 -37 -40 l-17 -45 52 -32 c29 -17 62 -40 75
-52 30 -27 29 -71 -3 -102 -22 -23 -32 -25 -102 -24 -77 1 -77 1 -36 12 23 7
45 15 49 19 3 4 3 28 0 53 l-7 45 -77 0 c-89 0 -117 13 -127 60 -9 42 13 73
78 110 28 16 56 31 61 33 10 3 -22 97 -33 97 -3 0 -28 -7 -55 -15 -53 -16
-114 -19 -132 -7 -17 11 -34 48 -34 72 0 12 24 47 56 81 l57 59 -28 40 c-15
22 -29 40 -31 40 -2 0 -27 -14 -56 -32 -69 -43 -131 -45 -160 -7 -18 24 -19
31 -8 65 7 22 25 60 40 85 l28 46 -34 26 c-18 15 -36 27 -40 27 -3 0 -31 -23
-61 -50 -66 -61 -95 -70 -131 -43 -34 25 -41 93 -18 161 9 25 16 47 16 48 0 1
-21 10 -47 20 -45 17 -47 17 -57 0 -70 -117 -93 -138 -139 -129 -41 8 -59 43
-65 126 -3 40 -10 75 -16 79 -6 4 -27 8 -46 8 -35 0 -35 0 -60 -77 -19 -59
-31 -81 -51 -92 -57 -32 -107 13 -130 116 l-12 53 -42 0 c-23 0 -45 -3 -48 -7z
m391 -288 c187 -40 342 -124 478 -259 290 -291 363 -721 185 -1091 -44 -91
-117 -204 -132 -205 -4 0 -25 54 -49 120 -23 66 -49 129 -58 139 -16 18 -229
121 -251 121 -5 0 -30 27 -55 59 -26 33 -57 68 -71 79 -14 11 -25 22 -25 26 0
3 13 26 29 50 15 25 34 66 41 91 8 29 23 53 40 65 45 32 57 73 65 220 7 143
-1 201 -36 271 -26 53 -99 124 -160 156 -49 26 -63 28 -159 28 -97 0 -109 -2
-165 -31 -190 -96 -265 -214 -239 -374 8 -48 7 -63 -3 -72 -19 -15 -16 -103 4
-146 9 -19 29 -42 45 -51 16 -9 33 -30 39 -51 6 -19 27 -64 46 -99 l34 -63
-42 -36 c-23 -20 -55 -54 -71 -76 -23 -32 -46 -47 -116 -76 -184 -78 -181 -76
-200 -122 -10 -24 -34 -87 -52 -140 -19 -54 -38 -98 -42 -98 -14 0 -109 144
-145 219 -62 131 -86 245 -87 406 0 173 23 275 93 420 122 248 320 418 581
499 153 47 322 55 478 21z m-2308 -131 c163 -34 320 -118 452 -243 135 -127
221 -271 270 -452 20 -72 23 -107 22 -244 -1 -192 -17 -267 -93 -420 -49 -98
-150 -240 -162 -227 -3 4 -22 53 -43 110 -71 196 -78 208 -143 240 -32 16 -90
41 -129 57 -46 17 -79 37 -92 55 l-20 27 60 11 c67 13 119 46 146 95 14 27 17
57 16 192 -1 138 -5 174 -27 257 -38 144 -93 242 -184 329 -100 94 -178 132
-277 133 -89 0 -133 -15 -176 -59 -23 -24 -43 -35 -63 -35 -22 0 -41 -13 -80
-53 -136 -141 -202 -349 -195 -617 3 -121 4 -128 31 -164 39 -50 65 -65 138
-78 35 -6 65 -13 67 -14 2 -1 -4 -13 -13 -27 -10 -15 -40 -33 -78 -47 -34 -13
-94 -37 -133 -55 l-72 -33 -60 -153 c-32 -85 -61 -160 -64 -168 -6 -21 -121
137 -162 222 -70 147 -96 262 -96 421 0 170 27 288 97 431 142 287 422 485
742 525 83 11 224 4 321 -16z m4540 16 c120 -15 191 -36 305 -90 117 -55 197
-113 287 -209 320 -339 343 -878 53 -1245 -26 -32 -50 -54 -55 -50 -4 5 -26
59 -49 120 -74 200 -76 203 -139 231 -32 15 -88 38 -127 54 -46 18 -78 38 -94
58 l-24 31 29 0 c90 0 172 60 194 140 16 57 8 267 -14 366 -48 221 -159 380
-323 461 -59 29 -85 36 -136 37 -92 1 -130 -10 -181 -55 -25 -22 -46 -38 -46
-35 0 3 -13 0 -30 -5 -40 -14 -128 -111 -167 -185 -88 -164 -132 -520 -78
-625 31 -59 105 -99 187 -99 l37 0 -17 -30 c-12 -21 -33 -35 -74 -50 -32 -11
-90 -36 -131 -54 -73 -34 -74 -34 -104 -102 -17 -38 -45 -109 -62 -158 -46
-130 -41 -127 -92 -62 -147 188 -212 374 -211 611 0 107 5 147 26 230 81 309
305 556 603 664 67 25 127 38 243 55 51 7 108 6 190 -4z m-3499 -737 c31 -19
43 -45 37 -84 -3 -27 -64 -62 -137 -80 l-43 -10 6 -50 c7 -54 1 -59 -38 -28
-23 18 -27 28 -24 62 4 48 29 67 118 90 54 14 55 15 52 48 -2 19 -5 42 -8 52
-7 21 0 21 37 0z m-592 -1139 l57 -53 32 25 32 25 0 -56 c0 -46 -9 -83 -25
-103 -1 -1 -16 -7 -34 -12 -26 -7 -36 -5 -62 17 -17 14 -44 50 -60 79 l-30 53
-34 -15 c-46 -19 -45 -19 -45 19 0 37 6 47 38 69 34 23 68 11 131 -48z m-300
-89 c17 -20 40 -53 51 -75 l20 -39 35 14 c46 20 45 20 45 -19 0 -35 -15 -57
-51 -76 -27 -15 -74 9 -129 65 l-44 45 -33 -26 -33 -25 0 55 c0 62 15 103 39
109 46 13 70 6 100 -28z m757 -156 c358 -50 652 -289 772 -629 43 -122 56
-217 49 -367 -5 -142 -32 -254 -88 -366 -34 -69 -110 -187 -121 -187 -3 0 -12
17 -18 38 -7 20 -28 78 -47 129 l-35 91 -82 39 c-44 22 -107 50 -139 63 -45
19 -67 35 -93 71 -19 26 -50 61 -69 78 -19 17 -35 33 -35 35 0 3 14 27 30 53
17 26 37 71 45 98 10 33 22 54 37 60 42 19 62 71 64 168 2 48 5 101 9 116 9
42 -13 160 -40 217 -32 65 -109 138 -183 172 -46 21 -72 26 -137 27 -99 0
-159 -20 -258 -84 -135 -89 -173 -161 -164 -315 4 -70 1 -95 -10 -113 -30 -45
7 -162 58 -189 17 -8 31 -26 35 -42 3 -15 24 -60 45 -100 l39 -74 -48 -43
c-27 -24 -59 -60 -73 -79 -16 -25 -40 -42 -74 -55 -27 -10 -89 -37 -137 -59
-98 -46 -96 -43 -153 -204 -21 -60 -41 -108 -45 -108 -14 0 -92 122 -131 205
-69 147 -83 215 -83 410 0 157 2 177 27 258 62 201 168 360 322 483 208 167
470 240 731 203z"/>
<path d="M2659 3093 l-37 -4 -3 -85 c-4 -76 -7 -88 -28 -105 -53 -43 -104 -17
-158 82 l-26 48 -36 -15 c-20 -8 -40 -19 -45 -24 -4 -4 -1 -38 9 -75 20 -81
14 -110 -27 -135 -40 -24 -67 -14 -133 50 l-50 50 -38 -27 c-20 -14 -37 -29
-37 -33 0 -3 16 -35 35 -70 41 -78 43 -103 9 -137 -32 -32 -76 -27 -147 17
-26 16 -52 30 -56 30 -4 0 -20 -17 -34 -37 l-26 -36 54 -59 c63 -68 71 -103
30 -143 -28 -29 -49 -30 -125 -10 -30 8 -60 15 -65 15 -6 0 -18 -20 -27 -45
l-17 -45 42 -21 c96 -48 129 -109 88 -160 -17 -21 -29 -24 -105 -28 -74 -3
-86 -5 -86 -21 0 -10 -3 -31 -6 -47 -6 -29 -5 -30 60 -47 90 -25 116 -47 116
-97 0 -34 -5 -42 -32 -59 -18 -11 -57 -25 -86 -31 -29 -7 -55 -16 -57 -20 -3
-4 -2 -28 1 -53 l7 -46 73 0 c106 0 133 -17 134 -86 0 -25 -39 -62 -102 -99
l-48 -27 16 -36 c8 -20 18 -40 22 -44 4 -4 32 -1 62 7 30 8 69 15 87 15 39 0
73 -33 73 -70 0 -30 -44 -96 -85 -128 l-27 -22 27 -37 c16 -21 29 -39 31 -41
1 -2 31 13 66 33 76 41 116 45 146 12 30 -32 28 -55 -14 -134 l-35 -68 36 -32
37 -32 48 48 c64 64 98 78 139 57 41 -21 47 -53 27 -134 -9 -37 -16 -70 -16
-74 0 -7 65 -38 80 -38 4 0 24 27 44 60 48 78 70 93 118 80 44 -13 58 -45 58
-135 0 -69 5 -75 65 -75 32 0 35 3 45 43 16 64 42 117 61 128 28 15 65 11 83
-10 20 -22 56 -113 56 -141 0 -17 7 -20 39 -20 68 0 71 3 71 89 0 86 13 115
57 124 43 8 75 -16 113 -82 19 -33 40 -61 47 -61 16 0 83 32 83 39 0 3 -7 28
-15 55 -25 81 -20 121 15 146 41 29 70 21 135 -40 28 -28 56 -50 60 -50 4 0
23 12 42 26 l33 25 -35 63 c-41 74 -44 114 -12 144 33 31 70 27 143 -13 l63
-35 25 33 c14 19 26 38 26 42 0 4 -22 32 -50 60 -61 65 -69 94 -40 135 25 35
65 40 146 15 27 -8 52 -15 55 -15 7 0 39 67 39 83 0 7 -27 27 -60 46 -74 43
-94 69 -82 114 11 43 42 57 128 57 80 0 84 3 84 71 0 31 -4 39 -18 39 -32 0
-116 32 -139 53 -24 22 -29 56 -14 86 11 19 64 45 129 61 39 10 42 13 42 45 0
60 -6 65 -75 65 -90 0 -122 14 -135 58 -13 48 2 70 80 118 33 20 60 40 60 44
0 15 -31 80 -38 80 -4 0 -37 -7 -74 -16 -81 -20 -113 -14 -133 27 -21 40 -13
62 51 130 l54 56 -33 37 -32 37 -68 -35 c-80 -42 -106 -44 -135 -13 -31 33
-27 71 13 143 l34 63 -36 30 -37 30 -48 -45 c-27 -25 -63 -51 -81 -59 -28 -12
-35 -11 -60 3 -36 22 -43 53 -27 127 18 88 19 86 -27 106 l-42 18 -27 -47
c-36 -64 -73 -102 -98 -102 -68 1 -86 28 -86 131 0 76 -1 77 -64 81 l-39 3
-17 -62 c-25 -91 -42 -113 -90 -113 -49 0 -71 27 -95 115 -10 36 -23 64 -29
63 -6 -1 -27 -3 -47 -5z m322 -288 c311 -54 563 -241 699 -520 27 -55 59 -136
70 -180 27 -101 37 -284 21 -385 -25 -161 -113 -358 -211 -471 l-36 -43 -39
105 c-21 57 -51 134 -67 170 l-30 67 -91 40 c-51 22 -108 45 -128 51 -19 6
-45 25 -58 41 l-22 30 28 0 c82 0 171 59 194 127 8 25 10 84 6 187 -6 176 -26
267 -87 395 -51 105 -152 212 -250 261 -120 61 -266 51 -331 -24 -12 -14 -33
-26 -45 -26 -59 0 -175 -137 -226 -267 -54 -140 -84 -395 -58 -503 22 -91 103
-150 204 -150 l37 0 -20 -29 c-14 -19 -43 -37 -93 -55 -148 -55 -181 -76 -207
-131 -19 -40 -83 -205 -107 -274 -12 -37 -142 143 -193 267 -104 254 -99 535
13 777 130 281 394 485 699 540 98 18 228 18 328 0z"/>
<path d="M7330 3091 l-35 -6 -2 -70 c-3 -94 -16 -123 -59 -131 -19 -3 -40 -4
-49 -1 -15 6 -58 63 -87 116 l-17 30 -38 -15 c-53 -22 -54 -24 -38 -78 23 -77
20 -130 -10 -150 -13 -9 -35 -16 -48 -16 -28 0 -99 49 -123 85 -9 14 -19 25
-23 25 -3 0 -23 -14 -43 -30 l-37 -31 34 -63 c41 -74 44 -114 12 -144 -32 -30
-55 -28 -134 14 l-68 35 -27 -32 c-16 -18 -28 -37 -28 -42 0 -5 20 -28 43 -52
60 -60 73 -94 53 -134 -21 -41 -53 -47 -134 -27 -37 9 -70 16 -74 16 -7 0 -38
-65 -38 -80 0 -4 27 -24 60 -44 79 -49 96 -74 80 -120 -14 -42 -47 -56 -135
-56 -69 0 -75 -5 -75 -65 0 -32 3 -35 43 -45 64 -16 117 -42 128 -61 15 -30
10 -64 -13 -86 -24 -21 -108 -53 -140 -53 -14 0 -18 -8 -18 -39 0 -68 4 -71
84 -71 86 0 117 -14 128 -57 11 -44 -7 -70 -79 -113 -32 -18 -60 -35 -62 -37
-6 -4 30 -93 37 -93 4 0 29 7 56 15 81 25 121 20 146 -15 29 -41 21 -70 -40
-135 -28 -28 -50 -56 -50 -61 0 -5 13 -24 28 -43 l28 -33 52 31 c71 44 116 50
147 21 35 -32 32 -71 -10 -145 l-35 -63 34 -26 c19 -14 38 -26 41 -26 4 0 32
23 62 50 67 62 92 69 133 40 35 -25 39 -61 15 -150 -8 -30 -13 -55 -12 -56 12
-9 69 -34 79 -34 8 0 22 17 33 37 49 91 89 120 139 99 40 -17 47 -35 48 -124
0 -39 5 -70 12 -74 6 -4 30 -8 52 -8 40 0 42 1 49 37 11 62 42 122 69 134 44
20 75 4 102 -54 13 -29 24 -61 24 -72 1 -36 15 -46 61 -43 l44 3 6 83 c7 91
20 114 70 126 36 8 69 -20 109 -89 17 -30 36 -55 41 -55 5 0 26 7 47 15 l38
16 -18 72 c-23 89 -17 119 26 142 30 17 34 17 65 0 19 -9 52 -36 75 -60 l42
-42 41 29 41 30 -34 57 c-46 77 -51 109 -24 144 30 37 69 35 148 -8 70 -39 64
-41 108 21 14 21 12 25 -36 74 -57 58 -68 87 -50 130 19 46 66 49 195 14 17
-4 23 3 38 43 10 26 14 49 10 50 -4 2 -32 17 -60 33 -65 37 -87 68 -78 110 10
46 38 60 126 60 l77 0 6 45 c4 25 5 49 2 53 -3 5 -29 14 -58 21 -29 6 -68 20
-86 31 -27 17 -32 26 -32 58 0 51 22 70 106 93 37 10 69 20 71 23 3 2 1 25 -2
50 l-7 46 -64 0 c-91 0 -131 19 -140 65 -8 44 14 72 94 117 40 23 52 35 47 47
-4 9 -12 28 -17 44 -12 32 -7 31 -98 11 -81 -19 -112 -11 -131 30 -17 37 -3
73 52 132 l51 53 -27 35 c-15 20 -31 36 -36 36 -4 0 -30 -13 -55 -30 -26 -16
-63 -33 -81 -36 -29 -5 -39 -2 -64 22 -16 15 -29 36 -29 45 0 10 16 48 35 85
19 37 35 70 35 74 0 4 -16 20 -36 35 l-35 27 -59 -56 c-60 -58 -89 -68 -131
-45 -34 18 -41 53 -23 129 8 39 16 73 16 77 -1 4 -20 14 -43 24 l-43 16 -41
-66 c-43 -70 -72 -89 -119 -77 -37 9 -56 58 -56 141 0 57 -2 65 -19 65 -10 0
-32 3 -49 6 -30 6 -30 5 -43 -51 -19 -86 -45 -119 -96 -123 -36 -3 -44 1 -59
23 -9 15 -25 54 -34 88 -18 66 -22 69 -80 58z m405 -301 c103 -27 251 -97 336
-161 369 -273 489 -779 283 -1195 -39 -78 -138 -223 -154 -224 -3 0 -17 35
-32 78 -15 42 -43 117 -63 165 l-37 88 -67 33 c-36 18 -94 44 -129 56 -40 15
-70 33 -82 51 -11 15 -20 29 -20 31 0 1 19 4 43 6 67 4 123 37 155 90 26 45
27 52 26 182 -3 320 -102 539 -302 668 -34 22 -85 46 -113 52 -98 24 -217 -5
-257 -61 -7 -10 -23 -19 -36 -19 -37 0 -87 -40 -144 -115 -89 -119 -138 -278
-149 -491 -9 -169 16 -243 98 -285 23 -11 62 -20 94 -21 l55 -2 -19 -30 c-11
-16 -36 -36 -58 -44 -21 -8 -79 -32 -130 -54 l-92 -40 -36 -86 c-20 -48 -50
-126 -67 -175 -35 -100 -31 -100 -107 2 -63 85 -135 233 -162 336 -31 115 -32
356 -1 467 48 177 123 310 240 431 147 152 316 243 520 282 105 20 301 13 407
-15z"/>
<path d="M9698 2923 l-38 -4 0 -57 c0 -111 -24 -152 -88 -152 -34 0 -60 26
-99 97 l-28 51 -45 -18 c-27 -11 -44 -24 -42 -32 36 -138 33 -177 -18 -203
-27 -14 -33 -14 -61 1 -17 9 -51 35 -74 59 l-42 44 -41 -30 -40 -29 33 -56
c50 -82 53 -109 19 -145 -36 -38 -58 -37 -140 6 -37 19 -68 35 -69 35 -2 0
-15 -16 -30 -35 l-26 -36 50 -55 c56 -61 69 -93 52 -130 -22 -49 -49 -51 -197
-17 -17 4 -24 -2 -32 -24 -5 -15 -13 -35 -17 -44 -5 -12 7 -24 47 -47 29 -16
64 -42 77 -56 22 -23 23 -31 15 -63 -12 -49 -41 -63 -131 -63 l-72 0 -7 -46
c-7 -52 -2 -59 56 -69 19 -3 53 -16 75 -28 32 -18 41 -29 43 -54 2 -18 -2 -41
-7 -52 -11 -20 -106 -61 -141 -61 -27 0 -32 -14 -24 -65 l6 -45 72 0 c83 0
116 -14 129 -53 14 -44 -5 -73 -78 -119 -49 -30 -64 -45 -59 -57 3 -9 11 -28
16 -44 12 -32 8 -31 78 -12 83 22 115 20 139 -11 12 -15 21 -37 21 -49 0 -25
-56 -104 -91 -127 l-24 -15 29 -42 c16 -22 30 -41 32 -41 2 0 32 16 67 35 78
43 118 45 147 8 26 -34 21 -67 -25 -145 l-34 -57 39 -29 39 -29 55 53 c65 60
95 72 132 47 44 -29 48 -71 15 -180 -9 -31 -9 -32 37 -50 44 -16 46 -16 56 1
70 117 93 138 139 129 42 -8 60 -45 67 -132 l5 -76 46 -3 45 -3 17 61 c26 93
41 110 93 110 52 0 68 -19 94 -113 17 -62 17 -62 51 -59 64 6 64 6 65 86 1 85
17 120 61 129 39 8 68 -14 111 -84 21 -32 43 -59 50 -59 10 0 67 25 79 34 1 1
-4 24 -12 51 -8 26 -15 67 -15 91 0 36 5 46 29 64 40 28 69 19 135 -41 30 -27
57 -49 61 -49 3 0 22 12 40 26 l34 26 -30 53 c-49 87 -52 110 -22 146 23 27
31 31 65 26 21 -3 61 -19 90 -37 l52 -32 28 33 c15 19 28 38 28 43 0 5 -25 35
-55 67 -61 64 -68 90 -34 133 24 31 57 33 142 11 32 -8 60 -15 62 -15 9 0 38
94 30 97 -35 12 -117 67 -130 87 -21 32 -8 86 26 103 13 7 56 13 96 13 l72 0
6 34 c11 58 5 68 -60 86 -100 27 -126 55 -111 115 7 28 58 56 134 75 37 9 42
14 42 38 0 67 -6 72 -82 72 -86 0 -123 17 -132 61 -8 44 10 69 84 115 33 20
60 38 60 40 0 2 -7 22 -16 45 -14 33 -21 40 -38 36 -149 -35 -168 -34 -195 16
-20 37 -8 69 49 127 28 28 50 54 50 58 0 4 -13 22 -28 40 l-28 34 -65 -36
c-81 -44 -109 -46 -143 -6 -24 29 -24 33 -12 73 7 23 24 61 39 84 l26 42 -39
31 -39 31 -32 -36 c-18 -20 -51 -47 -75 -61 l-44 -26 -32 19 c-27 15 -34 26
-36 58 -3 35 7 96 24 138 4 12 -5 20 -31 31 -54 23 -62 20 -84 -23 -36 -70
-69 -101 -107 -101 -48 0 -71 27 -79 94 -4 31 -5 67 -2 81 5 31 4 32 -51 36
l-44 4 -23 -73 c-30 -93 -37 -102 -92 -102 -44 0 -44 1 -68 53 -13 28 -27 69
-30 90 -4 20 -12 36 -19 35 -6 -1 -28 -3 -48 -5z m299 -284 c108 -14 257 -67
356 -125 111 -66 265 -220 331 -331 164 -277 178 -616 37 -908 -54 -111 -127
-217 -135 -194 -85 240 -91 253 -124 266 -15 6 -76 33 -135 60 -96 44 -113 56
-152 105 -23 30 -55 64 -69 76 l-27 20 30 49 c16 26 37 71 46 99 11 33 25 56
40 64 53 28 62 73 66 310 2 175 -82 301 -239 361 -79 29 -193 24 -275 -14
-134 -61 -223 -148 -248 -241 -7 -23 -9 -75 -6 -121 4 -59 2 -86 -9 -108 -29
-54 9 -167 63 -192 14 -6 26 -25 34 -53 6 -23 27 -68 46 -99 l34 -57 -50 -43
c-27 -24 -59 -59 -71 -78 -15 -24 -36 -40 -73 -54 -29 -10 -91 -37 -138 -59
-96 -44 -94 -42 -155 -217 -15 -44 -30 -83 -33 -87 -4 -4 -24 17 -46 47 -215
294 -252 667 -96 990 26 55 69 128 94 161 212 279 554 421 904 373z"/>
</g>
</svg>
