<?xml version="1.0" encoding="UTF-8" standalone="no"?>
<svg
   xmlns:dc="http://purl.org/dc/elements/1.1/"
   xmlns:cc="http://creativecommons.org/ns#"
   xmlns:rdf="http://www.w3.org/1999/02/22-rdf-syntax-ns#"
   xmlns:svg="http://www.w3.org/2000/svg"
   xmlns="http://www.w3.org/2000/svg"
   xmlns:sodipodi="http://sodipodi.sourceforge.net/DTD/sodipodi-0.dtd"
   xmlns:inkscape="http://www.inkscape.org/namespaces/inkscape"
   viewBox="0 0 64 64"
   version="1.1"
   id="svg13"
   sodipodi:docname="CentroGestor.svg"
   inkscape:version="0.92.3 (2405546, 2018-03-11)">
  <metadata
     id="metadata17">
    <rdf:RDF>
      <cc:Work
         rdf:about="">
        <dc:format>image/svg+xml</dc:format>
        <dc:type
           rdf:resource="http://purl.org/dc/dcmitype/StillImage" />
      </cc:Work>
    </rdf:RDF>
  </metadata>
  <sodipodi:namedview
     pagecolor="#ffffff"
     bordercolor="#666666"
     borderopacity="1"
     objecttolerance="10"
     gridtolerance="10"
     guidetolerance="10"
     inkscape:pageopacity="0"
     inkscape:pageshadow="2"
     inkscape:window-width="1920"
     inkscape:window-height="1017"
     id="namedview15"
     showgrid="false"
     inkscape:zoom="3.6875"
     inkscape:cx="32"
     inkscape:cy="32"
     inkscape:window-x="-8"
     inkscape:window-y="-8"
     inkscape:window-maximized="1"
     inkscape:current-layer="svg13" />
  <defs
     id="defs4">
    <style
       id="style2">.cls-1,.cls-2{fill:none;stroke-linecap:round;stroke-linejoin:round;}.cls-1{stroke:blue;}.cls-2{stroke:#37bde6;}</style>
  </defs>
  <g
     id="D_Gestión_Comunidad"
     transform="matrix(1.3827949,0,0,1.543884,-12.316419,-15.20264)"
     style="stroke-width:0.68440592">
    <polyline
       class="cls-1"
       points="24.06 45.69 32.31 37.45 40.56 45.69"
       id="polyline6"
       style="fill:none;stroke:#0000ff;stroke-width:0.57059258;stroke-linecap:round;stroke-linejoin:round" />
    <line
       class="cls-2"
       x1="32.310001"
       y1="35.139999"
       x2="32.310001"
       y2="27.07"
       id="line8"
       style="fill:none;stroke:#37bde6;stroke-width:0.57059258;stroke-linecap:round;stroke-linejoin:round" />
    <path
       class="cls-1"
       d="m 34.86,13.05 a 2.55,2.55 0 1 1 -2.55,-2.55 2.55,2.55 0 0 1 2.55,2.55 z m 3.81,10.3 H 26 v -3.42 a 2.06,2.06 0 0 1 2,-2.06 h 8.6 a 2.07,2.07 0 0 1 2.07,2.06 z M 51,40.9 A 2.55,2.55 0 1 1 48.45,38.35 2.55,2.55 0 0 1 51,40.9 Z m 3.81,10.3 H 42.13 v -3.42 a 2.07,2.07 0 0 1 2.07,-2.06 h 8.59 a 2.06,2.06 0 0 1 2.06,2.06 V 51.2 Z M 18.41,40.9 a 2.55,2.55 0 1 1 -2.55,-2.55 2.55,2.55 0 0 1 2.55,2.55 z M 9.5,51.2 v -3.42 a 2.06,2.06 0 0 1 2.06,-2.06 h 8.6 a 2.06,2.06 0 0 1 2.06,2.06 V 51.2 H 16.9"
       id="path10"
       inkscape:connector-curvature="0"
       style="fill:none;stroke:#0000ff;stroke-width:0.57059258;stroke-linecap:round;stroke-linejoin:round" />
  </g>
</svg>
