<?xml version="1.0" standalone="no"?>
<!DOCTYPE svg PUBLIC "-//W3C//DTD SVG 20010904//EN"
 "http://www.w3.org/TR/2001/REC-SVG-20010904/DTD/svg10.dtd">
<svg version="1.0" xmlns="http://www.w3.org/2000/svg"
 width="714.000000pt" height="1280.000000pt" viewBox="0 0 714.000000 1280.000000"
 preserveAspectRatio="xMidYMid meet">
<metadata>
Created by potrace 1.15, written by Peter Selinger 2001-2017
</metadata>
<g transform="translate(0.000000,1280.000000) scale(0.100000,-0.100000)"
fill="#000000" stroke="none">
<path d="M5235 12779 c-120 -34 -248 -104 -320 -174 -81 -80 -124 -169 -160
-330 -14 -66 -35 -154 -46 -197 -21 -85 -24 -173 -8 -233 8 -29 8 -68 0 -145
-18 -165 -17 -616 1 -730 20 -128 12 -287 -17 -326 -11 -14 -70 -54 -130 -89
-117 -66 -145 -97 -145 -161 0 -21 -10 -40 -36 -65 -43 -41 -64 -79 -64 -115
0 -14 -16 -53 -35 -85 -56 -91 -105 -204 -127 -292 -11 -45 -33 -108 -49 -139
-20 -40 -29 -72 -29 -107 0 -39 -8 -62 -39 -114 -62 -102 -128 -237 -140 -289
-6 -26 -29 -88 -50 -137 -43 -97 -71 -211 -71 -289 0 -70 27 -218 49 -268 10
-22 36 -54 57 -70 22 -15 56 -44 78 -62 61 -54 270 -136 388 -152 33 -5 71
-16 85 -25 22 -15 24 -22 20 -53 -4 -19 -27 -66 -52 -104 -36 -55 -165 -331
-165 -354 0 -4 -18 -43 -41 -87 -36 -70 -40 -86 -36 -131 8 -89 -67 -318 -149
-454 -23 -38 -28 -61 -37 -190 -20 -262 -15 -361 31 -590 40 -199 146 -599
222 -837 21 -66 93 -277 159 -468 122 -352 185 -563 221 -739 16 -76 20 -137
20 -295 0 -179 2 -202 21 -243 12 -25 37 -85 56 -135 19 -49 45 -109 59 -133
21 -36 27 -66 40 -200 18 -189 55 -422 88 -552 33 -129 38 -166 41 -289 2 -99
4 -112 40 -191 l38 -84 -7 -126 c-5 -102 -3 -150 13 -251 11 -68 23 -173 25
-232 5 -101 8 -113 40 -165 28 -47 36 -74 46 -158 15 -121 11 -173 -29 -323
-45 -171 -77 -228 -195 -346 -56 -55 -130 -125 -166 -156 -65 -56 -65 -56 -64
-106 2 -62 25 -108 64 -128 79 -41 348 -44 490 -5 41 11 79 20 83 20 5 0 27
-19 49 -41 l41 -41 126 6 c379 20 428 31 492 103 37 43 48 70 59 147 9 61 31
96 61 96 17 0 18 10 16 128 -2 141 0 152 70 307 69 151 83 199 83 279 0 52 -7
87 -25 131 -14 33 -35 96 -47 140 -12 44 -29 99 -40 123 -22 53 -23 81 -2 169
12 50 15 96 11 178 -6 121 -17 162 -95 355 -60 149 -97 267 -106 335 -4 28
-39 176 -77 330 -61 241 -76 289 -110 346 -21 36 -39 74 -39 85 0 42 -23 96
-65 153 -25 34 -57 91 -72 128 -16 41 -46 88 -76 122 l-50 54 6 146 c12 295
90 548 324 1056 222 481 290 648 374 925 55 180 75 268 119 525 54 315 80 426
111 470 32 47 45 92 54 195 6 64 10 78 33 97 l26 22 -11 103 c-7 56 -10 104
-8 106 2 2 137 35 301 73 164 39 300 71 301 73 1 1 -7 27 -18 57 -12 30 -52
153 -89 274 -38 121 -126 387 -197 590 l-128 370 0 105 c0 130 14 179 95 323
67 120 107 226 151 397 42 163 44 197 19 335 -11 66 -25 201 -30 300 -7 137
-15 202 -33 270 -22 81 -41 158 -68 267 -14 53 -52 94 -107 112 -86 29 -107
49 -176 165 -97 163 -153 280 -170 355 -9 36 -38 127 -66 203 -27 76 -65 210
-85 298 -93 424 -204 637 -398 763 -95 62 -165 84 -267 81 -57 -2 -103 3 -139
14 -69 21 -108 21 -196 -4z"/>
<path d="M1448 12775 c-36 -7 -77 -19 -90 -26 -40 -21 -177 -128 -193 -152
-60 -83 -116 -188 -132 -245 -19 -71 -25 -237 -11 -339 6 -49 5 -53 -13 -53
-29 0 -69 -44 -69 -77 0 -45 28 -143 57 -198 35 -69 91 -135 113 -135 10 0 30
-10 44 -22 23 -21 26 -32 32 -129 5 -72 3 -112 -5 -127 -6 -12 -37 -38 -69
-58 -31 -20 -88 -67 -127 -105 -77 -75 -106 -89 -285 -134 -132 -33 -195 -43
-350 -55 -256 -20 -286 -61 -330 -454 -22 -190 -24 -280 -10 -406 5 -47 16
-184 25 -305 15 -194 19 -226 41 -267 13 -26 32 -96 44 -158 31 -172 57 -275
90 -350 45 -103 61 -204 54 -335 -4 -84 -1 -141 14 -244 l21 -134 -21 -51
c-47 -118 -78 -551 -98 -1356 -6 -239 -8 -465 -5 -502 l7 -68 50 -6 c60 -8 68
-23 68 -124 0 -38 16 -162 35 -275 33 -198 55 -291 145 -615 46 -164 52 -197
80 -440 11 -96 27 -211 35 -255 21 -106 20 -176 -4 -369 -68 -547 -66 -510
-64 -1256 3 -788 0 -754 94 -1034 50 -148 60 -187 56 -225 -3 -25 -10 -100
-16 -166 -5 -66 -15 -149 -20 -185 -19 -113 -14 -157 25 -245 67 -153 93 -222
109 -301 14 -68 15 -90 4 -159 -7 -44 -20 -94 -30 -111 -14 -22 -19 -56 -21
-133 -3 -102 -3 -103 25 -127 42 -36 64 -32 77 17 11 38 12 40 25 23 8 -11 26
-54 40 -96 35 -102 48 -117 120 -134 132 -30 336 -64 391 -64 96 0 511 91 535
117 4 5 10 17 13 28 6 21 5 22 -180 248 -58 70 -224 335 -224 357 0 23 64 7
161 -39 244 -117 403 -126 885 -51 112 17 224 52 224 70 0 4 -7 13 -16 21 -9
7 -22 29 -30 50 -19 45 -31 51 -269 121 -378 111 -574 257 -639 477 -25 86
-22 98 40 163 l57 59 -6 82 c-4 45 -9 119 -13 164 -6 77 -5 85 25 148 28 62
36 101 86 464 102 743 111 818 160 1296 54 526 84 741 160 1155 49 267 129
778 144 920 6 52 13 169 17 260 3 90 10 175 15 187 8 21 14 23 90 23 62 0 87
-4 100 -16 17 -16 19 -15 29 10 14 39 -6 408 -70 1276 -25 335 -26 343 -61
533 -16 88 -29 173 -29 189 l0 31 103 -6 c430 -26 485 -28 526 -17 46 12 105
59 126 101 21 40 42 185 56 377 14 208 10 227 -71 319 -48 53 -80 108 -159
267 -104 212 -108 222 -177 559 -11 56 -24 89 -48 120 -20 27 -35 59 -39 86
-5 43 -42 106 -96 164 -15 17 -159 96 -354 194 -181 92 -340 175 -354 186 -42
33 -46 61 -22 136 26 81 21 123 -21 175 -55 70 -54 76 38 316 41 107 70 167
94 195 32 36 36 48 43 125 5 47 8 119 8 160 -1 105 -21 507 -28 555 -8 52 -48
120 -83 141 -16 9 -39 36 -52 61 -38 72 -108 127 -207 163 -167 60 -300 74
-445 45z"/>
</g>
</svg>
