<?xml version="1.0" encoding="utf-8"?>
<!-- Svg Vector Icons : http://www.onlinewebfonts.com/icon -->
<!DOCTYPE svg PUBLIC "-//W3C//DTD SVG 1.1//EN" "http://www.w3.org/Graphics/SVG/1.1/DTD/svg11.dtd">
<svg version="1.1" xmlns="http://www.w3.org/2000/svg" xmlns:xlink="http://www.w3.org/1999/xlink" x="0px" y="0px" viewBox="0 0 1000 1000" enable-background="new 0 0 1000 1000" xml:space="preserve">
<metadata> Svg Vector Icons : http://www.onlinewebfonts.com/icon </metadata>
<g><path d="M772.7,412.3v-0.5c-0.7,0-1.3,0.2-2,0.2c-0.2,0-0.4,0-0.5,0c-2.5-0.4-4.9-0.7-7.4-1.1c-12.7-3.3-22-14-22-26.9c0-8.9,4.5-16.8,11.5-22h-0.4c43.3-37,68.2-98.6,68.2-158.3C820,109.8,758.5,45,660.7,45c-58.2,0-103.6,23-130.8,61.3c64.5,26.3,102.5,86.2,102.5,163.8c0,67.2-28.5,136.4-78,178.1h0.5c-7.9,5.8-13.1,14.6-13.1,24.7c0,14.5,10.7,26.6,25.1,30.3c2.8,0.4,5.7,0.8,8.5,1.2c0.2,0,0.4,0.1,0.6,0.1c0.8,0,1.5-0.2,2.3-0.2v0.6c141.9,21.9,248.4,82.2,248.4,173.9c0,29.6-11.1,60.3-30.8,89.7C908.2,728.4,990,643.2,990,566.9C990,485.3,896.8,431.8,772.7,412.3z M508.3,528.2v-0.6c-0.8,0-1.5,0.2-2.3,0.2c-0.2,0-0.4-0.1-0.6-0.1c-2.8-0.4-5.6-0.8-8.5-1.2c-14.5-3.7-25.1-15.8-25.1-30.3c0-10.1,5.2-18.9,13.1-24.7h-0.5c49.4-41.6,78-110.9,78-178.1c0-105.6-70.4-178.5-182.1-178.5c-111.8,0-182.1,72.9-182.1,178.5c0,67.2,28.5,136.4,78,178.1h-0.7c8.6,5.7,14.3,15,14.3,25.6c0,14.1-10.1,25.9-23.9,29.9c-3.6,0.5-7.2,1-10.7,1.6c-1,0-2-0.2-2.9-0.3v0.8C113.5,551.9,10,611.7,10,702.1C10,819.3,183.8,955,383.3,955c199.5,0,373.3-135.7,373.3-252.9C756.7,610.4,650.2,550.1,508.3,528.2z"/></g>
</svg>