<?xml version="1.0" encoding="UTF-8"?>
<!DOCTYPE svg PUBLIC "-//W3C//DTD SVG 1.1//EN" "http://www.w3.org/Graphics/SVG/1.1/DTD/svg11.dtd">
<svg xmlns="http://www.w3.org/2000/svg" version="1.1" width="290px" height="263px" style="shape-rendering:geometricPrecision; text-rendering:geometricPrecision; image-rendering:optimizeQuality; fill-rule:evenodd; clip-rule:evenodd" xmlns:xlink="http://www.w3.org/1999/xlink">
<g><path style="opacity:1" fill="#ece7e7" d="M -0.5,-0.5 C 4.5,-0.5 9.5,-0.5 14.5,-0.5C 8.11784,3.54847 3.11784,8.88181 -0.5,15.5C -0.5,10.1667 -0.5,4.83333 -0.5,-0.5 Z"/></g>
<g><path style="opacity:1" fill="#800101" d="M 14.5,-0.5 C 100.5,-0.5 186.5,-0.5 272.5,-0.5C 275.835,2.6005 279.335,5.6005 283,8.5C 284.861,10.8877 286.194,13.5544 287,16.5C 287.667,91.8333 287.667,167.167 287,242.5C 284.449,252.549 278.283,259.216 268.5,262.5C 184.5,262.5 100.5,262.5 16.5,262.5C 9.16667,258.5 3.5,252.833 -0.5,245.5C -0.5,168.833 -0.5,92.1667 -0.5,15.5C 3.11784,8.88181 8.11784,3.54847 14.5,-0.5 Z"/></g>
<g><path style="opacity:1" fill="#9c3c3c" d="M 117.5,6.5 C 167.168,6.33334 216.834,6.50001 266.5,7C 268.91,7.5995 270.91,8.76617 272.5,10.5C 270.866,11.1611 269.033,11.4944 267,11.5C 216.987,10.4459 167.154,8.77927 117.5,6.5 Z"/></g>
<g><path style="opacity:1" fill="#943030" d="M 117.5,6.5 C 167.154,8.77927 216.987,10.4459 267,11.5C 269.033,11.4944 270.866,11.1611 272.5,10.5C 275.323,11.9923 276.99,14.3257 277.5,17.5C 275.372,18.6291 273.039,18.7958 270.5,18C 268.167,17 265.833,16 263.5,15C 246.17,14.5001 228.837,14.3334 211.5,14.5C 146.197,11.5505 80.8636,9.88381 15.5,9.5C 16.6828,8.49551 18.0161,7.66218 19.5,7C 52.165,6.50002 84.8316,6.33335 117.5,6.5 Z"/></g>
<g><path style="opacity:1" fill="#8d2626" d="M 15.5,9.5 C 80.8636,9.88381 146.197,11.5505 211.5,14.5C 183.167,14.5 154.833,14.5 126.5,14.5C 91.4984,14.3333 56.4984,14.5 21.5,15C 17.9743,16.3368 14.3076,16.8368 10.5,16.5C 10.969,13.3567 12.6356,11.0233 15.5,9.5 Z"/></g>
<g><path style="opacity:1" fill="#840909" d="M 134.5,15.5 C 153.17,15.3334 171.836,15.5001 190.5,16C 184.245,22.0962 177.579,27.5962 170.5,32.5C 169.614,33.325 169.281,34.325 169.5,35.5C 167.14,37.8532 164.473,39.8532 161.5,41.5C 155.038,45.0562 149.371,49.5562 144.5,55C 123.806,71.5004 103.139,88.3337 82.5,105.5C 68.6726,106.167 55.006,106.833 41.5,107.5C 40.5039,122.324 40.1706,137.324 40.5,152.5C 39.7321,151.737 39.2321,150.737 39,149.5C 37.9609,150.71 36.7942,151.71 35.5,152.5C 27.6667,155.169 20,158.336 12.5,162C 10.6797,162.979 9.51298,164.479 9,166.5C 8.50137,162.848 8.3347,159.182 8.5,155.5C 9.06258,143.172 9.72925,130.838 10.5,118.5C 38.1081,95.7048 65.7748,73.2048 93.5,51C 107.322,39.3449 120.988,27.5116 134.5,15.5 Z"/></g>
<g><path style="opacity:1" fill="#8a1716" d="M 126.5,14.5 C 154.833,14.5 183.167,14.5 211.5,14.5C 228.837,14.3334 246.17,14.5001 263.5,15C 265.833,16 268.167,17 270.5,18C 273.039,18.7958 275.372,18.6291 277.5,17.5C 277.993,39.2317 273.827,60.2317 265,80.5C 262.552,85.7521 259.386,90.4188 255.5,94.5C 255.81,91.2869 255.477,88.2869 254.5,85.5C 252.69,64.7076 243.69,47.8743 227.5,35C 208.014,24.9132 188.681,25.0798 169.5,35.5C 169.281,34.325 169.614,33.325 170.5,32.5C 177.579,27.5962 184.245,22.0962 190.5,16C 171.836,15.5001 153.17,15.3334 134.5,15.5C 131.615,15.8064 128.948,15.4731 126.5,14.5 Z"/></g>
<g><path style="opacity:1" fill="#fdfafa" d="M 254.5,85.5 C 254.5,91.1667 254.5,96.8333 254.5,102.5C 249.5,102.5 244.5,102.5 239.5,102.5C 239.6,91.1742 237.267,80.5075 232.5,70.5C 224.669,51.2443 210.335,42.7443 189.5,45C 175.72,50.7147 167.22,60.8814 164,75.5C 162.58,81.765 161.746,88.0983 161.5,94.5C 160.527,96.9479 160.194,99.6146 160.5,102.5C 154.5,102.5 148.5,102.5 142.5,102.5C 142.5,99.1667 142.5,95.8333 142.5,92.5C 143.139,73.2356 149.472,56.2356 161.5,41.5C 164.473,39.8532 167.14,37.8532 169.5,35.5C 188.681,25.0798 208.014,24.9132 227.5,35C 243.69,47.8743 252.69,64.7076 254.5,85.5 Z"/></g>
<g><path style="opacity:1" fill="#f3f2f2" d="M 272.5,-0.5 C 278.167,-0.5 283.833,-0.5 289.5,-0.5C 289.5,87.1667 289.5,174.833 289.5,262.5C 282.5,262.5 275.5,262.5 268.5,262.5C 278.283,259.216 284.449,252.549 287,242.5C 287.667,167.167 287.667,91.8333 287,16.5C 286.194,13.5544 284.861,10.8877 283,8.5C 279.335,5.6005 275.835,2.6005 272.5,-0.5 Z"/></g>
<g><path style="opacity:1" fill="#870f0f" d="M 161.5,41.5 C 149.472,56.2356 143.139,73.2356 142.5,92.5C 141.518,95.9619 141.185,99.6286 141.5,103.5C 140.005,103.415 139.005,104.081 138.5,105.5C 131.011,106.167 123.678,106.833 116.5,107.5C 91.5,107.5 66.5,107.5 41.5,107.5C 55.006,106.833 68.6726,106.167 82.5,105.5C 103.139,88.3337 123.806,71.5004 144.5,55C 149.371,49.5562 155.038,45.0562 161.5,41.5 Z"/></g>
<g><path style="opacity:1" fill="#8a1616" d="M 232.5,70.5 C 232.762,71.9778 232.429,73.3112 231.5,74.5C 212.086,90.5213 192.752,106.521 173.5,122.5C 173.5,117.5 173.5,112.5 173.5,107.5C 154.5,107.5 135.5,107.5 116.5,107.5C 123.678,106.833 131.011,106.167 138.5,105.5C 139.005,104.081 140.005,103.415 141.5,103.5C 148.167,103.5 154.833,103.5 161.5,103.5C 161.5,100.5 161.5,97.5 161.5,94.5C 161.746,88.0983 162.58,81.765 164,75.5C 167.22,60.8814 175.72,50.7147 189.5,45C 210.335,42.7443 224.669,51.2443 232.5,70.5 Z"/></g>
<g><path style="opacity:1" fill="#8d1b1b" d="M 232.5,70.5 C 237.267,80.5075 239.6,91.1742 239.5,102.5C 241.948,103.473 244.615,103.806 247.5,103.5C 234.138,115.171 218.471,122.005 200.5,124C 191.553,125.457 182.553,126.29 173.5,126.5C 173.5,125.167 173.5,123.833 173.5,122.5C 192.752,106.521 212.086,90.5213 231.5,74.5C 232.429,73.3112 232.762,71.9778 232.5,70.5 Z"/></g>
<g><path style="opacity:1" fill="#dbb7b6" d="M 142.5,92.5 C 142.5,95.8333 142.5,99.1667 142.5,102.5C 148.5,102.5 154.5,102.5 160.5,102.5C 160.194,99.6146 160.527,96.9479 161.5,94.5C 161.5,97.5 161.5,100.5 161.5,103.5C 154.833,103.5 148.167,103.5 141.5,103.5C 141.185,99.6286 141.518,95.9619 142.5,92.5 Z"/></g>
<g><path style="opacity:1" fill="#d6acac" d="M 254.5,85.5 C 255.477,88.2869 255.81,91.2869 255.5,94.5C 255.5,97.5 255.5,100.5 255.5,103.5C 252.833,103.5 250.167,103.5 247.5,103.5C 244.615,103.806 241.948,103.473 239.5,102.5C 244.5,102.5 249.5,102.5 254.5,102.5C 254.5,96.8333 254.5,91.1667 254.5,85.5 Z"/></g>
<g><path style="opacity:1" fill="#c98a89" d="M 41.5,107.5 C 66.5,107.5 91.5,107.5 116.5,107.5C 135.5,107.5 154.5,107.5 173.5,107.5C 173.5,112.5 173.5,117.5 173.5,122.5C 173.5,123.833 173.5,125.167 173.5,126.5C 173.5,127.5 173.5,128.5 173.5,129.5C 173.5,131.833 173.5,134.167 173.5,136.5C 173.5,141.167 173.5,145.833 173.5,150.5C 173.5,153.167 173.5,155.833 173.5,158.5C 173.5,163.5 173.5,168.5 173.5,173.5C 173.5,178.833 173.5,184.167 173.5,189.5C 173.5,194.167 173.5,198.833 173.5,203.5C 173.167,203.5 172.833,203.5 172.5,203.5C 172.5,171.833 172.5,140.167 172.5,108.5C 128.833,108.5 85.1667,108.5 41.5,108.5C 41.83,126.008 41.4967,143.341 40.5,160.5C 40.5,157.833 40.5,155.167 40.5,152.5C 40.1706,137.324 40.5039,122.324 41.5,107.5 Z"/></g>
<g><path style="opacity:1" fill="#fefefe" d="M 172.5,203.5 C 171.9,208.916 170.234,213.916 167.5,218.5C 160.732,223.535 153.065,226.201 144.5,226.5C 117.498,226.667 90.4979,226.5 63.5,226C 61.1873,225.338 58.854,224.838 56.5,224.5C 48.5123,221.558 43.5123,215.891 41.5,207.5C 40.5749,194.196 40.2416,180.863 40.5,167.5C 40.5,165.167 40.5,162.833 40.5,160.5C 41.4967,143.341 41.83,126.008 41.5,108.5C 85.1667,108.5 128.833,108.5 172.5,108.5C 172.5,140.167 172.5,171.833 172.5,203.5 Z"/></g>
<g><path style="opacity:1" fill="#860000" d="M 173.5,129.5 C 210.694,133.4 245.527,144.4 278,162.5C 279.287,170.781 279.787,179.114 279.5,187.5C 278.674,182.684 278.174,177.684 278,172.5C 272.923,168.376 267.423,164.876 261.5,162C 233.772,148.41 204.438,139.91 173.5,136.5C 173.5,134.167 173.5,131.833 173.5,129.5 Z"/></g>
<g><path style="opacity:1" fill="#232e1f" d="M 102.5,138.5 C 114.722,137.886 120.222,143.553 119,155.5C 117.752,158.579 115.919,161.246 113.5,163.5C 115.561,174.115 117.228,184.781 118.5,195.5C 111.167,195.5 103.833,195.5 96.5,195.5C 97.5895,185.972 98.9228,176.472 100.5,167C 99.6009,163.401 97.7675,160.234 95,157.5C 91.9672,148.909 94.4672,142.575 102.5,138.5 Z"/></g>
<g><path style="opacity:1" fill="#900000" d="M 173.5,136.5 C 204.438,139.91 233.772,148.41 261.5,162C 267.423,164.876 272.923,168.376 278,172.5C 278.174,177.684 278.674,182.684 279.5,187.5C 279.83,205.341 279.497,223.008 278.5,240.5C 278.5,239.167 278.5,237.833 278.5,236.5C 278.5,226.167 278.5,215.833 278.5,205.5C 279.081,200.187 278.248,195.187 276,190.5C 245.458,168.604 211.292,155.27 173.5,150.5C 173.5,145.833 173.5,141.167 173.5,136.5 Z"/></g>
<g><path style="opacity:1" fill="#990000" d="M 173.5,150.5 C 211.292,155.27 245.458,168.604 276,190.5C 278.248,195.187 279.081,200.187 278.5,205.5C 248.418,179.661 213.418,163.995 173.5,158.5C 173.5,155.833 173.5,153.167 173.5,150.5 Z"/></g>
<g><path style="opacity:1" fill="#930c0c" d="M 35.5,152.5 C 28.2579,160.645 22.2579,169.645 17.5,179.5C 14.1205,180.688 11.2872,182.688 9,185.5C 8.82382,181.312 8.32382,177.312 7.5,173.5C 7.17711,167.31 7.51045,161.31 8.5,155.5C 8.3347,159.182 8.50137,162.848 9,166.5C 9.51298,164.479 10.6797,162.979 12.5,162C 20,158.336 27.6667,155.169 35.5,152.5 Z"/></g>
<g><path style="opacity:1" fill="#a30000" d="M 173.5,158.5 C 213.418,163.995 248.418,179.661 278.5,205.5C 278.5,215.833 278.5,226.167 278.5,236.5C 268.333,220.5 255.333,207.333 239.5,197C 219.224,184.589 197.224,176.756 173.5,173.5C 173.5,168.5 173.5,163.5 173.5,158.5 Z"/></g>
<g><path style="opacity:1" fill="#980303" d="M 40.5,152.5 C 40.5,155.167 40.5,157.833 40.5,160.5C 40.5,162.833 40.5,165.167 40.5,167.5C 39.5206,170.625 39.1872,173.958 39.5,177.5C 31.8929,179.805 24.8929,183.472 18.5,188.5C 17.2638,189.246 15.9305,189.579 14.5,189.5C 11.9721,200.358 10.1387,211.358 9,222.5C 8.82975,213.324 8.32975,204.324 7.5,195.5C 7.5,188.167 7.5,180.833 7.5,173.5C 8.32382,177.312 8.82382,181.312 9,185.5C 11.2872,182.688 14.1205,180.688 17.5,179.5C 22.2579,169.645 28.2579,160.645 35.5,152.5C 36.7942,151.71 37.9609,150.71 39,149.5C 39.2321,150.737 39.7321,151.737 40.5,152.5 Z"/></g>
<g><path style="opacity:1" fill="#af0000" d="M 173.5,173.5 C 197.224,176.756 219.224,184.589 239.5,197C 255.333,207.333 268.333,220.5 278.5,236.5C 278.5,237.833 278.5,239.167 278.5,240.5C 276.817,249.839 271.15,254.506 261.5,254.5C 259.434,247.032 256.267,240.032 252,233.5C 231.445,209.019 205.278,194.353 173.5,189.5C 173.5,184.167 173.5,178.833 173.5,173.5 Z"/></g>
<g><path style="opacity:1" fill="#b90000" d="M 173.5,189.5 C 205.278,194.353 231.445,209.019 252,233.5C 256.267,240.032 259.434,247.032 261.5,254.5C 182.334,255.666 103.001,255.832 23.5,255C 14.7913,253.958 9.62467,249.125 8,240.5C 7.50166,237.183 7.33499,233.85 7.5,230.5C 8.15149,231.091 8.81815,231.757 9.5,232.5C 17.4245,220.229 27.7578,210.896 40.5,204.5C 40.2627,205.791 40.596,206.791 41.5,207.5C 43.5123,215.891 48.5123,221.558 56.5,224.5C 50.2281,228.937 44.7281,234.27 40,240.5C 37.3217,244.523 35.155,248.857 33.5,253.5C 41.1378,254.497 48.8045,254.831 56.5,254.5C 63.8333,254.5 71.1667,254.5 78.5,254.5C 82.5,254.5 86.5,254.5 90.5,254.5C 121.5,254.5 152.5,254.5 183.5,254.5C 187.167,254.5 190.833,254.5 194.5,254.5C 202.167,254.5 209.833,254.5 217.5,254.5C 225.196,254.831 232.862,254.497 240.5,253.5C 236.285,244.805 231.118,236.805 225,229.5C 209.99,216.679 192.823,208.012 173.5,203.5C 173.5,198.833 173.5,194.167 173.5,189.5 Z"/></g>
<g><path style="opacity:1" fill="#a80201" d="M 40.5,167.5 C 40.2416,180.863 40.5749,194.196 41.5,207.5C 40.596,206.791 40.2627,205.791 40.5,204.5C 27.7578,210.896 17.4245,220.229 9.5,232.5C 8.81815,231.757 8.15149,231.091 7.5,230.5C 7.5,218.833 7.5,207.167 7.5,195.5C 8.32975,204.324 8.82975,213.324 9,222.5C 10.1387,211.358 11.9721,200.358 14.5,189.5C 15.9305,189.579 17.2638,189.246 18.5,188.5C 24.8929,183.472 31.8929,179.805 39.5,177.5C 39.1872,173.958 39.5206,170.625 40.5,167.5 Z"/></g>
<g><path style="opacity:1" fill="#c80100" d="M 172.5,203.5 C 172.833,203.5 173.167,203.5 173.5,203.5C 192.823,208.012 209.99,216.679 225,229.5C 231.118,236.805 236.285,244.805 240.5,253.5C 232.862,254.497 225.196,254.831 217.5,254.5C 206.227,235.256 189.56,223.256 167.5,218.5C 170.234,213.916 171.9,208.916 172.5,203.5 Z"/></g>
<g><path style="opacity:1" fill="#d50301" d="M 167.5,218.5 C 189.56,223.256 206.227,235.256 217.5,254.5C 209.833,254.5 202.167,254.5 194.5,254.5C 193.149,250.644 190.816,247.477 187.5,245C 174.149,234.773 159.149,228.939 142.5,227.5C 143.492,227.672 144.158,227.338 144.5,226.5C 153.065,226.201 160.732,223.535 167.5,218.5 Z"/></g>
<g><path style="opacity:1" fill="#cb1008" d="M 56.5,224.5 C 58.854,224.838 61.1873,225.338 63.5,226C 90.4979,226.5 117.498,226.667 144.5,226.5C 144.158,227.338 143.492,227.672 142.5,227.5C 137.833,227.5 133.167,227.5 128.5,227.5C 112.83,227.333 97.1631,227.5 81.5,228C 70.9055,234.759 62.5722,243.593 56.5,254.5C 48.8045,254.831 41.1378,254.497 33.5,253.5C 35.155,248.857 37.3217,244.523 40,240.5C 44.7281,234.27 50.2281,228.937 56.5,224.5 Z"/></g>
<g><path style="opacity:1" fill="#d50000" d="M 128.5,227.5 C 117.14,230.008 106.14,233.675 95.5,238.5C 88.486,242.517 82.8193,247.851 78.5,254.5C 71.1667,254.5 63.8333,254.5 56.5,254.5C 62.5722,243.593 70.9055,234.759 81.5,228C 97.1631,227.5 112.83,227.333 128.5,227.5 Z"/></g>
<g><path style="opacity:1" fill="#dd0000" d="M 128.5,227.5 C 133.167,227.5 137.833,227.5 142.5,227.5C 159.149,228.939 174.149,234.773 187.5,245C 190.816,247.477 193.149,250.644 194.5,254.5C 190.833,254.5 187.167,254.5 183.5,254.5C 178.511,248.681 172.511,244.181 165.5,241C 146.193,233.708 126.859,233.708 107.5,241C 100.995,244.696 95.3288,249.196 90.5,254.5C 86.5,254.5 82.5,254.5 78.5,254.5C 82.8193,247.851 88.486,242.517 95.5,238.5C 106.14,233.675 117.14,230.008 128.5,227.5 Z"/></g>
<g><path style="opacity:1" fill="#e50000" d="M 183.5,254.5 C 152.5,254.5 121.5,254.5 90.5,254.5C 95.3288,249.196 100.995,244.696 107.5,241C 126.859,233.708 146.193,233.708 165.5,241C 172.511,244.181 178.511,248.681 183.5,254.5 Z"/></g>
<g><path style="opacity:1" fill="#efecec" d="M -0.5,245.5 C 3.5,252.833 9.16667,258.5 16.5,262.5C 10.8333,262.5 5.16667,262.5 -0.5,262.5C -0.5,256.833 -0.5,251.167 -0.5,245.5 Z"/></g>
</svg>
