<?xml version="1.0" standalone="no"?>
<!DOCTYPE svg PUBLIC "-//W3C//DTD SVG 20010904//EN"
 "http://www.w3.org/TR/2001/REC-SVG-20010904/DTD/svg10.dtd">
<svg version="1.0" xmlns="http://www.w3.org/2000/svg"
 width="1280.000000pt" height="1280.000000pt" viewBox="0 0 1280.000000 1280.000000"
 preserveAspectRatio="xMidYMid meet">
<metadata>
Created by potrace 1.15, written by Peter Selinger 2001-2017
</metadata>
<g transform="translate(0.000000,1280.000000) scale(0.100000,-0.100000)"
fill="#000000" stroke="none">
<path d="M6120 10999 c-54 -11 -97 -51 -113 -105 -15 -52 -23 -4376 -8 -4541
17 -183 33 -199 229 -215 160 -13 730 -4 789 13 59 16 90 50 103 113 16 79 17
4553 1 4621 -13 55 -31 79 -76 104 -26 14 -81 16 -455 18 -234 1 -445 -3 -470
-8z m657 -267 c51 -26 78 -63 95 -128 20 -75 19 -3985 -1 -4063 -17 -65 -68
-121 -127 -139 -52 -15 -305 -16 -359 -1 -52 15 -110 73 -127 129 -20 68 -19
4026 1 4085 27 77 68 116 146 136 17 4 98 7 180 6 132 -3 155 -5 192 -25z"/>
<path d="M5415 9560 c-215 -56 -495 -162 -730 -276 -653 -317 -1224 -822
-1625 -1434 -289 -442 -494 -971 -579 -1490 -40 -248 -46 -329 -46 -645 1
-263 4 -335 23 -475 135 -998 603 -1856 1374 -2517 1098 -941 2661 -1238 4058
-772 849 283 1588 837 2093 1570 308 446 535 1006 627 1542 51 303 69 732 41
1012 -78 787 -362 1484 -857 2105 -137 171 -439 474 -614 614 -220 176 -501
356 -756 484 -341 171 -830 330 -947 308 -19 -3 -43 -16 -54 -29 -44 -47 -48
-85 -48 -402 0 -402 -5 -390 215 -476 247 -96 313 -125 463 -201 474 -242 901
-617 1187 -1043 278 -415 435 -819 511 -1315 19 -123 23 -186 23 -420 0 -301
-13 -427 -73 -690 -100 -436 -314 -877 -602 -1242 -105 -133 -364 -392 -499
-498 -489 -388 -1062 -624 -1705 -701 -144 -18 -566 -18 -710 0 -501 60 -944
210 -1357 457 -732 440 -1271 1177 -1453 1990 -58 259 -69 366 -70 674 0 299
6 369 51 600 94 475 315 950 625 1341 114 144 380 407 527 519 67 52 189 137
270 187 225 142 382 216 777 366 104 40 133 61 158 115 20 43 22 67 25 305 5
334 -10 426 -73 455 -42 19 -132 13 -250 -18z m-53 -320 c21 -6 50 -26 68 -47
31 -35 32 -39 28 -109 -6 -123 -43 -152 -359 -287 -260 -111 -549 -286 -784
-473 -143 -114 -428 -399 -538 -539 -370 -468 -607 -1010 -699 -1600 -29 -188
-37 -652 -14 -855 130 -1137 825 -2126 1864 -2651 506 -256 1030 -379 1611
-379 594 1 1092 118 1611 381 263 133 462 263 680 447 111 93 358 344 446 452
424 523 682 1151 744 1815 14 158 12 488 -5 648 -43 407 -154 785 -336 1148
-166 333 -365 607 -638 879 -331 330 -661 553 -1101 745 -257 112 -290 143
-290 274 0 114 69 165 193 144 131 -22 494 -185 732 -329 626 -378 1107 -889
1432 -1520 443 -860 526 -1851 232 -2759 -265 -821 -784 -1499 -1514 -1984
-510 -338 -1075 -544 -1720 -628 -110 -14 -208 -18 -460 -18 -353 1 -499 14
-797 75 -891 183 -1698 671 -2250 1362 -476 595 -747 1281 -808 2042 -40 503
49 1080 242 1569 341 862 984 1565 1818 1987 232 117 466 208 565 219 6 0 27
-4 47 -9z"/>
</g>
</svg>
