<?xml version="1.0" standalone="no"?>
<!DOCTYPE svg PUBLIC "-//W3C//DTD SVG 20010904//EN"
 "http://www.w3.org/TR/2001/REC-SVG-20010904/DTD/svg10.dtd">
<svg version="1.0" xmlns="http://www.w3.org/2000/svg"
 width="771.000000pt" height="1280.000000pt" viewBox="0 0 771.000000 1280.000000"
 preserveAspectRatio="xMidYMid meet">
<metadata>
Created by potrace 1.15, written by Peter Selinger 2001-2017
</metadata>
<g transform="translate(0.000000,1280.000000) scale(0.100000,-0.100000)"
fill="#000000" stroke="none">
<path d="M3580 12784 c-284 -61 -524 -258 -666 -549 -83 -170 -114 -325 -114
-567 l0 -117 -57 -15 c-625 -173 -1122 -456 -1514 -862 -579 -601 -891 -1451
-893 -2429 0 -233 10 -344 50 -543 159 -800 712 -1397 1592 -1721 83 -30 540
-174 756 -238 18 -5 18 -31 12 -962 -3 -526 -9 -1074 -12 -1218 -6 -236 -8
-261 -23 -256 -9 4 -133 62 -276 131 -543 260 -499 242 -940 377 -269 83 -436
128 -487 134 -575 64 -1101 -561 -993 -1182 39 -224 155 -419 314 -527 58 -39
609 -310 838 -411 322 -143 444 -186 1047 -370 253 -77 470 -144 481 -148 19
-8 20 -18 21 -202 0 -212 15 -300 70 -431 61 -147 199 -301 331 -371 68 -36
784 -262 928 -294 90 -19 243 -12 345 17 268 75 516 302 631 579 64 154 81
245 88 480 l6 214 135 42 c1071 332 1876 1071 2245 2060 201 538 263 1136 174
1665 -129 766 -586 1350 -1356 1734 -240 121 -439 193 -946 347 l-207 62 6
781 c4 430 9 946 13 1147 l6 367 125 -55 c142 -62 892 -297 1004 -314 274 -43
603 107 795 361 117 155 187 317 217 498 20 121 14 284 -15 397 -43 168 -153
342 -276 434 -69 52 -236 133 -475 229 -261 105 -440 165 -921 312 l-437 133
-5 201 c-4 159 -10 219 -26 286 -57 227 -201 414 -393 511 -60 30 -794 260
-908 285 -82 17 -205 17 -290 -2z m-805 -4461 c-8 -313 -9 -326 -24 -288 -29
74 -20 421 15 598 14 68 16 -2 9 -310z m2435 -3349 c27 -41 58 -103 69 -137
60 -181 40 -465 -49 -694 -29 -74 -88 -189 -94 -181 -9 10 8 1097 16 1092 6
-4 32 -40 58 -80z"/>
</g>
</svg>
