<?xml version="1.0" encoding="UTF-8" standalone="no"?> <svg id="Layer_1" data-name="Layer 1" xmlns="http://www.w3.org/2000/svg" viewBox="0 0 64 64"><path d="M13,54a2,2,0,0,0-2-2H3a2,2,0,0,0-2,2v9H13Z"/><path d="M15.193,28.894A14.568,14.568,0,0,0,33.34,23.386l19.831,9.569a3,3,0,1,0,2.41-5.484l-20.46-8.142v0a14.56,14.56,0,1,0-19.928,9.568ZM22.5,24.131h-2v-2h2Zm-1-17a5,5,0,0,1,1,9.9v3.1h-2v-4a1,1,0,0,1,1-1,3,3,0,1,0-3-3h-2A5.006,5.006,0,0,1,21.5,7.131Z"/><circle cx="7" cy="48.5" r="3.5"/><path d="M26,54v9H38V54a2,2,0,0,0-2-2H28A2,2,0,0,0,26,54Z"/><circle cx="32" cy="48.5" r="3.5"/><path d="M61,52H53a2,2,0,0,0-2,2v9H63V54A2,2,0,0,0,61,52Z"/><circle cx="57" cy="48.5" r="3.5"/><rect x="6" y="39" width="2" height="2"/><rect x="6" y="35" width="2" height="2"/><rect x="6" y="31" width="2" height="2"/><rect x="31" y="39" width="2" height="2"/><rect x="56" y="39" width="2" height="2"/><rect x="31" y="35" width="2" height="2"/></svg>