<?xml version="1.0" encoding="UTF-8" standalone="no"?>
<svg
   xmlns:dc="http://purl.org/dc/elements/1.1/"
   xmlns:cc="http://creativecommons.org/ns#"
   xmlns:rdf="http://www.w3.org/1999/02/22-rdf-syntax-ns#"
   xmlns:svg="http://www.w3.org/2000/svg"
   xmlns="http://www.w3.org/2000/svg"
   xmlns:sodipodi="http://sodipodi.sourceforge.net/DTD/sodipodi-0.dtd"
   xmlns:inkscape="http://www.inkscape.org/namespaces/inkscape"
   inkscape:version="1.0 (4035a4fb49, 2020-05-01)"
   sodipodi:docname="funcionalidad.svg"
   version="1.1"
   width="512"
   viewBox="0 0 512 512"
   height="512"
   enable-background="new 0 0 512 512"
   id="Capa_1">
  <metadata
     id="metadata67">
    <rdf:RDF>
      <cc:Work
         rdf:about="">
        <dc:format>image/svg+xml</dc:format>
        <dc:type
           rdf:resource="http://purl.org/dc/dcmitype/StillImage" />
        <dc:title></dc:title>
      </cc:Work>
    </rdf:RDF>
  </metadata>
  <defs
     id="defs65" />
  <sodipodi:namedview
     inkscape:current-layer="Capa_1"
     inkscape:window-maximized="1"
     inkscape:window-y="-8"
     inkscape:window-x="1358"
     inkscape:cy="273.39783"
     inkscape:cx="144.7674"
     inkscape:zoom="1.1739077"
     showgrid="false"
     id="namedview63"
     inkscape:window-height="1017"
     inkscape:window-width="1920"
     inkscape:pageshadow="2"
     inkscape:pageopacity="0"
     guidetolerance="10"
     gridtolerance="10"
     objecttolerance="10"
     borderopacity="1"
     bordercolor="#666666"
     pagecolor="#ffffff" />
  <path
     id="path101"
     d="m 48.875583,397.95696 c 9.247958,-41.51102 16.664514,-42.39129 28.136579,-3.33951 8.722887,29.69337 7.882081,43.03935 -1.769511,28.08709 -6.253718,-9.68827 -22.089009,-10.49006 -22.089009,-1.11844 0,3.71421 -2.485511,6.75311 -5.523359,6.75311 -4.591941,0 -4.381943,-5.12343 1.2453,-30.38225 z m 20.175162,1.48699 c 0,-10.75177 -4.608382,-20.715 -8.364995,-18.08495 -6.085702,4.26067 -4.10063,24.46985 2.403582,24.46985 3.278777,0 5.961413,-2.87321 5.961413,-6.3849 z m 26.495173,25.89388 C 94.088683,423.68707 92.8964,410.45492 92.8964,395.93306 c 0,-28.67153 3.900386,-33.8799 21.60252,-28.84691 18.21194,5.17794 16.32955,34.24062 -2.21777,34.24062 -5.64151,0 -7.46192,3.29499 -7.46192,13.50622 0,12.9081 -3.5759,16.95889 -9.273312,10.50484 z m 20.090712,-33.56381 c 5.54404,-6.28031 2.16251,-17.45969 -5.28119,-17.45969 -3.25578,0 -5.53621,4.63615 -5.53621,11.25518 0,12.12394 3.7123,14.2532 10.8174,6.20451 z m 20.9768,7.53559 c 0,-32.99247 4.30931,-38.77072 23.27852,-31.21366 17.53992,6.98765 14.46492,33.23082 -3.89377,33.23082 -4.10405,0 -7.66821,2.53242 -7.92035,5.62759 -0.25213,3.09518 -0.69924,8.49209 -0.99357,11.99313 -0.29432,3.50105 -2.77067,7.21526 -5.50298,8.25381 -3.64159,1.38415 -4.96785,-6.06204 -4.96785,-27.89169 z m 23.70117,-9.04081 c 5.43483,-7.41823 2.37426,-15.95447 -5.72029,-15.95447 -6.16065,0 -9.73243,8.57219 -7.03454,16.88278 2.41451,7.43769 6.86284,7.11393 12.75483,-0.92831 z m 20.01587,9.07263 c 0,-32.49084 7.67057,-46.32576 8.40698,-15.16313 0.74589,31.564 1.13567,32.8425 10.47083,34.34437 14.18768,2.28257 10.37498,9.81654 -4.96785,9.81654 h -13.90996 z m 39.74275,-2.51673 c 0,-18.0083 1.70326,-31.51452 3.97428,-31.51452 2.27102,0 3.97428,13.50622 3.97428,31.51452 0,18.00829 -1.70326,31.51451 -3.97428,31.51451 -2.27102,0 -3.97428,-13.50622 -3.97428,-31.51451 z m 28.62607,25.86174 c -15.30589,-20.8917 -5.14412,-57.09689 16.08454,-57.30732 10.01798,-0.0993 8.58227,8.03909 -1.7196,9.74761 -17.00691,2.82052 -16.4471,44.20834 0.59796,44.20834 4.44214,0 8.07662,2.02593 8.07662,4.50207 0,6.46561 -18.12271,5.56047 -23.03952,-1.1507 z m 33.51027,-6.72793 c 7.89263,-36.54819 12.28032,-48.4687 18.32579,-49.78756 4.98693,-1.08794 8.23627,4.96123 13.28733,24.73648 3.67736,14.39713 7.52896,28.70902 8.55911,31.80419 1.03016,3.09518 -1.00097,5.62759 -4.51361,5.62759 -3.51264,0 -6.38661,-3.0389 -6.38661,-6.75311 0,-4.12142 -3.70624,-6.75311 -9.51049,-6.75311 -5.23077,0 -10.53991,3.0389 -11.79809,6.75311 -4.1242,12.1748 -10.79055,7.46383 -7.96343,-5.62759 z m 25.29773,-16.51456 c 0,-10.75177 -4.60838,-20.715 -8.36499,-18.08495 -6.08571,4.26067 -4.10063,24.46985 2.40358,24.46985 3.27878,0 5.96141,-2.87321 5.96141,-6.3849 z m 27.81993,1.88282 c 0,-21.00968 -1.32476,-27.01244 -5.96141,-27.01244 -3.27878,0 -5.96142,-2.02593 -5.96142,-4.50207 0,-5.56054 30.49346,-6.02642 33.5021,-0.51184 1.19734,2.19462 -1.37975,5.04385 -5.72686,6.33162 -6.70061,1.98495 -7.90386,6.17514 -7.90386,27.52428 0,13.85059 -1.78842,25.18289 -3.97427,25.18289 -2.20794,0 -3.97428,-12.00553 -3.97428,-27.01244 z m 31.79421,-4.50207 c 0,-18.0083 1.70326,-31.51452 3.97427,-31.51452 2.27102,0 3.97428,13.50622 3.97428,31.51452 0,18.00829 -1.70326,31.51451 -3.97428,31.51451 -2.27101,0 -3.97427,-13.50622 -3.97427,-31.51451 z m 28.33016,25.45784 c -12.2865,-16.77039 -6.62256,-52.83104 8.82741,-56.20158 17.59194,-3.83782 29.30261,30.35109 18.34246,53.55008 -4.73499,10.02237 -20.63308,11.57386 -27.16987,2.6515 z m 18.56629,-3.84789 c 5.54903,-6.28596 6.23721,-30.02095 1.1351,-39.14876 -6.99688,-12.5176 -16.23735,-1.76288 -16.23735,18.8982 0,25.21827 4.9077,31.79898 15.10225,20.25056 z m 24.64051,-21.60995 c 0,-38.38835 6.92152,-42.06814 19.05347,-10.12967 l 8.12311,21.38485 0.32151,-21.38485 c 0.1771,-11.76166 2.11027,-21.38485 4.29612,-21.38485 2.27495,0 3.97427,13.61626 3.97427,31.84463 0,27.26453 -0.94969,31.63527 -6.60314,30.38899 -3.63173,-0.80059 -8.5499,-7.89451 -10.92926,-15.76425 -6.66231,-22.03564 -10.28753,-22.81054 -10.28753,-2.19898 0,10.31725 -1.78842,18.75864 -3.97427,18.75864 -2.27102,0 -3.97428,-13.50622 -3.97428,-31.51451 z M 231.99605,279.77079 c 0,-29.01336 -1.15916,-36.01659 -5.96141,-36.01659 -9.30545,0 -7.06704,-4.92946 14.31039,-31.51452 19.88034,-24.72327 19.92137,-24.74657 26.64596,-15.1303 3.70423,5.29711 12.53497,17.72656 19.62388,27.62102 12.05244,16.82237 12.37485,18.1422 4.96784,20.33641 -7.03465,2.08391 -7.92107,6.17228 -7.92107,36.53353 v 34.18703 h -25.8328 -25.83279 z m -124.96433,8.00241 c -9.176247,-14.84079 -9.176247,-208.25942 0,-223.100204 l 6.18677,-10.005885 h 144.21975 c 134.67044,0 144.65525,0.545144 150.79712,8.233126 5.72782,7.169701 6.57738,21.907981 6.57738,114.105103 0,96.84947 -0.61938,106.50696 -7.26792,113.32286 -5.9249,6.07405 -16.20646,7.45088 -55.63986,7.45088 -65.43865,0 -63.51518,-8.35857 2.30007,-9.99516 l 50.67202,-1.26002 1.07938,-86.66492 1.07939,-86.66491 H 257.91466 108.7935 v 82.38794 c 0,58.07675 1.40729,83.98212 4.76913,87.79044 3.17044,3.59148 20.48961,5.40248 51.66559,5.40248 28.61478,0 46.89645,1.75505 46.89645,4.50208 0,2.76017 -19.13388,4.50207 -49.45309,4.50207 -46.59811,0 -49.81025,-0.57765 -55.63986,-10.00588 z M 140.58771,83.631552 c 0,-14.859927 -0.81435,-15.950153 -10.92926,-14.631739 -9.10687,1.187021 -11.13692,3.864305 -12.17463,16.056294 -1.16014,13.630374 -0.41217,14.631739 10.92926,14.631739 11.30753,0 12.17463,-1.143554 12.17463,-16.056294 z m 258.32792,0.232037 V 68.039341 L 280.73397,69.23185 c -110.37999,1.113795 -118.27295,1.72998 -119.56439,9.334126 -3.60838,21.246465 -4.31849,21.12187 120.38019,21.12187 h 117.36586 z"
     style="fill:#000000;stroke-width:4.22995" />
  <path
     id="path99"
     d="m 48.875583,397.95696 c 9.247958,-41.51102 16.664514,-42.39129 28.136579,-3.33951 8.722887,29.69337 7.882081,43.03935 -1.769511,28.08709 -6.253718,-9.68827 -22.089009,-10.49006 -22.089009,-1.11844 0,3.71421 -2.485511,6.75311 -5.523359,6.75311 -4.591941,0 -4.381943,-5.12343 1.2453,-30.38225 z m 20.175162,1.48699 c 0,-10.75177 -4.608382,-20.715 -8.364995,-18.08495 -6.085702,4.26067 -4.10063,24.46985 2.403582,24.46985 3.278777,0 5.961413,-2.87321 5.961413,-6.3849 z m 26.495173,25.89388 C 94.088683,423.68707 92.8964,410.45492 92.8964,395.93306 c 0,-28.67153 3.900386,-33.8799 21.60252,-28.84691 18.21194,5.17794 16.32955,34.24062 -2.21777,34.24062 -5.64151,0 -7.46192,3.29499 -7.46192,13.50622 0,12.9081 -3.5759,16.95889 -9.273312,10.50484 z m 20.090712,-33.56381 c 5.54404,-6.28031 2.16251,-17.45969 -5.28119,-17.45969 -3.25578,0 -5.53621,4.63615 -5.53621,11.25518 0,12.12394 3.7123,14.2532 10.8174,6.20451 z m 20.9768,7.53559 c 0,-32.99247 4.30931,-38.77072 23.27852,-31.21366 17.53992,6.98765 14.46492,33.23082 -3.89377,33.23082 -4.10405,0 -7.66821,2.53242 -7.92035,5.62759 -0.25213,3.09518 -0.69924,8.49209 -0.99357,11.99313 -0.29432,3.50105 -2.77067,7.21526 -5.50298,8.25381 -3.64159,1.38415 -4.96785,-6.06204 -4.96785,-27.89169 z m 23.70117,-9.04081 c 5.43483,-7.41823 2.37426,-15.95447 -5.72029,-15.95447 -6.16065,0 -9.73243,8.57219 -7.03454,16.88278 2.41451,7.43769 6.86284,7.11393 12.75483,-0.92831 z m 20.01587,9.07263 c 0,-32.49084 7.67057,-46.32576 8.40698,-15.16313 0.74589,31.564 1.13567,32.8425 10.47083,34.34437 14.18768,2.28257 10.37498,9.81654 -4.96785,9.81654 h -13.90996 z m 39.74275,-2.51673 c 0,-18.0083 1.70326,-31.51452 3.97428,-31.51452 2.27102,0 3.97428,13.50622 3.97428,31.51452 0,18.00829 -1.70326,31.51451 -3.97428,31.51451 -2.27102,0 -3.97428,-13.50622 -3.97428,-31.51451 z m 28.62607,25.86174 c -15.30589,-20.8917 -5.14412,-57.09689 16.08454,-57.30732 10.01798,-0.0993 8.58227,8.03909 -1.7196,9.74761 -17.00691,2.82052 -16.4471,44.20834 0.59796,44.20834 4.44214,0 8.07662,2.02593 8.07662,4.50207 0,6.46561 -18.12271,5.56047 -23.03952,-1.1507 z m 33.51027,-6.72793 c 7.89263,-36.54819 12.28032,-48.4687 18.32579,-49.78756 4.98693,-1.08794 8.23627,4.96123 13.28733,24.73648 3.67736,14.39713 7.52896,28.70902 8.55911,31.80419 1.03016,3.09518 -1.00097,5.62759 -4.51361,5.62759 -3.51264,0 -6.38661,-3.0389 -6.38661,-6.75311 0,-4.12142 -3.70624,-6.75311 -9.51049,-6.75311 -5.23077,0 -10.53991,3.0389 -11.79809,6.75311 -4.1242,12.1748 -10.79055,7.46383 -7.96343,-5.62759 z m 25.29773,-16.51456 c 0,-10.75177 -4.60838,-20.715 -8.36499,-18.08495 -6.08571,4.26067 -4.10063,24.46985 2.40358,24.46985 3.27878,0 5.96141,-2.87321 5.96141,-6.3849 z m 27.81993,1.88282 c 0,-21.00968 -1.32476,-27.01244 -5.96141,-27.01244 -3.27878,0 -5.96142,-2.02593 -5.96142,-4.50207 0,-5.56054 30.49346,-6.02642 33.5021,-0.51184 1.19734,2.19462 -1.37975,5.04385 -5.72686,6.33162 -6.70061,1.98495 -7.90386,6.17514 -7.90386,27.52428 0,13.85059 -1.78842,25.18289 -3.97427,25.18289 -2.20794,0 -3.97428,-12.00553 -3.97428,-27.01244 z m 31.79421,-4.50207 c 0,-18.0083 1.70326,-31.51452 3.97427,-31.51452 2.27102,0 3.97428,13.50622 3.97428,31.51452 0,18.00829 -1.70326,31.51451 -3.97428,31.51451 -2.27101,0 -3.97427,-13.50622 -3.97427,-31.51451 z m 28.33016,25.45784 c -12.2865,-16.77039 -6.62256,-52.83104 8.82741,-56.20158 17.59194,-3.83782 29.30261,30.35109 18.34246,53.55008 -4.73499,10.02237 -20.63308,11.57386 -27.16987,2.6515 z m 18.56629,-3.84789 c 5.54903,-6.28596 6.23721,-30.02095 1.1351,-39.14876 -6.99688,-12.5176 -16.23735,-1.76288 -16.23735,18.8982 0,25.21827 4.9077,31.79898 15.10225,20.25056 z m 24.64051,-21.60995 c 0,-38.38835 6.92152,-42.06814 19.05347,-10.12967 l 8.12311,21.38485 0.32151,-21.38485 c 0.1771,-11.76166 2.11027,-21.38485 4.29612,-21.38485 2.27495,0 3.97427,13.61626 3.97427,31.84463 0,27.26453 -0.94969,31.63527 -6.60314,30.38899 -3.63173,-0.80059 -8.5499,-7.89451 -10.92926,-15.76425 -6.66231,-22.03564 -10.28753,-22.81054 -10.28753,-2.19898 0,10.31725 -1.78842,18.75864 -3.97427,18.75864 -2.27102,0 -3.97428,-13.50622 -3.97428,-31.51451 z M 231.99605,279.77079 c 0,-29.01336 -1.15916,-36.01659 -5.96141,-36.01659 -9.30545,0 -7.06704,-4.92946 14.31039,-31.51452 19.88034,-24.72327 19.92137,-24.74657 26.64596,-15.1303 3.70423,5.29711 12.53497,17.72656 19.62388,27.62102 12.05244,16.82237 12.37485,18.1422 4.96784,20.33641 -7.03465,2.08391 -7.92107,6.17228 -7.92107,36.53353 v 34.18703 h -25.8328 -25.83279 z m -124.96433,8.00241 c -9.176247,-14.84079 -9.176247,-208.25942 0,-223.100204 l 6.18677,-10.005885 h 144.21975 c 134.67044,0 144.65525,0.545144 150.79712,8.233126 5.72782,7.169701 6.57738,21.907981 6.57738,114.105103 0,96.84947 -0.61938,106.50696 -7.26792,113.32286 -5.9249,6.07405 -16.20646,7.45088 -55.63986,7.45088 -65.43865,0 -63.51518,-8.35857 2.30007,-9.99516 l 50.67202,-1.26002 1.07938,-86.66492 1.07939,-86.66491 H 257.91466 108.7935 v 82.38794 c 0,58.07675 1.40729,83.98212 4.76913,87.79044 3.17044,3.59148 20.48961,5.40248 51.66559,5.40248 28.61478,0 46.89645,1.75505 46.89645,4.50208 0,2.76017 -19.13388,4.50207 -49.45309,4.50207 -46.59811,0 -49.81025,-0.57765 -55.63986,-10.00588 z M 140.58771,83.631552 c 0,-14.859927 -0.81435,-15.950153 -10.92926,-14.631739 -9.10687,1.187021 -11.13692,3.864305 -12.17463,16.056294 -1.16014,13.630374 -0.41217,14.631739 10.92926,14.631739 11.30753,0 12.17463,-1.143554 12.17463,-16.056294 z m 258.32792,0.232037 V 68.039341 L 280.73397,69.23185 c -110.37999,1.113795 -118.27295,1.72998 -119.56439,9.334126 -3.60838,21.246465 -4.31849,21.12187 120.38019,21.12187 h 117.36586 z"
     style="fill:#000000;stroke-width:4.22995" />
</svg>
