<?xml version="1.0" encoding="UTF-8" standalone="no"?>
<svg
   xmlns:dc="http://purl.org/dc/elements/1.1/"
   xmlns:cc="http://creativecommons.org/ns#"
   xmlns:rdf="http://www.w3.org/1999/02/22-rdf-syntax-ns#"
   xmlns:svg="http://www.w3.org/2000/svg"
   xmlns="http://www.w3.org/2000/svg"
   xmlns:sodipodi="http://sodipodi.sourceforge.net/DTD/sodipodi-0.dtd"
   xmlns:inkscape="http://www.inkscape.org/namespaces/inkscape"
   sodipodi:docname="funcionalidad.svg"
   inkscape:version="1.0 (4035a4fb49, 2020-05-01)"
   id="svg8"
   version="1.1"
   viewBox="0 0 297 297"
   height="297mm"
   width="297mm">
  <defs
     id="defs2" />
  <sodipodi:namedview
     inkscape:window-maximized="0"
     inkscape:window-y="0"
     inkscape:window-x="104"
     inkscape:window-height="1040"
     inkscape:window-width="1260"
     showgrid="false"
     inkscape:document-rotation="0"
     inkscape:current-layer="layer1"
     inkscape:document-units="mm"
     inkscape:cy="560"
     inkscape:cx="400"
     inkscape:zoom="0.35"
     inkscape:pageshadow="2"
     inkscape:pageopacity="0.0"
     borderopacity="1.0"
     bordercolor="#666666"
     pagecolor="#ffffff"
     id="base" />
  <metadata
     id="metadata5">
    <rdf:RDF>
      <cc:Work
         rdf:about="">
        <dc:format>image/svg+xml</dc:format>
        <dc:type
           rdf:resource="http://purl.org/dc/dcmitype/StillImage" />
        <dc:title></dc:title>
      </cc:Work>
    </rdf:RDF>
  </metadata>
  <g
     id="layer1"
     inkscape:groupmode="layer"
     inkscape:label="Capa 1">
    <path
       id="path24"
       d="m 121.39808,293.27337 c -4.16321,-2.49455 -6.29533,-6.99408 -6.29533,-13.28533 0,-6.04395 2.14523,-10.29188 6.64773,-13.16367 l 3.45405,-2.20306 V 247.844 231.06668 H 111.27607 97.347617 l -0.238255,30.36777 -0.238253,30.36777 -2.146962,0.3445 c -1.18084,0.18948 -2.490111,-0.26987 -2.90952,-1.02077 -0.419394,-0.75089 -0.77062,-14.68625 -0.780474,-30.96746 L 91.01623,230.55629 74.282269,211.43196 57.548351,192.30763 30.886816,192.03741 4.22528,191.76721 v -2.55192 -2.5519 l 26.05388,-0.27121 c 15.270958,-0.15897 26.414597,-0.68058 26.92545,-1.26031 0.920623,-1.04478 1.716615,-64.67368 0.871513,-69.66686 l -0.475093,-2.80712 -25.788404,-0.0157 C 17.629012,112.63325 5.4828696,112.23716 4.8211903,111.76121 4.1595253,111.28525 3.7547676,109.79942 3.921719,108.45936 L 4.22528,106.0229 31.250135,105.75306 58.274977,105.48321 74.649742,86.900364 91.024501,68.317508 V 38.501573 c 0,-25.744378 0.193017,-30.0349838 1.413459,-31.419998 0.777397,-0.8822327 1.739748,-1.6040612 2.138539,-1.6040612 2.36425,0 2.726155,3.9482802 2.955148,32.2395052 l 0.238904,29.516803 h 13.492099 13.49211 l 0.24662,-17.097819 c 0.21041,-14.588656 0.05,-17.097822 -1.09305,-17.097822 -0.73681,0 -2.72228,-1.377656 -4.41215,-3.061456 -8.52461,-8.494006 -4.23159,-25.1832857 6.96822,-27.0892826 9.83925,-1.6744533 18.09354,9.5773796 14.95161,20.3812816 -1.09693,3.771969 -6.38818,9.769457 -8.61905,9.769457 -1.14305,0 -1.30346,2.509166 -1.09303,17.097822 l 0.24662,17.097819 h 16.19052 16.19054 l 0.24661,-17.097819 c 0.21043,-14.588656 0.0501,-17.097822 -1.09303,-17.097822 -2.23087,0 -7.52211,-5.997488 -8.61906,-9.769457 -1.63797,-5.632434 -0.33156,-11.266517 3.66385,-15.8007058 4.3382,-4.9231924 8.39386,-5.9609247 13.926,-3.5632809 6.90656,2.9933162 10.21486,10.3353617 8.38111,18.5999467 -1.00723,4.539461 -5.82321,10.533497 -8.46329,10.533497 -1.14306,0 -1.30347,2.509166 -1.09302,17.097822 l 0.2466,17.097819 h 13.4921 13.49211 l 0.23892,-29.516803 c 0.22899,-28.291225 0.59089,-32.2395052 2.95514,-32.2395052 0.39881,0 1.36115,0.7218285 2.13854,1.6040612 1.22044,1.3850142 1.41347,5.67562 1.41347,31.419998 v 29.815935 l 16.37474,18.582856 16.37476,18.582846 27.02484,0.26985 27.02486,0.26984 0.30354,2.4365 c 0.16698,1.34005 -0.23779,2.82589 -0.89944,3.30184 -0.66169,0.47596 -12.84,0.87243 -27.06291,0.88102 l -25.85986,0.0157 v 14.29071 14.29072 h -2.63042 -2.6304 l -0.0827,-14.77801 c -0.0454,-8.1279 -0.44402,-15.82193 -0.88582,-17.09782 -0.4418,-1.2759 -7.44517,-9.784156 -15.56303,-18.90726 L 201.98622,73.868799 H 148.1322 94.278211 L 78.93439,91.196845 63.590554,108.52488 63.329326,147.08376 c -0.143617,21.20737 -0.01011,39.70723 0.295428,41.11077 0.697656,3.19829 26.69559,33.07344 30.620486,35.18708 2.493767,1.34295 9.98628,1.56047 53.74834,1.56047 32.73705,0 51.71935,-0.37481 53.28933,-1.05221 2.89338,-1.2484 28.76258,-29.88035 30.59128,-33.8583 0.85709,-1.86443 1.26714,-6.25288 1.26714,-13.56106 0,-9.97384 0.12101,-10.73113 1.57409,-9.84863 0.86575,0.52582 1.97884,0.99654 2.47355,1.04605 0.49472,0.0496 1.10186,4.11407 1.34922,9.03235 l 0.44971,8.94234 26.53449,0.51038 26.53447,0.51039 v 2.5519 2.55192 l -26.64117,0.27018 -26.64115,0.27018 -16.75845,19.08773 -16.75843,19.08771 -0.0128,29.63884 c -0.007,16.30137 -0.35693,30.25321 -0.77632,31.0041 -0.41941,0.7509 -1.72868,1.21025 -2.90952,1.02077 l -2.14698,-0.3445 -0.23824,-30.36777 -0.23825,-30.36777 h -13.92846 -13.92845 v 16.82189 16.82187 l 3.37303,1.96514 c 9.44758,5.50417 9.06382,22.18458 -0.62446,27.1425 -7.43975,3.80726 -15.74271,0.16342 -18.53511,-8.13432 -2.52863,-7.51399 0.28317,-16.06942 6.35623,-19.33989 l 3.13398,-1.68771 v -16.79474 -16.79474 h -16.64123 -16.64026 v 16.82189 16.82187 l 3.50309,2.02815 c 2.41214,1.39652 4.09288,3.41072 5.39684,6.46762 2.40957,5.6487 2.38394,8.40208 -0.13004,13.96595 -3.51732,7.78436 -11.6667,10.41893 -18.87263,6.10121 z m 11.83268,-6.66571 c 2.20142,-2.10215 2.76745,-3.44065 2.76745,-6.54424 0,-3.10358 -0.56603,-4.44209 -2.76745,-6.54424 -1.52206,-1.45346 -3.77941,-2.64265 -5.01628,-2.64265 -3.26851,0 -7.50732,5.18715 -7.50732,9.18689 0,3.99974 4.23881,9.18688 7.50732,9.18688 1.23687,0 3.49422,-1.18919 5.01628,-2.64264 z m 39.71505,-0.34113 c 1.79445,-2.03642 2.62923,-4.00591 2.62923,-6.20311 0,-3.99974 -4.2388,-9.18689 -7.50731,-9.18689 -1.23687,0 -3.49421,1.18919 -5.0163,2.64265 -2.20143,2.10215 -2.76743,3.44066 -2.76743,6.54424 0,3.10359 0.566,4.44209 2.76743,6.54424 3.62658,3.46306 6.63358,3.35939 9.89438,-0.34113 z M 133.79041,24.408074 c 4.78004,-5.424621 1.4328,-14.8474974 -5.27419,-14.8474974 -2.1138,0 -3.80304,0.8359964 -5.43773,2.6911104 -4.93883,5.604834 -1.68083,14.661902 5.27419,14.661902 2.23001,0 3.91342,-0.775656 5.43773,-2.505515 z m 39.57686,0 c 2.96149,-3.360861 2.96236,-8.521554 0.001,-12.146528 -4.71138,-5.7695301 -13.08505,-1.945618 -13.08505,5.975537 0,4.977843 3.25919,8.676506 7.64555,8.676506 2.23001,0 3.91341,-0.775656 5.43772,-2.505515 z M 48.586762,253.95254 c -7.548384,-2.63611 -13.292163,-13.31007 -11.855283,-22.03128 1.578026,-9.57797 8.114675,-16.27179 16.585808,-16.98464 21.058845,-1.7721 26.169509,33.17992 5.775925,39.50173 -4.456411,1.38145 -5.267009,1.34397 -10.50645,-0.48581 z m 13.626584,-9.19823 c 4.074206,-4.17715 5.247214,-8.62297 3.688925,-13.98138 -3.982387,-13.69388 -21.782352,-11.70011 -23.202543,2.59892 -0.840666,8.46419 4.453404,15.03636 12.118401,15.04402 3.123458,0.003 4.472158,-0.66465 7.395217,-3.66156 z m 174.525894,9.64998 c -7.38023,-2.47046 -12.53328,-10.27085 -12.57288,-19.03215 -0.0551,-12.17632 8.3513,-21.31465 18.79856,-20.43552 14.68041,1.23535 21.82938,20.03038 12.50288,32.87078 -1.48496,2.04445 -3.78194,4.35215 -5.10437,5.12822 -3.41136,2.00198 -9.93133,2.70481 -13.62419,1.46867 z m 11.42463,-7.9848 c 8.7815,-6.07642 6.68779,-21.47864 -3.33612,-24.54178 -6.15784,-1.88173 -12.43821,1.98498 -14.4478,8.89522 -1.55831,5.35841 -0.38531,9.80423 3.68893,13.98138 2.92304,2.99691 4.27173,3.66469 7.3952,3.66156 2.20044,-0.002 5.04112,-0.84863 6.69979,-1.99638 z m -51.99853,-37.80506 c -1.85305,-1.11139 -3.73314,-3.28201 -4.38163,-5.05871 l -1.13585,-3.112 -42.39101,-0.0157 c -23.31505,-0.008 -42.93679,-0.40815 -43.60386,-0.8879 -0.66705,-0.47973 -1.06639,-1.7359 -0.8874,-2.79147 0.31166,-1.83792 2.14495,-1.94084 43.27799,-2.42961 l 42.95255,-0.51038 1.68641,-2.91806 c 3.81185,-6.59575 10.49324,-8.59292 15.99981,-4.78259 4.50905,3.12007 5.96597,6.40475 5.46505,12.32105 -0.48364,5.71189 -2.36069,8.73015 -6.7365,10.83197 -3.85267,1.85056 -6.34409,1.6933 -10.24556,-0.64667 z m 10.66932,-8.3317 c 2.56909,-6.11361 -3.16937,-12.13506 -7.82404,-8.20989 -4.95636,4.17958 -2.58071,11.80838 3.49626,11.2275 2.4244,-0.23175 3.46077,-0.95435 4.32778,-3.01761 z M 91.662124,170.20407 c -0.350677,-0.39796 -0.637593,-4.09209 -0.637593,-8.2092 v -7.4856 h 2.736254 2.736253 l -0.2627,7.91094 c -0.234772,7.07002 -0.457856,7.94263 -2.09866,8.20918 -1.009785,0.16404 -2.122877,-0.0273 -2.473554,-0.42532 z m 38.409636,-1.91217 c -0.31013,-1.4023 -0.30112,-3.32672 0.0201,-4.27646 0.50218,-1.48512 0.97207,-1.28629 3.35726,1.42051 3.01706,3.4239 2.7843,5.40557 -0.63493,5.40557 -1.57303,0 -2.33519,-0.7086 -2.74236,-2.54962 z m 16.15369,1.04141 c -0.30712,-0.90826 -0.24699,-3.5817 0.13353,-5.94099 0.82958,-5.1423 0.81667,-11.25855 -0.0417,-19.81725 -0.57741,-5.75619 -0.41105,-6.77647 1.8046,-11.06701 3.61574,-7.00176 7.31467,-8.57168 20.25743,-8.59774 8.09907,-0.0164 11.01329,0.36649 13.42817,1.76393 4.41755,2.55631 8.20582,8.3867 8.81875,13.57255 0.47308,4.00262 0.37179,4.30567 -1.19569,3.57738 -0.94189,-0.43765 -2.34485,-1.00428 -3.11768,-1.25921 -0.77285,-0.25492 -1.78476,-1.91548 -2.24869,-3.69014 -0.49097,-1.87803 -2.15934,-4.23657 -3.99169,-5.64303 -2.95949,-2.27161 -3.77967,-2.39201 -13.68509,-2.00904 -8.96619,0.34666 -10.59316,0.17103 -10.91422,-1.17819 -0.22142,-0.93055 -0.42037,-0.61581 -0.48161,0.76183 -0.0574,1.29107 -0.8127,3.81747 -1.67842,5.61421 -1.23745,2.56818 -1.67025,6.65039 -2.02382,19.08866 -0.43954,15.46329 -0.4957,15.82928 -2.47757,16.14866 -1.23697,0.19933 -2.24562,-0.31726 -2.58625,-1.32462 z m 54.06264,0.2786 c -0.25532,-0.75502 -0.35471,-11.23734 -0.22087,-23.29401 l 0.24335,-21.9212 h 2.24869 2.24867 v 22.96721 22.96723 l -2.02784,0.32679 c -1.11528,0.17972 -2.23672,-0.29097 -2.492,-1.04602 z m -67.81575,-6.55406 c -3.54083,-5.10844 -1.91989,-18.75623 2.22765,-18.75623 1.04425,0 1.29822,1.98518 1.29822,10.14741 0,5.58108 -0.37236,10.40857 -0.82746,10.72776 -0.45508,0.3192 -1.66937,-0.63433 -2.69841,-2.11894 z m 101.79336,2.00381 c -0.79847,-0.36563 -1.12434,-3.59656 -1.12434,-11.14783 v -10.63297 h 2.60219 c 1.4833,0 2.8248,0.65836 3.11992,1.53114 0.32377,0.95746 1.69729,1.53115 3.6659,1.53115 2.58506,0 3.06061,0.31951 2.65873,1.78635 -0.46612,1.70127 -0.44122,1.70127 0.52267,0 1.41335,-2.49461 13.93363,-2.64018 14.76829,-0.17172 1.41164,4.17471 0.85049,4.50997 -7.54927,4.50997 -5.86922,0 -8.09906,-0.35087 -8.10904,-1.27596 -0.01,-0.92803 -0.19397,-0.95608 -0.67461,-0.10288 -0.36346,0.64519 -1.67275,1.3342 -2.90953,1.53115 -2.09044,0.33291 -2.26751,0.80704 -2.51648,6.73788 -0.27321,6.50905 -0.91136,7.3262 -4.45443,5.70376 z M 9.1728851,163.59468 c -3.077338,-1.42616 -6.3047371,-5.01839 -6.2590656,-6.96661 0.020805,-0.88463 0.7710538,-3.1706 1.6673609,-5.07994 l 1.629665,-3.47153 0.6042036,2.73192 c 1.4628293,6.61437 8.571592,9.12437 12.868217,4.54359 2.561384,-2.73079 2.561024,-1.69256 -0.0014,4.26099 -1.737407,4.03659 -2.357966,4.61951 -5.118883,4.80845 -1.727973,0.11826 -4.153485,-0.25383 -5.3900092,-0.82687 z M 275.86637,163.15003 c -7.31047,-4.21088 -8.9394,-13.58272 -3.22612,-18.56076 2.30291,-2.00656 2.58088,-1.56498 2.0949,3.32797 -0.38406,3.867 -0.11588,5.05274 1.61649,7.14536 2.24096,2.70706 6.76185,3.36907 9.9178,1.45229 1.58253,-0.96115 1.73981,-0.69507 1.73981,2.94323 0,3.2852 -0.36164,4.10991 -2.02381,4.61543 -3.4506,1.04944 -7.30455,0.69769 -10.11907,-0.92352 z m 13.96819,-13.84157 0.0263,-12.66258 2.66758,3.32791 c 2.32216,2.89701 2.65283,4.05349 2.55373,8.93169 -0.10862,5.34444 -0.92931,7.08533 -2.04034,4.32784 -0.28276,-0.70178 -0.30116,0.12997 -0.041,1.84833 0.35011,2.31142 -0.003,3.61407 -1.35978,5.00685 l -1.83296,1.88255 0.0263,-12.66259 z m -186.12278,8.90286 c -1.24451,-1.70173 -0.38041,-4.72282 1.35083,-4.72282 0.79253,0 1.25296,1.12531 1.25296,3.0623 0,3.29393 -0.96106,3.90682 -2.60379,1.66052 z m 3.84871,-0.0696 c -0.27367,-0.80932 -0.35662,-2.30219 -0.18432,-3.31748 0.26891,-1.58472 1.26619,-1.84595 7.047,-1.84595 h 6.73372 l 0.28186,3.31747 0.28186,3.31749 h -6.83128 c -5.11946,0 -6.95596,-0.36873 -7.32884,-1.47153 z m 15.84508,-2.16897 c 0,-3.36924 0.18432,-3.61644 2.47355,-3.31749 2.06111,0.26913 2.52056,0.87615 2.75542,3.64047 0.26257,3.09046 0.0933,3.31749 -2.47356,3.31749 -2.55916,0 -2.75541,-0.25929 -2.75541,-3.64047 z m 35.15903,2.21811 c -2.51663,-3.44127 1.196,-6.14127 7.61619,-5.53885 2.85239,0.26766 3.57376,0.78444 4.01757,2.87814 l 0.54097,2.55192 0.65069,-2.87338 c 0.50254,-2.21909 1.10431,-2.80017 2.64274,-2.55191 1.49815,0.24177 2.05997,1.11471 2.26612,3.52104 l 0.27412,3.19957 -8.49917,0.0972 c -6.13308,0.0703 -8.78036,-0.28719 -9.50923,-1.28386 z m 19.29273,-2.91589 c 0.34446,-1.82464 0.68019,-3.34169 0.74607,-3.37124 2.29967,-1.0319 5.17297,-4.15345 5.59988,-6.08376 0.39743,-1.79703 1.17463,-2.539 2.6596,-2.539 4.56986,0 3.88796,5.17473 -1.47605,11.20155 -2.31109,2.59665 -4.48601,4.10993 -5.90685,4.10993 -2.06606,0 -2.19799,-0.26975 -1.62265,-3.31748 z m -86.832799,-6.2963 c 0,-5.1947 0.734903,-7.97515 1.893189,-7.16275 0.442872,0.31062 0.805224,-0.92481 0.805224,-2.74542 0,-4.29245 6.865016,-12.09526 12.253466,-13.92738 11.41911,-3.88261 23.52239,2.0057 27.84019,13.5444 1.02139,2.72952 0.9408,3.31189 -0.74171,5.35902 -2.3802,2.89605 -3.0479,2.88488 -3.69961,-0.0619 -0.2869,-1.29726 -1.83449,-4.39783 -3.43906,-6.89017 -1.60455,-2.49234 -2.81101,-5.29469 -2.68097,-6.22744 0.13004,-0.93275 -0.18773,-1.99338 -0.70611,-2.35697 -0.54624,-0.38311 -0.94251,0.26857 -0.94251,1.54993 0,1.49713 -0.415,2.03027 -1.28533,1.65125 -3.39064,-1.47655 -7.76956,-1.76052 -11.16209,-0.72382 -4.54844,1.38991 -10.582207,7.64138 -11.395334,11.80644 -1.16814,5.9836 -1.421218,6.26044 -2.778141,3.03904 -0.70946,-1.68426 -1.105158,-2.29107 -0.879358,-1.34845 0.225813,0.94263 0.681733,3.35419 1.013151,5.35902 0.565959,3.42373 0.459864,3.64521 -1.746221,3.64521 -2.177649,0 -2.348776,-0.3286 -2.348776,-4.50996 z m -61.029435,0.4269 -0.940663,-3.0623 h 8.970207 c 8.801294,0 8.986725,0.0494 9.847416,2.61836 0.482461,1.4401 0.877206,2.81813 0.877206,3.0623 0,0.24415 -4.008032,0.44393 -8.906736,0.44393 h -8.906752 z m 232.064194,0 c -0.93842,-3.05503 -0.9325,-3.0623 2.5013,-3.0623 2.94522,0 3.597,-0.42466 4.51594,-2.94238 0.59068,-1.61831 2.28522,-4.25955 3.76565,-5.8694 2.41455,-2.62564 3.3108,-2.92702 8.70453,-2.92702 h 6.01281 l 0.27933,4.40228 0.27934,4.40229 -2.34829,-1.74614 c -2.04252,-1.51878 -2.96595,-1.58931 -7.0915,-0.54154 -5.92696,1.50524 -8.49777,3.51496 -10.11491,7.90723 -1.7031,4.62571 -5.13793,4.82477 -6.5042,0.37698 z M 22.381549,150.4263 c -0.25643,-0.84212 -0.70829,-2.78598 -1.004136,-4.31967 -0.553316,-2.86855 -4.380353,-5.88798 -7.462805,-5.88798 -0.903922,0 -2.543065,0.71507 -3.642575,1.58903 -2.3523307,1.86982 -2.4887238,1.01094 -0.6377956,-4.01627 1.2456986,-3.38343 1.6695286,-3.69734 4.9917666,-3.69734 4.027206,0 7.61674,1.75507 10.190536,4.98259 1.665627,2.08869 1.663041,2.23181 -0.13538,7.50505 -1.109103,3.25201 -2.017576,4.77085 -2.299624,3.84459 z m 69.608424,-36.49689 c -5.501464,-1.10876 -9.060713,-6.44723 -9.060713,-13.59001 0,-3.580314 0.552926,-4.881325 3.492079,-8.216818 2.992353,-3.395852 4.054268,-3.962425 7.42066,-3.959157 4.597485,0.0043 9.343181,2.907238 10.837361,6.628816 l 1.02551,2.554261 h 41.95896 c 35.13194,0 42.24305,0.239405 43.70496,1.47136 1.39789,1.178019 1.54713,1.839438 0.74866,3.317488 -0.9361,1.73282 -3.61355,1.86266 -43.62447,2.11558 l -42.62714,0.26946 -1.48796,2.96045 c -2.4446,4.8638 -7.414503,7.45092 -12.387907,6.44857 z m 6.384392,-8.0646 c 1.661815,-1.70673 2.173175,-6.042501 0.956528,-8.110304 C 98.533065,96.398531 95.12746,94.2842 93.741192,94.2842 c -1.432761,0 -5.415089,4.744088 -5.415089,6.45093 0,0.79193 0.838902,2.6502 1.864233,4.12946 2.157799,3.11309 5.704653,3.54659 8.184029,1.00022 z M 48.586762,82.463954 C 41.043434,79.829608 35.30574,69.175385 36.722102,60.432669 38.799668,47.608564 50.809533,39.930326 61.133645,44.825704 c 6.755527,3.203268 10.962428,10.431473 10.962428,18.83544 0,9.206688 -5.156854,16.856422 -13.002861,19.288609 -4.456411,1.381451 -5.267009,1.343967 -10.50645,-0.485799 z m 13.591532,-9.162308 c 5.420841,-5.557795 5.895529,-12.594723 1.27042,-18.832564 -6.554334,-8.839774 -19.597535,-4.179092 -20.748986,7.414171 -0.840666,8.46419 4.453404,15.036366 12.118401,15.044031 3.11645,0.0032 4.472274,-0.664771 7.360165,-3.625638 z m 174.560946,9.614052 c -16.42203,-5.497122 -16.67941,-32.570535 -0.3677,-38.679813 12.9796,-4.861304 26.10162,8.961638 22.7683,23.984519 -1.09947,4.955277 -5.19217,11.123201 -8.77641,13.226632 -3.41136,2.001964 -9.93133,2.704809 -13.62419,1.468662 z m 11.42463,-7.984811 c 8.7815,-6.076412 6.68779,-21.478632 -3.33612,-24.541761 -6.15784,-1.88173 -12.43821,1.984962 -14.4478,8.89521 -1.55831,5.358402 -0.38531,9.804225 3.68893,13.981373 2.92304,2.996912 4.27173,3.664692 7.3952,3.661575 2.20044,-0.0022 5.04112,-0.848655 6.69979,-1.996397 z"
       style="fill:#000000;stroke-width:0.958203" />
  </g>
</svg>
