<?xml version="1.0" encoding="UTF-8" standalone="no"?>
<svg
   xmlns:dc="http://purl.org/dc/elements/1.1/"
   xmlns:cc="http://creativecommons.org/ns#"
   xmlns:rdf="http://www.w3.org/1999/02/22-rdf-syntax-ns#"
   xmlns:svg="http://www.w3.org/2000/svg"
   xmlns="http://www.w3.org/2000/svg"
   xmlns:sodipodi="http://sodipodi.sourceforge.net/DTD/sodipodi-0.dtd"
   xmlns:inkscape="http://www.inkscape.org/namespaces/inkscape"
   inkscape:version="1.0 (4035a4fb49, 2020-05-01)"
   sodipodi:docname="funcionalidad-3.svg"
   version="1.1"
   width="512"
   viewBox="0 0 512 512"
   height="512"
   enable-background="new 0 0 512 512"
   id="Capa_1">
  <metadata
     id="metadata67">
    <rdf:RDF>
      <cc:Work
         rdf:about="">
        <dc:format>image/svg+xml</dc:format>
        <dc:type
           rdf:resource="http://purl.org/dc/dcmitype/StillImage" />
        <dc:title></dc:title>
      </cc:Work>
    </rdf:RDF>
  </metadata>
  <defs
     id="defs65" />
  <sodipodi:namedview
     inkscape:current-layer="Capa_1"
     inkscape:window-maximized="1"
     inkscape:window-y="-8"
     inkscape:window-x="1358"
     inkscape:cy="273.39783"
     inkscape:cx="144.7674"
     inkscape:zoom="1.1739077"
     showgrid="false"
     id="namedview63"
     inkscape:window-height="1017"
     inkscape:window-width="1920"
     inkscape:pageshadow="2"
     inkscape:pageopacity="0"
     guidetolerance="10"
     gridtolerance="10"
     objecttolerance="10"
     borderopacity="1"
     bordercolor="#666666"
     pagecolor="#ffffff" />
  <g
     id="g121">
    <path
       id="path127"
       d="m 151.60489,502.76581 c 59.41489,-0.21579 156.25545,-0.21576 215.20125,6e-5 58.94581,0.21582 10.33363,0.39237 -108.02706,0.39234 -118.36069,-3e-5 -166.589072,-0.17661 -107.17419,-0.3924 z m -132.781703,-14.24906 -2.469613,-3.37476 2.916885,2.85728 c 2.741151,2.68514 3.507055,3.89223 2.469613,3.89223 -0.246,0 -1.558598,-1.51864 -2.916885,-3.37475 z m 478.492223,0.37497 c 1.29055,-1.64988 2.63814,-2.99978 2.99464,-2.99978 0.35651,0 -0.4077,1.3499 -1.69825,2.99978 -1.29054,1.64988 -2.63813,2.99978 -2.99464,2.99978 -0.35651,0 0.40771,-1.3499 1.69825,-2.99978 z M 240.28215,457.394 c 0,-2.88729 0.26679,-4.06845 0.59288,-2.62481 0.32606,1.44365 0.32606,3.80598 0,5.24962 -0.32609,1.44365 -0.59288,0.26248 -0.59288,-2.62481 z m 36.299,0 c 0,-2.88729 0.2668,-4.06845 0.59288,-2.62481 0.32607,1.44365 0.32607,3.80598 0,5.24962 -0.32608,1.44365 -0.59288,0.26248 -0.59288,-2.62481 z m 220.08596,-209.68464 0.64808,-166.03814 0.32996,164.90641 c 0.18147,90.69853 -0.11019,165.4157 -0.64809,166.03814 -0.53793,0.62245 -0.6864,-73.58544 -0.32995,-164.90641 z M 20.220348,247.40921 c 0,-91.15589 0.155825,-128.44694 0.346277,-82.86899 0.190453,45.57795 0.190453,120.16004 0,165.73799 -0.190452,45.57795 -0.346277,8.2869 -0.346277,-82.869 z M 251.32482,373.78946 c 4.45635,-0.29288 11.74856,-0.29288 16.20492,0 4.45635,0.29288 0.81024,0.53252 -8.10246,0.53252 -8.9127,0 -12.55881,-0.23964 -8.10246,-0.53252 z M 237.68936,353.9015 c 0,-2.88729 0.2668,-4.06846 0.59288,-2.62481 0.32607,1.44365 0.32607,3.80597 0,5.24962 -0.32608,1.44365 -0.59288,0.26248 -0.59288,-2.62481 z m -42.10944,-2.49324 c 0.89127,-0.41608 2.34971,-0.41608 3.24098,0 0.89127,0.41609 0.16205,0.75653 -1.62049,0.75653 -1.78254,0 -2.51176,-0.34044 -1.62049,-0.75653 z m -14.61919,-14.38054 -9.03998,-10.87421 9.39885,10.45901 c 8.72965,9.71433 9.99089,11.28941 9.03998,11.28941 -0.19738,0 -4.42686,-4.89339 -9.39885,-10.87421 z m 100.50523,7.96296 c 0,-1.6012 0.4991,-3.26816 1.10912,-3.70435 0.61002,-0.43619 0.8337,0.87389 0.49707,2.91126 -0.73119,4.42537 -1.60619,4.85742 -1.60619,0.79309 z m 45.37376,2.49874 c 0,-0.22687 4.52117,-5.45775 10.04705,-11.62416 l 10.04704,-11.21164 -9.6905,11.62416 c -9.00032,10.79626 -10.40359,12.30851 -10.40359,11.21164 z M 213.68787,337.37075 c 2.29445,-2.78511 4.39137,-4.76097 4.6598,-4.39081 0.26844,0.37017 -1.60884,2.64889 -4.17173,5.06384 l -4.6598,4.39081 z m 90.3418,-1.84292 -2.46962,-3.37475 2.91689,2.85727 c 2.74114,2.68514 3.50705,3.89224 2.46961,3.89224 -0.246,0 -1.5586,-1.51864 -2.91688,-3.37476 z m -56.513,-11.14886 c 0.93582,-0.43327 2.05396,-0.37999 2.48476,0.11834 0.43077,0.4984 -0.33491,0.8529 -1.70152,0.78778 -1.51023,-0.072 -1.81741,-0.42738 -0.78324,-0.90618 z m 20.74229,0 c 0.93582,-0.43327 2.05396,-0.37999 2.48475,0.11834 0.43078,0.4984 -0.33491,0.8529 -1.70151,0.78778 -1.51023,-0.072 -1.81741,-0.42738 -0.78324,-0.90618 z m 79.16899,-6.14702 c -0.42709,-2.98061 -0.23684,-4.37984 0.48237,-3.54773 0.65318,0.7557 0.97053,2.9705 0.70524,4.92175 -0.40821,3.00232 -0.59081,2.79106 -1.18761,-1.37402 z m -136.67641,-15.70173 -5.12457,-6.37454 5.50967,5.929 c 5.12394,5.5139 6.1054,6.82008 5.12457,6.82008 -0.2118,0 -2.69115,-2.86854 -5.50967,-6.37454 z m 94.69769,0.37497 c 2.78497,-3.29976 5.35527,-5.99956 5.71178,-5.99956 0.35651,0 -1.63042,2.6998 -4.41538,5.99956 -2.78497,3.29977 -5.35527,5.99957 -5.71178,5.99957 -0.35651,0 1.63042,-2.6998 4.41538,-5.99957 z m 32.9599,0.37498 -3.14286,-4.1247 3.56509,3.6362 c 3.3321,3.39859 4.15959,4.6132 3.14285,4.6132 -0.23221,0 -1.83649,-1.85612 -3.56508,-4.1247 z m -159.35822,2.05851 c 0,-0.31145 1.02091,-1.49262 2.26869,-2.62481 2.05615,-1.86567 2.10201,-1.81262 0.48946,0.5663 -1.69357,2.49844 -2.75815,3.29298 -2.75815,2.05851 z m 105.75013,-14.29098 -3.79509,-5.39126 4.3768,4.82658 c 2.40724,2.65461 4.11503,5.08069 3.79509,5.39125 -0.31995,0.31059 -2.28951,-1.86138 -4.3768,-4.82657 z m -13.82939,0.23334 c -2.75992,-3.97725 -5.06475,-9.10971 -5.04256,-11.22884 0.0135,-1.29053 0.42081,-1.17738 1.27655,0.35462 0.93287,1.6701 1.2618,0.7777 1.27654,-3.46328 0.0117,-3.4317 -0.49784,-5.34294 -1.27654,-4.78612 -0.71302,0.50984 -1.2964,-0.16511 -1.2964,-1.49989 0,-1.33478 0.54743,-2.03543 1.21653,-1.55701 0.66908,0.47844 1.44607,-1.67533 1.72665,-4.78612 0.28058,-3.11081 0.60822,0.24982 0.72808,7.46805 l 0.21792,13.12405 h 4.42935 c 2.43613,0 4.72359,-0.84369 5.08322,-1.87487 0.41292,-1.18394 0.6916,-0.96671 0.75623,0.58948 0.12782,3.07873 -3.01741,4.56576 -7.13082,3.37129 -3.66562,-1.06443 -3.99724,0.3291 -0.99246,4.17053 1.18003,1.50861 1.85383,2.74292 1.49732,2.74292 -0.35651,0 -1.46784,-1.18117 -2.46961,-2.62481 z m -53.02895,-2.44117 c 0,-0.31145 1.02091,-1.49261 2.26869,-2.62481 2.05616,-1.86567 2.10201,-1.81262 0.48946,0.5663 -1.69356,2.49845 -2.75815,3.29298 -2.75815,2.05851 z m 98.48313,-1.81754 c 1.04602,-1.57619 2.00852,-3.07942 2.13888,-3.34054 0.13036,-0.26111 0.54939,0.10994 0.93118,0.82472 0.38178,0.71471 -0.58071,2.21795 -2.13887,3.34052 -2.67822,1.92954 -2.7291,1.88447 -0.93119,-0.8247 z m -118.63053,-5.2154 c -0.46998,-0.87982 -0.57648,-1.92136 -0.23666,-2.31453 0.33981,-0.39317 0.9633,0.32669 1.38552,1.59968 0.8766,2.64297 0.12951,3.10786 -1.14886,0.71485 z m 97.83286,-2.52502 -3.14286,-4.12471 3.88918,3.74973 c 2.13905,2.06235 4.13226,3.91847 4.42935,4.1247 0.29708,0.20624 -0.0388,0.37498 -0.74632,0.37498 -0.70756,0 -2.70076,-1.85612 -4.42935,-4.1247 z m -62.99991,-1.25195 c -1.10998,-2.72124 -1.10469,-3.86697 0.0213,-4.6121 0.82397,-0.54529 1.05931,-0.43178 0.523,0.25223 -0.53632,0.68403 -0.0608,2.41261 1.05674,3.8413 1.11753,1.42869 1.54678,2.9445 0.95387,3.36844 -0.59289,0.42394 -1.74257,-0.85849 -2.55485,-2.84987 z m -55.43859,-1.68315 c -0.70352,-2.13764 -0.55462,-2.30992 0.72572,-0.83964 0.88598,1.01744 1.2843,2.2277 0.88515,2.6895 -0.39914,0.46181 -1.12403,-0.37063 -1.61087,-1.84986 z m 122.52816,-2.81448 c 0.0622,-1.7473 0.36939,-2.1027 0.78322,-0.90619 0.37449,1.08272 0.32845,2.37638 -0.10228,2.87479 -0.43079,0.4984 -0.73718,-0.38748 -0.68089,-1.9686 z m -136.87234,-3.1176 c 1.71289,-3.81987 2.19409,-3.97737 11.12717,-3.64216 l 9.33686,0.35036 -0.75141,-5.35718 c -1.31631,-9.38482 1.25709,-5.08326 3.52488,5.892 0.74998,3.62964 0.61123,4.13716 -0.71765,2.62481 -1.01453,-1.1546 -5.28303,-1.87487 -11.11108,-1.87487 -8.5994,0 -9.46367,0.27396 -9.46367,2.99979 0,1.64988 -0.84046,2.99978 -1.86771,2.99978 -1.60663,0 -1.61745,-0.5581 -0.0774,-3.99253 z m 126.07474,1.49929 c 0.89127,-0.41609 1.62943,-2.89388 1.64034,-5.50618 0.0131,-3.1177 0.3912,-4.07214 1.1006,-2.77783 1.68531,3.07484 0.16179,9.29347 -2.24388,9.15894 -1.34407,-0.0751 -1.52563,-0.39474 -0.49706,-0.87493 z m 60.30695,-0.046 c 1.26135,-0.38028 3.01148,-0.35528 3.88918,0.0557 0.8777,0.41086 -0.15431,0.722 -2.29336,0.69143 -2.13905,-0.0306 -2.85717,-0.36672 -1.59582,-0.747 z M 236.0922,267.65775 c 1.67462,-2.06235 3.33644,-3.74973 3.69295,-3.74973 0.35651,0 -0.72194,1.68738 -2.39655,3.74973 -1.67462,2.06235 -3.33644,3.74973 -3.69295,3.74973 -0.35651,0 0.72194,-1.68738 2.39655,-3.74973 z m -86.35876,-18.74864 c 0,-10.31176 0.20713,-14.5302 0.46028,-9.37433 0.25314,5.15588 0.25314,13.59277 0,18.74865 -0.25315,5.15587 -0.46028,0.93743 -0.46028,-9.37432 z m 210.1643,13.37303 c -7.45072,-4.94681 -6.92727,-5.77962 0.88714,-1.41146 2.9146,1.62923 5.79661,2.6066 6.40449,2.17193 0.60788,-0.43465 0.75781,0.2572 0.33319,1.53745 -0.42464,1.28026 -0.85548,2.25528 -0.95745,2.16671 -0.10197,-0.0886 -3.10229,-2.09765 -6.66737,-4.46463 z m -194.27958,-0.62396 c 0.41043,-1.23741 0.97549,-2.24984 1.25571,-2.24984 0.28022,0 0.5095,1.01243 0.5095,2.24984 0,1.23741 -0.56507,2.24984 -1.25571,2.24984 -0.69063,0 -0.91991,-1.01243 -0.5095,-2.24984 z m 158.73112,-0.12494 c 0.0622,-1.7473 0.3694,-2.1027 0.78323,-0.90619 0.37449,1.08273 0.32844,2.37638 -0.10228,2.8748 -0.43079,0.4984 -0.73718,-0.38748 -0.68089,-1.96861 z m -132.23209,-1.49989 c 0.0622,-1.7473 0.36939,-2.1027 0.78323,-0.90619 0.37449,1.08273 0.32844,2.37638 -0.10229,2.8748 -0.43079,0.4984 -0.73718,-0.38748 -0.68089,-1.96861 z m 53.69796,-3.62479 c 1.29055,-1.64988 2.63814,-2.99978 2.99464,-2.99978 0.35651,0 -0.4077,1.3499 -1.69825,2.99978 -1.29054,1.64988 -2.63813,2.99978 -2.99464,2.99978 -0.35651,0 0.40771,-1.3499 1.69825,-2.99978 z m 6.43147,-1.56443 c -1.96917,-2.51748 -2.02292,-2.89828 -0.30115,-2.13388 1.15268,0.51176 2.41425,1.8907 2.80352,3.06434 0.96854,2.92021 0.32145,2.6796 -2.50237,-0.93046 z m 97.88178,-0.18197 c -1.48453,-3.34904 -1.44976,-3.38927 0.79008,-0.91412 1.28863,1.42401 1.98743,3.00046 1.55288,3.50322 -0.43456,0.50276 -1.4889,-0.66234 -2.34296,-2.5891 z m -81.63954,-12.87404 0.63502,-11.62766 0.39651,10.12427 c 0.21808,5.56835 0.98765,10.12427 1.71017,10.12427 0.72252,0 0.95312,0.67495 0.51245,1.49989 -0.44067,0.82494 -1.49601,1.50146 -2.3452,1.50338 -1.11635,0.003 -1.36809,-3.21693 -0.90895,-11.62415 z m -10.52334,5.99607 c -1.61255,-2.37892 -1.56669,-2.43197 0.48946,-0.5663 2.15947,1.95941 2.84621,3.19111 1.77923,3.19111 -0.2692,0 -1.29011,-1.18117 -2.26869,-2.62481 z m 89.71884,0.24998 c 0.0622,-1.74729 0.36939,-2.10269 0.78323,-0.90619 0.37449,1.08273 0.32844,2.37639 -0.10229,2.8748 -0.43078,0.4984 -0.73718,-0.38748 -0.68089,-1.96861 z m -103.88358,-4.74966 -4.46759,-5.62459 4.86147,5.16888 c 4.52496,4.81107 5.45754,6.08031 4.46759,6.08031 -0.21664,0 -2.4043,-2.53107 -4.86147,-5.6246 z m 8.48252,2.59897 c 1.41843,-2.04813 2.69975,-3.96891 2.84736,-4.26839 0.1476,-0.29948 0.17741,0.85272 0.0662,2.56045 -0.11123,1.70773 -0.46374,2.80231 -0.78347,2.43239 -0.31973,-0.36992 -1.51008,0.15362 -2.6452,1.16342 -1.25028,1.11224 -1.04723,0.36803 0.51509,-1.88787 z m 115.04537,-2.97394 c 0,-2.88729 0.2668,-4.06846 0.59288,-2.62481 0.32607,1.44365 0.32607,3.80597 0,5.24962 -0.32608,1.44365 -0.59288,0.26248 -0.59288,-2.62481 z m -18.45027,-0.5663 c 0,-0.31145 1.02091,-1.49262 2.26869,-2.62481 2.05616,-1.86567 2.10201,-1.81262 0.48947,0.5663 -1.69357,2.49844 -2.75816,3.29298 -2.75816,2.05851 z m -175.80711,-4.17711 c 0.48998,-2.89407 2.98781,-3.12271 3.90499,-0.35745 0.67985,2.0498 0.48954,2.19118 -1.01061,0.75074 -1.27497,-1.22424 -2.05818,-1.2784 -2.52523,-0.17466 -0.3912,0.92449 -0.54705,0.83218 -0.36915,-0.21863 z m 194.25738,-5.75583 c 0,-2.88729 0.2668,-4.06845 0.59288,-2.62481 0.32607,1.44365 0.32607,3.80598 0,5.24962 -0.32608,1.44365 -0.59288,0.26248 -0.59288,-2.62481 z m -114.90792,-0.23146 c 0.43131,-0.80741 1.10964,-1.09149 1.5074,-0.63129 0.39776,0.46019 1.65194,0.0315 2.78706,-0.95279 1.72266,-1.49367 1.79814,-1.44443 0.4565,0.29782 -1.84361,2.39409 -5.93436,3.50163 -4.75096,1.28626 z m -1.96587,-8.14293 c 0.0622,-1.7473 0.36939,-2.1027 0.78323,-0.90619 0.37449,1.08273 0.32844,2.37639 -0.10229,2.8748 -0.43079,0.4984 -0.73718,-0.38748 -0.68089,-1.96861 z m -86.63659,-0.15899 c 1.24778,-0.37725 3.2896,-0.37725 4.53737,0 1.24778,0.37727 0.22687,0.68595 -2.26868,0.68595 -2.49556,0 -3.51647,-0.30868 -2.26869,-0.68595 z m 57.70854,-5.75617 c -2.66335,-2.86498 -4.38207,-5.20904 -3.8194,-5.20904 0.56267,0 3.00206,2.36233 5.42084,5.24962 5.64346,6.73657 4.67594,6.71205 -1.60144,-0.0406 z m 117.84469,2.79038 c -0.47534,-0.54995 -0.85533,-1.73112 -0.84441,-2.62481 0.013,-1.04769 0.36415,-0.99858 0.98912,0.13829 0.53309,0.96972 3.2952,2.03744 6.13802,2.37268 l 5.16874,0.60954 -5.2936,0.25214 c -2.91149,0.13874 -5.68253,-0.19783 -6.15787,-0.7478 z m -66.98031,-8.74936 c 3.87287,-4.53717 7.33328,-8.2494 7.68979,-8.2494 0.35651,0 -2.52053,3.71223 -6.3934,8.2494 -3.87287,4.53717 -7.33328,8.2494 -7.68979,8.2494 -0.3565,0 2.52053,-3.71223 6.3934,-8.2494 z m -35.56747,-0.31028 c -0.70352,-2.13765 -0.55462,-2.30993 0.72573,-0.83964 0.88598,1.01743 1.28429,2.22769 0.88515,2.6895 -0.39915,0.4618 -1.12404,-0.37064 -1.61088,-1.84986 z m -31.84497,-11.50521 c 0,-0.31145 1.02091,-1.49261 2.26869,-2.62481 2.05615,-1.86567 2.10201,-1.81262 0.48946,0.5663 -1.69357,2.49845 -2.75815,3.29298 -2.75815,2.05851 z m 104.84247,-2.05851 c -1.61254,-2.37892 -1.56669,-2.43197 0.48947,-0.5663 1.24778,1.1322 2.26869,2.31336 2.26869,2.62481 0,1.23447 -1.06459,0.43994 -2.75816,-2.05851 z m -130.20369,-3.74973 -3.80763,-4.87464 4.21328,4.40531 c 3.92737,4.10638 4.80917,5.34398 3.80763,5.34398 -0.22311,0 -2.11909,-2.19359 -4.21328,-4.87465 z m 53.63879,3.85006 c 0.93583,-0.43327 2.05397,-0.38 2.48476,0.11834 0.43078,0.4984 -0.33491,0.8529 -1.70151,0.78777 -1.51024,-0.072 -1.81742,-0.42737 -0.78325,-0.90617 z m 55.74491,0 c 0.93582,-0.43327 2.05396,-0.38 2.48475,0.11834 0.43078,0.4984 -0.33491,0.8529 -1.70151,0.78777 -1.51023,-0.072 -1.81742,-0.42737 -0.78324,-0.90617 z m 44.32044,-2.54149 c 0,-0.31145 1.0209,-1.49262 2.26868,-2.62481 2.05616,-1.86567 2.10201,-1.81262 0.48947,0.5663 -1.69357,2.49844 -2.75815,3.29298 -2.75815,2.05851 z m -119.26817,-5.99957 c 0,-0.31145 1.02091,-1.49261 2.26869,-2.62481 2.05616,-1.86567 2.10201,-1.81261 0.48946,0.5663 -1.69356,2.49845 -2.75815,3.29298 -2.75815,2.05851 z m 86.69297,-2.05851 c -1.61254,-2.37891 -1.56669,-2.43197 0.48947,-0.5663 2.15946,1.95942 2.8462,3.19111 1.77922,3.19111 -0.2692,0 -1.29011,-1.18116 -2.26869,-2.62481 z m 39.05716,-0.94127 c 0,-0.31145 1.02091,-1.49262 2.26869,-2.62481 2.05616,-1.86567 2.10201,-1.81262 0.48946,0.5663 -1.69356,2.49844 -2.75815,3.29298 -2.75815,2.05851 z m -170.9192,-9.93294 c 0,-2.06235 0.29426,-2.90604 0.65389,-1.87486 0.35963,1.03117 0.35963,2.71855 0,3.74973 -0.35963,1.03117 -0.65389,0.18748 -0.65389,-1.87487 z m 11.46285,-17.24875 c 6.02915,-7.01199 11.25378,-12.74908 11.61029,-12.74908 0.35651,0 -4.28475,5.73709 -10.3139,12.74908 -6.02914,7.01199 -11.25378,12.74908 -11.61029,12.74908 -0.3565,0 4.28475,-5.73709 10.3139,-12.74908 z m 76.83596,10.20978 c 1.26135,-0.38029 3.01148,-0.35528 3.88918,0.0555 0.8777,0.41087 -0.15431,0.722 -2.29336,0.69144 -2.13905,-0.0306 -2.85717,-0.36673 -1.59582,-0.74701 z m 77.40619,-12.08464 -10.99071,-13.12405 11.34344,12.71596 c 6.23889,6.99378 11.34344,12.8996 11.34344,13.12405 0,1.09133 -1.48831,-0.52674 -11.69617,-12.71596 z m -28.49202,-2.62481 c 1.67462,-2.06235 3.33644,-3.74973 3.69294,-3.74973 0.35651,0 -0.72193,1.68738 -2.39655,3.74973 -1.67461,2.06235 -3.33643,3.74972 -3.69294,3.74972 -0.35651,0 0.72193,-1.68737 2.39655,-3.74972 z m -71.65008,-2.37007 c 0.45842,-2.02816 1.04606,-2.70805 1.36971,-1.58471 0.31175,1.08208 -0.0495,2.68054 -0.80287,3.55213 -0.96202,1.11302 -1.13073,0.52742 -0.56684,-1.96742 z m 44.72659,-11.8789 c 0,-2.88729 0.2668,-4.06846 0.59288,-2.62481 0.32607,1.44364 0.32607,3.80597 0,5.24962 -0.32608,1.44364 -0.59288,0.26248 -0.59288,-2.62481 z m 39.56332,3.50632 c 0.89127,-0.41608 2.34972,-0.41608 3.24099,0 0.89127,0.41609 0.16204,0.75653 -1.6205,0.75653 -1.78254,0 -2.51176,-0.34044 -1.62049,-0.75653 z m -71.30162,-22.6108 c 3.74334,-0.30298 9.8688,-0.30298 13.61213,0 3.74334,0.30298 0.68061,0.55088 -6.80606,0.55088 -7.48667,0 -10.5494,-0.2479 -6.80607,-0.55088 z M 151.50255,27.300279 c 58.64559,-0.21589 154.61109,-0.21589 213.25667,0 58.64558,0.21589 10.66283,0.392526 -106.62833,0.392526 -117.29117,0 -165.273919,-0.176636 -106.62834,-0.392526 z M 369.62069,15.859655 c 0,-0.311461 1.02091,-1.492625 2.26869,-2.62481 2.05616,-1.865671 2.10201,-1.812619 0.48947,0.566292 -1.69357,2.498441 -2.75816,3.29298 -2.75816,2.058518 z m 72.43265,-2.058518 c -1.61255,-2.378911 -1.56669,-2.431963 0.48946,-0.566292 2.15947,1.959413 2.84621,3.191102 1.77923,3.191102 -0.2692,0 -1.29011,-1.181165 -2.26869,-2.62481 z m -51.29078,-2.996248 c 9.13245,-0.25819 23.71687,-0.257441 32.40982,0.0017 8.69294,0.259106 1.22092,0.470352 -16.60448,0.469436 -17.82541,-9.16e-4 -24.93781,-0.212911 -15.80534,-0.4711 z"
       style="fill:#d0d0d0;fill-opacity:1;stroke-width:1.39443" />
    <path
       id="path125"
       d="m 40.093773,501.36615 c 0.935833,-0.43327 2.053972,-0.37999 2.484753,0.11834 0.43078,0.4984 -0.334902,0.8529 -1.701515,0.78778 -1.510225,-0.072 -1.817414,-0.42738 -0.783238,-0.90618 z m 435.588077,0 c 0.93583,-0.43327 2.05398,-0.37999 2.48476,0.11834 0.43078,0.4984 -0.33491,0.8529 -1.70152,0.78778 -1.51023,-0.072 -1.81741,-0.42738 -0.78324,-0.90618 z m 18.39258,-9.94398 c 0,-0.25813 1.89597,-2.45172 4.21328,-4.87464 l 4.21327,-4.40532 -3.80762,4.87465 c -3.54924,4.54386 -4.61893,5.56407 -4.61893,4.40531 z m -475.874385,-5.15526 -3.142864,-4.1247 3.565081,3.6362 c 1.960795,1.99993 3.565081,3.85604 3.565081,4.1247 0,1.17634 -1.049818,0.21896 -3.987298,-3.6362 z m 238.983215,-7.41395 c 1.26135,-0.38028 3.01148,-0.35528 3.88918,0.0557 0.8777,0.41086 -0.15431,0.722 -2.29336,0.69143 -2.13905,-0.0306 -2.85717,-0.36672 -1.59582,-0.747 z m -9.73887,-3.83523 c -1.67898,-1.85612 -2.14904,-2.62555 -1.04458,-1.70985 1.10448,0.9157 3.17488,2.41381 4.60091,3.32914 1.42604,0.91533 1.8961,1.68477 1.04459,1.70985 -0.85151,0.025 -2.92192,-1.47303 -4.60092,-3.32914 z m 23.00223,-1.12492 c 1.29055,-1.64988 2.63813,-2.99979 2.99464,-2.99979 0.35651,0 -0.4077,1.34991 -1.69825,2.99979 -1.29054,1.64988 -2.63813,2.99978 -2.99464,2.99978 -0.35651,0 0.4077,-1.3499 1.69825,-2.99978 z M 8.5563897,265.40791 c 0,-109.30458 0.1542443,-154.02009 0.3427652,-99.3678 0.1885208,54.65229 0.1885208,144.08331 0,198.7356 C 8.710634,419.428 8.5563897,374.71249 8.5563897,265.40791 Z M 275.93193,450.01478 c -0.56389,-2.49485 -0.39518,-3.08045 0.56684,-1.96743 0.75333,0.87159 1.11462,2.47006 0.80287,3.55214 -0.32365,1.12334 -0.91129,0.44344 -1.36971,-1.58471 z m -30.76498,-8.36964 c 1.67462,-2.06235 3.33644,-3.74972 3.69295,-3.74972 0.35651,0 -0.72194,1.68737 -2.39655,3.74972 -1.67462,2.06235 -3.33644,3.74973 -3.69295,3.74973 -0.3565,0 0.72194,-1.68738 2.39655,-3.74973 z m 25.82974,-0.37497 -3.14286,-4.1247 3.56509,3.6362 c 3.3321,3.39859 4.15959,4.6132 3.14285,4.6132 -0.23221,0 -1.83649,-1.85611 -3.56508,-4.1247 z M 255.8622,435.3616 c 1.24778,-0.37725 3.2896,-0.37725 4.53737,0 1.24778,0.37727 0.22687,0.68595 -2.26868,0.68595 -2.49556,0 -3.51647,-0.30868 -2.26869,-0.68595 z m -14.74979,-64.58632 c -1.64579,-2.42797 -1.58478,-2.45979 0.81356,-0.42443 1.42603,1.21022 2.83586,2.39139 3.13296,2.62481 0.29708,0.23343 -0.069,0.42443 -0.81357,0.42443 -0.74454,0 -2.15437,-1.18117 -3.13295,-2.62481 z m 37.34053,-0.37498 c 0.58764,-1.23741 1.41164,-6.97449 1.83111,-12.74907 l 0.76267,-10.49924 0.20963,9.83759 c 0.14928,7.00602 -0.37777,10.67561 -1.83112,12.74908 -1.12239,1.60131 -1.55992,1.89906 -0.97229,0.66164 z m -39.46719,-8.99934 c 0,-2.88729 0.2668,-4.06846 0.59288,-2.62481 0.32607,1.44364 0.32607,3.80597 0,5.24962 -0.32608,1.44364 -0.59288,0.26248 -0.59288,-2.62481 z m -52.84526,-19.87356 -7.73778,-9.37432 8.39437,8.99934 c 4.61689,4.94964 8.65192,9.16809 8.96671,9.37432 0.3148,0.20624 0.0193,0.37498 -0.65659,0.37498 -0.67591,0 -4.71093,-4.21845 -8.96671,-9.37432 z m 20.78287,1.87486 c 2.78496,-3.29976 5.35527,-5.99956 5.71178,-5.99956 0.35651,0 -1.63042,2.6998 -4.41539,5.99956 -2.78496,3.29976 -5.35527,5.99957 -5.71178,5.99957 -0.3565,0 1.63043,-2.69981 4.41539,-5.99957 z m 30.61562,2.7498 c -0.0827,-2.19983 -0.8796,-4.34015 -1.77087,-4.75623 -1.26925,-0.59255 -1.26044,-0.7822 0.0407,-0.87494 2.05659,-0.14654 3.29749,3.30401 2.48803,6.91846 -0.40953,1.8287 -0.65645,1.40929 -0.75784,-1.28729 z m 84.11517,2.15185 c 1.78254,-0.37918 4.11605,-1.46843 5.18557,-2.42056 1.6919,-1.50619 1.71339,-1.39007 0.16537,0.89367 -0.98074,1.44682 -3.30796,2.53313 -5.18557,2.42055 l -3.40636,-0.20425 z m -40.18819,-7.26663 c 0,-1.01258 6.73414,-3.84278 7.37613,-3.10002 0.29402,0.34017 -1.24533,1.33637 -3.42077,2.21378 -2.17545,0.8774 -3.95536,1.27621 -3.95536,0.88624 z m 26.45289,-2.50967 -2.46962,-3.37475 2.91689,2.85728 c 2.74114,2.68513 3.50705,3.89223 2.46961,3.89223 -0.246,0 -1.5586,-1.51864 -2.91688,-3.37476 z m -78.30861,0.37498 c -1.06953,-0.79969 -1.36121,-1.45395 -0.6482,-1.45395 0.71302,0 2.17146,0.65426 3.24098,1.45395 1.06953,0.79968 1.36122,1.45395 0.6482,1.45395 -0.71302,0 -2.17146,-0.65427 -3.24098,-1.45395 z m 109.54521,-7.49946 c 4.23347,-4.94964 7.98888,-8.99935 8.34539,-8.99935 0.35651,0 -2.81553,4.04971 -7.04899,8.99935 -4.23347,4.94964 -7.98888,8.99935 -8.34539,8.99935 -0.35651,0 2.81553,-4.04971 7.04899,-8.99935 z m -85.20358,-5.59984 c 3.04917,-0.31684 7.71619,-0.31239 10.37115,0.0105 2.65496,0.32229 0.16019,0.58153 -5.54394,0.57608 -5.70413,-0.006 -7.87638,-0.26914 -4.82721,-0.58599 z m -10.32438,-1.42432 c 0.93583,-0.43327 2.05396,-0.37999 2.48476,0.11834 0.43077,0.4984 -0.33491,0.8529 -1.70152,0.78778 -1.51023,-0.072 -1.81741,-0.42738 -0.78324,-0.90618 z m 28.52065,0 c 0.93582,-0.43327 2.05396,-0.37999 2.48475,0.11834 0.43078,0.4984 -0.33491,0.8529 -1.70151,0.78778 -1.51024,-0.072 -1.81742,-0.42738 -0.78324,-0.90618 z m 24.87454,-11.54084 c 0,-0.31145 1.02091,-1.49261 2.26869,-2.62481 2.05615,-1.86567 2.10201,-1.81261 0.48946,0.5663 -1.69357,2.49845 -2.75815,3.29299 -2.75815,2.05851 z m -119.26817,-4.68332 c 1.67462,-2.06235 3.33644,-3.74972 3.69295,-3.74972 0.35651,0 -0.72194,1.68737 -2.39655,3.74972 -1.67462,2.06235 -3.33644,3.74973 -3.69295,3.74973 -0.35651,0 0.72194,-1.68738 2.39655,-3.74973 z m 128.99112,-5.24962 c 1.29054,-1.64988 2.63813,-2.99978 2.99464,-2.99978 0.35651,0 -0.4077,1.3499 -1.69825,2.99978 -1.29055,1.64988 -2.63813,2.99979 -2.99464,2.99979 -0.35651,0 0.4077,-1.34991 1.69825,-2.99979 z m -122.37901,-4.05648 c 0.94397,-1.81861 1.99535,-2.98369 2.3364,-2.5891 0.34106,0.39459 -0.43127,1.88253 -1.71629,3.30654 -2.23231,2.47376 -2.25994,2.44179 -0.62011,-0.71744 z m 148.7897,-1.56811 c -1.61255,-2.37892 -1.56669,-2.43197 0.48946,-0.5663 1.24778,1.1322 2.26869,2.31336 2.26869,2.62481 0,1.23447 -1.06458,0.43994 -2.75815,-2.05851 z m -58.81134,-3.35758 c -0.45418,-0.85023 0.0662,-1.10167 1.21988,-0.58947 2.2459,0.99711 2.65681,2.07219 0.79204,2.07219 -0.67093,0 -1.57631,-0.66723 -2.01192,-1.48272 z m 42.21192,-4.92063 c 1.83113,-1.9155 3.09498,-4.2961 2.80856,-5.29023 -0.32317,-1.12167 0.25817,-1.46167 1.53216,-0.89605 3.00381,1.33362 2.49275,2.44994 -2.86343,6.25467 l -4.8066,3.41435 z m -46.75848,-1.14318 c 0,-0.79905 0.87507,-1.45282 1.94459,-1.45282 1.06953,0 1.94459,0.26527 1.94459,0.58947 0,0.32422 -0.87506,0.97798 -1.94459,1.45283 -1.06952,0.47483 -1.94459,0.20956 -1.94459,-0.58948 z m -80.90898,-1.32783 c -0.2302,-0.48121 -1.43277,-4.46926 -2.67238,-8.86234 l -2.25382,-7.9874 -9.58934,0.48795 c -5.27415,0.26837 -9.588,-0.0183 -9.58634,-0.63698 0.005,-1.96199 18.79659,-1.27716 20.57777,0.74995 1.32829,1.51169 1.49991,1.00326 0.88593,-2.62481 -0.41882,-2.47482 0.63242,-0.44997 2.33608,4.49967 4.80555,13.96155 5.03696,15.2489 2.74106,15.2489 -1.11122,0 -2.20876,-0.39372 -2.43896,-0.87494 z m 89.74066,0.35031 c 0.93583,-0.43327 2.05397,-0.38 2.48476,0.11834 0.43078,0.4984 -0.33491,0.8529 -1.70152,0.78777 -1.51023,-0.072 -1.81741,-0.42737 -0.78324,-0.90617 z m -9.01565,-15.09924 c -0.12769,-9.10943 -0.42511,-11.3478 -0.97229,-7.3174 -0.77965,5.74274 -0.81716,5.77575 -3.40854,2.99978 -1.44111,-1.54378 -2.05366,-2.30065 -1.36122,-1.68195 2.42135,2.16349 3.33324,1.08532 3.33324,-3.94105 0,-5.49487 -2.76934,-9.3507 -5.45289,-7.5922 -1.33833,0.87702 -1.35328,0.69495 -0.0739,-0.90092 1.32484,-1.65267 2.12577,-1.4322 4.61127,1.26934 1.89168,2.05611 3.46162,2.74192 4.23045,1.84802 0.76604,-0.89065 1.06532,3.67466 0.80156,12.22684 -0.3122,10.1229 0.0227,13.97361 1.29639,14.90795 1.30591,0.95792 1.17382,1.2652 -0.55136,1.28267 -1.97544,0.0199 -2.29246,-1.67338 -2.45266,-13.10108 z m -3.19667,6.26471 c -0.47295,-2.18019 -0.20167,-4.5949 0.6235,-5.54959 1.08341,-1.25348 1.46075,-0.25647 1.46075,3.85955 0,6.46282 -0.89198,7.18611 -2.08425,1.69004 z m 16.34457,-1.39006 c 2.41879,-2.8873 4.68949,-5.24962 5.04599,-5.24962 0.35651,0 -1.33081,2.36232 -3.74959,5.24962 -2.41879,2.88729 -4.68948,5.24962 -5.04599,5.24962 -0.35651,0 1.33081,-2.36233 3.74959,-5.24962 z m 14.78473,3.51798 c -0.54995,-1.02951 -0.35793,-1.32615 0.47358,-0.73159 0.76921,0.55004 1.66674,-0.18936 1.99451,-1.64312 0.45349,-2.01143 0.63186,-1.83658 0.74631,0.73159 0.15989,3.58816 -1.67449,4.52586 -3.2144,1.64312 z m -65.24171,-1.05365 c -0.065,-1.29154 -0.9143,-1.67485 -2.3242,-1.04889 -1.43636,0.6377 -1.09262,-0.23352 0.9723,-2.46435 2.85212,-3.08127 3.23851,-3.1697 3.60841,-0.82596 0.22784,1.44365 0.82807,2.62481 1.33384,2.62481 0.50576,0 4.6717,-4.38003 9.25761,-9.73339 6.47491,-7.55848 7.99119,-10.13468 6.78579,-11.52929 -1.20541,-1.39463 -2.3527,-0.9965 -5.13451,1.78173 -1.97023,1.96769 -1.54043,1.15675 0.95513,-1.80212 3.92748,-4.65662 4.80854,-5.10399 6.55476,-3.32818 1.7192,1.74832 2.38508,1.6681 4.50482,-0.54259 1.36809,-1.42678 -3.03072,3.9982 -9.7751,12.05555 -6.74439,8.05732 -12.96335,14.33854 -13.81991,13.95824 -0.85656,-0.38028 -1.8407,0.11429 -2.18698,1.09918 -0.43395,1.23415 -0.66142,1.15811 -0.73196,-0.24474 z m 21.93634,-24.21276 c 0,-0.82494 -0.61781,-1.49989 -1.37291,-1.49989 -0.7551,0 -1.01235,0.67495 -0.57168,1.49989 0.44067,0.82494 1.05848,1.49989 1.3729,1.49989 0.31443,0 0.57169,-0.67495 0.57169,-1.49989 z m 84.59079,19.49859 c 0.32171,-1.38491 2.22859,-2.33104 4.96017,-2.46107 4.06515,-0.1935 4.11152,-0.15068 0.55257,0.51031 -2.13673,0.39686 -4.36881,1.50433 -4.96017,2.46107 -0.72608,1.1747 -0.9055,1.00899 -0.55257,-0.51031 z m -179.55159,-1.54663 c 1.60429,-0.74608 2.91689,-2.16568 2.91689,-3.15469 0,-0.98901 0.37482,-1.36456 0.83293,-0.83453 1.26383,1.46222 -2.15878,5.54882 -4.55674,5.44077 -1.42785,-0.0643 -1.16699,-0.5336 0.80692,-1.45155 z m 132.80893,-2.2031 c 0.0264,-2.47482 0.31697,-3.30567 0.64565,-1.84632 0.32869,1.45935 0.30708,3.4842 -0.0481,4.49967 -0.35512,1.01547 -0.62405,-0.17853 -0.59763,-2.65335 z m 6.43392,0.74995 c 0,-2.06235 0.29425,-2.90604 0.65389,-1.87487 0.35963,1.03118 0.35963,2.71855 0,3.74973 -0.35964,1.03118 -0.65389,0.18749 -0.65389,-1.87486 z m -146.72311,-0.7862 c -0.90193,-1.25735 -1.3888,-2.57655 -1.08196,-2.93157 0.30686,-0.35501 1.27,0.67372 2.14032,2.28609 1.88212,3.48683 1.25443,3.86966 -1.05836,0.64548 z m 137.65114,-3.21583 c -0.11408,-2.61359 -0.54525,-5.77037 -0.95807,-7.01505 -0.56368,-1.69951 -0.0795,-2.06001 1.94459,-1.44764 1.67664,0.50728 2.68768,2.02471 2.67534,4.01527 -0.0156,2.49944 -0.27739,2.72897 -1.19644,1.04859 -0.86682,-1.58489 -1.31894,-0.79512 -1.71727,2.99978 l -0.54068,5.15102 z m 65.5996,2.94121 c 1.61259,-0.35876 3.9461,-0.34514 5.18557,0.0303 1.23947,0.37541 -0.08,0.66895 -2.932,0.6523 -2.85207,-0.0167 -3.86617,-0.32381 -2.25357,-0.68257 z m -117.0146,-3.43886 c 1.29055,-1.64988 2.63814,-2.99978 2.99465,-2.99978 0.3565,0 -0.40771,1.3499 -1.69825,2.99978 -1.29055,1.64988 -2.63814,2.99978 -2.99465,2.99978 -0.3565,0 0.40771,-1.3499 1.69825,-2.99978 z m 125.85007,0.9895 c 0.50225,-1.51433 -1.07716,-2.95947 -5.24899,-4.80281 -12.42722,-5.49099 -16.02237,-18.18591 -7.27903,-25.70317 2.75615,-2.36963 9.99337,-3.86326 13.13294,-2.71038 2.63101,0.96614 3.57929,5.22882 1.16322,5.22882 -0.7551,0 -1.01779,-0.66478 -0.58375,-1.47731 0.82015,-1.53533 -5.34695,-0.60255 -10.51891,1.59098 -3.35626,1.42348 -4.95671,7.83085 -3.00818,12.04322 0.78767,1.70278 3.49004,4.0908 6.00527,5.3067 2.51522,1.2159 4.26836,2.56335 3.89586,2.99433 -0.37251,0.43097 -1.85565,0.054 -3.29588,-0.83781 -1.44022,-0.89178 -3.09447,-1.59313 -3.67611,-1.55854 -1.26058,0.075 7.54947,5.78291 9.06604,5.87381 0.57684,0.0346 0.62699,-0.72677 0.11149,-1.6919 -0.6244,-1.16888 -0.23895,-1.4447 1.15442,-0.82608 1.72738,0.76691 2.17434,-0.42984 2.56564,-6.8696 l 0.47386,-7.79829 0.23981,7.92149 c 0.17247,5.69712 -0.28327,8.15374 -1.62293,8.74851 -1.0245,0.45486 -1.56811,1.71531 -1.20801,2.801 0.36009,1.0857 0.0383,2.4148 -0.7152,2.95356 -0.81171,0.58041 -1.07719,0.0969 -0.65149,-1.18653 z m -12.96838,-14.14926 c -2.23984,-2.47515 -2.27461,-2.43492 -0.79008,0.91412 0.85406,1.92676 1.9084,3.09186 2.34296,2.5891 0.43455,-0.50276 -0.26425,-2.07921 -1.55288,-3.50322 z m -2.45089,-6.62006 c -0.41384,-1.1965 -0.72103,-0.8411 -0.78323,0.90619 -0.0563,1.58113 0.25011,2.46701 0.68089,1.96861 0.43078,-0.49841 0.47683,-1.79207 0.10229,-2.8748 z m 3.16897,-6.84325 c 1.61254,-2.37892 1.56669,-2.43197 -0.48947,-0.5663 -2.15947,1.95941 -2.8462,3.19111 -1.77922,3.19111 0.26919,0 1.2901,-1.18116 2.26869,-2.62481 z m -188.14237,25.07694 c 0,-1.05116 16.05107,-0.3271 18.7977,0.84795 0.71302,0.30503 -3.22478,0.48838 -8.75065,0.40743 -5.52588,-0.081 -10.04705,-0.64587 -10.04705,-1.25538 z m 132.06673,-2.57857 c -1.61255,-2.37892 -1.56669,-2.43197 0.48946,-0.5663 1.24778,1.13219 2.26869,2.31336 2.26869,2.62481 0,1.23447 -1.06458,0.43993 -2.75815,-2.05851 z M 178.21581,251.53392 c -2.19113,-6.80576 -4.42045,-13.55527 -4.95406,-14.99892 -0.67465,-1.82517 -0.3839,-2.62481 0.95435,-2.62481 2.71329,0 4.15538,2.54592 6.79669,11.99913 1.26772,4.53717 2.61081,9.20382 2.98462,10.37031 0.44179,1.37857 0.13063,1.72833 -0.88897,0.99926 -1.14239,-0.81686 -1.3402,-0.0686 -0.72797,2.75372 1.63241,7.52497 -0.22829,3.72792 -4.16466,-8.49869 z m -1.28887,-13.874 c -0.41043,-1.23741 -1.33861,-2.24984 -2.06264,-2.24984 -0.7588,0 -0.6328,0.95305 0.29743,2.24984 0.88763,1.23741 1.81582,2.24984 2.06264,2.24984 0.24682,0 0.11304,-1.01243 -0.29743,-2.24984 z m -11.46538,22.49837 c 0.13531,-0.82494 1.56297,-6.11581 3.17256,-11.75748 2.10632,-7.38278 3.32126,-9.80088 4.33504,-8.62796 1.01377,1.1729 0.57252,4.63276 -1.57441,12.34514 -1.8619,6.68848 -3.36081,10.00813 -3.98842,8.83323 -0.55302,-1.03527 -1.27219,-1.29973 -1.59814,-0.58767 -0.32597,0.71204 -0.48195,0.61968 -0.34663,-0.20526 z m 25.69275,-12.74908 c 0,-6.18705 0.22882,-8.71811 0.50852,-5.62459 0.27968,3.09353 0.27968,8.15566 0,11.24919 -0.2797,3.09352 -0.50852,0.56246 -0.50852,-5.6246 z m 83.66432,7.87443 c -1.61255,-2.37891 -1.56669,-2.43197 0.48946,-0.5663 1.24778,1.1322 2.26869,2.31336 2.26869,2.62481 0,1.23448 -1.06458,0.43994 -2.75815,-2.05851 z m 6.9961,1.5854 c 1.26135,-0.38028 3.01148,-0.35528 3.88918,0.0557 0.8777,0.41087 -0.15431,0.722 -2.29336,0.69143 -2.13905,-0.0306 -2.85717,-0.36672 -1.59582,-0.747 z m 44.16446,-9.45983 c 0,-6.18705 0.22882,-8.71811 0.50852,-5.62459 0.27968,3.09353 0.27968,8.15566 0,11.24919 -0.2797,3.09352 -0.50852,0.56246 -0.50852,-5.6246 z m -65.95245,-3.37475 -6.43323,-7.87443 6.80606,7.44307 6.80607,7.44308 v -10.81783 c 0,-8.61592 0.39581,-10.81783 1.94459,-10.81783 1.57076,0 1.90057,2.09046 1.71566,10.87421 l -0.22892,10.87421 -0.83855,-10.49924 -0.83854,-10.49924 -0.22892,10.87422 c -0.12588,5.98081 -0.6884,10.87421 -1.24996,10.87421 -0.56157,0 -3.91598,-3.5435 -7.45426,-7.87443 z m -26.7704,-5.14929 c 0.93583,-0.43328 2.05397,-0.38 2.48476,0.11834 0.43078,0.4984 -0.33491,0.8529 -1.70151,0.78777 -1.51024,-0.072 -1.81742,-0.42738 -0.78325,-0.90617 z m 57.93257,-10.97454 c 4.23346,-4.94964 7.98888,-8.99935 8.34539,-8.99935 0.35651,0 -2.81553,4.04971 -7.049,8.99935 -4.23346,4.94964 -7.98888,8.99934 -8.34539,8.99934 -0.3565,0 2.81554,-4.0497 7.049,-8.99934 z m -35.12578,4.87464 c 1.35828,-1.85611 3.4001,-3.32146 4.53737,-3.25634 1.75503,0.1005 1.77366,0.24353 0.12316,0.94567 -1.06953,0.45498 -3.11134,1.92034 -4.53738,3.25634 -2.57071,2.40841 -2.57176,2.40035 -0.12315,-0.94567 z m 68.28615,-1.2499 c 0.0622,-1.7473 0.3694,-2.1027 0.78323,-0.90619 0.37449,1.08273 0.32844,2.37638 -0.10228,2.8748 -0.43079,0.4984 -0.73718,-0.38749 -0.68089,-1.96861 z m -104.53627,-1.25228 c -1.38293,-1.16996 -2.07781,-2.63235 -1.54418,-3.24976 0.53365,-0.61741 0.97026,-0.33511 0.97026,0.62731 0,0.96244 0.87507,1.74988 1.94459,1.74988 1.06953,0 1.94459,0.67495 1.94459,1.49989 0,1.96354 -0.32563,1.90192 -3.31526,-0.62732 z m 32.27088,1.12401 c 0.47689,-0.55177 -0.1551,-2.40788 -1.40444,-4.1247 -2.26557,-3.11334 -2.26397,-3.11411 0.6148,-0.29623 2.54758,2.49369 2.93132,5.42413 0.7103,5.42413 -0.43327,0 -0.39757,-0.45144 0.0793,-1.0032 z m -95.39576,-5.98971 c 0.89127,-0.41609 2.34971,-0.41609 3.24098,0 0.89127,0.41608 0.16205,0.75653 -1.62049,0.75653 -1.78254,0 -2.51176,-0.34045 -1.62049,-0.75653 z m 14.93319,-1.54596 c 1.26135,-0.38028 3.01148,-0.35527 3.88918,0.0556 0.87769,0.41087 -0.15431,0.722 -2.29336,0.69144 -2.13905,-0.0306 -2.85717,-0.36673 -1.59582,-0.74701 z m 45.12734,-1.33541 c 0.0622,-1.7473 0.36939,-2.1027 0.78323,-0.90619 0.37449,1.08273 0.32844,2.37638 -0.10229,2.8748 -0.43079,0.4984 -0.73718,-0.38748 -0.68089,-1.96861 z m 16.75076,-2.8748 c 2.41878,-2.88729 4.68948,-5.24962 5.04599,-5.24962 0.3565,0 -1.33082,2.36233 -3.7496,5.24962 -2.41878,2.8873 -4.68948,5.24962 -5.04599,5.24962 -0.35651,0 1.33081,-2.36232 3.7496,-5.24962 z m 116.35128,2.66471 c 2.3173,-0.3327 6.10925,-0.3327 8.42655,0 2.3173,0.33272 0.42133,0.60495 -4.21328,0.60495 -4.6346,0 -6.53058,-0.27223 -4.21327,-0.60495 z m -99.29349,-3.41465 c 0,-2.06235 0.29426,-2.90604 0.65389,-1.87487 0.35963,1.03118 0.35963,2.71856 0,3.74973 -0.35963,1.03118 -0.65389,0.18749 -0.65389,-1.87486 z m 17.29662,0 c 1.29055,-1.64988 2.63814,-2.99978 2.99465,-2.99978 0.3565,0 -0.40771,1.3499 -1.69825,2.99978 -1.29055,1.64988 -2.63814,2.99978 -2.99464,2.99978 -0.35651,0 0.4077,-1.3499 1.69824,-2.99978 z m -51.10517,-2.37482 c 0.0622,-1.7473 0.36939,-2.1027 0.78323,-0.90619 0.37449,1.08272 0.32844,2.37638 -0.10229,2.87479 -0.43079,0.4984 -0.73718,-0.38748 -0.68089,-1.9686 z m 82.80348,-4.71058 c -0.35582,-3.4845 -0.15295,-5.76392 0.45082,-5.06537 0.60377,0.69854 0.8949,3.54951 0.64694,6.33545 -0.43973,4.94067 -0.46676,4.90941 -1.09776,-1.27008 z m -27.16093,2.11639 c 0,-0.25813 1.89597,-2.45172 4.21328,-4.87464 l 4.21328,-4.40532 -3.80763,4.87465 c -3.54924,4.54386 -4.61893,5.56407 -4.61893,4.40531 z m -36.46437,-5.15526 c -1.61255,-2.37892 -1.5667,-2.43197 0.48946,-0.5663 1.24778,1.1322 2.26869,2.31336 2.26869,2.62481 0,1.23447 -1.06459,0.43994 -2.75815,-2.05851 z m -5.45234,-5.87458 c -1.58411,-1.83276 -0.89115,-3.50115 1.40443,-3.38132 1.36866,0.0714 1.6226,0.41977 0.64012,0.87805 -0.89572,0.41779 -1.29882,1.37694 -0.89579,2.13142 0.85118,1.59344 0.11344,1.83224 -1.14876,0.37185 z m 61.11953,-3.02444 c 0.93583,-0.43327 2.05397,-0.38 2.48476,0.11834 0.43078,0.4984 -0.33491,0.8529 -1.70152,0.78778 -1.51023,-0.072 -1.81741,-0.42738 -0.78324,-0.90618 z m 39.13487,-0.38678 c 0,-0.77625 0.5767,-1.82374 1.28155,-2.32774 0.73487,-0.52547 0.9522,0.0767 0.50949,1.41137 -0.86183,2.59844 -1.79104,3.07386 -1.79104,0.91637 z m -119.91636,-7.58798 c 2.78496,-3.29976 5.35527,-5.99956 5.71178,-5.99956 0.3565,0 -1.63043,2.6998 -4.41539,5.99956 -2.78496,3.29977 -5.35527,5.99957 -5.71178,5.99957 -0.35651,0 1.63042,-2.6998 4.41539,-5.99957 z m 95.21511,0.37498 -4.4676,-5.6246 4.86148,5.16889 c 4.52495,4.81106 5.45754,6.0803 4.46759,6.0803 -0.21664,0 -2.4043,-2.53107 -4.86147,-5.62459 z m -130.29928,-3.74973 -3.80762,-4.87465 4.21327,4.40532 c 3.92737,4.10637 4.80917,5.34398 3.80763,5.34398 -0.22311,0 -2.11909,-2.1936 -4.21328,-4.87465 z m 160.1861,2.80846 c 0,-0.31146 1.02091,-1.49262 2.26869,-2.62481 2.05616,-1.86567 2.10201,-1.81262 0.48947,0.56629 -1.69357,2.49845 -2.75816,3.29299 -2.75816,2.05852 z m -84.58965,-21.42553 c 0.89127,-0.41609 2.34971,-0.41609 3.24098,0 0.89128,0.41608 0.16205,0.75653 -1.62049,0.75653 -1.78254,0 -2.51176,-0.34045 -1.62049,-0.75653 z m 12.34041,-0.0461 c 1.26135,-0.38028 3.01148,-0.35528 3.88918,0.0555 0.87769,0.41086 -0.15431,0.722 -2.29336,0.69143 -2.13905,-0.0306 -2.85717,-0.36672 -1.59582,-0.747 z m -50.38308,-8.33493 -2.46961,-3.37475 3.24098,2.98379 c 1.78254,1.64109 3.48406,3.15973 3.78115,3.37476 0.29708,0.21502 -0.05,0.39096 -0.77138,0.39096 -0.72134,0 -2.42285,-1.51864 -3.78114,-3.37476 z m 85.03692,0.80512 c 1.06953,-0.45812 2.81966,-1.58599 3.88918,-2.5064 1.6898,-1.4542 1.71146,-1.32955 0.16537,0.95134 -0.97858,1.44364 -2.72871,2.57152 -3.88918,2.50639 -1.76497,-0.099 -1.79202,-0.25459 -0.16537,-0.95133 z m -92.81527,-8.30457 -2.46962,-3.37476 2.91688,2.85728 c 2.74115,2.68514 3.50706,3.89223 2.46962,3.89223 -0.246,0 -1.5586,-1.51864 -2.91688,-3.37475 z m 73.87436,-0.26589 c -0.39051,-1.17742 -0.45165,-3.70849 -0.13585,-5.6246 0.44866,-2.72226 0.61277,-2.44555 0.75072,1.26582 0.0971,2.61231 0.90576,5.09009 1.79703,5.50618 1.26925,0.59255 1.26043,0.78219 -0.0407,0.87494 -0.91366,0.0651 -1.98069,-0.84493 -2.37122,-2.02234 z m 29.96025,-0.85903 c 1.29055,-1.64988 2.63814,-2.99978 2.99465,-2.99978 0.3565,0 -0.40771,1.3499 -1.69825,2.99978 -1.29055,1.64988 -2.63814,2.99978 -2.99465,2.99978 -0.3565,0 0.40771,-1.3499 1.69825,-2.99978 z m -72.81035,-13.49902 c 0,-6.18705 0.22883,-8.71812 0.50853,-5.6246 0.27968,3.09353 0.27968,8.15566 0,11.24919 -0.2797,3.09353 -0.50853,0.56246 -0.50853,-5.62459 z m 41.37565,-5.24962 c 0.0144,-3.29976 0.27987,-4.47306 0.58996,-2.60733 0.31008,1.86574 0.29831,4.56554 -0.0262,5.99957 -0.32445,1.43403 -0.57816,-0.0925 -0.56377,-3.39224 z m -40.51511,-7.31581 c 0,-0.31146 1.02091,-1.49262 2.26868,-2.6248 2.05616,-1.86568 2.10201,-1.81263 0.48947,0.56629 -1.69357,2.49844 -2.75815,3.29298 -2.75815,2.05851 z m 30.87036,-4.95797 c 0.93582,-0.43328 2.05396,-0.37999 2.48475,0.11841 0.43078,0.4984 -0.33491,0.8529 -1.70151,0.78777 -1.51023,-0.072 -1.81741,-0.42738 -0.78324,-0.90618 z M 139.83502,81.296343 c 65.77574,-0.214877 173.40878,-0.214877 239.18452,0 65.77575,0.214878 11.95923,0.390688 -119.59226,0.390688 -131.55149,0 -185.368008,-0.17581 -119.59226,-0.390688 z M 19.594557,42.674045 c 2.418788,-2.887291 4.689487,-5.249619 5.045995,-5.249619 0.356508,0 -1.330814,2.362328 -3.749602,5.249619 -2.418788,2.887291 -4.689486,5.24962 -5.045994,5.24962 -0.356509,0 1.330812,-2.362329 3.749601,-5.24962 z m 477.002873,-0.374973 -4.46759,-5.624592 4.86147,5.168876 c 2.67381,2.842882 4.86148,5.373949 4.86148,5.624593 0,1.145347 -1.09704,0.06637 -5.25536,-5.168877 z M 42.686559,28.900372 c 0.935834,-0.433275 2.053973,-0.379988 2.484754,0.118417 0.430779,0.498401 -0.334903,0.852899 -1.701516,0.787772 -1.510224,-0.07196 -1.817414,-0.42738 -0.783238,-0.906184 z m 430.402511,0 c 0.93582,-0.433275 2.05397,-0.379988 2.48475,0.118417 0.43078,0.498401 -0.33491,0.852899 -1.70151,0.787772 -1.51024,-0.07196 -1.81742,-0.42738 -0.78324,-0.906184 z M 369.1728,21.300594 c -0.3305,-0.618706 16.78898,-1.124919 38.04329,-1.124919 21.25431,0 38.37379,0.506213 38.04329,1.124919 -0.78537,1.470223 -75.30121,1.470223 -76.08658,0 z"
       style="fill:#b9b9b9;fill-opacity:1;stroke-width:1.39443" />
    <path
       id="path123"
       d="M 38.392257,500.29959 C 25.457806,495.53966 16.083536,485.7497 11.710741,472.43496 9.3038614,465.10625 9.2234121,458.41153 9.2234121,265.44809 c 0,-196.780032 0.03478,-199.520751 2.6339699,-207.558187 3.102565,-9.59402 12.365965,-20.448673 21.715886,-25.446207 l 6.115382,-3.268673 h 219.09043 219.09044 l 6.11538,3.268673 c 9.34992,4.997534 18.61331,15.852187 21.71588,25.446207 2.59918,8.037406 2.63397,10.778365 2.63397,207.518007 0,196.19978 -0.0416,199.49924 -2.61054,207.30372 -3.36591,10.22539 -11.44267,20.0249 -20.59893,24.99258 l -7.25576,3.93659 -217.14585,0.28355 C 88.015168,502.14989 42.516639,501.81739 38.392257,500.29959 Z M 269.32768,476.14342 c 4.79628,-3.63141 8.46517,-12.15802 8.46517,-19.67331 0,-17.90249 -19.85699,-27.92503 -31.44113,-15.86948 -4.95039,5.15185 -7.64528,14.00282 -6.32525,20.77437 1.39974,7.18053 7.08462,15.19996 11.99354,16.91882 5.04564,1.76674 13.52558,0.71315 17.30767,-2.1504 z M 497.96361,247.40522 V 80.913297 L 259.10318,81.292259 20.242753,81.67122 19.912995,247.78419 19.583237,413.89715 H 258.77342 497.96361 Z M 243.14605,371.28796 c -1.97393,-1.65677 -2.79596,-5.08947 -3.81286,-15.92203 l -1.2964,-13.80989 -9.07475,-4.24803 c -4.99111,-2.33641 -9.68066,-4.28335 -10.42121,-4.32651 -0.74055,-0.0432 -5.28961,3.97123 -10.10901,8.92087 -4.81941,4.94964 -9.60551,8.99935 -10.63578,8.99935 -2.67327,0 -22.99039,-21.91372 -24.7758,-26.72279 -1.83671,-4.94724 -0.97153,-7.04769 7.62353,-18.50801 l 6.36247,-8.48346 -2.50584,-5.76551 c -1.37821,-3.17102 -3.20375,-8.26274 -4.05675,-11.31489 -1.49792,-5.35976 -1.78077,-5.56477 -8.27789,-5.99957 -9.96357,-0.66678 -8.15592,-3.38266 2.58825,-3.88869 l 9.31523,-0.43874 2.31213,8.4863 c 2.04706,7.51337 4.61715,11.31573 6.31826,9.34761 0.31513,-0.3646 -2.85035,-12.07396 -7.0344,-26.02079 -6.66204,-22.20679 -10.17169,-30.11541 -12.26149,-27.62994 -0.32228,0.3833 -3.1213,9.13379 -6.22005,19.44554 -5.17502,17.22099 -5.91436,18.78617 -9.07382,19.20924 -6.06756,0.81249 -7.58242,-3.93016 -7.55976,-23.66768 0.0104,-9.50949 0.50896,-18.18248 1.10674,-19.27332 1.38861,-2.53387 9.35974,-4.67803 17.67111,-4.75337 3.56508,-0.0322 7.09424,-0.55461 7.84258,-1.16069 1.15733,-0.93731 5.95358,-14.02605 7.82368,-21.35049 0.32438,-1.27048 -2.81929,-6.69455 -7.22182,-12.46049 -4.28793,-5.61587 -7.79624,-11.61692 -7.79624,-13.33567 0,-4.11782 21.92132,-29.69982 25.44989,-29.69982 1.42431,0 6.74119,4.04312 11.8153,8.98471 l 9.22567,8.98471 8.1921,-4.48385 c 4.50565,-2.46612 8.8484,-4.48439 9.65054,-4.48503 1.90847,-0.002 3.07894,-7.11225 3.07894,-18.70485 0,-13.67877 0.90773,-14.29395 21.09195,-14.29395 11.66039,0 16.6493,0.5378 17.39236,1.87487 0.57305,1.03117 1.62838,8.1934 2.34518,15.91605 l 1.30328,14.0412 8.42656,3.6794 c 4.6346,2.02367 9.30162,3.99013 10.37114,4.3699 1.13047,0.40143 5.47244,-3.08832 10.37115,-8.33552 5.35381,-5.73471 9.54794,-9.02996 11.50184,-9.03679 3.3165,-0.0115 24.1216,22.16181 25.49635,27.17319 0.97683,3.5608 -1.07526,7.78164 -8.77402,18.04687 l -6.36246,8.48346 2.50584,5.76551 c 1.3782,3.17102 3.18812,8.208 4.02206,11.19327 1.3854,4.95948 2.0313,5.50944 7.48652,6.37454 3.28368,0.52073 8.76411,0.94677 12.17875,0.94677 6.85193,0 10.28281,2.66306 10.28281,7.98157 0,2.85596 -0.71023,3.26762 -5.63751,3.26762 -9.16475,0 -15.10478,5.58597 -15.10478,14.20446 0,4.55291 5.93102,11.39265 12.3313,14.22062 3.27055,1.4451 5.72736,3.40258 5.45959,4.34994 -0.2766,0.97856 -5.68693,2.37027 -12.52712,3.22237 l -12.04024,1.49989 -3.17746,9.7493 c -1.7476,5.36211 -3.4413,10.76172 -3.76377,11.99913 -0.33654,1.29146 2.47639,6.04636 6.60351,11.16237 10.43329,12.93317 10.42905,13.88574 -0.11914,26.7785 -15.64174,19.11846 -17.24994,19.69487 -27.26268,9.77128 -3.48721,-3.45615 -7.24401,-7.15019 -8.34845,-8.20898 -1.66614,-1.59724 -3.65282,-1.18564 -11.66754,2.41733 -10.88864,4.89494 -11.17668,5.45338 -11.45069,22.19985 -0.23301,14.24138 -1.70628,15.37389 -19.99969,15.37389 -10.55133,0 -15.36611,-0.59204 -17.17721,-2.11213 z m 31.19672,-46.69947 c 15.99156,-4.8191 27.26786,-13.57373 40.82941,-31.69894 2.49556,-3.33534 5.41244,-6.4446 6.48197,-6.90946 1.51919,-0.66031 1.58731,-1.13762 0.31143,-2.18189 -1.28591,-1.05248 -1.06535,-3.22942 1.03731,-10.23846 12.93521,-43.11848 -9.89035,-91.40412 -48.13955,-101.83537 -21.44163,-5.84751 -45.09201,0.83517 -61.27211,17.31311 -7.86954,8.0144 -16.00589,22.75468 -19.35194,35.05907 -4.00938,14.74366 -3.86496,35.20242 0.34456,48.81082 12.06641,39.00796 46.90452,61.58191 79.75892,51.68112 z m 2.26172,-30.64225 c -7.0547,-3.70491 -7.01978,-6.03996 0.0903,-6.03996 4.30931,0 6.22915,0.83716 8.32971,3.63226 2.2942,3.05274 2.418,3.77065 0.77595,4.49967 -2.73534,1.21442 -3.02603,1.14829 -9.19596,-2.09197 z M 217.9427,293.1559 c 0,-1.23741 1.16675,-3.59974 2.59279,-5.24962 1.42603,-1.64988 2.59278,-3.65739 2.59278,-4.46116 0,-0.80376 1.82755,-2.55478 4.06121,-3.89116 8.63613,-5.16695 6.63208,6.68113 -2.14334,12.6715 -5.5141,3.7641 -7.10344,3.97226 -7.10344,0.93044 z m 54.77261,-9.24275 c -1.12522,-0.52531 -1.62049,-4.81704 -1.62049,-14.04204 0,-13.1383 1.24518,-17.12153 4.26141,-13.63184 0.7935,0.91805 3.88883,1.66918 6.87851,1.66918 5.75513,0 7.00958,1.499 7.00958,8.37598 0,2.33281 -1.85395,5.56881 -5.18557,9.0512 -2.85207,2.98114 -5.18557,6.35414 -5.18557,7.49556 0,2.04222 -2.97958,2.56574 -6.15787,1.08196 z m 23.29944,-5.84121 c -2.34509,-1.9004 -2.88125,-3.77663 -2.88125,-10.08261 0,-7.6415 0.0336,-7.70716 2.45104,-4.78959 2.01488,2.43171 5.23546,17.20708 3.75062,17.20708 -0.24155,0 -1.73574,-1.0507 -3.32041,-2.33488 z m -61.21894,-3.63383 c 0,-2.73402 13.53568,-19.52944 15.73907,-19.52944 0.52856,0 1.35789,0.74294 1.84295,1.65098 0.84562,1.58303 -14.46824,20.84739 -16.57227,20.84739 -0.55536,0 -1.00975,-1.33601 -1.00975,-2.96893 z m 27.45023,-11.00173 c -3.32228,-4.09154 -3.51691,-5.99015 -0.87417,-8.52771 2.89451,-2.77931 5.83377,0.71387 5.83377,6.93316 0,5.96304 -1.12002,6.32314 -4.9596,1.59455 z m -8.03234,-10.81659 c -1.47466,-2.05576 -1.45714,-2.65373 0.11136,-3.80203 2.45876,-1.80006 3.47177,-1.74746 4.53091,0.23528 0.48296,0.9041 0.0297,2.62534 -1.00715,3.825 -1.6494,1.90831 -2.10417,1.87601 -3.63512,-0.25825 z m 6.12039,-9.39716 c -6.69085,-7.86932 -6.63638,-8.72855 0.82639,-13.03317 1.5142,-0.87341 3.45961,-3.2276 4.32313,-5.23156 2.14343,-4.97417 17.15519,-22.56533 20.51944,-24.0452 7.15967,-3.14938 13.62118,2.53138 13.6012,11.95778 -0.009,4.51421 -1.29408,6.78938 -8.75065,15.49938 -4.80669,5.6147 -10.19788,11.03406 -11.98042,12.04302 -1.78255,1.00898 -4.11605,3.8396 -5.18558,6.29028 -1.92261,4.40543 -1.94889,4.33288 -2.32548,-6.41843 -0.28576,-8.15821 -0.83821,-10.87421 -2.21189,-10.87421 -1.36775,0 -1.92738,2.67322 -2.2119,10.5658 l -0.38089,10.56581 z m -15.81533,-0.31309 c -3.08049,-3.72006 -4.75713,-4.49967 -9.67703,-4.49967 -6.26391,0 -11.71346,-3.17971 -11.71346,-6.83456 0,-1.19064 -0.85838,-2.16479 -1.90752,-2.16479 -2.13004,0 -4.45827,-8.2384 -3.52707,-12.48051 0.51709,-2.35567 1.25143,-1.99473 5.34041,2.62481 2.60747,2.94582 5.33107,5.35602 6.05241,5.35602 1.99752,0 9.59849,-9.59101 9.59849,-12.1115 0,-1.22067 -1.87211,-4.12002 -4.16023,-6.44298 -3.58066,-3.63518 -3.86695,-4.41349 -2.05491,-5.58673 3.15009,-2.0396 11.35045,1.69002 14.49542,6.59268 1.78322,2.77984 2.76791,6.76138 2.91227,11.77556 0.11992,4.16659 0.83199,8.28586 1.58228,9.15392 0.93812,1.08539 0.94946,2.47475 0.0363,4.44886 -0.98905,2.13817 -0.78605,3.82727 0.79561,6.62012 1.66548,2.94083 1.79092,4.21312 0.5816,5.89898 -2.28895,3.19096 -4.21462,2.64924 -8.35455,-2.35021 z m -76.46142,19.87356 c 0.52325,-1.44364 2.26209,-7.28055 3.86407,-12.97088 l 2.91271,-10.34607 1.6379,5.8464 c 0.90085,3.21551 2.71618,9.05241 4.03408,12.97088 l 2.39616,7.12448 h -7.89815 c -7.0202,0 -7.79238,-0.29177 -6.94677,-2.62481 z m 191.48847,-4.17727 c -7.79155,-4.21548 -10.19999,-8.47868 -8.21039,-14.5332 1.42781,-4.34491 7.91109,-6.81812 12.98699,-4.9542 2.42337,0.88989 2.7055,2.15596 2.7055,12.14159 0,6.13145 -0.14585,11.1245 -0.3241,11.09564 -0.17826,-0.0288 -3.39935,-1.71628 -7.158,-3.74983 z M 369.62069,19.425729 c 0,-0.82494 1.19465,-2.882071 2.65478,-4.571403 2.55836,-2.95994 3.85721,-3.055285 35.75705,-2.62481 31.02768,0.418707 33.21747,0.62917 34.94061,3.358186 1.01109,1.601316 1.83836,3.457431 1.83836,4.124701 0,0.66727 -16.91793,1.213218 -37.5954,1.213218 -24.19934,0 -37.5954,-0.534444 -37.5954,-1.499892 z"
       style="fill:#a3a3a3;fill-opacity:1;stroke-width:1.39443" />
  </g>
  <path
     d=""
     id="path119"
     style="fill:#000000;stroke-width:1.39443" />
  <path
     d=""
     id="path117"
     style="fill:#000000;stroke-width:1.39443" />
</svg>
