<?xml version="1.0" standalone="no"?>
<!DOCTYPE svg PUBLIC "-//W3C//DTD SVG 20010904//EN"
 "http://www.w3.org/TR/2001/REC-SVG-20010904/DTD/svg10.dtd">
<svg version="1.0" xmlns="http://www.w3.org/2000/svg"
 width="1280.000000pt" height="961.000000pt" viewBox="0 0 1280.000000 961.000000"
 preserveAspectRatio="xMidYMid meet">
<metadata>
Created by potrace 1.15, written by Peter Selinger 2001-2017
</metadata>
<g transform="translate(0.000000,961.000000) scale(0.100000,-0.100000)"
fill="#000000" stroke="none">
<path d="M11673 9596 c-503 -96 -834 -532 -790 -1041 28 -339 254 -652 564
-785 149 -63 213 -75 393 -75 141 0 176 4 244 23 173 50 317 135 437 259 156
161 238 326 269 542 44 295 -75 626 -297 831 -116 108 -273 193 -424 231 -108
26 -296 34 -396 15z"/>
<path d="M831 9299 c-234 -31 -468 -165 -618 -353 -301 -378 -277 -922 56
-1264 498 -510 1346 -333 1596 333 77 204 75 466 -6 675 -93 242 -289 442
-529 543 -47 19 -116 42 -155 51 -93 20 -252 27 -344 15z"/>
<path d="M10600 8480 c-102 -26 -437 -111 -745 -189 -308 -78 -609 -155 -670
-171 -60 -16 -495 -126 -965 -246 -470 -119 -992 -251 -1160 -294 -168 -43
-381 -97 -473 -120 -165 -42 -194 -57 -168 -83 12 -12 -2 -16 637 147 203 52
586 149 850 216 263 67 547 139 629 160 83 21 346 88 585 149 239 61 604 153
810 206 206 52 485 123 620 156 135 34 251 68 259 75 12 11 12 16 1 28 -15 19
10 23 -210 -34z"/>
<path d="M1953 8064 c-3 -8 -2 -19 3 -24 5 -5 63 -24 129 -44 66 -19 244 -71
395 -115 151 -44 399 -116 550 -160 1208 -351 1452 -421 1460 -416 6 4 10 14
10 25 0 20 17 15 -410 139 -241 69 -789 229 -1809 525 -162 47 -301 86 -308
86 -8 0 -16 -7 -20 -16z"/>
<path d="M5308 7920 c-397 -72 -703 -368 -783 -757 -20 -95 -20 -274 -1 -373
66 -345 318 -628 651 -733 442 -139 917 52 1135 456 208 385 137 849 -177
1148 -125 119 -253 193 -414 239 -82 24 -325 36 -411 20z"/>
<path d="M11192 7823 c-37 -33 -835 -1055 -836 -1071 -1 -11 7 -17 21 -17 17
0 115 118 442 534 232 294 421 537 421 541 0 4 -6 13 -14 19 -10 9 -18 7 -34
-6z"/>
<path d="M11714 7598 c-4 -6 -136 -1269 -294 -2807 -245 -2382 -286 -2798
-274 -2811 12 -13 16 -13 28 0 20 22 591 5598 575 5617 -14 16 -26 17 -35 1z"/>
<path d="M1493 7454 c-4 -12 170 -193 638 -663 1304 -1308 1624 -1632 1623
-1645 -1 -7 -377 -538 -836 -1182 -459 -643 -842 -1180 -851 -1194 -18 -28 -9
-54 16 -48 9 1 399 540 868 1197 l851 1194 898 -898 c789 -789 901 -897 915
-885 8 7 14 16 13 20 -2 4 -403 412 -893 905 -489 494 -890 903 -889 909 1 6
186 270 413 587 226 317 411 584 411 592 0 17 -22 28 -37 19 -5 -4 -195 -267
-422 -586 l-414 -578 -1136 1136 c-625 625 -1142 1136 -1149 1136 -7 0 -15 -7
-19 -16z"/>
<path d="M9561 6865 c-311 -70 -547 -256 -681 -536 -66 -140 -83 -219 -84
-399 -1 -122 3 -171 18 -230 77 -302 284 -545 566 -663 128 -53 224 -72 370
-72 146 0 242 19 370 72 282 118 489 361 566 663 28 111 26 354 -4 465 -75
272 -259 496 -512 620 -130 65 -227 87 -395 91 -106 3 -169 -1 -214 -11z"/>
<path d="M6444 6669 c-3 -6 0 -17 7 -24 11 -10 805 -199 2194 -520 52 -13 62
-12 75 0 11 11 11 18 2 27 -12 12 -2209 528 -2249 528 -12 0 -25 -5 -29 -11z"/>
<path d="M5637 5963 c-14 -14 -4 -57 102 -417 136 -461 332 -1130 417 -1421
35 -121 68 -230 74 -242 11 -26 50 -32 50 -7 0 9 -43 163 -96 342 -52 180
-140 478 -194 662 -54 184 -147 499 -205 700 -114 389 -122 409 -148 383z"/>
<path d="M8932 5048 c-64 -63 -430 -417 -812 -787 -382 -371 -717 -695 -743
-722 -50 -50 -56 -74 -20 -74 28 0 1718 1641 1718 1668 0 43 -30 25 -143 -85z"/>
<path d="M10047 4947 c-3 -7 35 -242 83 -522 81 -466 163 -942 360 -2080 39
-225 76 -415 81 -421 14 -18 39 -6 39 18 0 11 -48 295 -106 631 -58 337 -127
738 -154 892 -209 1210 -251 1453 -255 1473 -6 24 -39 31 -48 9z"/>
<path d="M6352 3809 c-364 -64 -669 -349 -762 -709 -82 -316 7 -656 234 -897
367 -389 967 -404 1356 -36 133 126 220 271 272 449 20 69 23 100 22 249 0
156 -3 178 -28 259 -98 322 -344 567 -662 662 -74 22 -113 27 -234 30 -80 1
-169 -1 -198 -7z"/>
<path d="M1425 2756 c-231 -45 -439 -170 -581 -349 -227 -287 -273 -670 -119
-1003 94 -205 276 -383 483 -473 141 -62 209 -75 392 -75 150 0 173 3 251 27
165 50 284 117 401 225 218 202 332 511 298 804 -46 402 -326 726 -715 829
-102 27 -309 34 -410 15z"/>
<path d="M4205 2399 c-710 -159 -1357 -304 -1440 -322 -121 -27 -151 -37 -153
-52 -7 -31 16 -32 121 -9 56 13 689 154 1407 314 718 160 1322 295 1343 301
37 10 47 28 25 46 -9 7 -415 -80 -1303 -278z"/>
<path d="M7362 2259 c3 -18 97 -59 618 -271 338 -137 920 -373 1293 -525 373
-151 685 -272 693 -269 9 3 14 14 12 23 -4 20 -8 22 -678 293 -261 106 -583
236 -715 290 -884 360 -1186 480 -1205 480 -16 0 -21 -5 -18 -21z"/>
<path d="M10807 1910 c-460 -83 -797 -484 -797 -947 0 -386 232 -735 590 -886
402 -170 866 -46 1135 304 219 283 257 686 96 1007 -123 244 -334 419 -598
498 -73 22 -112 27 -233 30 -80 1 -167 -1 -193 -6z"/>
</g>
</svg>
