<?xml version="1.0" standalone="no"?>
<!DOCTYPE svg PUBLIC "-//W3C//DTD SVG 20010904//EN"
 "http://www.w3.org/TR/2001/REC-SVG-20010904/DTD/svg10.dtd">
<svg version="1.0" xmlns="http://www.w3.org/2000/svg"
 width="1280.000000pt" height="1040.000000pt" viewBox="0 0 1280.000000 1040.000000"
 preserveAspectRatio="xMidYMid meet">
<metadata>
Created by potrace 1.15, written by Peter Selinger 2001-2017
</metadata>
<g transform="translate(0.000000,1040.000000) scale(0.100000,-0.100000)"
fill="#000000" stroke="none">
<path d="M2700 10388 c0 -6 11 -77 25 -159 34 -197 25 -214 -87 -179 -178 55
-237 64 -408 64 -151 -1 -173 -3 -255 -28 -129 -39 -235 -95 -434 -226 -97
-64 -187 -122 -199 -129 -43 -23 -15 -23 76 -2 91 21 172 27 172 13 0 -4 -14
-16 -32 -27 -173 -101 -473 -379 -590 -545 -116 -164 -217 -386 -244 -535 l-7
-39 75 77 c74 77 109 94 122 61 13 -35 4 -76 -38 -172 -170 -382 -164 -749 15
-989 l39 -52 -68 -36 c-115 -60 -217 -174 -263 -294 -60 -160 -38 -361 54
-499 l32 -47 -95 -1 c-153 -1 -288 -61 -398 -178 -233 -246 -255 -599 -49
-800 56 -54 118 -91 575 -341 281 -154 512 -282 512 -286 0 -3 -16 -13 -35
-22 -32 -15 -48 -45 -25 -48 6 -1 14 -2 19 -3 5 0 35 -21 67 -45 85 -62 205
-120 409 -196 345 -127 365 -136 365 -161 0 -95 -87 -402 -205 -724 -193 -523
-208 -585 -166 -669 39 -76 99 -113 361 -222 l115 -48 -3 -53 c-5 -95 -62
-347 -163 -718 -23 -87 -31 -138 -32 -210 -2 -106 10 -141 63 -182 l30 -23
-39 -315 c-41 -328 -81 -700 -81 -759 0 -19 -13 -62 -30 -97 -40 -85 -54 -145
-47 -206 16 -131 135 -229 332 -269 291 -60 589 40 682 230 25 49 28 69 30
161 1 100 117 1132 129 1151 3 5 16 9 30 9 29 0 90 53 142 123 64 88 252 302
274 312 29 13 37 -1 92 -172 87 -272 88 -275 123 -296 18 -10 53 -19 81 -19
l50 -1 6 -106 c20 -334 46 -842 46 -896 0 -42 -7 -78 -21 -110 -82 -184 11
-349 236 -421 279 -89 610 6 706 203 31 64 38 184 14 274 -15 59 -15 108 -4
591 l13 527 42 10 c122 31 161 69 152 148 -3 21 -35 184 -71 363 -67 331 -105
555 -95 565 3 3 75 22 159 41 162 37 189 51 189 100 0 20 -100 474 -320 1448
-33 148 -59 270 -58 271 2 1 73 25 158 54 85 29 269 98 409 152 167 65 261 97
276 93 15 -4 24 0 28 10 7 18 -8 31 -47 40 -15 4 -27 9 -24 11 12 12 665 398
673 398 8 0 583 -310 689 -371 5 -3 -7 -13 -28 -24 -38 -20 -47 -45 -18 -54
20 -6 19 -6 98 -59 90 -60 244 -125 519 -218 138 -46 274 -95 304 -107 l53
-23 -6 -61 c-3 -34 -13 -148 -21 -254 -15 -190 -30 -263 -101 -512 -34 -122 7
-235 102 -276 l32 -13 -14 -40 c-28 -81 -76 -377 -125 -761 -27 -217 -54 -422
-60 -455 -26 -143 -12 -253 37 -296 53 -47 106 -63 222 -67 107 -4 112 -5 112
-26 0 -11 -32 -271 -70 -576 -60 -486 -72 -563 -96 -620 -92 -222 47 -402 351
-455 276 -48 573 28 715 182 104 114 105 122 123 908 l12 550 25 3 c14 2 66
16 115 32 165 53 151 52 329 19 242 -45 223 -34 230 -132 3 -45 10 -273 16
-507 5 -234 12 -458 15 -498 5 -63 2 -82 -21 -139 -22 -56 -25 -78 -22 -139 3
-61 8 -79 34 -116 90 -128 276 -198 527 -198 241 0 419 57 537 173 123 120
130 200 58 602 -25 143 -70 397 -98 565 -28 168 -53 313 -56 323 -5 15 4 17
90 17 107 0 138 8 161 43 23 36 22 61 -23 322 -38 224 -91 609 -145 1047 -19
155 -21 189 -10 204 7 10 13 26 13 36 0 10 -61 264 -135 565 -75 300 -137 550
-138 556 -1 5 32 21 73 35 149 49 529 186 740 264 118 45 228 81 244 82 49 2
42 24 -15 50 l-53 23 65 36 c35 19 228 124 429 232 201 109 392 217 426 240
86 62 198 185 234 258 84 174 77 352 -21 524 -41 71 -145 182 -210 224 l-50
32 43 24 c124 70 168 165 168 362 0 98 -29 344 -42 357 -3 2 -35 -58 -72 -132
-106 -212 -181 -276 -310 -260 -73 8 -134 42 -207 115 -79 80 -132 178 -149
280 -11 64 -9 86 19 253 17 101 36 234 42 297 16 159 6 441 -20 553 -61 263
-203 445 -413 529 -29 12 -118 38 -198 58 l-145 38 -2 52 c-3 100 -80 184
-194 211 -50 12 -128 7 -162 -11 -14 -8 -38 7 -125 77 -300 242 -663 433 -983
518 -230 61 -313 71 -604 71 -295 0 -374 -10 -621 -75 -631 -167 -1303 -638
-1496 -1048 l-39 -83 -25 20 c-14 11 -50 25 -80 32 -77 17 -147 -5 -202 -64
-47 -52 -58 -85 -67 -192 -10 -127 -15 -136 -93 -170 -165 -72 -280 -267 -328
-557 l-17 -105 -66 67 c-42 42 -91 79 -134 101 -65 32 -68 35 -62 64 73 378
20 669 -158 861 -99 106 -155 214 -113 214 25 0 126 -66 241 -156 130 -101
149 -112 169 -95 13 11 11 24 -16 99 -73 209 -172 332 -381 474 -164 110 -256
185 -263 215 -4 13 -4 26 -1 29 13 13 204 -74 307 -140 30 -19 56 -33 58 -31
6 5 -68 116 -153 230 -196 262 -451 455 -710 538 -142 46 -190 52 -390 51
-171 0 -202 -3 -310 -28 -66 -15 -172 -46 -235 -68 -63 -22 -135 -43 -159 -45
l-44 -5 6 51 c9 72 58 166 134 258 l65 78 -35 3 c-121 11 -345 -94 -589 -275
l-87 -64 -102 91 c-120 108 -196 161 -293 205 -83 38 -116 47 -116 33z m8619
-1880 c81 -257 105 -497 74 -765 -6 -55 -23 -73 -23 -25 0 109 -150 498 -264
686 -20 32 -36 62 -36 66 0 4 11 11 25 14 30 8 92 61 100 86 6 20 23 27 67 29
26 1 29 -4 57 -91z m-4486 -805 c8 -271 18 -388 58 -666 49 -343 110 -549 234
-797 115 -229 235 -393 433 -592 64 -65 110 -118 102 -118 -7 0 -22 8 -33 17
-18 17 -20 17 -35 -3 -10 -11 -24 -30 -32 -43 -15 -23 -21 -17 -339 350 l-324
373 -27 161 c-33 190 -56 289 -115 490 -61 209 -81 293 -101 420 -23 149 -23
393 0 500 24 108 34 123 93 128 27 2 55 4 64 5 14 2 17 -26 22 -225z m-661
-796 c17 -103 22 -241 9 -287 -6 -22 -15 -25 -91 -37 -131 -20 -211 -64 -307
-168 l-78 -84 -23 22 c-29 26 -88 113 -126 183 l-27 51 24 84 24 84 114 6
c126 6 195 27 284 84 55 35 165 146 165 166 0 7 3 9 7 5 4 -4 15 -53 25 -109z
m-4821 -585 c133 -275 340 -543 568 -735 l45 -37 -41 0 c-24 0 -43 5 -46 13
-3 9 -9 9 -27 -1 -12 -8 -26 -10 -30 -5 -447 519 -674 780 -719 826 l-55 57
79 1 c44 1 94 5 110 9 17 4 35 8 40 8 6 1 40 -61 76 -136z m9928 41 c46 -96
164 -217 249 -256 12 -6 21 -14 20 -18 -5 -12 -560 -644 -569 -647 -5 -2 -19
17 -31 42 -21 44 -40 57 -53 36 -4 -6 -66 -10 -153 -10 l-147 0 102 98 c131
124 235 247 334 395 74 111 209 365 209 394 0 26 17 12 39 -34z m-5795 -247
l15 -49 -237 -295 c-131 -163 -242 -297 -248 -299 -5 -2 -22 22 -37 52 -28 58
-50 76 -70 56 -6 -6 -26 -11 -45 -11 l-33 0 63 58 c215 195 398 435 513 671
l50 103 7 -119 c4 -65 14 -140 22 -167z"/>
</g>
</svg>
