<?xml version="1.0" standalone="no"?>
<!DOCTYPE svg PUBLIC "-//W3C//DTD SVG 20010904//EN"
 "http://www.w3.org/TR/2001/REC-SVG-20010904/DTD/svg10.dtd">
<svg version="1.0" xmlns="http://www.w3.org/2000/svg"
 width="1280.000000pt" height="853.000000pt" viewBox="0 0 1280.000000 853.000000"
 preserveAspectRatio="xMidYMid meet">
<metadata>
Created by potrace 1.15, written by Peter Selinger 2001-2017
</metadata>
<g transform="translate(0.000000,853.000000) scale(0.100000,-0.100000)"
fill="#000000" stroke="none">
<path d="M5069 7718 c-3 -6 -10 -54 -12 -85 -2 -18 -5 -35 -9 -38 -3 -3 -39
-7 -81 -9 -116 -6 -117 -20 -2 -26 92 -5 100 -7 100 -25 0 -11 2 -24 5 -30 7
-14 5 -183 -4 -342 -5 -100 -4 -133 5 -133 8 0 8 -4 1 -13 -6 -7 -11 -72 -11
-155 0 -78 -3 -147 -6 -152 -3 -5 -1 -19 5 -30 9 -16 8 -20 -5 -20 -8 0 -15
-7 -15 -16 0 -8 -4 -12 -10 -9 -7 4 -7 -2 0 -19 7 -20 6 -26 -8 -29 -9 -3 2
-5 26 -6 37 -1 44 2 52 25 6 15 11 37 12 50 2 24 4 24 118 25 63 1 120 0 125
-1 28 -7 301 -7 310 -1 18 14 45 20 45 11 0 -6 -10 -10 -22 -10 -12 0 -18 -3
-14 -7 3 -4 84 -8 179 -9 548 -8 789 -14 797 -19 7 -4 7 -13 0 -25 -7 -13 -6
-21 5 -30 9 -7 11 -19 7 -33 -5 -12 -7 -40 -7 -62 2 -40 -24 -84 -33 -57 -2 6
-11 12 -20 11 -11 0 -12 -2 -4 -6 18 -7 15 -23 -5 -23 -14 0 -15 -2 -4 -9 22
-14 1 -17 -119 -14 -137 3 -160 5 -155 14 4 5 69 4 85 -2 3 -1 10 0 15 1 6 1
43 5 83 9 40 3 71 10 70 16 -2 6 -5 9 -8 8 -27 -8 -160 -11 -165 -4 -3 6 -22
8 -43 6 -20 -2 -63 -7 -94 -10 -99 -9 -119 -12 -125 -19 -4 -3 -16 0 -27 7
-33 21 -56 28 -53 15 1 -7 -7 -13 -18 -15 -17 -4 -18 -2 -5 7 12 10 12 11 -5
5 -29 -10 -75 -12 -75 -4 0 4 10 9 23 11 12 3 -9 5 -46 6 -42 1 -65 -2 -62 -9
4 -5 11 -7 16 -4 12 8 49 -4 49 -15 0 -11 -70 -1 -90 14 -8 5 -12 6 -8 2 10
-12 -10 -36 -30 -36 -12 0 -13 3 -4 12 18 18 15 28 -8 28 -11 0 -20 4 -20 9 0
5 -21 8 -47 6 -93 -5 -87 -3 -72 -22 13 -17 12 -17 -6 -2 -19 16 -39 16 -94 4
-17 -4 -22 -2 -19 7 4 10 -10 13 -58 14 -35 1 -64 -2 -64 -7 0 -13 -58 -11
-66 2 -7 13 -74 3 -89 -13 -7 -7 -7 -9 0 -6 15 8 57 -10 50 -22 -4 -6 -13 -5
-26 3 -16 10 -21 9 -28 -2 -5 -7 -14 -10 -20 -7 -6 4 -9 11 -6 16 8 13 -32 19
-46 6 -9 -8 -10 -8 -4 2 5 10 -1 12 -27 8 -18 -3 -77 -8 -130 -11 -75 -4 -96
-2 -93 8 4 9 -16 12 -79 12 -87 0 -118 -9 -71 -21 15 -4 30 -2 34 3 10 16 91
3 91 -14 0 -10 -6 -13 -16 -9 -9 3 -30 -2 -48 -13 -33 -20 -88 -20 -112 0 -10
8 -14 8 -14 1 0 -6 -17 -12 -37 -14 -29 -2 -38 -7 -37 -20 1 -12 -5 -18 -18
-18 -10 0 -16 5 -13 10 4 6 -6 10 -22 10 -42 0 -74 11 -67 22 4 7 -6 7 -27 2
-19 -4 -42 -8 -51 -8 -10 0 -18 -4 -18 -8 0 -4 -7 -8 -16 -8 -11 0 -14 5 -10
16 5 13 3 14 -6 7 -7 -5 -32 -10 -56 -11 -49 -1 -71 -10 -52 -22 8 -5 3 -9
-14 -12 -24 -5 -43 13 -32 31 6 9 -43 13 -56 5 -6 -4 -5 -10 3 -15 11 -7 11
-9 -2 -9 -9 0 -19 7 -23 15 -4 11 -20 15 -56 15 -27 0 -50 -4 -50 -8 0 -5 -20
-9 -45 -9 -24 0 -42 4 -40 8 3 4 -4 5 -15 2 -11 -3 -17 -10 -13 -16 4 -6 1 -7
-8 -2 -20 13 -191 8 -199 -6 -5 -7 -16 -8 -31 -3 -38 13 -44 12 -70 -2 l-24
-14 30 5 c28 5 28 5 6 -5 -13 -6 -32 -8 -42 -5 -11 4 -19 2 -19 -4 0 -6 -8 -7
-17 -4 -13 5 -15 2 -10 -11 4 -11 3 -15 -4 -10 -19 11 -101 15 -94 4 10 -16
-11 -12 -26 6 -10 12 -23 14 -59 9 -25 -3 -57 -2 -72 4 -16 6 -28 6 -30 1 -4
-11 -216 -15 -226 -5 -4 4 -2 9 4 12 6 2 9 22 7 51 -8 86 -8 87 -39 87 -19 0
-28 5 -26 14 2 8 -3 11 -12 8 -10 -4 -13 -1 -9 10 6 15 -15 35 -29 27 -4 -3
-6 -59 -4 -124 4 -127 2 -132 -43 -138 -14 -2 -34 -9 -45 -15 -18 -11 -14 -12
36 -15 l56 -3 -4 -99 c-3 -76 -1 -100 8 -100 8 -1 7 -6 -5 -14 -9 -7 -17 -24
-17 -37 0 -52 -8 -127 -15 -139 -5 -8 -1 -16 8 -22 22 -12 12 -34 -21 -47 -35
-15 -777 -31 -800 -17 -4 2 -16 0 -27 -5 -19 -7 -19 -8 1 -8 12 -1 24 -7 27
-15 5 -11 0 -13 -23 -6 -16 4 -32 5 -36 2 -4 -4 -4 -2 -1 4 8 13 -23 24 -67
24 -24 0 -27 -2 -16 -15 10 -13 9 -15 -9 -15 -12 0 -21 6 -21 15 0 13 -21 15
-130 14 -71 0 -130 -4 -130 -7 0 -10 -42 -8 -59 2 -8 5 -17 3 -22 -5 -9 -14
-13 11 -10 57 2 22 -21 34 -65 34 -16 0 -20 -7 -21 -36 -1 -19 -3 -37 -5 -39
-1 -2 -21 -6 -43 -10 -32 -6 -38 -5 -28 5 9 10 9 19 -3 41 -8 17 -10 29 -4 29
5 0 10 9 10 21 0 17 -5 20 -32 17 -35 -3 -35 -2 -40 -93 l-3 -40 -60 -2 c-81
-4 -125 -12 -125 -23 0 -6 41 -9 98 -7 l97 2 -2 -27 c-1 -16 2 -28 6 -28 9 0
7 -177 -4 -368 -4 -79 -3 -112 4 -107 6 3 11 2 11 -4 0 -5 -4 -12 -9 -16 -5
-3 -9 -68 -9 -145 -1 -77 -3 -148 -7 -159 -3 -11 -1 -22 5 -26 15 -9 12 -25
-5 -25 -8 0 -15 -5 -15 -11 0 -5 -4 -7 -10 -4 -5 3 -10 2 -10 -4 0 -5 5 -13
10 -16 8 -5 7 -11 -1 -21 -17 -21 -6 -26 35 -19 37 7 46 22 50 80 1 26 3 26
172 16 18 -1 20 -5 15 -38 -5 -28 -3 -42 9 -51 8 -8 9 -11 2 -7 -10 5 -11 0
-6 -19 4 -16 2 -26 -5 -26 -6 0 -11 -7 -11 -15 0 -7 -8 -18 -17 -24 -14 -7
-15 -12 -5 -24 10 -11 10 -16 1 -19 -7 -2 -12 -29 -13 -71 0 -37 -4 -67 -8
-67 -13 0 -9 -48 5 -53 10 -4 10 -6 0 -6 -7 -1 -13 -8 -13 -17 0 -8 4 -13 9
-9 17 10 23 -16 7 -28 -8 -7 -14 -21 -12 -32 2 -11 -2 -30 -7 -43 -7 -15 -7
-26 -1 -30 15 -11 38 -55 23 -47 -7 5 -17 1 -25 -9 -12 -17 -14 -16 -34 4 -11
11 -26 18 -32 14 -13 -8 -6 -87 12 -129 13 -30 14 -66 4 -118 -4 -20 -2 -27 9
-27 10 0 13 -7 10 -20 -4 -16 -8 -18 -19 -9 -8 6 -14 8 -15 3 0 -5 -2 -35 -5
-67 -4 -44 -2 -57 7 -51 9 5 10 2 5 -11 -4 -11 -9 -38 -13 -61 -4 -32 -2 -42
11 -47 10 -4 16 -1 16 8 0 8 4 15 9 15 10 0 9 -26 -2 -36 -4 -4 -7 -16 -7 -28
0 -20 0 -20 -15 0 -13 18 -14 17 -15 -16 0 -27 3 -31 10 -20 8 11 10 5 10 -25
0 -22 0 -51 0 -65 0 -28 -5 -57 -15 -81 -3 -10 -2 -20 4 -24 6 -3 11 -11 11
-16 0 -6 -4 -8 -8 -5 -5 3 -6 -8 -4 -25 2 -16 8 -29 12 -29 5 0 6 9 3 20 -3
11 -1 26 5 33 6 7 8 24 5 38 -3 13 -2 20 3 16 4 -4 9 -34 11 -66 2 -57 2 -58
-23 -55 -21 2 -23 0 -13 -12 9 -11 8 -14 -2 -14 -11 0 -11 -2 1 -10 10 -6 11
-10 3 -10 -19 0 -16 -56 4 -76 15 -14 18 -32 14 -75 -1 -5 -6 -7 -11 -4 -6 4
-8 15 -5 26 8 23 -4 47 -15 30 -7 -13 -4 -101 5 -139 4 -17 2 -22 -6 -16 -9 5
-10 0 -6 -17 4 -13 7 -32 7 -42 0 -10 5 -15 10 -12 5 3 10 0 10 -9 0 -8 6 -17
13 -20 6 -4 2 -4 -10 -2 -13 2 -23 0 -23 -5 0 -14 -17 -11 -34 7 -9 8 -20 13
-25 10 -5 -4 -18 6 -29 20 -11 16 -24 24 -31 20 -12 -8 -10 -70 2 -83 4 -3 7
-15 7 -25 0 -26 28 -55 34 -36 12 38 15 40 13 8 -1 -22 3 -35 11 -36 6 -1 17
-2 22 -3 6 0 10 -10 10 -21 0 -11 5 -20 12 -20 8 0 9 -3 2 -10 -6 -6 -21 -6
-42 -1 l-33 10 7 -37 c6 -36 24 -68 24 -44 0 29 20 9 21 -20 0 -23 3 -28 7
-16 5 11 12 14 21 9 9 -6 10 -11 2 -15 -6 -4 -11 -16 -11 -27 0 -11 -4 -18 -9
-14 -5 3 -13 0 -16 -6 -5 -7 1 -9 16 -7 13 1 24 9 24 16 0 6 5 12 10 11 17 -1
5 -33 -20 -56 -14 -12 -21 -23 -17 -25 4 -2 15 -19 24 -38 10 -19 17 -26 15
-16 -1 10 3 21 8 23 6 2 11 -6 11 -17 0 -11 -8 -23 -18 -26 -15 -4 -21 -16
-20 -44 0 -3 3 -15 6 -27 5 -17 3 -21 -11 -18 -27 4 -34 -4 -21 -25 7 -10 17
-16 23 -12 5 3 4 -2 -3 -11 -8 -9 -11 -21 -7 -27 3 -5 1 -10 -5 -10 -6 0 -8
-5 -4 -11 10 -16 27 17 18 34 -4 6 2 3 15 -7 12 -11 17 -22 12 -25 -15 -10
-18 -100 -4 -106 7 -2 13 -9 13 -16 0 -6 -6 -9 -13 -6 -8 3 -14 -1 -14 -8 0
-7 6 -11 14 -8 17 6 16 -7 -1 -29 -7 -10 -17 -14 -21 -10 -4 4 -6 0 -3 -8 3
-8 12 -14 22 -12 9 2 16 -2 16 -8 0 -5 -4 -10 -9 -10 -12 0 -8 -63 5 -77 7 -7
14 -10 16 -7 3 2 3 -25 0 -61 -3 -52 -1 -65 9 -63 9 2 13 -4 11 -16 -2 -11 1
-15 7 -11 18 11 12 -4 -10 -28 l-21 -22 7 23 c3 12 2 22 -2 22 -5 0 -10 -18
-10 -40 0 -28 3 -40 14 -40 7 0 13 -6 12 -12 -4 -32 3 -51 29 -75 16 -16 20
-24 10 -20 -14 5 -19 -1 -24 -28 -3 -19 -10 -35 -14 -35 -12 0 -19 26 -13 48
2 11 0 23 -6 26 -6 4 -9 1 -5 -7 2 -7 -1 -14 -9 -14 -13 0 -18 17 -21 69 0 14
-4 24 -9 21 -4 -2 -7 2 -7 9 -1 8 -4 7 -10 -4 -12 -20 -48 -13 -71 15 -18 23
-39 15 -39 -14 0 -14 4 -18 12 -13 10 6 10 5 1 -7 -8 -9 -9 -20 -3 -29 6 -8
10 -25 10 -36 0 -12 7 -25 16 -28 22 -8 22 -8 27 12 2 9 3 5 2 -11 -1 -26 13
-34 49 -28 5 1 6 -5 3 -12 -3 -8 0 -20 6 -26 18 -18 -7 -38 -27 -22 -8 7 -19
10 -25 7 -5 -3 -12 0 -15 6 -6 15 3 -59 10 -82 5 -13 6 -13 15 0 8 13 10 13
19 0 5 -8 10 -12 10 -8 0 13 40 -26 40 -39 0 -7 7 -13 15 -13 9 0 12 6 9 15
-4 8 -1 15 5 15 6 0 11 -9 11 -19 0 -10 7 -21 15 -25 8 -3 15 -1 15 3 0 5 9 7
19 4 14 -4 21 -16 23 -42 4 -36 9 -32 24 19 4 12 6 12 14 0 7 -11 11 -11 24
-1 9 8 16 20 16 29 0 8 3 12 8 8 4 -4 7 -17 7 -28 0 -16 8 -21 33 -24 31 -4
32 -2 26 24 l-5 27 18 -28 c20 -31 58 -45 81 -30 21 13 52 -14 52 -45 0 -16 4
-21 12 -16 10 6 10 5 1 -7 -7 -9 -12 -62 -13 -139 -2 -112 -3 -141 -8 -188 -1
-7 -6 -11 -11 -8 -4 3 -8 -8 -7 -24 1 -33 4 -34 39 -21 17 7 26 20 31 45 l7
35 92 3 c51 2 130 0 176 -4 57 -5 89 -4 98 4 7 6 13 7 13 2 0 -13 -8 -13 1030
-19 l945 -6 0 -30 c0 -26 17 -48 36 -49 4 0 10 20 13 45 l7 45 190 0 c132 0
188 3 184 11 -4 6 -30 10 -59 9 -121 -4 -309 2 -286 9 14 5 61 6 105 5 66 -3
73 -2 40 6 -22 5 -66 9 -97 9 -32 1 -58 4 -58 9 0 4 7 31 14 60 8 30 16 109
17 178 1 68 6 150 10 181 10 77 20 175 25 248 9 121 18 138 78 147 11 2 21 10
24 18 4 12 2 13 -9 3 -15 -15 -93 -18 -84 -3 8 13 -40 24 -62 15 -10 -5 -28
-7 -41 -6 -18 2 -22 -2 -20 -16 2 -14 -4 -18 -32 -19 -19 -1 -82 -5 -140 -9
-58 -4 -192 -8 -299 -10 -120 -2 -198 -8 -204 -14 -6 -6 -16 -11 -21 -11 -6 0
-4 5 4 10 11 7 -5 10 -52 10 -44 0 -68 -4 -71 -12 -3 -10 -8 -10 -18 -2 -8 5
-30 9 -49 8 -19 -1 -164 -3 -322 -3 -178 -1 -289 -5 -293 -11 -4 -6 -12 -7
-18 -3 -7 4 -83 8 -170 8 -86 0 -148 -3 -137 -7 11 -4 20 -12 20 -17 0 -11
-27 -4 -47 12 -12 9 -234 12 -345 4 -48 -3 -48 -3 -48 30 0 35 -21 54 -51 46
-16 -5 -25 -31 -21 -64 1 -4 -13 -9 -31 -11 l-33 -3 3 53 c2 53 2 53 -25 50
-28 -3 -33 -16 -32 -85 l1 -33 -58 -1 c-54 -1 -120 -14 -98 -19 6 -2 44 -3 85
-4 70 -1 75 -2 75 -23 0 -11 3 -24 6 -27 11 -11 -3 -150 -16 -163 -11 -10 -14
-10 -19 2 -8 21 -26 19 -27 -2 0 -14 -2 -13 -9 5 -5 12 -13 22 -17 23 -4 0
-21 3 -38 5 -16 3 -46 6 -65 7 -19 1 -39 8 -43 15 -12 19 -27 14 -27 -8 0 -11
-4 -20 -9 -20 -15 0 -23 18 -11 25 5 3 10 11 10 16 0 6 -5 7 -10 4 -6 -4 -10
5 -10 19 0 14 -5 26 -11 26 -8 0 -8 5 1 15 10 12 10 15 -1 15 -8 0 -21 5 -29
10 -12 7 -11 13 9 34 14 14 21 29 18 33 -4 3 -7 1 -7 -5 0 -7 -4 -12 -8 -12
-5 0 -9 7 -9 15 0 8 7 15 15 15 7 0 12 6 9 13 -2 6 -11 11 -21 9 -17 -3 -22
13 -7 22 14 9 13 126 -1 126 -7 0 -3 6 8 14 15 12 17 18 8 33 -7 10 -20 17
-30 16 -11 -1 -13 0 -6 3 23 11 12 26 -14 20 -18 -5 -24 -3 -19 5 4 6 18 9 31
6 14 -2 27 0 30 4 3 5 0 9 -7 9 -6 0 -9 8 -6 20 3 10 0 21 -7 24 -6 2 -3 5 7
5 14 1 17 6 12 21 -3 11 -2 20 3 20 17 0 19 58 3 75 -9 8 -10 15 -4 15 13 0
12 32 -2 42 -5 4 -13 2 -17 -5 -5 -8 -8 -4 -8 10 0 29 16 38 29 16 6 -10 11
-13 11 -6 0 6 -4 14 -9 17 -5 4 -5 23 1 46 13 49 5 61 -21 32 -23 -28 -40 -28
-38 -2 1 12 7 18 14 16 15 -6 18 10 4 18 -10 7 -9 31 2 42 4 4 7 2 7 -5 0 -8
7 -11 15 -7 18 7 20 -5 3 -23 -11 -10 -10 -11 5 -6 20 8 23 45 3 45 -15 0 -12
40 7 78 8 16 8 34 0 62 -5 22 -6 40 -2 40 5 0 9 -7 9 -15 0 -8 8 -15 18 -15
10 0 23 -5 30 -12 8 -8 14 -5 23 15 14 30 30 27 22 -3 -3 -12 0 -20 6 -20 7 0
9 5 5 11 -5 8 -1 8 14 0 33 -17 44 -14 36 12 -6 21 -5 21 17 -4 28 -31 64 -42
79 -24 9 10 15 9 33 -7 21 -18 22 -25 17 -121 -3 -56 -2 -106 2 -111 4 -5 -2
-17 -13 -27 -12 -10 -18 -23 -14 -30 4 -6 1 -15 -6 -20 -10 -6 -2 -9 23 -9 42
0 47 5 50 53 l3 36 210 -5 c116 -3 284 -8 375 -12 91 -3 529 -6 973 -7 l809 0
-5 -31 c-4 -26 -1 -33 19 -43 21 -9 24 -8 24 12 0 12 3 32 6 45 6 22 8 22 196
22 123 0 187 3 183 10 -4 6 -77 10 -186 10 -126 0 -179 3 -179 11 0 8 29 10
103 5 71 -5 97 -4 87 3 -8 6 -52 11 -97 11 -93 0 -91 -2 -68 74 9 28 15 88 15
140 0 84 13 264 25 346 3 19 8 67 11 105 11 142 11 142 60 154 24 6 44 17 44
23 0 9 -3 9 -12 0 -17 -17 -88 -16 -88 2 0 7 -10 16 -22 20 -35 9 -50 7 -42
-5 4 -7 -4 -10 -22 -7 -23 2 -28 -1 -26 -14 2 -15 -5 -18 -45 -20 -26 0 -61
-2 -78 -3 -188 -13 -282 -17 -400 -19 -77 -2 -149 -6 -159 -11 -14 -6 -17 -5
-11 4 6 10 -6 11 -56 5 -35 -4 -138 -7 -229 -8 -97 -1 -168 -5 -172 -11 -5 -7
-8 -7 -8 0 0 14 -331 7 -347 -7 -9 -7 -13 -7 -13 1 0 8 -58 11 -210 10 -174
-2 -208 -5 -199 -16 9 -10 8 -13 -5 -13 -9 0 -19 6 -22 14 -4 10 -31 13 -110
14 -57 0 -104 -3 -104 -8 0 -5 -14 -4 -32 1 -23 6 -34 5 -40 -4 -4 -7 -8 6 -8
30 0 38 -2 42 -31 48 -36 8 -36 8 -40 -30 -4 -34 -15 -45 -46 -45 -15 0 -21 5
-17 14 3 8 0 24 -6 36 -8 15 -8 20 -1 16 7 -4 11 1 11 13 0 16 -6 21 -25 21
-30 0 -35 -11 -38 -71 l-2 -44 -65 -3 c-99 -4 -105 -16 -10 -22 76 -4 85 -7
86 -25 1 -11 2 -24 3 -30 2 -5 2 -65 2 -132 -1 -132 -13 -177 -38 -145 -12 16
-13 15 -19 -6 l-7 -23 -11 23 c-6 13 -21 23 -31 24 -11 1 -28 5 -38 9 -10 4
-21 5 -24 1 -3 -3 -12 -1 -19 5 -8 6 -20 9 -28 6 -8 -3 -17 1 -20 9 -9 23 -26
16 -26 -12 0 -22 -2 -25 -15 -14 -10 8 -12 17 -6 24 7 8 4 12 -9 12 -10 0 -16
-4 -14 -8 3 -4 0 -8 -5 -8 -14 0 -16 21 -7 98 3 26 1 30 -10 21 -9 -7 -14 -7
-14 -1 0 5 7 15 15 22 8 7 15 19 15 26 0 24 -25 5 -43 -34 l-18 -37 6 35 c4
19 8 46 8 60 2 17 8 25 21 25 18 0 20 8 22 80 1 44 0 69 -2 55 -3 -14 -8 -32
-11 -40 -3 -8 -5 -27 -4 -42 1 -14 -3 -29 -9 -33 -6 -3 -10 -3 -9 2 4 21 -2
34 -13 27 -8 -5 -9 -2 -5 10 4 10 7 24 7 32 0 8 7 14 16 14 12 0 14 5 9 18
-15 34 -23 117 -12 124 17 11 26 0 21 -27 -2 -14 0 -25 6 -25 5 0 10 24 10 55
0 43 -3 55 -15 55 -24 0 -27 23 -11 71 18 52 20 62 6 54 -14 -9 -13 8 2 23 9
9 7 13 -5 18 -9 3 -17 10 -17 16 0 5 5 6 12 2 7 -5 9 -2 5 8 -3 10 0 15 11 14
22 -1 28 36 12 75 -7 16 -19 29 -26 29 -8 0 -14 9 -14 21 0 11 -5 17 -10 14
-5 -3 -10 -1 -10 5 0 7 6 10 12 8 7 -3 19 2 27 10 13 13 12 17 -9 34 -19 15
-21 21 -10 28 7 4 19 6 26 3 17 -6 25 11 30 60 l4 42 -19 -25 c-11 -13 -17
-28 -15 -32 3 -4 0 -8 -6 -8 -6 0 -8 -4 -5 -10 3 -5 2 -10 -4 -10 -12 0 -6 48
11 93 9 24 13 26 20 13 5 -9 18 -16 29 -16 11 0 28 -4 38 -9 19 -11 35 -4 43
19 4 10 8 7 13 -11 4 -19 15 -29 33 -32 29 -6 66 18 55 36 -3 5 -1 7 4 4 6 -4
8 -18 5 -32 -4 -22 -1 -25 19 -23 21 3 24 -2 27 -35 2 -26 7 -35 15 -30 9 5 9
3 0 -8 -7 -9 -12 -60 -13 -134 -3 -158 -3 -167 -15 -185 -12 -19 -15 -70 -4
-70 33 0 57 21 62 57 l6 38 98 -1 c54 -1 208 -5 343 -10 135 -4 622 -8 1083
-8 l839 -1 -5 -32 c-5 -25 -1 -35 13 -43 27 -14 30 -13 30 13 0 12 3 32 6 45
6 22 8 22 196 22 123 0 187 3 183 10 -4 6 -77 10 -186 10 -105 0 -179 4 -179
9 0 6 42 8 103 6 64 -3 93 -1 77 4 -14 5 -58 9 -97 10 -40 1 -73 5 -73 10 0 5
6 36 14 68 8 32 17 126 20 208 3 83 12 207 20 277 9 70 16 138 16 150 0 13 3
40 6 60 6 34 10 38 47 45 22 5 42 15 45 23 4 12 2 13 -9 3 -18 -18 -89 -17
-89 1 0 18 -47 27 -60 11 -6 -7 -21 -10 -35 -7 -20 3 -24 1 -19 -12 5 -13 -1
-16 -27 -18 -42 -2 -93 -6 -189 -13 -41 -3 -159 -7 -261 -8 -102 -2 -190 -7
-196 -10 -7 -4 -14 -3 -18 3 -4 6 -11 8 -16 4 -11 -7 -284 -13 -576 -14 -139
0 -214 -3 -218 -10 -4 -7 -11 -8 -18 -2 -7 6 -100 9 -214 9 -163 -1 -200 -4
-191 -14 8 -10 5 -13 -11 -13 -11 0 -21 6 -21 13 0 10 -23 13 -102 12 -57 -1
-104 -3 -105 -5 -2 -1 -21 -3 -43 -4 -40 -1 -40 -1 -40 35 0 27 -5 38 -17 41
-33 8 -53 -3 -53 -27 0 -25 -14 -39 -48 -48 -19 -4 -22 -2 -17 13 3 11 1 29
-5 41 -8 15 -9 19 -1 15 7 -4 11 1 11 13 0 16 -6 21 -25 21 -30 0 -35 -11 -38
-71 l-2 -44 -72 -6 c-40 -3 -76 -8 -79 -12 -4 -4 -1 -7 7 -8 8 0 46 -1 84 -2
62 -2 70 -4 71 -22 1 -11 2 -24 4 -30 4 -16 -1 -108 -6 -117 -3 -4 -14 -3 -25
3 -12 6 -23 8 -26 5 -3 -3 -12 2 -19 12 -12 16 -13 15 -23 -8 -10 -25 -10 -25
-10 -2 -1 14 -5 21 -12 16 -6 -3 -15 0 -20 7 -7 11 -9 9 -9 -6 -1 -15 -5 -11
-15 13 -18 40 -34 41 -42 2 -3 -17 -10 -29 -16 -27 -18 6 -19 24 -3 40 13 13
12 16 -8 25 -19 9 -23 17 -21 49 1 21 6 53 10 71 5 21 4 32 -4 32 -6 0 -11 -4
-11 -10 0 -5 -8 -10 -17 -10 -15 0 -15 1 2 14 11 8 16 20 12 29 -3 9 0 22 6
29 8 8 12 34 11 66 -2 31 2 52 8 52 7 0 6 5 -1 14 -9 11 -9 16 0 21 8 6 7 10
-5 17 -20 11 -20 26 0 68 11 22 13 34 6 39 -13 8 -11 17 11 90 19 62 22 95 7
86 -5 -3 -10 -2 -10 4 0 5 6 12 13 14 9 4 9 7 0 14 -7 5 -9 13 -5 18 12 17 19
18 182 12 25 -1 50 1 55 5 6 3 33 2 60 -3 28 -5 77 -9 110 -8 33 0 166 -1 295
-4 184 -5 604 -8 745 -7 11 0 64 0 118 0 54 -1 102 2 107 5 5 3 11 1 15 -4 3
-5 14 -8 25 -6 24 5 100 6 265 5 66 0 230 1 364 3 237 3 243 3 251 -17 4 -12
3 -27 -3 -35 -9 -10 -7 -17 8 -27 32 -24 42 -16 49 36 l7 50 226 0 c151 0 224
3 217 10 -6 6 -95 10 -222 10 -146 1 -212 4 -212 12 0 7 36 9 120 5 66 -4 120
-3 120 2 0 5 -49 12 -110 16 -118 7 -117 7 -99 65 6 19 17 136 24 260 8 124
21 279 30 346 8 66 15 134 15 150 0 16 3 47 7 69 9 41 16 46 86 60 30 6 36 20
11 29 -8 3 -13 2 -10 -3 8 -12 -18 -21 -61 -21 -26 0 -34 4 -30 14 4 9 -3 16
-16 20 -35 9 -67 7 -67 -5 0 -7 -11 -8 -31 -4 -28 6 -30 5 -24 -14 6 -19 2
-21 -32 -22 -44 -2 -120 -6 -218 -13 -38 -2 -112 -7 -164 -10 -51 -3 -97 -8
-101 -11 -5 -3 -11 -1 -14 4 -3 5 -48 7 -98 5 -51 -3 -150 -5 -220 -5 -72 0
-128 -5 -128 -10 0 -5 -15 -9 -32 -8 -32 1 -32 1 -8 10 15 5 -2 6 -45 2 -38
-4 -86 -7 -105 -7 -34 -1 -35 0 -35 36 0 20 -6 43 -12 49 -17 17 -16 30 1 23
10 -4 14 4 14 30 0 27 -4 36 -16 36 -11 0 -13 3 -6 8 33 22 44 121 16 151 -10
11 -11 16 -1 21 6 4 11 27 11 51 0 58 6 89 18 89 5 0 7 -8 3 -17 -6 -17 -5
-17 13 -2 12 10 35 15 64 14 25 -2 37 -1 28 2 -28 7 -21 19 10 18 15 0 26 -6
24 -13 -1 -7 9 -12 25 -11 25 0 26 1 8 9 l-20 9 20 0 c11 1 31 4 45 7 19 4 22
3 10 -5 -8 -5 -12 -13 -9 -16 8 -8 39 5 39 16 0 5 15 9 33 9 24 0 28 -3 17
-10 -12 -8 -8 -10 15 -11 48 -2 90 2 93 9 1 4 26 7 55 7 28 -1 67 3 86 8 58
15 103 15 137 1 17 -7 34 -11 36 -8 3 2 29 11 59 18 65 17 130 16 152 -2 11
-10 21 -11 33 -4 12 7 26 6 41 -1 16 -7 26 -7 37 2 10 9 24 10 49 3 20 -6 40
-6 50 0 9 5 29 7 44 4 16 -2 38 -5 51 -5 13 -1 20 -5 17 -11 -3 -6 1 -7 9 -4
9 3 13 10 10 15 -3 5 5 9 18 9 13 0 29 5 36 12 7 7 12 8 12 2 0 -6 19 -8 48
-4 31 4 46 10 44 19 -1 7 2 10 7 7 5 -4 11 0 14 6 3 7 4 3 4 -9 -1 -13 -7 -23
-13 -23 -7 0 -14 -7 -18 -15 -4 -12 4 -14 57 -7 34 3 108 7 164 7 76 0 103 3
103 13 0 6 7 12 16 12 9 0 12 -5 8 -12 -4 -6 8 0 28 15 19 15 46 27 60 27 13
0 28 3 32 7 10 11 56 15 56 5 0 -4 -16 -14 -35 -22 -19 -7 -32 -17 -29 -22 4
-5 0 -9 -7 -7 -25 3 -39 -1 -39 -11 0 -5 64 -9 160 -9 145 1 197 9 138 23 -13
3 -2 3 25 2 26 -2 47 1 47 6 0 5 5 6 11 3 6 -4 8 -13 6 -19 -3 -8 3 -12 16
-11 15 1 22 9 21 22 0 15 7 19 34 20 19 1 37 5 41 10 3 4 38 9 78 9 56 1 70
-2 66 -12 -3 -8 -15 -13 -26 -12 -26 1 -107 -20 -107 -28 0 -4 11 -3 24 0 14
3 28 2 31 -4 3 -6 18 -7 32 -4 27 7 52 11 91 13 13 0 22 7 22 17 0 8 6 22 14
30 16 16 61 19 51 4 -4 -6 -11 -7 -17 -4 -7 4 -8 2 -4 -5 4 -6 12 -9 17 -6 5
4 9 1 9 -4 0 -6 -6 -11 -14 -11 -8 0 -16 -7 -20 -15 -3 -9 0 -15 10 -15 8 0
13 4 10 9 -3 5 4 11 15 14 14 4 18 10 13 19 -4 7 1 5 12 -4 14 -12 24 -15 32
-8 7 6 10 7 7 4 -5 -7 20 -34 31 -34 5 0 3 5 -4 12 -17 17 -15 38 4 38 8 0 13
-4 10 -9 -15 -24 7 -38 60 -40 47 -1 53 1 42 13 -7 7 -15 10 -18 5 -6 -9 -36
-7 -46 4 -4 4 0 7 9 7 9 0 19 4 22 10 4 6 -6 7 -25 4 -17 -4 -30 -2 -30 3 0 5
23 11 51 12 45 1 51 -1 47 -16 -4 -13 2 -19 19 -20 12 -2 34 -4 47 -5 13 -2
22 -6 20 -10 -7 -11 120 -7 134 4 11 9 11 13 0 20 -8 4 6 6 32 4 41 -4 43 -3
26 10 -19 13 -17 14 15 13 19 0 28 -3 21 -6 -17 -7 -5 -23 19 -23 11 0 18 4
15 9 -3 5 9 8 28 8 25 -1 32 -5 28 -16 -4 -11 0 -13 19 -6 13 4 36 8 52 10 15
1 30 5 34 8 12 12 36 7 50 -10 14 -17 14 -17 9 0 -4 13 1 17 22 17 16 0 34 6
41 13 9 7 11 7 8 1 -4 -7 3 -14 18 -18 14 -4 25 -13 25 -21 0 -8 6 -15 13 -15
12 0 15 -43 3 -70 -3 -8 -7 -33 -9 -55 -1 -22 -9 -45 -17 -52 -13 -11 -13 -12
2 -13 21 0 33 -19 20 -32 -6 -6 -12 -6 -16 1 -4 6 -12 11 -17 11 -5 0 -1 -10
11 -22 l20 -22 -32 -10 c-35 -12 -55 -43 -22 -34 22 6 48 -17 39 -32 -3 -5
-21 -9 -38 -7 -26 2 -31 -1 -29 -15 2 -10 -3 -18 -10 -18 -15 0 -53 -59 -50
-76 4 -21 -31 -27 -161 -30 -80 -2 -134 -7 -143 -15 -10 -8 -14 -8 -14 0 0 8
-55 11 -197 10 -113 -1 -189 -5 -177 -10 12 -4 25 -13 29 -19 8 -14 -47 -1
-56 13 -4 5 -28 12 -55 15 -45 5 -48 4 -35 -11 12 -15 11 -17 -8 -17 -11 0
-20 6 -19 13 2 9 -30 12 -129 14 -73 1 -133 -2 -133 -6 0 -9 -43 -7 -59 3 -8
5 -17 3 -22 -5 -6 -10 -9 -7 -10 11 -1 14 -1 33 0 42 2 20 -28 38 -61 38 -21
0 -24 -5 -25 -36 -1 -43 -2 -44 -47 -54 -34 -7 -48 1 -26 15 6 4 4 18 -6 37
-9 16 -11 28 -6 24 5 -3 12 3 15 15 6 23 -9 32 -45 27 -24 -3 -25 -6 -31 -90
-1 -20 -5 -39 -8 -42 -2 -3 -27 -5 -54 -6 -150 -4 -171 -30 -24 -30 l101 0 -6
-24 c-3 -14 -3 -27 2 -29 9 -6 8 -162 -2 -346 -6 -95 -5 -131 3 -127 6 4 11 3
11 -3 0 -5 -4 -12 -9 -15 -5 -4 -9 -71 -10 -151 0 -80 -2 -149 -6 -155 -3 -5
-1 -19 5 -30 8 -14 8 -20 0 -20 -16 0 -40 -26 -32 -35 10 -10 9 -29 -3 -38 -5
-4 8 -6 29 -5 36 3 40 6 51 45 7 23 10 45 7 48 -3 3 41 5 97 5 l103 0 -6 -37
c-11 -73 -13 -112 -7 -108 4 2 8 -11 8 -30 1 -21 -5 -36 -14 -39 -8 -3 -12
-10 -8 -15 3 -6 -2 -14 -12 -19 -15 -9 -15 -12 -3 -28 9 -11 10 -15 3 -10 -13
7 -16 -6 -16 -66 0 -16 -3 -28 -7 -28 -10 0 -8 -20 3 -37 5 -8 4 -13 -2 -13
-6 0 -11 -11 -11 -25 0 -14 6 -25 13 -25 8 0 7 -4 -3 -10 -13 -9 -13 -12 3
-21 16 -9 16 -12 1 -26 -9 -9 -13 -25 -10 -36 3 -11 1 -28 -4 -37 -10 -18 7
-70 23 -70 4 0 7 -4 7 -10 0 -5 -7 -7 -15 -4 -18 7 -38 -36 -24 -51 13 -13 11
-21 -7 -40 -13 -12 -19 -13 -31 -3 -12 9 -16 9 -24 -3 -7 -12 -9 -11 -9 2 0
19 -64 72 -74 62 -4 -4 -13 3 -22 15 -21 30 -44 28 -44 -4 0 -17 4 -23 13 -18
8 5 7 2 -2 -10 -11 -13 -11 -20 -3 -28 7 -7 12 -22 12 -34 0 -12 7 -24 15 -27
16 -7 29 8 20 22 -3 5 0 13 6 17 9 5 10 -3 6 -29 -6 -36 -5 -37 25 -37 21 0
29 -4 25 -14 -3 -7 0 -19 6 -25 16 -16 -7 -38 -25 -24 -7 5 -21 13 -31 16 -16
6 -17 2 -12 -31 10 -58 16 -71 24 -50 5 16 10 15 38 -10 26 -23 30 -32 26 -61
-4 -20 -1 -36 6 -40 9 -6 9 -15 1 -35 -14 -39 -13 -71 5 -86 12 -10 15 -10 15
4 0 9 4 16 8 16 4 0 8 -11 8 -24 0 -14 -4 -22 -8 -20 -4 3 -8 -4 -8 -16 0 -12
-5 -18 -10 -15 -6 4 -8 11 -5 16 4 5 2 9 -4 9 -5 0 -9 -14 -9 -31 1 -21 4 -26
10 -17 6 9 8 3 6 -17 -1 -17 1 -35 4 -41 4 -5 3 -28 -2 -50 -9 -41 -9 -41 -18
-62 -2 -7 0 -18 5 -23 6 -6 7 -24 3 -45 -5 -19 -4 -34 1 -34 5 0 9 -5 9 -11 0
-5 -3 -8 -7 -6 -5 3 -8 -16 -7 -41 1 -72 3 -82 19 -82 9 0 12 -6 9 -15 -5 -11
-10 -13 -19 -5 -9 8 -14 7 -17 -2 -6 -17 -2 -100 6 -135 5 -22 4 -25 -4 -13
-8 11 -10 4 -6 -30 4 -25 11 -46 16 -48 6 -2 10 -11 10 -19 0 -9 -3 -13 -7 -9
-8 8 -32 -95 -32 -139 1 -16 3 -24 6 -17 2 6 10 12 16 12 8 0 12 -20 11 -57
-1 -32 2 -63 7 -69 6 -8 3 -13 -11 -17 -12 -3 -20 -13 -20 -26 0 -14 -5 -19
-15 -15 -8 4 -15 1 -15 -6 0 -15 45 -8 46 8 4 37 4 37 13 23 13 -20 2 -47 -25
-61 -24 -14 -32 -30 -14 -30 6 0 10 -6 10 -13 0 -7 7 -22 15 -33 8 -10 15 -14
14 -9 -3 21 1 35 11 35 17 0 4 -44 -16 -55 -19 -10 -23 -37 -11 -69 6 -16 -3
-20 -32 -16 -10 1 -11 -4 -6 -17 17 -44 23 -72 14 -77 -5 -2 -4 -3 3 -2 7 2
12 11 12 20 -2 16 -1 16 17 0 14 -13 16 -20 8 -25 -17 -10 -18 -99 -1 -99 6 0
12 -4 12 -10 0 -5 -6 -10 -13 -10 -8 0 -14 -6 -14 -14 0 -8 6 -12 14 -9 19 7
16 -10 -6 -34 -22 -23 -18 -35 7 -26 10 3 13 2 7 -4 -19 -15 -5 -110 14 -99 4
3 5 -20 3 -51 -3 -44 -1 -58 11 -65 10 -5 14 -15 10 -25 -4 -10 -2 -14 4 -10
6 4 13 -3 16 -15 4 -15 3 -18 -5 -10 -8 8 -15 7 -25 -6 -13 -16 -14 -15 -8 5
3 12 1 24 -5 28 -6 4 -10 -10 -10 -39 0 -35 4 -46 15 -46 9 0 15 -6 13 -12 -5
-27 13 -67 32 -73 12 -4 17 -11 13 -18 -4 -7 -8 -19 -8 -27 0 -16 -37 -15 -43
1 -2 5 -10 9 -18 9 -16 0 -20 -75 -4 -85 6 -3 10 -17 10 -30 0 -12 7 -25 15
-29 10 -4 15 1 15 14 0 11 4 20 8 20 4 0 8 -25 9 -55 1 -32 -2 -53 -8 -49 -12
7 -2 -77 11 -90 7 -7 10 -3 10 9 0 18 2 17 20 -5 20 -25 20 -25 35 -5 16 20
16 20 14 0 -4 -35 1 -55 11 -55 6 0 10 6 10 14 0 8 5 18 11 22 7 4 9 -2 7 -17
-2 -17 3 -25 16 -27 14 -3 17 0 13 12 -4 9 -2 16 4 16 6 0 7 6 4 13 -4 6 3 1
14 -12 12 -13 21 -29 21 -35 0 -7 6 -13 13 -13 6 0 19 -4 28 -7 10 -5 20 2 29
18 14 26 33 27 23 1 -3 -9 0 -22 6 -29 17 -20 12 -256 -4 -273 -7 -7 -16 -9
-20 -5 -4 4 -1 -3 6 -16 12 -19 12 -24 -1 -32 -13 -8 -13 -10 2 -10 9 0 28 4
42 10 21 8 26 16 26 45 l0 35 98 1 c111 1 161 -1 215 -7 21 -2 47 1 59 7 11 6
18 7 15 2 -7 -11 -18 -11 1033 -18 836 -5 945 -7 948 -21 2 -8 -1 -21 -7 -28
-8 -10 -5 -16 15 -24 33 -16 34 -16 34 11 0 12 3 32 6 45 6 22 8 22 198 22
131 0 186 3 176 10 -8 6 -35 10 -60 9 -133 -3 -303 3 -285 11 11 4 58 6 105 4
68 -3 77 -2 45 6 -22 5 -66 9 -97 9 -32 1 -58 5 -58 11 0 5 7 35 15 67 9 34
15 102 15 168 0 60 9 184 19 275 11 91 20 185 21 210 0 25 2 50 2 57 1 12 37
29 72 35 11 2 21 10 24 18 4 12 2 13 -9 2 -19 -17 -85 -16 -93 3 -6 17 -66 21
-66 5 0 -6 -11 -8 -26 -4 -21 5 -25 3 -22 -12 2 -15 -4 -19 -32 -20 -19 -1
-78 -4 -130 -8 -52 -4 -219 -9 -370 -12 -188 -3 -277 -9 -281 -16 -6 -9 -11
-9 -21 0 -8 6 -33 9 -58 7 -25 -3 -170 -5 -322 -5 -172 0 -279 -4 -283 -10 -4
-6 -12 -7 -18 -3 -7 4 -82 8 -168 8 -151 1 -155 0 -135 -17 20 -17 20 -18 1
-11 -11 3 -26 10 -32 16 -12 9 -234 12 -345 4 -49 -3 -54 2 -48 42 3 20 -27
40 -50 34 -11 -3 -20 -17 -24 -38 -5 -27 -12 -34 -36 -37 -26 -4 -29 -2 -24
14 3 11 0 25 -6 33 -9 11 -9 15 -1 15 6 0 11 9 11 20 0 15 -7 20 -24 20 -30 0
-35 -7 -37 -51 -3 -66 -5 -69 -67 -70 -31 0 -66 -4 -77 -9 -26 -11 -16 -13 71
-11 l72 1 7 -48 c6 -41 8 -92 6 -201 -1 -16 -9 -37 -18 -46 -15 -16 -18 -16
-28 -1 -16 22 -25 20 -25 -4 0 -21 -15 -27 -25 -10 -4 6 -1 19 7 28 12 15 11
16 -4 4 -13 -10 -17 -10 -21 0 -3 8 -6 5 -7 -7 -1 -18 -3 -17 -12 5 -6 14 -11
28 -10 32 1 3 -5 9 -13 12 -10 4 -15 -1 -15 -15 0 -29 -22 -50 -37 -34 -7 8
-7 17 -1 28 10 19 3 37 -15 37 -8 0 -8 -3 1 -9 11 -6 10 -10 -4 -15 -10 -4
-15 -4 -12 0 4 3 2 21 -5 38 -7 17 -12 48 -10 69 1 21 -2 37 -8 37 -6 0 -9 7
-6 14 4 9 -2 17 -14 21 -23 8 -24 18 -4 35 11 9 13 15 5 20 -8 5 -6 12 5 23
19 19 12 39 -10 30 -15 -5 -21 12 -7 21 4 2 8 32 10 65 2 44 -1 61 -10 61 -8
1 -7 6 5 14 22 17 22 32 -2 58 -14 14 -27 19 -42 15 -16 -4 -19 -3 -11 5 6 6
22 11 36 11 21 0 24 2 15 13 -6 7 -8 18 -4 24 3 5 1 10 -5 10 -6 0 -8 5 -5 10
4 6 11 7 17 4 6 -4 8 1 3 15 -4 12 -2 21 4 21 6 0 11 18 11 40 0 44 -6 49 -26
23 -9 -14 -10 -21 -1 -32 10 -12 9 -12 -10 -3 -18 10 -21 18 -16 50 7 46 13
54 13 17 0 -27 1 -27 19 -11 22 20 21 52 -3 50 -9 -1 -16 6 -16 15 0 27 12 32
27 13 13 -16 14 -16 5 2 -6 12 -6 32 0 53 12 44 4 52 -25 25 -30 -28 -37 -28
-35 3 2 24 18 36 18 13 0 -6 3 -9 6 -5 3 3 2 12 -2 19 -13 20 -15 48 -5 48 6
0 13 -5 16 -10 4 -6 12 -7 18 -4 8 5 8 3 0 -7 -18 -18 -16 -30 2 -23 8 4 15
17 15 30 0 17 -4 22 -15 18 -12 -5 -14 0 -9 27 4 19 11 39 16 46 11 14 4 71
-11 86 -15 15 -14 48 1 44 7 -1 12 3 13 10 0 6 4 15 9 20 5 5 6 3 2 -4 -4 -8
-2 -13 7 -13 7 0 19 -12 26 -27 l13 -28 14 30 13 30 -2 -30 c-1 -21 3 -31 16
-33 13 -3 17 3 17 24 0 26 0 27 20 9 11 -10 20 -24 20 -32 0 -7 9 -13 19 -13
11 0 23 -5 27 -11 4 -7 13 -1 23 15 10 14 21 23 24 20 4 -4 2 -13 -4 -20 -9
-11 -7 -15 6 -20 14 -6 16 -22 14 -133 -2 -92 -6 -131 -17 -143 -7 -9 -11 -22
-7 -28 4 -7 1 -16 -6 -21 -9 -7 -1 -9 26 -7 39 3 40 4 43 45 l3 41 212 -4
c117 -3 286 -8 377 -11 91 -4 528 -7 973 -7 l807 -1 0 -22 c0 -13 -6 -23 -12
-23 -7 0 -2 -9 12 -19 31 -24 36 -21 44 29 l6 40 191 0 c124 0 188 3 184 10
-4 6 -77 10 -186 10 -126 0 -179 3 -179 11 0 8 29 10 103 5 71 -5 97 -4 87 3
-8 6 -52 11 -97 11 -93 0 -90 -3 -68 80 9 32 15 100 15 163 0 59 8 187 19 285
10 97 19 191 20 207 3 68 14 84 56 85 26 0 52 17 42 26 -4 4 -13 2 -19 -4 -17
-17 -78 -15 -78 2 0 19 -60 32 -70 16 -4 -6 -16 -10 -26 -8 -13 2 -18 -2 -16
-14 2 -15 -5 -18 -45 -20 -26 0 -61 -2 -78 -3 -137 -11 -254 -16 -390 -19 -89
-1 -167 -6 -174 -11 -10 -6 -12 -4 -6 4 6 10 -7 11 -56 5 -35 -4 -138 -7 -229
-8 -101 0 -168 -4 -172 -11 -5 -6 -8 -6 -8 0 0 13 -330 7 -347 -6 -7 -7 -14
-6 -18 1 -4 7 -75 10 -211 9 -169 -2 -202 -5 -193 -16 9 -10 8 -13 -5 -13 -9
0 -19 6 -22 14 -4 10 -31 13 -107 14 -56 0 -106 -2 -112 -6 -16 -10 -45 -9
-45 1 0 5 -7 7 -15 3 -11 -4 -15 2 -15 28 0 26 -5 35 -22 40 -38 10 -48 7 -48
-14 0 -11 5 -20 10 -20 6 0 10 -4 10 -10 0 -5 -6 -7 -14 -4 -7 3 -16 -2 -19
-10 -4 -9 -18 -16 -31 -16 -18 0 -24 4 -20 14 3 8 0 24 -6 36 -8 15 -8 20 -1
16 7 -4 11 1 11 13 0 17 -6 21 -30 21 -26 0 -30 -4 -31 -27 -1 -16 -3 -35 -4
-43 -1 -8 -3 -23 -4 -32 -1 -15 -12 -18 -70 -18 -101 0 -99 -19 1 -22 65 -2
82 -6 80 -17 -2 -8 0 -21 3 -30 4 -9 6 -61 5 -116 -2 -124 -2 -125 -11 -125
-4 0 -14 -3 -23 -6 -11 -4 -16 -1 -16 10 0 9 -4 16 -10 16 -5 0 -10 -9 -10
-20 0 -11 -6 -20 -13 -20 -23 0 -27 12 -9 26 16 12 15 13 -5 11 -13 -1 -23 -8
-24 -17 0 -8 -5 -4 -11 10 -6 14 -11 28 -10 32 1 3 -5 9 -13 12 -11 4 -15 -2
-15 -18 0 -25 -16 -36 -37 -29 -10 4 -10 10 -2 25 12 23 4 52 -12 42 -8 -4 -7
-9 2 -15 11 -7 10 -9 -3 -9 -12 0 -18 8 -18 21 0 12 -12 30 -26 41 -18 15 -22
24 -15 31 16 16 13 37 -4 31 -8 -4 -15 -12 -15 -20 0 -8 -4 -14 -8 -14 -12 0
-14 68 -2 75 5 3 10 -2 10 -12 1 -16 2 -16 12 2 7 11 13 54 14 95 2 53 0 66
-5 45 -5 -16 -9 -45 -10 -62 -1 -36 -6 -40 -24 -20 -8 7 -10 27 -6 52 3 22 7
32 8 22 0 -10 6 -15 11 -12 7 4 6 13 -1 27 -6 11 -9 33 -7 49 3 16 0 30 -6 32
-6 2 -6 11 -1 23 4 10 7 24 6 29 -1 6 5 2 13 -8 14 -19 15 -29 1 -60 -8 -20 9
-46 22 -33 4 4 1 11 -6 15 -9 6 -10 11 -2 15 12 8 15 93 5 120 -3 9 -11 16
-16 16 -7 0 -6 -5 1 -14 8 -10 8 -16 -1 -24 -10 -8 -14 -3 -15 19 -2 19 3 32
13 36 11 4 12 8 4 13 -8 5 -8 14 0 35 8 22 8 30 -2 37 -10 7 -10 11 -1 14 8 4
9 15 2 37 -5 18 -9 33 -9 33 0 1 9 0 20 -3 19 -5 21 -2 18 40 -2 25 -6 43 -10
40 -5 -2 -8 0 -8 6 0 5 5 13 10 16 6 3 10 18 9 33 0 15 -3 21 -6 14 -2 -6 -8
-10 -13 -7 -4 3 -10 -2 -13 -10 -4 -10 -1 -12 10 -8 11 4 14 2 11 -8 -3 -8
-12 -15 -21 -17 -21 -4 -23 26 -3 54 11 16 12 23 2 37 -7 9 -16 14 -19 10 -4
-3 -7 -1 -7 5 0 6 11 14 25 18 18 4 28 17 37 45 7 25 14 35 19 27 9 -15 39 7
39 29 0 8 4 12 10 8 5 -3 7 -12 4 -20 -9 -22 5 -38 22 -24 10 8 14 8 14 0 0
-6 7 -11 15 -11 12 0 14 7 9 28 l-6 27 18 -25 c9 -14 18 -26 19 -28 7 -9 55
-11 60 -2 18 29 24 -2 23 -122 0 -93 -4 -135 -13 -144 -7 -7 -16 -10 -20 -6
-4 4 -1 -3 6 -16 12 -19 12 -24 -1 -32 -13 -8 -13 -10 2 -10 9 0 28 4 42 10
21 8 26 16 26 45 l0 35 98 1 c110 1 135 0 210 -7 36 -3 59 -1 70 8 9 7 13 8
10 3 -4 -6 12 -10 40 -11 26 0 151 -3 277 -7 223 -6 684 -8 1340 -6 291 1 320
0 323 -15 2 -9 -1 -23 -7 -30 -8 -10 -5 -16 15 -24 33 -16 34 -16 34 11 0 12
3 32 6 45 7 23 10 23 108 22 200 -4 282 0 266 10 -8 6 -37 10 -65 9 -116 -3
-298 2 -291 8 4 4 50 7 104 6 76 -1 88 1 57 7 -22 5 -66 9 -97 9 -32 1 -58 4
-58 9 1 4 7 34 15 67 8 33 15 109 15 170 0 61 9 184 19 275 11 91 20 181 20
200 1 75 14 93 72 102 13 2 24 10 27 18 4 12 2 13 -9 3 -19 -18 -85 -17 -93 2
-6 17 -66 21 -66 5 0 -6 -11 -8 -26 -4 -21 5 -25 3 -22 -12 2 -15 -4 -19 -37
-20 -22 -1 -78 -5 -125 -8 -47 -4 -211 -9 -365 -12 -200 -4 -282 -9 -287 -17
-6 -9 -10 -9 -16 1 -6 8 -25 10 -63 7 -30 -3 -177 -6 -326 -6 -160 0 -275 -4
-279 -10 -3 -5 -11 -6 -17 -2 -7 4 -82 8 -168 8 -151 1 -155 0 -135 -17 20
-17 20 -18 1 -11 -11 3 -26 10 -33 16 -11 9 -227 11 -344 4 -49 -3 -54 2 -48
42 1 8 -6 20 -15 27 -23 17 -55 6 -55 -20 0 -30 -11 -42 -43 -48 -24 -5 -27
-3 -21 14 3 10 0 25 -6 33 -9 11 -9 15 -1 15 6 0 11 9 11 20 0 15 -7 20 -24
20 -31 0 -37 -10 -38 -59 -1 -53 -7 -60 -58 -61 -64 -3 -101 -10 -95 -20 3 -5
38 -6 79 -4 l74 4 6 -33 c7 -34 8 -212 2 -262 -2 -16 -9 -31 -15 -33 -6 -2
-11 -10 -11 -18 0 -9 -5 -12 -10 -9 -6 4 -8 10 -5 15 10 17 -35 30 -115 33
-19 1 -39 8 -43 15 -12 19 -25 14 -30 -10 -3 -17 -5 -14 -6 10 -1 25 -5 32
-18 30 -10 -2 -21 -10 -25 -18 -5 -11 -7 -9 -7 8 -1 12 4 22 9 22 6 0 10 6 10
14 0 8 4 16 9 18 5 2 12 28 15 58 4 30 9 64 12 74 5 14 3 18 -10 13 -12 -5
-15 0 -12 22 2 15 7 34 11 41 4 7 8 40 9 74 1 33 5 66 9 72 4 7 0 14 -8 18
-19 7 -19 29 1 67 11 23 12 34 4 44 -8 10 -8 25 3 57 23 67 32 122 18 114 -6
-4 -11 -3 -11 3 0 5 5 13 10 16 6 3 10 11 10 16 0 6 -4 7 -10 4 -6 -3 -7 1 -4
9 3 9 10 13 15 10 5 -3 9 0 9 5 0 6 -7 11 -16 11 -8 0 -12 5 -9 10 4 6 11 8
16 4 6 -3 10 0 8 7 -5 39 -2 40 96 35 69 -3 95 -1 95 7 0 9 2 9 8 1 4 -7 25
-9 59 -5 29 4 50 4 47 -1 -4 -7 32 -13 57 -10 22 3 98 2 274 -2 161 -4 722 -9
785 -7 8 0 60 -1 115 -3 60 -3 105 0 112 6 8 6 13 6 13 1 0 -5 36 -9 80 -9 44
1 80 5 80 10 0 4 6 4 13 -1 6 -5 46 -8 87 -7 184 3 347 5 493 5 l157 -1 0 -24
c0 -14 -5 -28 -11 -32 -8 -4 -3 -12 12 -20 36 -20 49 -17 49 10 0 14 4 35 9
49 l9 23 221 0 c143 -1 220 3 218 9 -2 6 -87 11 -220 13 -152 2 -217 6 -217
14 0 8 34 9 121 4 85 -5 119 -4 114 3 -4 7 -49 11 -115 11 -83 0 -108 3 -105
13 2 6 7 23 9 37 3 14 10 43 15 65 5 22 12 114 15 205 3 91 15 236 26 323 11
87 20 171 20 185 -1 80 22 121 70 122 30 0 57 16 47 26 -4 4 -13 2 -19 -4 -17
-17 -98 -16 -98 2 0 8 -7 17 -16 20 -26 10 -64 7 -64 -5 0 -7 -11 -9 -31 -5
-27 5 -30 3 -27 -17 3 -21 0 -22 -77 -24 -66 -2 -210 -11 -210 -13 0 0 -44 -3
-98 -5 -54 -2 -107 -7 -117 -10 -10 -3 -21 -2 -23 2 -3 5 -36 7 -74 6 -37 -2
-134 -3 -215 -4 -82 0 -150 -5 -154 -10 -3 -5 -15 -9 -27 -9 -18 0 -19 2 -7
10 13 8 12 10 -2 10 -10 0 -18 -3 -18 -7 0 -10 -277 -9 -286 0 -7 6 10 11 29
8 4 -1 17 4 29 10 17 9 18 13 7 20 -12 8 -12 11 1 19 8 5 12 10 8 10 -13 0 26
40 39 40 21 0 15 17 -9 25 -22 8 -22 8 5 12 15 2 27 11 27 19 0 12 -18 19 -42
15 -19 -3 7 30 28 35 13 3 25 10 25 15 3 20 5 24 12 37 6 8 0 20 -15 33 l-23
20 23 -6 c21 -6 23 -4 18 13 -4 11 -2 23 4 27 19 12 10 25 -17 25 l-28 1 28
15 c15 8 27 18 28 22 0 4 3 16 5 27 2 11 6 31 8 45 2 14 10 24 17 22 7 -2 27
-3 44 -3 16 0 50 -5 74 -11 38 -10 45 -9 57 6 15 22 128 31 120 10 -8 -20 5
-24 28 -8 20 12 23 12 23 -1 0 -9 -6 -14 -13 -11 -7 3 -14 0 -17 -7 -3 -9 -10
-9 -30 0 -18 9 -28 9 -33 2 -5 -8 -9 -8 -13 0 -5 8 -17 7 -40 -5 -18 -9 -41
-14 -52 -11 -10 3 -19 1 -19 -3 0 -11 261 -3 315 9 l40 9 -37 1 c-20 0 -39 5
-43 10 -7 12 39 20 110 21 28 0 75 2 105 4 30 2 39 2 20 -1 -19 -2 -42 -11
-51 -19 -11 -10 -26 -13 -42 -9 -17 5 -28 2 -34 -8 -4 -8 -15 -17 -23 -20 -8
-3 4 -6 26 -6 26 -1 46 5 54 14 7 9 27 15 49 14 20 -1 28 -3 19 -6 -33 -8 -18
-18 24 -15 24 1 63 2 88 2 31 1 41 3 30 10 -9 6 10 8 57 7 39 -1 69 -5 67 -9
-9 -14 46 8 69 28 30 26 87 41 87 24 0 -7 7 -10 15 -6 9 3 15 0 15 -8 0 -8 -8
-17 -17 -20 -10 -4 -14 -4 -10 0 8 8 -11 34 -24 34 -5 0 -9 -6 -9 -14 0 -7
-14 -20 -31 -29 -23 -11 -28 -17 -18 -23 18 -11 89 -12 89 -1 0 4 6 5 13 0 17
-11 31 -10 39 1 8 12 68 10 81 -3 13 -13 37 -3 31 14 -4 9 6 12 35 11 29 -1
41 -5 42 -16 0 -11 2 -11 6 -2 3 9 9 10 18 2 19 -16 154 -23 171 -9 7 6 43 13
78 14 36 2 70 6 75 10 6 3 11 3 11 -2 0 -4 13 -8 29 -8 22 0 27 3 19 13 -6 6
-17 12 -26 12 -21 0 -10 10 17 15 11 2 21 -1 21 -6 0 -6 6 -7 16 -1 11 6 26 5
43 -4 14 -8 34 -14 44 -14 9 0 17 -4 17 -10 0 -5 -6 -10 -14 -10 -8 0 -18 -5
-22 -11 -10 -18 147 -4 185 16 18 9 31 11 31 5 0 -5 -7 -10 -16 -10 -8 0 -12
-4 -9 -10 3 -5 21 -9 38 -9 18 1 24 3 15 6 -21 5 -24 33 -4 33 8 0 22 3 31 7
14 5 16 2 11 -14 -7 -23 18 -52 29 -33 3 5 17 7 31 4 14 -4 31 -1 39 6 9 7 15
8 15 2 0 -8 35 -25 51 -24 3 1 33 2 67 3 33 1 60 7 59 12 -1 5 10 10 26 11 15
1 27 -2 27 -6 0 -4 11 -8 25 -8 16 0 23 4 19 14 -3 7 2 16 10 19 9 4 15 2 13
-2 -3 -11 8 -12 29 -4 8 3 26 1 40 -6 30 -13 56 -15 36 -2 -20 12 5 60 30 58
18 -1 18 -2 2 -14 -14 -10 -14 -13 -3 -13 12 0 12 -2 -1 -10 -24 -15 -2 -23
29 -10 17 6 36 10 43 7 7 -3 3 -6 -9 -6 -24 -1 -43 -21 -20 -21 8 0 20 -7 27
-15 9 -10 17 -12 30 -5 9 5 20 7 23 3 8 -8 38 17 32 26 -8 14 30 8 41 -7 11
-15 118 -19 158 -5 19 6 18 8 -9 14 l-30 8 30 -2 c20 -1 29 -7 28 -17 -2 -12
7 -14 47 -12 28 2 50 7 50 11 0 22 66 -2 68 -24 1 -5 8 -11 16 -13 19 -4 21
19 4 38 -10 10 -6 10 12 -2 31 -18 50 -13 50 14 0 15 5 19 20 15 10 -3 20 -1
22 4 2 6 12 3 23 -5 19 -15 18 -15 -17 -16 -27 0 -38 -4 -38 -15 0 -11 8 -13
33 -8 17 3 38 11 45 16 10 8 20 3 39 -22 24 -31 26 -31 49 -16 21 13 25 14 30
2 4 -11 23 -15 66 -15 65 0 77 -8 78 -52 1 -14 2 -45 3 -70 1 -25 0 -63 -3
-85 -4 -23 -3 -53 1 -68 4 -16 3 -30 -3 -33 -6 -4 -5 -10 3 -15 12 -8 12 -10
0 -18 -7 -5 -15 -19 -16 -32 -1 -13 -3 -28 -4 -34 -1 -6 -117 -10 -325 -11
-242 0 -328 -3 -339 -13 -11 -8 -17 -9 -22 -1 -4 7 -71 10 -198 9 -110 -1
-183 -5 -171 -10 12 -4 25 -13 29 -19 8 -14 -47 -1 -56 13 -4 5 -28 12 -55 15
-45 5 -48 4 -35 -11 12 -15 11 -17 -7 -17 -12 0 -24 5 -28 12 -5 7 -3 8 6 3 8
-5 11 -4 6 3 -7 12 -266 15 -266 3 0 -9 -43 -7 -59 3 -8 5 -17 3 -22 -5 -7
-11 -9 -9 -10 6 -1 11 -1 30 0 42 2 25 -24 43 -62 43 -19 0 -25 -5 -26 -22 -1
-50 -5 -59 -30 -64 -14 -3 -32 -7 -38 -10 -15 -4 -17 12 -3 21 6 4 4 18 -6 37
-9 16 -11 28 -6 24 5 -3 12 3 15 15 6 23 -9 32 -45 27 -16 -2 -24 -10 -25 -28
-6 -61 -12 -102 -15 -105 -2 -2 -26 -4 -53 -5 -150 -4 -171 -30 -24 -30 l101
0 -6 -24 c-3 -14 -3 -27 2 -29 13 -9 0 -447 -15 -471 -4 -5 1 -7 10 -3 18 7
24 -8 8 -18 -5 -3 -10 -68 -10 -144 -1 -77 -4 -146 -7 -154 -3 -9 -1 -25 6
-36 7 -15 8 -21 0 -21 -22 0 -38 -25 -29 -47 5 -14 4 -23 -4 -27 -7 -2 2 -5
18 -5 17 0 35 3 41 7 11 7 30 69 26 85 -1 4 43 7 98 7 l101 0 -3 -40 c-1 -22
-5 -40 -8 -40 -3 0 -6 -16 -6 -35 0 -19 2 -35 6 -35 13 0 8 -59 -6 -64 -8 -3
-13 -10 -9 -15 3 -6 -2 -14 -12 -19 -14 -8 -15 -13 -5 -25 9 -11 10 -16 2 -19
-7 -2 -12 -23 -13 -46 -1 -23 -5 -42 -9 -42 -8 0 -5 -21 5 -37 5 -8 4 -13 -2
-13 -15 0 -14 -47 2 -53 10 -4 10 -6 0 -6 -7 -1 -13 -8 -13 -16 0 -8 5 -14 11
-12 6 1 14 -4 17 -12 3 -8 0 -11 -6 -7 -11 7 -26 -30 -21 -50 2 -5 -1 -20 -5
-33 -5 -13 -4 -26 0 -30 5 -3 15 -16 21 -28 11 -19 10 -21 -2 -17 -18 7 -38
-36 -24 -50 13 -15 11 -20 -16 -50 -17 -19 -25 -22 -25 -12 0 10 -6 13 -15 10
-8 -4 -15 -15 -15 -26 0 -11 -6 -25 -13 -32 -18 -18 -38 4 -25 27 10 19 3 37
-15 37 -8 0 -8 -3 1 -9 11 -7 11 -9 0 -14 -9 -3 -14 3 -16 16 -1 23 -61 79
-75 70 -4 -3 -16 5 -26 16 -10 12 -23 21 -30 21 -14 0 -15 -76 -1 -85 6 -3 10
-17 10 -30 0 -12 7 -25 15 -29 10 -3 15 1 15 14 0 10 5 22 12 26 8 5 9 -3 5
-29 -6 -36 -5 -37 25 -37 21 0 29 -4 25 -14 -3 -7 -1 -18 3 -22 15 -15 -6 -40
-22 -27 -7 5 -21 13 -31 16 -16 6 -17 2 -13 -35 6 -44 26 -77 26 -42 1 19 1
19 15 0 8 -11 15 -16 15 -10 0 5 5 2 10 -6 7 -12 11 -10 19 10 l11 25 -2 -25
c-2 -42 2 -60 12 -60 6 0 10 6 10 14 0 8 5 18 12 22 8 5 9 0 5 -15 -3 -14 0
-24 9 -28 8 -3 14 -16 14 -30 0 -16 4 -22 12 -17 8 5 9 2 4 -12 -5 -10 -10
-37 -13 -60 -4 -32 -2 -42 11 -47 9 -4 15 -2 13 5 -1 6 3 12 10 15 12 4 12
-21 0 -33 -4 -4 -7 -16 -7 -26 0 -23 -17 -24 -23 0 -3 9 -5 1 -6 -18 0 -27 2
-32 10 -20 8 12 9 8 7 -15 -1 -17 1 -35 4 -41 4 -5 3 -28 -2 -50 -5 -21 -9
-39 -9 -39 0 0 -3 -8 -7 -18 -4 -10 -2 -23 3 -28 6 -6 7 -24 3 -45 -6 -25 -5
-34 5 -34 8 0 11 8 8 20 -3 11 -1 26 5 33 6 7 9 24 6 38 -4 19 -3 21 5 8 22
-34 -2 -130 -29 -114 -3 2 -6 -21 -8 -50 -2 -44 1 -57 19 -73 12 -12 16 -22
10 -26 -5 -4 -13 -1 -17 5 -19 31 -25 -72 -9 -139 4 -15 2 -21 -5 -17 -9 5 -9
-11 -1 -68 0 -5 6 -5 11 -2 6 3 10 -1 10 -10 0 -9 5 -13 10 -10 6 3 10 1 10
-6 0 -6 -8 -9 -19 -6 -15 4 -20 -2 -24 -27 -3 -17 -8 -40 -10 -51 -3 -11 -6
-26 -6 -33 -1 -7 -6 -10 -12 -6 -6 3 -8 17 -5 31 8 28 -1 46 -16 37 -6 -4 -5
-10 3 -15 11 -7 10 -9 -3 -9 -12 0 -18 8 -18 23 0 14 -12 30 -35 44 -26 17
-33 19 -28 7 3 -9 -6 -4 -21 10 -14 15 -26 32 -26 37 0 6 -6 9 -12 7 -16 -6
-24 -88 -9 -88 6 0 11 -9 11 -21 0 -11 7 -27 15 -35 13 -14 15 -13 15 10 0 14
5 26 11 26 7 0 9 -11 6 -29 -6 -27 -3 -30 24 -36 17 -4 28 -9 25 -12 -3 -3 -1
-14 4 -24 13 -24 0 -30 -39 -19 l-32 9 5 -41 c6 -46 13 -58 25 -39 6 9 11 10
15 2 4 -6 11 -9 15 -7 3 3 18 -11 31 -31 21 -31 25 -33 31 -17 7 17 8 17 8 -3
1 -12 4 -23 9 -26 4 -2 1 -2 -5 -1 -7 2 -13 -1 -13 -6 0 -17 39 -11 49 8 9 15
10 14 8 -5 -1 -13 -4 -23 -7 -23 -15 -1 -44 -32 -35 -38 6 -4 18 -23 28 -42
10 -19 16 -28 13 -19 -5 18 9 46 17 33 8 -14 -11 -54 -26 -54 -10 0 -13 -9
-11 -31 2 -17 6 -35 9 -40 6 -9 -8 -13 -33 -10 -21 3 -4 -40 25 -62 16 -13 22
-25 17 -36 -12 -30 -10 -101 4 -106 7 -3 10 -9 7 -15 -4 -6 -10 -8 -14 -6 -4
3 -8 -1 -8 -8 0 -8 6 -12 14 -9 19 8 16 -10 -7 -35 -12 -12 -18 -23 -15 -23 3
-1 9 -2 14 -3 5 0 13 -5 18 -10 4 -5 3 -6 -3 -3 -7 4 -11 -5 -9 -26 2 -39 14
-69 26 -62 4 3 6 -5 4 -17 -10 -51 -9 -92 3 -96 7 -2 12 -13 12 -23 0 -11 4
-18 9 -15 5 3 11 -4 14 -16 4 -15 3 -18 -5 -10 -8 8 -15 7 -25 -6 -13 -16 -14
-15 -8 5 3 12 1 24 -5 28 -6 4 -10 -10 -10 -39 0 -36 4 -46 16 -46 9 0 14 -6
11 -13 -8 -20 20 -77 38 -77 10 0 13 -4 8 -12 -9 -15 -9 -18 -12 -73 -2 -32
-4 -36 -11 -20 -7 17 -9 18 -9 2 -1 -9 5 -26 11 -37 10 -16 10 -24 1 -39 -9
-14 -9 -21 -1 -23 6 -2 9 -11 6 -18 -3 -11 -10 -6 -21 15 -13 25 -16 26 -17
10 -1 -17 -3 -17 -12 5 -6 14 -11 28 -10 32 1 3 -5 9 -13 12 -10 4 -15 -1 -15
-15 0 -29 -22 -50 -37 -34 -7 8 -7 17 -1 28 10 19 3 37 -15 37 -8 0 -8 -3 1
-9 11 -7 11 -9 0 -14 -9 -3 -14 3 -16 16 -1 23 -61 79 -75 70 -4 -3 -16 5 -26
16 -10 12 -23 21 -30 21 -14 0 -15 -76 -1 -85 6 -3 10 -17 10 -30 0 -12 7 -25
15 -29 10 -3 15 1 15 14 0 10 5 22 12 26 8 5 9 -3 5 -29 -3 -20 -3 -36 1 -36
30 5 53 -3 49 -15 -3 -7 -1 -18 3 -22 15 -15 -6 -40 -22 -27 -7 5 -21 13 -31
16 -16 6 -17 2 -13 -35 6 -44 26 -77 26 -42 1 19 1 19 15 0 8 -11 15 -16 15
-10 0 5 5 2 10 -6 7 -12 11 -10 19 10 l11 25 -2 -25 c-2 -42 2 -60 12 -60 6 0
10 6 10 14 0 8 5 18 11 22 7 4 9 -2 7 -17 -2 -17 3 -25 16 -27 14 -3 17 0 13
12 -4 9 -2 16 4 16 6 0 7 6 4 13 -4 6 3 1 14 -12 12 -13 21 -29 21 -35 0 -7 6
-13 13 -13 6 0 19 -4 28 -7 10 -5 20 2 29 18 13 26 33 27 24 1 -9 -22 5 -38
22 -24 10 8 14 8 14 0 0 -6 7 -11 15 -11 12 0 14 7 9 28 l-6 27 18 -25 c9 -14
18 -26 19 -28 7 -9 51 -10 61 -1 10 8 19 5 34 -9 20 -18 21 -29 19 -133 -3
-108 -14 -149 -35 -131 -5 4 -2 -1 5 -10 11 -15 11 -21 1 -33 -10 -12 -10 -15
1 -15 43 1 59 13 65 51 l7 39 96 1 c53 1 101 0 106 -1 29 -6 371 -10 1220 -15
835 -5 940 -7 943 -21 2 -8 -1 -21 -7 -28 -8 -10 -5 -16 15 -24 34 -16 34 -16
34 17 0 63 -5 61 197 61 128 0 182 3 178 11 -4 6 -30 10 -59 9 -125 -4 -300 2
-281 9 11 5 58 7 105 5 68 -3 77 -2 45 6 -22 5 -66 9 -97 9 -32 1 -58 4 -58 9
0 4 7 39 15 77 8 39 15 120 15 180 0 61 9 184 19 275 10 91 19 185 20 209 2
50 20 70 63 71 27 0 46 16 33 28 -4 4 -10 1 -12 -6 -7 -18 -79 -16 -87 3 -6
17 -66 21 -66 5 0 -6 -11 -8 -26 -4 -21 5 -25 3 -22 -12 2 -15 -4 -19 -37 -20
-22 -1 -78 -5 -125 -8 -47 -4 -211 -9 -365 -12 -175 -3 -284 -9 -292 -16 -9
-7 -13 -7 -13 1 0 8 -18 10 -57 5 -66 -7 -79 -7 -113 -4 -90 7 -486 -3 -498
-12 -9 -8 -16 -8 -20 -2 -4 6 -72 10 -163 10 -152 0 -156 0 -135 -18 20 -17
20 -18 1 -11 -11 3 -26 10 -33 16 -10 8 -203 11 -351 6 -35 -1 -53 14 -43 39
3 8 -2 20 -11 27 -18 13 -70 8 -62 -6 3 -4 3 -19 -1 -33 -4 -17 -14 -25 -35
-28 -23 -4 -29 -1 -24 9 3 8 0 23 -5 33 -7 13 -6 20 2 22 18 6 1 38 -21 38
-26 0 -31 -9 -36 -66 -3 -26 -6 -49 -8 -50 -1 -2 -23 -4 -47 -4 -62 -2 -101
-10 -96 -19 3 -4 39 -6 79 -4 l75 3 7 -47 c11 -73 6 -234 -10 -283 -5 -17 -9
-19 -21 -9 -12 10 -18 8 -30 -7 -13 -16 -15 -16 -10 -2 6 20 -4 28 -42 33 -83
12 -110 23 -117 46 -4 10 -11 19 -16 19 -6 0 -7 5 -4 10 5 8 11 7 21 -1 9 -7
14 -8 14 -1 0 6 -5 12 -12 14 -6 2 -12 30 -14 64 l-4 59 14 -45 c14 -45 18
-42 21 18 0 17 -3 32 -8 32 -5 0 -7 7 -4 14 4 9 -2 17 -14 21 -23 8 -24 18 -4
38 10 10 11 17 4 19 -8 3 -6 10 5 21 19 19 13 39 -9 30 -9 -3 -15 1 -15 11 0
9 3 16 8 16 4 0 9 27 10 60 2 43 -1 60 -10 60 -8 1 -7 6 5 14 21 16 22 33 2
53 -12 12 -13 18 -4 29 9 11 8 15 -5 20 -13 5 -14 9 -5 20 9 11 9 14 0 14 -7
0 -9 5 -6 10 4 6 11 7 17 4 6 -4 8 1 3 15 -4 12 -2 21 4 21 14 0 15 67 1 75
-6 3 -6 15 0 30 10 25 -1 42 -20 30 -11 -7 -14 28 -3 38 3 4 12 -1 20 -11 13
-16 14 -16 5 2 -6 12 -6 32 0 53 12 44 4 52 -25 25 -30 -28 -34 -28 -34 3 0
22 2 24 15 13 13 -11 14 -11 8 0 -12 21 -17 62 -7 62 5 0 13 -5 16 -10 4 -6
12 -7 18 -3 7 3 3 -4 -8 -17 -18 -21 -18 -23 -2 -17 10 4 21 7 23 7 2 0 4 9 4
20 0 11 -7 20 -15 20 -11 0 -13 8 -8 33 3 17 10 37 14 43 5 6 7 26 4 45 -5 36
8 69 19 51 3 -6 2 -13 -4 -17 -12 -7 -4 -25 11 -25 6 0 7 5 3 11 -5 8 -1 8 14
0 32 -17 40 -13 35 17 -4 27 -4 27 12 -4 16 -32 61 -51 78 -35 5 5 20 3 33 -3
24 -11 25 -12 22 -126 -2 -79 -7 -119 -16 -129 -7 -7 -10 -21 -7 -29 3 -8 0
-19 -7 -24 -8 -5 1 -8 24 -8 36 0 37 1 43 44 l7 44 211 -5 c117 -2 284 -7 372
-11 88 -3 526 -6 973 -6 l812 -1 0 -22 c0 -13 -6 -23 -12 -23 -7 0 -2 -9 12
-19 29 -23 40 -19 40 14 0 56 -3 55 202 55 123 0 187 3 183 10 -4 6 -77 10
-186 10 -126 0 -179 3 -179 11 0 8 29 10 103 5 71 -5 97 -4 87 3 -8 6 -52 11
-97 11 -46 0 -83 3 -83 8 0 4 7 39 15 77 8 39 15 122 15 185 0 64 8 185 19
270 10 85 19 171 20 190 2 72 13 89 56 90 26 0 52 17 42 26 -4 4 -13 2 -19 -4
-17 -17 -78 -15 -78 2 0 19 -60 32 -70 16 -4 -6 -16 -10 -26 -8 -13 2 -18 -2
-16 -14 2 -15 -5 -18 -48 -19 -27 -1 -62 -3 -77 -4 -92 -9 -249 -16 -388 -19
-89 -1 -167 -6 -174 -11 -10 -6 -12 -4 -6 5 6 10 -1 12 -36 6 -24 -4 -206 -9
-403 -12 -226 -3 -364 -8 -372 -15 -8 -7 -14 -7 -19 1 -4 7 -63 10 -168 8 -89
-1 -154 -3 -144 -5 19 -5 23 -23 5 -23 -7 0 -22 7 -32 15 -11 8 -33 15 -49 15
-25 0 -28 -2 -17 -15 10 -12 9 -15 -4 -15 -9 0 -19 6 -22 13 -4 11 -33 14
-114 15 -61 1 -110 -3 -110 -7 0 -6 -34 -7 -50 -1 -3 1 -8 2 -12 1 -8 -1 -11
13 -9 41 2 18 -27 38 -53 38 -19 0 -21 -31 -3 -49 10 -10 9 -11 -4 -6 -10 4
-19 0 -22 -9 -4 -9 -18 -16 -31 -16 -18 0 -24 4 -20 14 3 8 0 24 -6 36 -8 15
-8 20 -1 16 7 -4 11 1 11 13 0 17 -6 21 -30 21 -26 0 -30 -4 -31 -27 -1 -16
-3 -35 -4 -43 -1 -8 -3 -23 -4 -32 -1 -15 -12 -18 -70 -18 -39 0 -73 -4 -76
-10 -4 -6 23 -10 73 -10 l80 0 7 -46 c9 -62 4 -242 -8 -277 -9 -27 -10 -27
-28 -11 -17 16 -19 16 -19 1 0 -10 -5 -17 -11 -17 -5 0 -8 4 -5 9 8 13 -21 34
-39 28 -8 -4 -17 -2 -21 4 -3 5 -13 9 -22 8 -10 -1 -25 1 -35 6 -10 4 -21 5
-24 2 -3 -4 -15 5 -26 19 -11 14 -16 29 -11 32 14 10 18 76 5 68 -6 -4 -11 0
-11 11 -1 17 -2 16 -16 -2 -14 -19 -15 -16 -9 30 8 55 25 84 26 45 l0 -25 11
25 c6 14 12 59 14 100 3 71 2 73 -8 30 -5 -25 -10 -53 -10 -62 1 -21 -5 -22
-23 -5 -9 10 -11 24 -5 48 4 19 8 28 9 21 1 -7 6 -10 11 -7 6 4 7 13 1 23 -5
9 -11 40 -12 67 -3 39 -1 50 11 50 8 0 14 -6 12 -14 -15 -68 -15 -71 4 -71 16
0 17 2 4 10 -12 7 -12 12 -2 22 20 20 13 138 -8 138 -5 0 -6 -8 -3 -19 3 -10
1 -21 -4 -24 -12 -7 -13 46 -1 61 7 8 7 12 -2 12 -10 0 -10 3 0 15 7 8 9 15 4
15 -4 0 -3 5 4 12 15 15 16 32 2 23 -5 -3 -10 1 -10 9 0 9 4 16 9 16 6 0 6 12
1 29 -6 23 -5 28 9 27 13 -1 16 9 16 46 1 26 -3 44 -7 42 -4 -3 -8 0 -8 5 0 6
-7 11 -15 11 -20 0 -19 34 1 54 13 14 13 18 1 36 -7 11 -17 17 -20 13 -4 -3
-7 -1 -7 5 0 11 14 16 33 13 5 -1 14 12 20 29 6 16 15 30 20 30 4 0 6 4 3 8
-3 5 1 9 9 9 8 0 15 -4 15 -9 0 -4 7 -8 15 -8 12 0 14 7 9 28 l-6 27 18 -25
c9 -14 18 -26 19 -28 7 -9 51 -10 61 -1 10 8 19 5 34 -9 20 -18 21 -29 19
-133 -3 -107 -14 -150 -34 -131 -4 4 -1 -3 6 -16 12 -19 12 -24 -1 -32 -13 -9
-13 -10 0 -10 44 0 60 13 66 51 l7 39 96 1 c53 1 101 0 106 -1 12 -2 213 -7
610 -15 277 -5 389 -6 1155 -4 359 1 395 -1 398 -16 2 -9 -1 -22 -7 -29 -8
-10 -5 -16 15 -24 34 -16 34 -16 34 21 0 55 7 59 116 57 191 -4 265 -1 259 11
-4 6 -30 10 -59 9 -125 -4 -300 2 -281 9 11 5 58 7 105 5 71 -3 77 -2 40 6
-25 5 -69 9 -97 9 -29 1 -53 4 -53 9 0 4 7 39 15 77 8 39 15 120 15 180 0 61
9 184 19 275 10 91 19 185 20 210 2 48 14 61 65 70 16 3 31 12 34 20 4 12 2
13 -9 3 -19 -18 -85 -17 -93 2 -6 17 -66 21 -66 5 0 -6 -11 -8 -26 -4 -21 5
-25 3 -22 -12 2 -15 -3 -19 -27 -20 -16 0 -86 -5 -155 -9 -121 -8 -275 -12
-509 -14 -69 -1 -119 -5 -127 -12 -10 -8 -14 -8 -14 0 0 7 -19 9 -57 5 -32 -2
-179 -5 -327 -5 -188 0 -274 -3 -284 -11 -8 -7 -16 -8 -20 -2 -4 5 -77 9 -163
10 -152 0 -156 0 -135 -18 20 -17 20 -18 1 -11 -11 3 -26 11 -33 16 -10 8
-186 11 -351 6 -35 -1 -53 14 -43 39 3 8 -2 20 -11 27 -18 13 -70 8 -62 -6 3
-4 3 -19 -1 -33 -4 -17 -14 -25 -35 -28 -23 -4 -29 -1 -24 9 3 8 0 23 -5 33
-7 13 -6 20 2 22 18 6 1 38 -21 38 -26 0 -31 -9 -36 -66 -3 -26 -6 -49 -8 -50
-1 -2 -23 -4 -47 -4 -62 -2 -100 -10 -100 -20 0 -5 35 -7 79 -5 l79 5 7 -48
c4 -26 6 -83 5 -127 -3 -133 -14 -185 -33 -166 -15 15 -27 14 -27 -4 0 -8 -5
-15 -11 -15 -6 0 -9 7 -6 15 7 17 -4 25 -41 31 -15 2 -36 6 -47 8 -11 3 -23 5
-26 5 -4 1 -10 11 -14 24 -4 13 -8 17 -12 10 -7 -18 -33 -16 -33 2 0 8 5 15
10 15 6 0 10 7 10 15 0 8 5 15 10 15 6 0 10 15 10 33 0 17 5 50 10 72 8 37 3
66 -7 38 -3 -7 -12 -13 -21 -12 -11 0 -12 2 -4 6 6 2 12 15 12 28 0 13 6 30
13 37 7 8 12 39 12 78 -1 36 3 71 8 78 7 8 4 12 -7 12 -21 0 -21 32 0 72 11
21 12 33 5 37 -11 7 -10 16 13 101 18 64 20 84 6 75 -5 -3 -10 -2 -10 4 0 5 6
12 13 14 8 4 8 8 2 14 -15 12 -11 59 4 55 8 -2 11 3 8 12 -11 28 18 37 107 32
62 -3 86 -1 86 7 0 9 2 9 8 1 4 -7 25 -9 59 -5 29 4 50 4 47 -1 -4 -7 32 -13
57 -10 21 3 101 2 314 -2 306 -7 668 -11 720 -8 22 1 85 0 140 -2 61 -3 105 0
112 6 8 6 13 6 13 1 0 -5 36 -9 80 -9 44 1 80 5 80 10 0 4 6 4 13 -1 6 -5 46
-8 87 -7 184 3 347 5 493 5 l157 -1 0 -24 c0 -14 -5 -28 -11 -32 -8 -4 -3 -12
12 -20 36 -20 49 -17 49 10 0 14 4 35 9 49 l9 23 221 0 c143 -1 220 3 218 9
-2 6 -87 11 -220 13 -152 2 -217 6 -217 14 0 8 34 9 121 4 85 -5 119 -4 114 3
-4 7 -49 11 -115 11 -83 0 -108 3 -105 13 2 6 7 23 9 37 3 14 10 43 15 65 5
22 11 114 15 205 3 91 15 236 26 323 11 87 20 171 20 185 -2 82 20 121 70 122
30 0 57 16 47 26 -4 4 -13 2 -19 -4 -17 -17 -98 -16 -98 2 0 8 -7 17 -16 20
-26 10 -64 7 -64 -5 0 -7 -11 -9 -31 -5 -27 5 -30 3 -27 -17 3 -21 0 -22 -77
-24 -66 -2 -210 -11 -210 -13 0 0 -44 -3 -98 -5 -54 -2 -107 -7 -117 -10 -10
-3 -21 -2 -23 2 -3 5 -36 7 -74 6 -37 -2 -131 -3 -208 -4 -77 -1 -147 -5 -155
-9 -16 -8 -46 15 -31 24 13 8 19 53 10 68 -5 7 -3 16 4 20 9 6 7 11 -6 19 -15
9 -16 13 -6 26 20 23 13 145 -8 161 -12 8 -13 12 -4 12 10 0 12 9 8 30 -4 19
-1 34 9 45 14 13 14 15 -2 15 -13 0 -14 3 -4 15 7 8 23 15 36 15 13 0 24 6 24
13 1 7 6 5 14 -5 7 -10 21 -18 30 -18 9 0 16 -5 16 -12 0 -9 3 -9 12 0 7 7 17
12 23 12 5 0 4 -4 -4 -9 -9 -6 3 -11 35 -16 81 -12 233 -15 239 -5 4 6 12 10
18 10 7 0 6 -4 -3 -11 -12 -9 -12 -10 -1 -7 8 3 17 10 19 16 3 9 -16 12 -65
12 -56 0 -72 4 -86 20 -17 21 -15 20 -203 25 -33 1 -70 7 -81 14 -31 16 -54
14 -47 -4 4 -10 0 -15 -15 -15 -23 0 -29 16 -8 23 6 2 -18 5 -55 5 -72 2 -82
-3 -45 -18 18 -8 13 -9 -26 -7 -28 1 -46 -2 -43 -8 2 -5 22 -9 45 -7 31 2 41
-1 41 -13 0 -8 -4 -15 -10 -15 -5 0 -10 3 -10 8 0 4 -18 6 -40 4 -33 -3 -40
-1 -40 14 0 13 -3 15 -11 7 -13 -13 -39 -6 -39 9 0 15 -23 33 -45 35 -11 2
-49 5 -85 7 -49 4 -65 9 -64 20 1 12 -15 15 -92 14 -57 0 -94 -4 -94 -10 0 -7
16 -8 42 -4 l42 7 -23 -20 c-20 -18 -21 -20 -4 -23 10 -3 -1 -4 -24 -4 -31 0
-39 4 -32 12 8 9 0 11 -31 7 -33 -5 -40 -3 -40 11 0 11 -10 16 -32 17 -71 3
-132 1 -164 -6 -24 -4 -34 -2 -34 7 0 9 -3 9 -12 0 -7 -7 -21 -11 -33 -11 -16
1 -17 2 -2 6 9 2 17 8 17 13 0 5 -7 6 -17 3 -11 -4 -14 -3 -9 6 4 6 4 11 -1
10 -4 -1 -10 0 -13 1 -3 1 -38 3 -78 4 -58 2 -75 -1 -82 -13 -7 -12 -9 -12
-10 -2 0 7 -6 11 -14 8 -8 -3 -17 1 -20 10 -5 12 -9 13 -20 4 -11 -9 -15 -9
-19 1 -4 9 -9 8 -18 -6 -9 -15 -13 -16 -20 -5 -6 10 -9 11 -9 2 0 -7 -12 -13
-26 -13 -14 0 -23 4 -20 9 3 5 -3 11 -14 14 -17 4 -18 2 -10 -14 9 -17 8 -18
-12 -10 -13 4 -29 6 -36 4 -8 -3 -10 1 -6 12 6 15 1 16 -38 10 -28 -4 -54 -3
-66 4 -14 7 -23 8 -27 1 -4 -7 -13 -6 -27 1 -16 8 -19 8 -13 -1 6 -9 -1 -10
-26 -5 -25 4 -30 3 -19 -4 12 -8 8 -11 -18 -11 -18 0 -40 7 -48 15 -14 13 -13
15 8 15 21 1 21 2 5 11 -12 7 -28 7 -53 -1 -19 -7 -38 -9 -41 -6 -4 3 1 6 11
6 10 0 14 5 11 11 -4 6 -13 8 -21 5 -7 -3 -16 0 -20 5 -3 6 -15 9 -25 6 -10
-3 -20 0 -21 5 -2 6 -10 3 -17 -6 -12 -14 -12 -16 3 -10 9 3 16 1 16 -5 0 -6
-5 -11 -11 -11 -5 0 -7 -5 -4 -11 5 -7 -8 -9 -41 -4 -81 11 -114 11 -114 2 0
-5 -7 -3 -16 4 -15 12 -16 11 -10 -9 6 -17 4 -21 -8 -16 -9 3 -16 1 -16 -5 0
-7 -22 -11 -57 -10 -51 1 -55 2 -28 10 17 5 40 7 53 4 12 -3 22 -1 22 4 0 11
-43 24 -88 26 -18 1 -38 7 -44 13 -15 15 -38 16 -38 2 0 -5 -12 -10 -26 -10
-21 0 -25 -4 -21 -20 3 -13 1 -18 -6 -13 -7 4 -20 7 -29 8 -10 0 -18 5 -17 10
0 6 8 9 17 8 9 -1 12 0 5 3 -7 3 -10 11 -7 18 6 16 -23 30 -31 16 -4 -6 1 -10
10 -10 9 0 13 -5 10 -11 -4 -6 -26 -9 -49 -8 -48 2 -76 -8 -76 -27 0 -18 -14
-18 -30 1 -8 10 -17 12 -24 6 -7 -6 -27 -6 -52 -1 -42 10 -156 6 -174 -5 -5
-3 -10 -1 -10 5 0 6 -5 8 -12 4 -10 -6 -9 -3 0 8 8 9 20 14 28 11 8 -3 14 0
14 7 0 8 -24 10 -87 6 -196 -11 -283 -19 -283 -28 0 -4 5 -8 12 -8 6 0 9 -2 6
-5 -3 -3 -24 -3 -47 1 -27 4 -38 10 -30 15 7 4 17 5 23 2 5 -3 7 -2 3 3 -3 5
-32 9 -64 8 -32 -1 -70 2 -86 7 -15 4 -36 5 -45 1 -13 -5 -10 -8 13 -14 19 -5
13 -5 -18 -2 -98 11 -347 13 -347 4 0 -6 3 -9 8 -8 4 0 16 -3 27 -8 18 -8 17
-9 -10 -14 -39 -8 -55 -2 -55 21 0 10 -6 18 -12 17 -7 -2 -13 4 -13 12 0 8 -4
18 -10 22 -6 5 -6 8 1 8 10 0 12 28 5 73 -1 4 -8 7 -16 7 -8 0 -15 5 -15 10 0
6 8 10 18 10 9 0 13 4 7 8 -5 4 -11 17 -13 30 -4 25 -22 23 228 24 90 0 137 4
142 12 6 8 8 7 8 -2 0 -10 73 -11 369 -6 l368 7 5 -27 c4 -19 1 -29 -9 -33
-11 -4 -7 -11 14 -24 15 -11 31 -19 34 -19 4 0 9 20 12 45 2 26 7 48 10 51 3
3 105 5 226 5 127 0 221 3 221 8 0 9 -92 25 -120 21 -44 -7 -320 1 -316 9 3 5
61 7 128 5 76 -2 113 0 98 6 -14 4 -69 8 -122 9 -73 1 -96 4 -93 14 2 6 7 23
9 37 3 14 10 43 15 65 5 22 12 114 15 205 3 91 15 234 26 319 11 84 20 165 19
180 -1 51 13 111 27 111 8 0 14 5 14 10 0 6 15 10 34 10 34 0 55 15 41 28 -4
4 -10 1 -12 -5 -6 -17 -104 -18 -101 -1 2 7 -14 17 -35 22 -33 8 -40 7 -49 -7
-7 -13 -13 -15 -29 -7 -19 11 -21 9 -23 -20 -1 -10 -13 -15 -36 -16 -19 -1
-80 -4 -135 -8 -186 -12 -319 -18 -476 -19 -116 -2 -160 -6 -173 -16 -9 -8
-19 -11 -23 -7 -3 3 -1 6 5 6 7 0 12 5 12 11 0 7 -22 8 -72 2 -40 -4 -110 -7
-155 -5 -49 2 -84 -1 -88 -8 -3 -6 -11 -7 -18 -3 -14 9 -217 10 -211 1 2 -3 0
-9 -6 -13 -5 -3 -10 0 -10 7 0 17 -373 14 -408 -4 -18 -9 -25 -9 -30 -1 -5 8
-64 11 -196 11 -103 -1 -179 -5 -167 -10 30 -11 26 -26 -8 -24 -19 0 -27 5
-24 13 3 7 -1 14 -8 14 -57 5 -369 4 -369 -1 0 -4 -13 -7 -30 -7 -16 0 -30 5
-30 10 0 5 -7 4 -15 -3 -16 -13 -20 -1 -16 47 1 13 -6 26 -18 32 -24 13 -44
14 -37 2 4 -5 -4 -7 -16 -3 -13 3 -19 1 -15 -5 3 -5 3 -23 -2 -39 -6 -23 -14
-30 -42 -34 -31 -6 -34 -4 -35 19 0 15 -4 35 -9 45 -6 13 -5 17 2 13 6 -4 13
2 16 13 4 17 0 20 -29 20 -19 0 -35 -1 -35 -2z m161 -78 c0 -5 -2 -10 -4 -10
-3 0 -8 5 -11 10 -3 6 -1 10 4 10 6 0 11 -4 11 -10z m2752 -27 c0 -16 1 -35 0
-43 0 -8 -3 -123 -7 -255 -10 -438 -12 -490 -20 -543 l-8 -53 -81 1 c-44 0
-320 -2 -613 -5 -554 -5 -547 -6 -548 35 0 17 -28 25 -53 15 -14 -5 -14 -8 -2
-15 11 -7 11 -11 1 -24 -12 -14 -40 -16 -187 -15 -95 1 -178 -2 -185 -6 -7 -5
-10 -4 -5 3 4 7 -17 10 -71 10 -76 -1 -259 6 -453 17 -213 12 -457 22 -485 20
-45 -4 -47 -4 -40 -15 3 -5 30 -10 58 -11 36 0 46 -3 32 -8 -11 -5 -38 -7 -60
-6 -22 2 -59 3 -83 4 -42 1 -42 1 -37 34 3 17 12 55 20 82 24 88 47 217 42
242 -2 13 0 26 5 29 5 4 9 29 7 58 -2 45 6 188 16 256 1 14 10 46 19 73 10 26
14 52 11 57 -5 9 23 15 47 11 47 -7 1471 5 1518 13 14 2 106 7 205 11 99 3
209 8 245 10 36 3 160 12 275 20 209 15 283 20 383 23 50 2 52 1 54 -25z
m-1302 -19 c0 -2 -7 -4 -15 -4 -8 0 -15 4 -15 10 0 5 7 7 15 4 8 -4 15 -8 15
-10z m-1007 -1 c-7 -2 -19 -2 -25 0 -7 3 -2 5 12 5 14 0 19 -2 13 -5z m787 3
c0 -2 -9 -6 -20 -9 -11 -3 -18 -1 -14 4 5 9 34 13 34 5z m-450 -10 c0 -3 -4
-8 -10 -11 -5 -3 -10 -1 -10 4 0 6 5 11 10 11 6 0 10 -2 10 -4z m-824 -33
c-10 -10 -46 -11 -46 -1 0 4 12 8 27 8 14 0 23 -3 19 -7z m-6 -164 c0 -5 -4
-9 -8 -9 -5 0 -9 7 -9 15 0 8 4 12 9 9 4 -3 8 -9 8 -15z m269 -659 c63 0 21
-14 -44 -15 -48 0 -65 4 -65 13 0 10 10 12 38 8 20 -3 52 -5 71 -6z m178 -16
c-3 -3 -12 -4 -19 -1 -8 3 -5 6 6 6 11 1 17 -2 13 -5z m473 -14 c0 -5 -2 -10
-4 -10 -3 0 -8 5 -11 10 -3 6 -1 10 4 10 6 0 11 -4 11 -10z m1830 -6 c6 -10
-231 -14 -282 -5 -26 5 -18 7 37 11 101 7 239 4 245 -6z m-1765 -4 c3 -6 -1
-7 -9 -4 -18 7 -21 14 -7 14 6 0 13 -4 16 -10z m845 -6 c0 -2 -9 -4 -20 -4
-11 0 -20 4 -20 9 0 5 9 7 20 4 11 -3 20 -7 20 -9z m436 3 c4 -4 -32 -7 -80
-7 -48 0 -85 3 -82 8 6 9 153 9 162 -1z m154 4 c-28 -17 -110 -17 -110 -1 0 6
27 10 63 10 40 -1 57 -4 47 -9z m-980 -11 c13 -8 13 -10 -2 -10 -9 0 -20 5
-23 10 -8 13 5 13 25 0z m548 0 c-10 -6 -25 -7 -40 -1 -20 9 -18 10 17 10 31
0 36 -2 23 -9z m-408 -60 c0 -5 -2 -10 -4 -10 -3 0 -8 5 -11 10 -3 6 -1 10 4
10 6 0 11 -4 11 -10z m0 -24 c0 -2 -7 -6 -15 -10 -8 -3 -15 -1 -15 4 0 6 7 10
15 10 8 0 15 -2 15 -4z m0 -116 c8 -5 11 -12 8 -16 -4 -3 -14 1 -23 10 -18 17
-9 21 15 6z m-3750 -34 c0 -2 -9 -6 -20 -9 -11 -3 -20 -1 -20 4 0 5 9 9 20 9
11 0 20 -2 20 -4z m4030 -21 c5 3 11 1 14 -4 6 -9 -63 -22 -76 -14 -4 2 -2 10
5 17 8 10 17 11 30 4 9 -5 22 -6 27 -3z m588 -10 c-1 -14 -8 -25 -15 -25 -7 0
-13 -5 -13 -11 0 -6 -7 -3 -16 6 -9 9 -23 14 -30 11 -8 -3 -14 -1 -14 4 0 6
14 10 30 10 18 0 33 6 36 15 10 24 24 17 22 -10z m1149 19 c-3 -3 -12 -4 -19
-1 -8 3 -5 6 6 6 11 1 17 -2 13 -5z m-3367 -19 c0 -10 -10 -15 -30 -15 -47 0
-35 27 13 29 9 1 17 -6 17 -14z m373 -2 c-6 -16 -9 -16 -35 -2 -14 8 -23 8
-31 0 -13 -13 -47 -15 -47 -2 0 14 20 19 71 17 33 -1 45 -5 42 -13z m1607 7
c0 -5 -2 -10 -4 -10 -3 0 -8 5 -11 10 -3 6 -1 10 4 10 6 0 11 -4 11 -10z m815
-5 c0 -5 -11 -10 -25 -10 -15 0 -24 -5 -22 -12 1 -7 -3 -13 -9 -13 -6 0 -8 7
-5 16 3 9 6 19 6 23 0 4 12 7 28 6 15 0 27 -4 27 -10z m-435 1 c0 -9 -30 -14
-35 -6 -4 6 3 10 14 10 12 0 21 -2 21 -4z m-2653 -12 c-3 -3 -12 -4 -19 -1 -8
3 -5 6 6 6 11 1 17 -2 13 -5z m67 -5 c-4 -8 1 -9 17 -4 19 5 21 4 9 -4 -12 -9
-10 -11 10 -12 14 0 19 -3 12 -6 -7 -3 -27 1 -43 7 -22 10 -27 15 -17 21 18
12 20 11 12 -2z m476 7 c0 -8 -51 -13 -56 -5 -3 5 9 9 25 9 17 0 31 -2 31 -4z
m207 -2 c-3 -3 -12 -4 -19 -1 -8 3 -5 6 6 6 11 1 17 -2 13 -5z m418 -4 c3 -5
1 -10 -4 -10 -6 0 -11 5 -11 10 0 6 2 10 4 10 3 0 8 -4 11 -10z m1516 -5 c0
-6 -10 -12 -23 -13 -19 -4 -20 -2 -9 12 15 17 33 18 32 1z m-308 -2 c-7 -2
-21 -2 -30 0 -10 3 -4 5 12 5 17 0 24 -2 18 -5z m1122 -11 c-3 -3 -11 0 -18 7
-9 10 -8 11 6 5 10 -3 15 -9 12 -12z m-2760 -12 c4 -6 -7 -10 -27 -9 -31 1
-32 1 -8 9 14 4 26 8 27 9 1 1 5 -3 8 -9z m1923 -14 c-15 -8 -37 -12 -50 -8
l-23 6 25 6 c14 3 36 7 50 8 l25 2 -27 -14z m546 -1 c-7 -18 -24 -20 -24 -3 0
6 -6 3 -14 -8 -8 -11 -18 -15 -23 -10 -4 5 -2 11 6 14 11 4 11 6 0 13 -9 6 -2
9 23 9 29 0 36 -3 32 -15z m-3200 -7 c-2 -3 2 -8 8 -11 10 -4 11 -7 1 -18 -10
-9 -13 -10 -13 -1 0 7 -7 12 -15 12 -8 0 -15 4 -15 10 0 5 -7 6 -17 3 -11 -4
-14 -3 -9 5 4 6 20 10 35 9 16 -1 27 -5 25 -9z m481 3 c3 -5 1 -12 -5 -16 -5
-3 -10 1 -10 9 0 18 6 21 15 7z m1970 -1 c-3 -5 -12 -10 -18 -10 -7 0 -6 4 3
10 19 12 23 12 15 0z m784 -4 c7 -8 8 -17 3 -20 -6 -3 -12 3 -15 14 -6 24 -4
25 12 6z m421 4 c0 -23 -40 -31 -83 -16 l-42 14 35 4 c66 9 90 8 90 -2z m318
-26 c-2 -2 -30 -5 -61 -7 -40 -2 -54 0 -47 7 6 6 32 10 58 9 26 0 38 2 28 4
-15 4 -16 7 -5 14 9 5 17 3 22 -7 5 -9 7 -17 5 -20z m742 21 c0 -2 -7 -5 -15
-9 -9 -3 -15 0 -15 9 0 9 6 12 15 9 8 -4 15 -7 15 -9z m-5790 -7 c0 -11 -22
-10 -39 1 -10 7 -7 9 12 8 15 -1 27 -5 27 -9z m2598 0 c-2 -6 -10 -14 -16 -16
-7 -2 -10 2 -6 12 7 18 28 22 22 4z m386 3 c4 -5 -3 -7 -14 -4 -23 6 -26 13
-6 13 8 0 17 -4 20 -9z m2137 -1 c24 -13 25 -33 1 -26 -10 4 -27 -1 -38 -9
-38 -29 -48 -9 -12 25 25 23 24 23 49 10z m-5286 -10 c4 -6 -6 -10 -22 -10
-22 0 -25 2 -13 10 19 12 27 12 35 0z m615 0 c0 -13 -11 -13 -30 0 -12 8 -11
10 8 10 12 0 22 -4 22 -10z m2750 0 c0 -5 -2 -10 -4 -10 -3 0 -8 5 -11 10 -3
6 -1 10 4 10 6 0 11 -4 11 -10z m477 4 c-3 -3 -12 -4 -19 -1 -8 3 -5 6 6 6 11
1 17 -2 13 -5z m358 -6 c-23 -14 -95 -17 -95 -4 0 5 15 6 33 3 19 -3 40 -1 48
4 8 5 19 9 24 9 6 -1 1 -6 -10 -12z m355 -4 c0 -2 -15 -4 -32 -3 -27 0 -29 2
-13 8 18 8 45 4 45 -5z m1283 3 c-3 -5 3 -6 15 -3 13 4 22 1 26 -9 5 -13 1
-15 -17 -10 -30 10 -54 32 -33 32 8 0 13 -5 9 -10z m-5105 -22 c3 -3 3 -8 -1
-11 -8 -8 -47 5 -47 16 0 9 38 5 48 -5z m127 5 c-3 -5 -11 -10 -16 -10 -6 0
-7 5 -4 10 3 6 11 10 16 10 6 0 7 -4 4 -10z m425 -10 c-19 -13 -30 -13 -30 0
0 6 10 10 23 10 18 0 19 -2 7 -10z m4470 0 c0 -5 -4 -10 -9 -10 -6 0 -13 5
-16 10 -3 6 1 10 9 10 9 0 16 -4 16 -10z m-6025 -11 c-18 -5 -33 -5 -39 1 -7
7 4 10 30 9 39 -1 39 -1 9 -10z m-455 -9 c0 -5 -9 -10 -21 -10 -11 0 -17 5
-14 10 3 6 13 10 21 10 8 0 14 -4 14 -10z m373 3 c-7 -2 -19 -2 -25 0 -7 3 -2
5 12 5 14 0 19 -2 13 -5z m3232 -13 c8 -13 -15 -13 -35 0 -12 8 -11 10 7 10
12 0 25 -4 28 -10z m3528 3 c-7 -2 -19 -2 -25 0 -7 3 -2 5 12 5 14 0 19 -2 13
-5z m-3543 -63 c0 -5 -7 -7 -15 -4 -8 4 -15 8 -15 10 0 2 7 4 15 4 8 0 15 -4
15 -10z m-3730 -4 c0 -3 -4 -8 -10 -11 -5 -3 -10 -1 -10 4 0 6 5 11 10 11 6 0
10 -2 10 -4z m0 -36 c0 -5 -2 -10 -4 -10 -3 0 -8 5 -11 10 -3 6 -1 10 4 10 6
0 11 -4 11 -10z m7530 0 c0 -5 -5 -10 -11 -10 -5 0 -7 5 -4 10 3 6 8 10 11 10
2 0 4 -4 4 -10z m-7530 -40 c0 -5 -5 -10 -11 -10 -5 0 -7 5 -4 10 3 6 8 10 11
10 2 0 4 -4 4 -10z m3770 -20 c10 0 7 -5 -8 -13 -12 -7 -19 -16 -16 -20 4 -4
2 -7 -4 -7 -7 0 -12 5 -12 10 0 6 -9 10 -20 10 -11 0 -20 4 -20 8 0 18 3 18
80 12z m-50 -40 c0 -5 -4 -10 -10 -10 -5 0 -10 5 -10 10 0 6 5 10 10 10 6 0
10 -4 10 -10z m3820 -11 c0 -5 -4 -9 -8 -9 -5 0 -9 7 -9 15 0 8 4 12 9 9 4 -3
8 -9 8 -15z m-3840 -19 c0 -5 -2 -10 -4 -10 -3 0 -8 5 -11 10 -3 6 -1 10 4 10
6 0 11 -4 11 -10z m-5 -29 c3 -5 1 -12 -5 -16 -5 -3 -10 1 -10 9 0 18 6 21 15
7z m-3705 -21 c0 -5 -7 -7 -15 -4 -8 4 -15 8 -15 10 0 2 7 4 15 4 8 0 15 -4
15 -10z m4 -58 c3 -5 -1 -9 -9 -9 -8 0 -15 4 -15 9 0 4 4 8 9 8 6 0 12 -4 15
-8z m3723 2 c-3 -3 -12 -4 -19 -1 -8 3 -5 6 6 6 11 1 17 -2 13 -5z m-3762 -14
c-3 -5 -11 -10 -16 -10 -6 0 -7 5 -4 10 3 6 11 10 16 10 6 0 7 -4 4 -10z
m3615 -4 c0 -2 -7 -7 -16 -10 -8 -3 -12 -2 -9 4 6 10 25 14 25 6z m73 -17 c-3
-24 -12 -59 -17 -67 -7 -11 -106 9 -106 21 0 5 13 7 29 4 27 -6 30 -3 36 23 4
17 10 28 15 25 5 -3 12 -1 15 5 9 15 30 6 28 -11z m1318 -86 c3 -46 2 -63 -16
-678 -2 -77 -8 -156 -13 -175 l-8 -35 -89 -1 c-50 -1 -422 -4 -828 -7 -407 -3
-742 -8 -745 -11 -3 -3 -10 -6 -16 -6 -6 0 -4 5 4 10 14 9 -16 11 -250 16 -36
0 -112 4 -170 7 -58 4 -170 10 -250 13 -80 4 -161 8 -180 8 -24 2 -36 8 -38
19 -4 21 -32 23 -32 2 0 -10 -16 -15 -60 -17 -33 -2 -60 -7 -60 -13 0 -5 8
-10 18 -11 59 -3 65 -7 22 -14 -25 -4 -52 -4 -61 1 -9 5 -30 7 -47 4 l-31 -3
6 41 c3 23 9 52 14 65 17 46 51 225 46 249 -2 13 0 26 5 29 5 3 8 31 7 62 -1
47 8 235 12 252 1 3 2 10 3 15 1 6 6 19 10 30 24 60 27 75 21 84 -3 6 0 11 7
11 89 -3 1439 11 1483 14 33 3 179 10 325 17 146 6 373 19 505 28 132 9 277
18 323 19 l82 3 1 -28z m3616 7 c-3 -11 -1 -23 4 -26 5 -3 7 -15 4 -27 -3 -12
-7 -107 -10 -212 -12 -477 -15 -562 -23 -595 l-8 -35 -89 -1 c-50 -1 -422 -4
-828 -7 -407 -3 -742 -8 -745 -11 -3 -3 -10 -6 -16 -6 -6 0 -4 5 4 10 14 9
-10 11 -245 16 -33 0 -109 4 -170 7 -60 4 -175 10 -255 13 -80 4 -160 7 -179
8 -21 1 -37 9 -43 21 -10 17 -12 17 -23 2 -7 -11 -30 -17 -68 -19 -32 -2 -57
-7 -57 -13 0 -5 8 -10 18 -11 59 -3 65 -7 22 -14 -25 -4 -53 -3 -63 2 -10 5
-31 7 -47 4 -29 -4 -29 -3 -24 32 3 21 11 57 19 82 21 72 47 220 42 241 -3 10
-1 21 4 25 5 3 9 37 8 77 0 62 8 222 12 237 1 3 2 10 3 15 1 6 6 19 10 30 24
60 27 75 21 84 -3 6 0 11 7 11 99 -3 1434 11 1490 16 49 3 78 2 83 -5 3 -6 1
-11 -4 -11 -6 0 -11 -4 -11 -10 0 -5 7 -10 15 -10 17 0 20 -16 6 -24 -5 -4
-12 0 -15 6 -4 7 -4 2 -2 -11 3 -16 -2 -29 -17 -41 l-21 -17 22 -7 c12 -4 22
-14 22 -23 0 -10 -6 -13 -16 -9 -22 8 -40 -4 -23 -15 11 -7 11 -9 -2 -9 -19 0
-42 -46 -33 -63 4 -7 4 -9 -1 -5 -8 7 -35 -34 -35 -53 0 -22 85 3 95 29 2 6
-3 12 -11 12 -8 0 -13 4 -9 10 3 5 12 7 20 3 11 -4 15 2 15 22 0 14 4 24 9 20
5 -3 12 -1 16 5 13 21 23 -1 15 -31 -9 -29 -8 -30 18 -27 15 2 27 9 28 18 2
34 5 41 26 62 14 14 18 23 10 26 -7 2 -12 8 -12 13 0 6 4 8 9 5 5 -3 11 1 14
8 4 10 -2 16 -16 18 l-22 3 22 22 c31 31 37 58 16 79 -16 16 -17 17 -1 11 10
-3 20 -2 22 2 3 4 83 11 178 15 95 4 281 15 413 25 132 10 278 18 324 20 80 2
83 1 78 -19z m-8568 -6 c-13 -15 -45 -19 -53 -5 -8 13 1 18 35 19 25 1 28 -2
18 -14z m4128 10 c-3 -3 -12 -4 -19 -1 -8 3 -5 6 6 6 11 1 17 -2 13 -5z m3620
0 c-3 -3 -12 -4 -19 -1 -8 3 -5 6 6 6 11 1 17 -2 13 -5z m-4102 -24 c3 -6 -1
-7 -9 -4 -18 7 -21 14 -7 14 6 0 13 -4 16 -10z m3620 0 c3 -6 -1 -7 -9 -4 -18
7 -21 14 -7 14 6 0 13 -4 16 -10z m-3928 -6 c-3 -3 -12 -4 -19 -1 -8 3 -5 6 6
6 11 1 17 -2 13 -5z m3620 0 c-3 -3 -12 -4 -19 -1 -8 3 -5 6 6 6 11 1 17 -2
13 -5z m93 2 c0 -2 -9 -6 -20 -9 -11 -3 -18 -1 -14 4 5 9 34 13 34 5z m-8575
-16 c3 -5 1 -10 -4 -10 -6 0 -11 5 -11 10 0 6 2 10 4 10 3 0 8 -4 11 -10z
m1495 6 c0 -3 -4 -8 -10 -11 -5 -3 -10 -1 -10 4 0 6 5 11 10 11 6 0 10 -2 10
-4z m1260 -41 c4 -16 5 -52 4 -80 -2 -27 -5 -142 -8 -255 -3 -113 -5 -205 -6
-205 -1 0 -3 -58 -4 -130 -3 -159 -12 -215 -35 -216 -9 0 -74 -2 -146 -4 -468
-16 -1557 -10 -1917 9 -325 18 -465 26 -479 26 -13 0 -15 9 -11 50 3 32 1 50
-6 50 -13 0 -37 -40 -25 -41 4 0 -2 -4 -14 -9 -13 -6 -23 -18 -23 -30 0 -17
-6 -20 -41 -20 -39 0 -41 -1 -35 -25 4 -14 2 -25 -4 -25 -5 0 -10 5 -10 11 0
6 -15 10 -32 9 -18 -1 -38 -2 -45 -1 -12 1 -9 45 8 96 20 60 51 228 46 252 -2
13 -1 26 4 29 5 3 9 44 9 92 0 48 4 113 8 145 5 33 5 57 0 57 -5 0 -6 6 -1 13
4 6 8 17 9 22 1 6 9 31 18 58 10 26 14 52 11 57 -3 6 0 10 7 10 7 0 317 1 688
2 595 3 675 1 675 -12 0 -10 -8 -14 -24 -12 -19 2 -22 -2 -18 -18 3 -12 0 -20
-7 -20 -12 0 -38 -59 -41 -93 -1 -11 -8 -22 -15 -27 -22 -14 -4 -42 22 -34 13
3 25 11 26 15 2 5 10 9 18 9 8 0 14 2 14 4 0 2 3 11 6 20 4 11 0 16 -12 16
-15 0 -16 2 -5 9 8 5 20 7 28 4 8 -3 11 0 8 9 -6 16 28 61 38 51 4 -3 4 -23 1
-45 -6 -32 -4 -38 10 -33 9 3 23 7 32 10 12 4 14 8 5 19 -6 7 -8 16 -4 20 15
15 12 45 -5 50 -14 4 -13 5 3 4 38 -1 45 2 45 18 0 8 -4 12 -10 9 -5 -3 -10 1
-10 9 0 9 6 16 14 16 8 0 16 4 18 9 2 4 122 14 268 20 146 7 319 16 385 21 66
5 172 12 235 16 63 3 144 9 180 13 36 3 83 6 105 6 36 0 40 -3 45 -30z m-823
9 c-3 -3 -12 -4 -19 -1 -8 3 -5 6 6 6 11 1 17 -2 13 -5z m1746 -1 c-7 -2 -21
-2 -30 0 -10 3 -4 5 12 5 17 0 24 -2 18 -5z m3620 0 c-7 -2 -21 -2 -30 0 -10
3 -4 5 12 5 17 0 24 -2 18 -5z m1777 -13 c-20 -13 -63 -13 -55 0 3 6 21 10 38
10 24 0 28 -3 17 -10z m-7930 -16 c0 -2 -7 -4 -15 -4 -8 0 -15 4 -15 10 0 5 7
7 15 4 8 -4 15 -8 15 -10z m-883 0 c-3 -3 -12 -4 -19 -1 -8 3 -5 6 6 6 11 1
17 -2 13 -5z m966 -1 c-7 -2 -19 -2 -25 0 -7 3 -2 5 12 5 14 0 19 -2 13 -5z
m7837 -7 c0 -2 -9 -6 -20 -9 -11 -3 -20 -1 -20 4 0 5 9 9 20 9 11 0 20 -2 20
-4z m-9100 -32 c0 -2 -11 -3 -24 -2 -14 1 -23 5 -20 9 4 7 44 0 44 -7z m1420
-79 c-7 -8 -18 -15 -24 -15 -6 0 -2 7 8 15 25 19 32 19 16 0z m2585 -675 c4
-6 -9 -10 -32 -9 -38 1 -38 1 -8 9 17 4 31 8 32 9 1 0 5 -3 8 -9z m3545 0 c0
-5 -5 -10 -11 -10 -5 0 -7 5 -4 10 3 6 8 10 11 10 2 0 4 -4 4 -10z m75 0 c4
-6 -9 -10 -32 -9 -38 1 -38 1 -8 9 17 4 31 8 32 9 1 0 5 -3 8 -9z m-3435 -19
c0 -5 -9 -7 -20 -4 -11 3 -20 7 -20 9 0 2 9 4 20 4 11 0 20 -4 20 -9z m3620 0
c0 -5 -9 -7 -20 -4 -11 3 -20 7 -20 9 0 2 9 4 20 4 11 0 20 -4 20 -9z m-3290
-17 c0 -2 -7 -4 -15 -4 -8 0 -15 4 -15 10 0 5 7 7 15 4 8 -4 15 -8 15 -10z
m1950 4 c0 -5 -12 -8 -27 -8 -16 0 -113 -2 -218 -4 -190 -4 -289 3 -195 14 71
8 440 6 440 -2z m1670 -4 c0 -2 -7 -4 -15 -4 -8 0 -15 4 -15 10 0 5 7 7 15 4
8 -4 15 -8 15 -10z m1950 4 c0 -5 -12 -8 -27 -8 -16 0 -113 -2 -218 -4 -190
-4 -289 3 -195 14 72 8 440 6 440 -2z m-5850 -8 c0 -5 -5 -10 -11 -10 -5 0 -7
5 -4 10 3 6 8 10 11 10 2 0 4 -4 4 -10z m455 0 c3 -6 -1 -7 -9 -4 -18 7 -21
14 -7 14 6 0 13 -4 16 -10z m560 0 c3 -5 1 -10 -4 -10 -6 0 -11 5 -11 10 0 6
2 10 4 10 3 0 8 -4 11 -10z m280 0 c3 -5 -3 -10 -14 -10 -12 0 -21 5 -21 10 0
6 6 10 14 10 8 0 18 -4 21 -10z m155 -12 c0 -6 -7 -7 -16 -4 -9 3 -21 6 -27 6
-7 0 -7 4 2 9 16 10 41 4 41 -11z m287 16 c-11 -11 -154 -16 -161 -6 -3 6 29
10 81 11 47 0 83 -2 80 -5z m1883 -4 c0 -5 -5 -10 -11 -10 -5 0 -7 5 -4 10 3
6 8 10 11 10 2 0 4 -4 4 -10z m455 0 c3 -6 -1 -7 -9 -4 -18 7 -21 14 -7 14 6
0 13 -4 16 -10z m560 0 c3 -5 1 -10 -4 -10 -6 0 -11 5 -11 10 0 6 2 10 4 10 3
0 8 -4 11 -10z m280 0 c3 -5 -3 -10 -14 -10 -12 0 -21 5 -21 10 0 6 6 10 14
10 8 0 18 -4 21 -10z m95 0 c0 -5 -5 -10 -11 -10 -5 0 -7 5 -4 10 3 6 8 10 11
10 2 0 4 -4 4 -10z m60 -12 c0 -6 -7 -7 -16 -4 -9 3 -21 6 -27 6 -7 0 -7 4 2
9 16 10 41 4 41 -11z m281 12 c-17 -10 -149 -11 -155 -1 -4 5 30 9 80 9 47 -1
81 -4 75 -8z m-4431 -9 c0 -5 -9 -7 -20 -4 -11 3 -20 7 -20 9 0 2 9 4 20 4 11
0 20 -4 20 -9z m3620 0 c0 -5 -9 -7 -20 -4 -11 3 -20 7 -20 9 0 2 9 4 20 4 11
0 20 -4 20 -9z m-8660 -21 c0 -5 -13 -10 -29 -10 -17 0 -33 5 -36 10 -4 6 8
10 29 10 20 0 36 -4 36 -10z m90 6 c0 -11 -19 -15 -25 -6 -3 5 1 10 9 10 9 0
16 -2 16 -4z m77 -9 c3 -4 -10 -7 -31 -7 -20 0 -35 4 -31 9 6 10 51 8 62 -2z
m169 -15 c-10 -2 -22 0 -28 6 -6 6 0 7 19 4 21 -5 23 -7 9 -10z m304 -6 c0 -3
-4 -8 -10 -11 -5 -3 -10 -1 -10 4 0 6 5 11 10 11 6 0 10 -2 10 -4z m40 -12 c0
-2 -7 -4 -15 -4 -8 0 -15 4 -15 10 0 5 7 7 15 4 8 -4 15 -8 15 -10z m1950 6
c0 -5 -12 -10 -27 -10 -614 -3 -755 -1 -503 10 265 10 530 11 530 0z m-2225
-10 c-3 -5 -11 -10 -16 -10 -6 0 -7 5 -4 10 3 6 11 10 16 10 6 0 7 -4 4 -10z
m450 0 c3 -6 -1 -7 -9 -4 -18 7 -21 14 -7 14 6 0 13 -4 16 -10z m565 0 c0 -5
-4 -10 -10 -10 -5 0 -10 5 -10 10 0 6 5 10 10 10 6 0 10 -4 10 -10z m275 0 c3
-5 -1 -10 -9 -10 -8 0 -18 5 -21 10 -3 6 1 10 9 10 8 0 18 -4 21 -10z m172 -4
c3 -5 1 -6 -5 -2 -5 3 -12 2 -14 -4 -4 -12 -48 -1 -48 11 0 12 60 8 67 -5z
m-550 -2 c-3 -3 -12 -4 -19 -1 -8 3 -5 6 6 6 11 1 17 -2 13 -5z m-1304 -174
c-3 -12 -8 -19 -11 -16 -5 6 5 36 12 36 2 0 2 -9 -1 -20z m3721 5 c-4 -8 -8
-15 -10 -15 -2 0 -4 7 -4 15 0 8 4 15 10 15 5 0 7 -7 4 -15z m3620 0 c-4 -8
-8 -15 -10 -15 -2 0 -4 7 -4 15 0 8 4 15 10 15 5 0 7 -7 4 -15z m-7374 -189
c0 -3 -4 -8 -10 -11 -5 -3 -10 -1 -10 4 0 6 5 11 10 11 6 0 10 -2 10 -4z
m6421 -110 c5 -16 6 -32 4 -36 -2 -4 -7 -150 -10 -326 -3 -175 -8 -328 -12
-339 -3 -11 -6 -29 -7 -40 -1 -18 -10 -21 -106 -27 -116 -7 -1330 -10 -1425
-4 -33 3 -127 7 -210 11 -82 3 -175 8 -205 10 -234 16 -330 17 -330 4 0 -11
17 -13 71 -12 40 1 69 -1 65 -4 -11 -11 -69 -14 -143 -8 l-73 7 4 31 c3 18 14
68 25 112 11 44 22 123 26 175 19 287 20 292 40 349 8 23 13 44 12 47 -1 3
239 7 533 9 497 3 803 12 1175 35 211 13 467 30 484 33 55 8 75 2 82 -27z
m3574 22 c8 -8 8 -26 -1 -363 -7 -262 -11 -359 -16 -395 -3 -24 -6 -25 -108
-32 -124 -8 -1313 -10 -1450 -3 -52 3 -131 7 -175 10 -338 20 -545 24 -545 11
0 -6 32 -9 71 -8 39 0 69 -2 65 -5 -11 -11 -70 -14 -144 -8 l-72 7 2 31 c1 18
5 40 10 50 15 29 38 175 43 267 3 47 5 85 5 85 1 0 3 34 6 75 6 88 6 91 24
150 8 25 14 49 14 53 1 5 242 10 536 12 500 3 815 12 1175 35 283 18 470 31
484 33 30 4 70 2 76 -5z m-4670 -28 c3 -5 1 -10 -4 -10 -6 0 -11 5 -11 10 0 6
2 10 4 10 3 0 8 -4 11 -10z m3580 0 c3 -5 1 -10 -4 -10 -6 0 -11 5 -11 10 0 6
2 10 4 10 3 0 8 -4 11 -10z m-4412 -7 c-7 -2 -19 -2 -25 0 -7 3 -2 5 12 5 14
0 19 -2 13 -5z m657 3 c0 -2 -7 -7 -16 -10 -8 -3 -12 -2 -9 4 6 10 25 14 25 6z
m2923 -3 c-7 -2 -19 -2 -25 0 -7 3 -2 5 12 5 14 0 19 -2 13 -5z m-4013 -33 c0
-5 -5 -10 -11 -10 -5 0 -7 5 -4 10 3 6 8 10 11 10 2 0 4 -4 4 -10z m-4073 -52
c-3 -8 -6 -5 -6 6 -1 11 2 17 5 13 3 -3 4 -12 1 -19z m3720 0 c-3 -8 -6 -5 -6
6 -1 11 2 17 5 13 3 -3 4 -12 1 -19z m3620 0 c-3 -8 -6 -5 -6 6 -1 11 2 17 5
13 3 -3 4 -12 1 -19z m-4616 -25 c4 -101 -12 -684 -19 -728 l-7 -40 -130 -5
c-72 -3 -384 -7 -694 -8 -311 -2 -569 -6 -574 -9 -6 -3 -7 -2 -4 4 4 6 -21 9
-66 9 -79 -1 -302 10 -522 24 -202 14 -285 13 -285 -3 0 -9 11 -12 36 -9 24 3
35 1 30 -6 -3 -6 -23 -9 -44 -7 -20 1 -52 3 -70 4 -31 1 -32 3 -27 34 2 17 13
68 24 112 18 76 29 165 36 300 9 158 14 189 47 273 2 4 116 7 253 7 138 0 255
3 260 7 6 4 17 3 25 -2 8 -5 77 -7 154 -5 78 2 251 7 386 10 255 6 664 27 955
49 255 20 235 21 236 -11z m-1816 -13 c3 -5 -3 -10 -14 -10 -12 0 -21 5 -21
10 0 6 6 10 14 10 8 0 18 -4 21 -10z m-880 -10 c3 -5 1 -10 -4 -10 -6 0 -11 5
-11 10 0 6 2 10 4 10 3 0 8 -4 11 -10z m1422 4 c-3 -3 -12 -4 -19 -1 -8 3 -5
6 6 6 11 1 17 -2 13 -5z m2303 -4 c0 -5 -2 -10 -4 -10 -3 0 -8 5 -11 10 -3 6
-1 10 4 10 6 0 11 -4 11 -10z m3615 0 c3 -5 1 -10 -4 -10 -6 0 -11 5 -11 10 0
6 2 10 4 10 3 0 8 -4 11 -10z m-6985 -30 c0 -5 -7 -7 -15 -4 -8 4 -15 8 -15
10 0 2 7 4 15 4 8 0 15 -4 15 -10z m3204 -116 c3 -8 2 -12 -4 -9 -6 3 -10 10
-10 16 0 14 7 11 14 -7z m3550 0 c3 -8 2 -12 -4 -9 -6 3 -10 10 -10 16 0 14 7
11 14 -7z m-7144 -84 c0 -5 -2 -10 -4 -10 -3 0 -8 5 -11 10 -3 6 -1 10 4 10 6
0 11 -4 11 -10z m180 -81 c0 -6 -4 -7 -10 -4 -5 3 -10 11 -10 16 0 6 5 7 10 4
6 -3 10 -11 10 -16z m27 -14 c-5 -39 -15 -39 -15 -1 0 20 4 33 9 30 5 -3 8
-16 6 -29z m3547 19 c3 -8 2 -12 -4 -9 -6 3 -10 10 -10 16 0 14 7 11 14 -7z
m36 -31 c0 -29 -4 -43 -9 -37 -17 17 -18 84 -1 84 6 0 10 -21 10 -47z m160 5
c0 -23 -3 -29 -11 -21 -6 6 -8 20 -4 32 9 30 15 26 15 -11z m3487 10 c-3 -8
-6 -5 -6 6 -1 11 2 17 5 13 3 -3 4 -12 1 -19z m54 -21 c-13 -13 -15 1 -4 30 7
17 8 17 11 -1 2 -10 -1 -23 -7 -29z m-3641 29 c0 -3 -4 -8 -10 -11 -5 -3 -10
-1 -10 4 0 6 5 11 10 11 6 0 10 -2 10 -4z m143 -23 c-3 -7 -6 -13 -8 -13 -2 0
-5 6 -8 13 -3 8 1 14 8 14 7 0 11 -6 8 -14z m3549 -5 c-7 -7 -12 -8 -12 -2 0
14 12 26 19 19 2 -3 -1 -11 -7 -17z m-7602 -13 c0 -9 -6 -12 -15 -9 -8 4 -12
10 -9 15 8 14 24 10 24 -6z m140 5 c0 -5 -5 -10 -11 -10 -5 0 -7 5 -4 10 3 6
8 10 11 10 2 0 4 -4 4 -10z m7512 -12 c-5 -7 -12 -24 -15 -38 -4 -22 -4 -21
-6 7 -1 26 6 38 28 42 2 1 -1 -5 -7 -11z m-3863 -54 c-5 -6 -7 -13 -5 -15 2
-2 -2 -10 -10 -17 -11 -10 -13 -7 -8 20 10 56 15 66 24 43 4 -11 4 -25 -1 -31z
m3623 3 c-7 -8 -9 -17 -5 -20 3 -4 1 -7 -6 -7 -7 0 -9 -4 -6 -10 3 -5 1 -10
-5 -10 -7 0 -9 8 -4 23 8 27 25 49 32 42 3 -2 0 -11 -6 -18z m-7415 -59 c-3
-8 -6 -5 -6 6 -1 11 2 17 5 13 3 -3 4 -12 1 -19z m3719 -24 c-8 -20 -22 -17
-22 5 0 11 4 17 8 15 4 -3 9 3 9 13 1 17 1 17 6 0 3 -10 2 -25 -1 -33z m3621
19 c-4 -31 -23 -43 -23 -14 0 11 4 17 8 15 4 -3 8 2 8 10 0 9 2 16 5 16 3 0 4
-12 2 -27z m-7342 -23 c-3 -5 -11 -10 -16 -10 -6 0 -7 5 -4 10 3 6 11 10 16
10 6 0 7 -4 4 -10z m4405 -122 c0 -4 -12 -8 -26 -8 -14 0 -23 4 -19 9 6 11 45
10 45 -1z m3580 0 c0 -4 -12 -8 -26 -8 -14 0 -23 4 -19 9 6 11 45 10 45 -1z
m-1940 -28 c17 -5 1 -8 -50 -8 -58 1 -67 2 -40 8 46 10 60 10 90 0z m145 0
c-3 -5 -26 -10 -51 -10 -24 0 -44 5 -44 10 0 6 23 10 51 10 31 0 48 -4 44 -10z
m260 1 c-36 -9 -233 -7 -242 3 -3 3 56 6 133 5 80 -1 126 -4 109 -8z m1740 -1
c-3 -5 -12 -10 -18 -10 -7 0 -6 4 3 10 19 12 23 12 15 0z m1458 -2 c-2 -5 -37
-7 -76 -7 -57 1 -65 3 -37 9 45 9 119 7 113 -2z m122 2 c-3 -5 -26 -10 -51
-10 -24 0 -44 5 -44 10 0 6 23 10 51 10 31 0 48 -4 44 -10z m260 1 c-36 -9
-233 -7 -242 3 -3 3 56 6 133 5 80 -1 126 -4 109 -8z m-4342 -8 c-7 -2 -19 -2
-25 0 -7 3 -2 5 12 5 14 0 19 -2 13 -5z m139 -1 c-12 -8 -72 -4 -72 4 0 2 19
4 43 4 25 0 37 -4 29 -8z m3123 -2 c3 -6 -1 -7 -9 -4 -18 7 -21 14 -7 14 6 0
13 -4 16 -10z m312 4 c-3 -3 -12 -4 -19 -1 -8 3 -5 6 6 6 11 1 17 -2 13 -5z
m145 -2 c-12 -8 -72 -4 -72 4 0 2 19 4 43 4 25 0 37 -4 29 -8z m-8706 -89
c-10 -10 -126 -10 -120 -1 3 5 33 8 66 8 34 0 58 -3 54 -7z m419 -23 c3 -5 1
-10 -4 -10 -6 0 -11 5 -11 10 0 6 2 10 4 10 3 0 8 -4 11 -10z m1642 -4 c4 -3
-5 -6 -18 -6 -13 0 -99 -2 -191 -4 -93 -1 -168 1 -168 5 0 14 364 19 377 5z
m-1857 0 c0 -3 -4 -8 -10 -11 -5 -3 -10 -1 -10 4 0 6 5 11 10 11 6 0 10 -2 10
-4z m375 -6 c3 -6 -1 -7 -9 -4 -18 7 -21 14 -7 14 6 0 13 -4 16 -10z m700 0
c3 -5 -1 -10 -9 -10 -9 0 -16 5 -16 10 0 6 4 10 9 10 6 0 13 -4 16 -10z m270
0 c3 -5 -1 -10 -9 -10 -8 0 -18 5 -21 10 -3 6 1 10 9 10 8 0 18 -4 21 -10z
m123 5 c-11 -11 -110 -16 -103 -5 3 5 29 10 57 10 28 0 49 -2 46 -5z m1348
-66 c0 -61 -11 -78 -22 -33 -4 14 -2 30 4 36 6 6 8 25 5 42 -3 18 -2 28 3 23
5 -5 9 -35 10 -68z m-2059 55 c-3 -3 -12 -4 -19 -1 -8 3 -5 6 6 6 11 1 17 -2
13 -5z m455 -2 c-12 -8 -72 -4 -72 4 0 2 19 4 43 4 25 0 37 -4 29 -8z m-2090
-234 c-9 -9 -12 -7 -12 12 0 19 3 21 12 12 9 -9 9 -15 0 -24z m3726 14 c6 -18
-15 -14 -22 4 -4 10 -1 14 6 12 6 -2 14 -10 16 -16z m3622 -3 c0 -5 -4 -9 -10
-9 -5 0 -10 7 -10 16 0 8 5 12 10 9 6 -3 10 -10 10 -16z m-4549 -86 c4 -107
-11 -682 -19 -728 l-7 -40 -195 -5 c-107 -3 -419 -6 -692 -7 -274 -1 -503 -5
-510 -9 -6 -4 -8 -3 -4 4 4 7 -8 10 -36 10 -56 -1 -404 13 -443 18 -16 2 -112
6 -212 10 -136 5 -183 4 -183 -4 0 -7 17 -12 43 -12 27 0 37 -3 28 -9 -12 -8
-141 -4 -149 4 -2 2 8 54 22 115 26 110 33 167 41 325 7 126 14 182 29 227 8
23 13 45 10 50 -3 4 115 8 263 8 693 -1 1211 13 1638 45 411 31 375 31 376 -2z
m879 11 c0 -8 -5 -12 -10 -9 -6 4 -8 11 -5 16 9 14 15 11 15 -7z m2801 -11 c1
-16 1 -30 1 -33 0 -3 -3 -149 -7 -325 -3 -176 -9 -333 -12 -350 -4 -16 -7 -37
-7 -45 -1 -19 -188 -25 -894 -27 -271 -1 -498 -5 -504 -9 -6 -4 -8 -3 -4 4 4
7 -8 10 -36 10 -65 -1 -427 13 -452 18 -11 2 -103 7 -203 11 -136 4 -183 3
-183 -5 0 -7 17 -12 43 -13 25 0 35 -3 25 -7 -10 -4 -31 -6 -48 -6 -16 1 -46
2 -65 3 -33 1 -35 3 -33 34 1 17 5 39 9 48 23 47 44 199 55 399 3 58 12 130
20 160 9 30 16 63 15 73 0 16 19 17 267 17 775 -2 1303 16 1887 63 119 10 125
9 126 -20z m819 5 c0 -16 -3 -19 -11 -11 -6 6 -8 16 -5 22 11 17 16 13 16 -11z
m2761 -5 c1 -16 1 -30 1 -33 0 -3 -3 -129 -7 -280 -6 -268 -10 -379 -17 -430
l-3 -25 -200 -5 c-110 -3 -422 -6 -693 -7 -271 -1 -498 -5 -504 -9 -7 -4 -8
-3 -4 4 5 8 -8 11 -41 10 -60 -2 -419 12 -447 18 -12 2 -103 7 -203 11 -136 4
-183 3 -183 -5 0 -7 17 -12 43 -13 31 0 37 -2 22 -8 -11 -4 -33 -7 -50 -6 -16
1 -47 3 -68 4 -21 0 -36 5 -32 10 3 5 7 22 9 38 5 34 33 140 41 153 3 5 13 6
22 3 13 -5 15 -3 8 13 -5 10 -10 58 -12 106 -1 47 -3 90 -5 95 -5 23 17 198
34 266 l13 47 260 -1 c734 -2 1308 17 1890 64 119 10 125 9 126 -20z m-9076
-13 c3 -5 -3 -10 -14 -10 -12 0 -21 5 -21 10 0 6 6 10 14 10 8 0 18 -4 21 -10z
m3680 0 c3 -5 -3 -10 -14 -10 -12 0 -21 5 -21 10 0 6 6 10 14 10 8 0 18 -4 21
-10z m-3138 -6 c-3 -3 -12 -4 -19 -1 -8 3 -5 6 6 6 11 1 17 -2 13 -5z m3680 0
c-3 -3 -12 -4 -19 -1 -8 3 -5 6 6 6 11 1 17 -2 13 -5z m3580 0 c-3 -3 -12 -4
-19 -1 -8 3 -5 6 6 6 11 1 17 -2 13 -5z m-8324 -31 c-7 -2 -19 -2 -25 0 -7 3
-2 5 12 5 14 0 19 -2 13 -5z m3680 0 c-7 -2 -19 -2 -25 0 -7 3 -2 5 12 5 14 0
19 -2 13 -5z m3570 0 c-7 -2 -19 -2 -25 0 -7 3 -2 5 12 5 14 0 19 -2 13 -5z
m-400 -197 c6 -16 -1 -26 -19 -26 -7 0 -10 8 -7 20 6 23 19 26 26 6z m34 -8
c-3 -8 -6 -5 -6 6 -1 11 2 17 5 13 3 -3 4 -12 1 -19z m-3657 -3 c0 -9 -9 -15
-22 -15 -22 1 -23 1 -4 15 25 19 26 19 26 0z m7 -92 c-3 -3 -13 1 -21 10 -8 8
-12 17 -9 20 3 3 12 -1 20 -9 9 -8 13 -18 10 -21z m25 15 c-7 -7 -12 -8 -12
-2 0 14 12 26 19 19 2 -3 -1 -11 -7 -17z m63 -8 c-4 -6 -2 -17 5 -25 7 -9 8
-15 0 -20 -5 -3 -10 -1 -10 5 0 8 -9 10 -27 5 l-28 -7 24 26 c24 26 48 36 36
16z m-3572 -70 c3 -11 1 -20 -4 -20 -5 0 -9 9 -9 20 0 11 2 20 4 20 2 0 6 -9
9 -20z m212 0 c3 -5 1 -10 -4 -10 -6 0 -11 5 -11 10 0 6 2 10 4 10 3 0 8 -4
11 -10z m7042 -12 c-3 -8 -6 -5 -6 6 -1 11 2 17 5 13 3 -3 4 -12 1 -19z
m-3577 -20 c0 -18 -2 -20 -9 -8 -6 8 -7 18 -5 22 9 14 14 9 14 -14z m-3770
-35 c-1 -42 -2 -46 -14 -30 -7 9 -16 17 -19 17 -3 0 -8 -8 -10 -17 -4 -17 -5
-17 -6 0 0 10 6 20 14 23 8 4 15 17 15 30 0 13 5 24 10 24 6 0 10 -21 10 -47z
m3800 37 c0 -5 -5 -10 -11 -10 -5 0 -7 5 -4 10 3 6 8 10 11 10 2 0 4 -4 4 -10z
m69 -48 c0 -41 -2 -44 -11 -24 -13 26 -28 29 -29 5 -1 -16 -2 -16 -6 0 -3 11
3 25 14 33 11 9 13 13 4 12 -7 -2 -16 3 -18 10 -3 8 1 10 11 6 9 -3 16 -1 16
6 0 6 5 8 10 5 6 -3 10 -27 9 -53z m-3899 27 c0 -6 -4 -7 -10 -4 -5 3 -10 11
-10 16 0 6 5 7 10 4 6 -3 10 -11 10 -16z m190 -11 c0 -21 -3 -29 -10 -22 -5 5
-7 19 -4 32 9 31 14 27 14 -10z m-63 0 c-3 -8 -6 -5 -6 6 -1 11 2 17 5 13 3
-3 4 -12 1 -19z m7210 0 c-3 -8 -6 -5 -6 6 -1 11 2 17 5 13 3 -3 4 -12 1 -19z
m50 0 c-3 -8 -6 -5 -6 6 -1 11 2 17 5 13 3 -3 4 -12 1 -19z m59 -4 c-4 -9 -9
-15 -11 -12 -3 3 -3 13 1 22 4 9 9 15 11 12 3 -3 3 -13 -1 -22z m-7215 -11
c-12 -20 -14 -14 -5 12 4 9 9 14 11 11 3 -2 0 -13 -6 -23z m7260 0 c-12 -20
-14 -14 -5 12 4 9 9 14 11 11 3 -2 0 -13 -6 -23z m-3853 -85 c-5 -15 -23 -11
-26 6 -2 11 2 14 13 10 9 -4 14 -11 13 -16z m3615 -4 c-6 -17 -23 -9 -23 11 0
8 6 12 14 9 8 -3 12 -12 9 -20z m-7333 1 c-12 -15 -30 -12 -30 6 0 5 10 9 21
9 18 0 19 -2 9 -15z m18 -50 c3 -11 0 -15 -7 -10 -6 3 -9 10 -6 15 3 4 0 11
-5 13 -6 3 -5 4 2 3 7 -1 15 -11 16 -21z m3722 5 c0 -5 -5 -10 -11 -10 -5 0
-7 5 -4 10 3 6 8 10 11 10 2 0 4 -4 4 -10z m3620 -6 c0 -8 -5 -12 -10 -9 -6 4
-8 11 -5 16 9 14 15 11 15 -7z m-3050 -140 c0 -2 -12 -4 -27 -4 -21 0 -24 3
-14 9 13 8 41 5 41 -5z m3580 0 c0 -2 -12 -4 -27 -4 -21 0 -24 3 -14 9 13 8
41 5 41 -5z m-7267 -1 c-7 -2 -21 -2 -30 0 -10 3 -4 5 12 5 17 0 24 -2 18 -5z
m65 0 c-10 -2 -26 -2 -35 0 -10 3 -2 5 17 5 19 0 27 -2 18 -5z m3692 3 c0 -8
-51 -13 -56 -5 -3 5 9 9 25 9 17 0 31 -2 31 -4z m3570 0 c0 -9 -40 -13 -46 -5
-3 5 6 9 20 9 14 0 26 -2 26 -4z m-7123 -12 c-3 -3 -12 -4 -19 -1 -8 3 -5 6 6
6 11 1 17 -2 13 -5z m3680 0 c-3 -3 -12 -4 -19 -1 -8 3 -5 6 6 6 11 1 17 -2
13 -5z m3580 0 c-3 -3 -12 -4 -19 -1 -8 3 -5 6 6 6 11 1 17 -2 13 -5z m-6972
-14 c3 -5 1 -10 -4 -10 -6 0 -11 5 -11 10 0 6 2 10 4 10 3 0 8 -4 11 -10z
m1645 -2 c0 -10 -459 -16 -495 -7 -5 2 31 5 80 8 133 9 415 7 415 -1z m2035 2
c3 -5 1 -10 -4 -10 -6 0 -11 5 -11 10 0 6 2 10 4 10 3 0 8 -4 11 -10z m1645
-2 c0 -4 -71 -9 -157 -9 -87 -1 -194 -2 -238 -3 -139 -2 -116 9 30 14 210 8
365 7 365 -2z m1910 2 c0 -5 -2 -10 -4 -10 -3 0 -8 5 -11 10 -3 6 -1 10 4 10
6 0 11 -4 11 -10z m25 0 c3 -5 1 -10 -4 -10 -6 0 -11 5 -11 10 0 6 2 10 4 10
3 0 8 -4 11 -10z m1642 -3 c3 -4 -65 -8 -153 -8 -87 -1 -195 -2 -239 -3 -44
-1 -87 1 -95 4 -16 5 270 16 402 14 43 0 81 -4 85 -7z m-9117 -1 c0 -3 -4 -8
-10 -11 -5 -3 -10 -1 -10 4 0 6 5 11 10 11 6 0 10 -2 10 -4z m375 -6 c3 -6 -1
-7 -9 -4 -18 7 -21 14 -7 14 6 0 13 -4 16 -10z m475 0 c0 -5 -4 -10 -10 -10
-5 0 -10 5 -10 10 0 6 5 10 10 10 6 0 10 -4 10 -10z m230 0 c0 -13 -11 -13
-30 0 -12 8 -11 10 8 10 12 0 22 -4 22 -10z m140 -2 c0 -4 -13 -8 -29 -8 -17
0 -32 4 -35 8 -3 5 10 9 29 9 19 0 35 -4 35 -9z m130 2 c0 -5 -6 -10 -14 -10
-8 0 -18 5 -21 10 -3 6 3 10 14 10 12 0 21 -4 21 -10z m2330 6 c0 -3 -4 -8
-10 -11 -5 -3 -10 -1 -10 4 0 6 5 11 10 11 6 0 10 -2 10 -4z m375 -6 c3 -6 -1
-7 -9 -4 -18 7 -21 14 -7 14 6 0 13 -4 16 -10z m470 0 c3 -5 1 -10 -4 -10 -6
0 -11 5 -11 10 0 6 2 10 4 10 3 0 8 -4 11 -10z m225 0 c0 -5 -7 -7 -15 -4 -8
4 -15 8 -15 10 0 2 7 4 15 4 8 0 15 -4 15 -10z m130 0 c0 -12 -37 -14 -44 -2
-2 4 6 9 20 10 13 1 24 -3 24 -8z m150 0 c0 -5 -6 -10 -14 -10 -8 0 -18 5 -21
10 -3 6 3 10 14 10 12 0 21 -4 21 -10z m2230 6 c0 -3 -4 -8 -10 -11 -5 -3 -10
-1 -10 4 0 6 5 11 10 11 6 0 10 -2 10 -4z m1070 -6 c0 -5 -7 -7 -15 -4 -8 4
-15 8 -15 10 0 2 7 4 15 4 8 0 15 -4 15 -10z m125 0 c8 -13 -25 -13 -45 0 -12
8 -9 10 12 10 15 0 30 -4 33 -10z m147 -2 c-9 -9 -15 -9 -24 0 -9 9 -7 12 12
12 19 0 21 -3 12 -12z m-7845 -4 c-3 -3 -12 -4 -19 -1 -8 3 -5 6 6 6 11 1 17
-2 13 -5z m3680 0 c-3 -3 -12 -4 -19 -1 -8 3 -5 6 6 6 11 1 17 -2 13 -5z
m3580 0 c-3 -3 -12 -4 -19 -1 -8 3 -5 6 6 6 11 1 17 -2 13 -5z m-1555 -134 c7
0 7 -4 -1 -13 -8 -10 -7 -17 2 -26 10 -11 8 -11 -11 -1 -15 7 -21 17 -18 27 3
8 7 27 7 41 l2 27 4 -27 c2 -16 9 -28 15 -28z m-7349 20 c-3 -13 0 -20 8 -20
10 0 10 -3 1 -12 -9 -9 -9 -15 1 -26 10 -13 9 -14 -11 -3 -15 8 -21 18 -18 28
3 8 6 23 6 34 0 10 4 19 9 19 5 0 7 -9 4 -20z m7347 -189 c0 -9 -41 -23 -49
-16 -3 4 28 20 47 24 1 1 2 -3 2 -8z m-3628 -43 c-7 -7 -12 -8 -12 -2 0 14 12
26 19 19 2 -3 -1 -11 -7 -17z m3620 0 c-7 -7 -12 -8 -12 -2 0 14 12 26 19 19
2 -3 -1 -11 -7 -17z m-3612 -73 c10 -12 10 -15 -4 -15 -9 0 -16 7 -16 15 0 8
2 15 4 15 2 0 9 -7 16 -15z m3620 -6 c0 -5 -4 -9 -10 -9 -5 0 -10 7 -10 16 0
8 5 12 10 9 6 -3 10 -10 10 -16z m-7340 1 c0 -5 -4 -10 -10 -10 -5 0 -10 5
-10 10 0 6 5 10 10 10 6 0 10 -4 10 -10z m2771 -128 c5 -91 -11 -706 -19 -737
l-8 -30 -105 -7 c-112 -7 -1331 -10 -1414 -4 -27 2 -122 7 -210 11 -88 4 -182
8 -210 10 -255 16 -335 17 -335 3 0 -10 10 -13 35 -10 22 3 35 0 35 -8 0 -8
-15 -10 -47 -6 -27 2 -60 5 -76 5 -25 1 -27 4 -22 34 2 17 14 70 25 116 21 85
27 138 35 291 8 144 14 187 29 225 9 20 15 41 13 46 -1 7 183 11 523 14 495 3
841 13 1185 35 297 19 470 31 485 33 8 1 29 3 47 4 29 2 33 -1 34 -25z m3680
-3 c3 -15 5 -39 3 -55 -2 -16 -6 -162 -9 -324 -3 -162 -8 -308 -12 -325 -4
-16 -7 -37 -7 -45 -1 -12 -22 -16 -101 -21 -112 -7 -1336 -11 -1430 -5 -33 3
-125 7 -205 11 -80 4 -172 8 -205 10 -275 16 -335 17 -335 4 0 -11 17 -13 70
-12 39 1 68 -1 66 -6 -5 -7 -68 -8 -179 -3 -36 2 -37 3 -33 35 2 18 9 52 15
75 26 100 30 122 36 212 19 286 20 292 40 349 8 23 13 44 12 47 -1 3 237 7
528 9 499 3 833 13 1180 35 310 20 470 31 485 33 50 9 74 1 81 -24z m3575 20
c7 -12 7 -29 -2 -364 -7 -262 -11 -359 -16 -395 -3 -24 -6 -25 -103 -31 -112
-7 -1336 -11 -1430 -5 -33 3 -127 8 -210 11 -82 4 -172 8 -200 10 -258 16
-335 17 -335 4 0 -11 17 -13 71 -12 40 1 69 -1 65 -4 -11 -11 -69 -14 -144 -8
l-73 7 5 36 c5 41 24 115 37 151 8 19 12 21 24 11 9 -7 15 -8 15 -2 0 5 -7 15
-15 22 -13 11 -15 31 -10 114 2 56 5 101 5 101 1 0 9 109 11 150 1 22 5 45 9
50 7 9 22 60 24 78 1 5 237 10 526 12 497 3 864 14 1190 35 80 6 217 15 305
20 88 6 167 12 175 13 43 7 69 6 76 -4z m-8336 -35 c0 -2 -7 -4 -15 -4 -8 0
-15 4 -15 10 0 5 7 7 15 4 8 -4 15 -8 15 -10z m3665 6 c3 -5 1 -10 -4 -10 -6
0 -11 5 -11 10 0 6 2 10 4 10 3 0 8 -4 11 -10z m3580 0 c3 -5 1 -10 -4 -10 -6
0 -11 5 -11 10 0 6 2 10 4 10 3 0 8 -4 11 -10z m-8092 -7 c-7 -2 -19 -2 -25 0
-7 3 -2 5 12 5 14 0 19 -2 13 -5z m657 3 c0 -2 -7 -7 -16 -10 -8 -3 -12 -2 -9
4 6 10 25 14 25 6z m3023 -3 c-7 -2 -19 -2 -25 0 -7 3 -2 5 12 5 14 0 19 -2
13 -5z m657 3 c0 -2 -7 -7 -16 -10 -8 -3 -12 -2 -9 4 6 10 25 14 25 6z m2923
-3 c-7 -2 -19 -2 -25 0 -7 3 -2 5 12 5 14 0 19 -2 13 -5z m-8107 -50 c-10 -10
-19 5 -10 18 6 11 8 11 12 0 2 -7 1 -15 -2 -18z m3724 12 c0 -8 -4 -15 -10
-15 -5 0 -10 7 -10 15 0 8 5 15 10 15 6 0 10 -7 10 -15z m3620 0 c0 -8 -4 -15
-10 -15 -5 0 -10 7 -10 15 0 8 5 15 10 15 6 0 10 -7 10 -15z m-3596 -127 c4
-17 2 -28 -4 -28 -5 0 -10 14 -10 32 0 36 4 35 14 -4z m3410 -114 c3 -8 2 -12
-4 -9 -6 3 -10 10 -10 16 0 14 7 11 14 -7z m-7034 -8 c0 -3 -4 -8 -10 -11 -5
-3 -10 -1 -10 4 0 6 5 11 10 11 6 0 10 -2 10 -4z m-203 -28 c-3 -8 -6 -5 -6 6
-1 11 2 17 5 13 3 -3 4 -12 1 -19z m137 7 c3 -8 1 -15 -4 -15 -6 0 -10 7 -10
15 0 8 2 15 4 15 2 0 6 -7 10 -15z m36 -32 c0 -29 -4 -43 -9 -37 -17 17 -18
84 -1 84 6 0 10 -21 10 -47z m160 5 c0 -21 -3 -29 -10 -22 -5 5 -7 19 -4 32 9
31 14 27 14 -10z m41 -11 c-10 -9 -11 -8 -5 6 3 10 9 15 12 12 3 -3 0 -11 -7
-18z m3569 -87 c0 -11 -2 -20 -4 -20 -2 0 -6 9 -9 20 -3 11 -1 20 4 20 5 0 9
-9 9 -20z m30 10 c0 -5 -5 -10 -11 -10 -5 0 -7 5 -4 10 3 6 8 10 11 10 2 0 4
-4 4 -10z m3360 -10 c0 -11 -2 -20 -4 -20 -2 0 -6 9 -9 20 -3 11 -1 20 4 20 5
0 9 -9 9 -20z m30 10 c0 -5 -5 -10 -11 -10 -5 0 -7 5 -4 10 3 6 8 10 11 10 2
0 4 -4 4 -10z m-3356 -15 c3 -8 1 -15 -4 -15 -6 0 -10 7 -10 15 0 8 2 15 4 15
2 0 6 -7 10 -15z m33 -41 c-3 -33 -5 -36 -12 -16 -9 26 -25 29 -26 5 0 -13 -2
-14 -6 -4 -3 8 2 20 11 27 9 6 16 16 15 20 -3 20 2 27 12 17 6 -6 9 -28 6 -49z
m3357 41 c3 -8 1 -15 -4 -15 -6 0 -10 7 -10 15 0 8 2 15 4 15 2 0 6 -7 10 -15z
m33 -41 c-3 -33 -5 -36 -12 -16 -9 26 -25 29 -26 5 0 -13 -2 -14 -6 -4 -3 8 2
20 11 27 9 6 16 16 15 20 -3 20 2 27 12 17 6 -6 9 -28 6 -49z m100 24 c-3 -8
-6 -5 -6 6 -1 11 2 17 5 13 3 -3 4 -12 1 -19z m54 -21 c-13 -13 -15 1 -4 30 7
17 8 17 11 -1 2 -10 -1 -23 -7 -29z m51 1 c-7 -7 -12 -8 -12 -2 0 14 12 26 19
19 2 -3 -1 -11 -7 -17z m-6934 -274 c-4 -3 -21 -8 -40 -10 -25 -4 -29 -2 -18
5 16 11 68 15 58 5z m62 -5 c0 -5 -11 -9 -25 -9 -14 0 -25 4 -25 9 0 5 11 9
25 9 14 0 25 -4 25 -9z m3670 -1 c0 -4 -12 -8 -26 -8 -14 0 -23 4 -19 9 6 11
45 10 45 -1z m3580 2 c0 -5 -12 -10 -26 -10 -14 0 -23 4 -19 10 3 6 15 10 26
10 10 0 19 -4 19 -10z m-7050 -30 c0 -5 -5 -10 -11 -10 -5 0 -7 5 -4 10 3 6 8
10 11 10 2 0 4 -4 4 -10z m1430 0 c17 -5 1 -8 -50 -8 -58 1 -67 2 -40 8 46 10
60 10 90 0z m145 0 c-3 -5 -26 -10 -51 -10 -24 0 -44 5 -44 10 0 6 23 10 51
10 31 0 48 -4 44 -10z m260 1 c-36 -9 -233 -7 -242 3 -3 3 56 6 133 5 78 -1
126 -4 109 -8z m2220 -9 c-3 -3 -11 0 -18 7 -9 10 -8 11 6 5 10 -3 15 -9 12
-12z m1055 8 c17 -5 1 -8 -50 -8 -58 1 -67 2 -40 8 46 10 60 10 90 0z m145 0
c-3 -5 -26 -10 -51 -10 -24 0 -44 5 -44 10 0 6 23 10 51 10 31 0 48 -4 44 -10z
m260 1 c-36 -9 -233 -6 -242 3 -4 3 56 6 133 5 79 -1 126 -4 109 -8z m1740 -1
c-3 -5 -12 -10 -18 -10 -7 0 -6 4 3 10 19 12 23 12 15 0z m1458 -2 c-2 -5 -37
-7 -76 -7 -57 1 -65 3 -37 9 45 9 119 7 113 -2z m117 2 c-20 -13 -90 -13 -90
0 0 6 24 10 53 10 37 0 48 -3 37 -10z m265 1 c-36 -9 -233 -6 -242 3 -4 3 56
6 133 5 79 -1 126 -4 109 -8z m-8018 -7 c-3 -3 -12 -4 -19 -1 -8 3 -5 6 6 6
11 1 17 -2 13 -5z m135 -2 c-12 -8 -72 -4 -72 4 0 2 19 4 43 4 25 0 37 -4 29
-8z m3541 1 c-7 -2 -19 -2 -25 0 -7 3 -2 5 12 5 14 0 19 -2 13 -5z m139 -1
c-12 -8 -72 -4 -72 4 0 2 19 4 43 4 25 0 37 -4 29 -8z m3441 1 c-7 -2 -19 -2
-25 0 -7 3 -2 5 12 5 14 0 19 -2 13 -5z m139 -1 c-12 -8 -72 -4 -72 4 0 2 19
4 43 4 25 0 37 -4 29 -8z"/>
<path d="M6715 6740 c-3 -5 -1 -10 4 -10 6 0 11 5 11 10 0 6 -2 10 -4 10 -3 0
-8 -4 -11 -10z"/>
<path d="M10238 6823 c7 -3 16 -2 19 1 4 3 -2 6 -13 5 -11 0 -14 -3 -6 -6z"/>
<path d="M7558 6483 c7 -3 16 -2 19 1 4 3 -2 6 -13 5 -11 0 -14 -3 -6 -6z"/>
<path d="M8603 6477 c-13 -5 -23 -14 -23 -19 0 -5 5 -6 11 -3 6 4 22 10 37 14
18 5 22 9 12 13 -8 3 -25 1 -37 -5z"/>
<path d="M7450 6460 c0 -5 5 -10 11 -10 5 0 7 5 4 10 -3 6 -8 10 -11 10 -2 0
-4 -4 -4 -10z"/>
<path d="M7942 6458 c-15 -6 -15 -7 -1 -7 9 -1 30 -4 46 -7 23 -4 30 -2 30 10
0 16 -40 18 -75 4z"/>
<path d="M8048 6463 c7 -3 16 -2 19 1 4 3 -2 6 -13 5 -11 0 -14 -3 -6 -6z"/>
<path d="M8080 6466 c0 -2 11 -6 25 -8 13 -3 22 -1 19 3 -5 9 -44 13 -44 5z"/>
<path d="M8268 6458 c6 -6 18 -8 28 -6 14 3 12 5 -9 10 -19 3 -25 2 -19 -4z"/>
<path d="M6440 6450 c-8 -5 -10 -10 -5 -10 6 0 17 5 25 10 8 5 11 10 5 10 -5
0 -17 -5 -25 -10z"/>
<path d="M8906 6448 c3 -4 14 -8 25 -8 11 0 18 4 14 9 -3 6 -14 9 -25 8 -10
-1 -16 -5 -14 -9z"/>
<path d="M9214 6450 c-31 -11 0 -19 40 -10 21 4 39 10 41 12 7 7 -61 4 -81 -2z"/>
<path d="M5118 6443 c7 -3 16 -2 19 1 4 3 -2 6 -13 5 -11 0 -14 -3 -6 -6z"/>
<path d="M9140 6446 c0 -2 11 -6 25 -8 13 -3 22 -1 19 3 -5 9 -44 13 -44 5z"/>
<path d="M9479 6440 c-7 -5 -21 -6 -32 -4 -12 2 -17 0 -11 -5 16 -16 94 -18
94 -2 0 12 -35 20 -51 11z"/>
<path d="M9599 6433 c-12 -15 -12 -16 1 -8 8 5 35 12 60 16 l45 6 -46 2 c-33
1 -51 -4 -60 -16z"/>
<path d="M10172 6441 c-23 -6 -23 -7 -5 -22 12 -11 27 -13 48 -8 17 3 22 7 13
8 -10 0 -17 6 -15 12 3 15 -12 19 -41 10z"/>
<path d="M9318 6433 c6 -2 18 -2 25 0 6 3 1 5 -13 5 -14 0 -19 -2 -12 -5z"/>
<path d="M10020 6436 c0 -8 51 -13 56 -5 3 5 -9 9 -25 9 -17 0 -31 -2 -31 -4z"/>
<path d="M9250 6419 c0 -5 5 -7 10 -4 6 3 10 8 10 11 0 2 -4 4 -10 4 -5 0 -10
-5 -10 -11z"/>
<path d="M9370 6420 c0 -5 5 -10 10 -10 6 0 10 5 10 10 0 6 -4 10 -10 10 -5 0
-10 -4 -10 -10z"/>
<path d="M9686 6412 c-2 -4 11 -6 30 -4 19 2 34 6 34 8 0 8 -59 4 -64 -4z"/>
<path d="M9920 6416 c0 -9 30 -14 35 -6 4 6 -3 10 -14 10 -12 0 -21 -2 -21 -4z"/>
<path d="M9990 6409 c0 -5 5 -7 10 -4 6 3 10 8 10 11 0 2 -4 4 -10 4 -5 0 -10
-5 -10 -11z"/>
<path d="M4790 6400 c0 -13 11 -13 30 0 12 8 11 10 -7 10 -13 0 -23 -4 -23
-10z"/>
<path d="M10060 6399 c0 -5 5 -7 10 -4 6 3 10 8 10 11 0 2 -4 4 -10 4 -5 0
-10 -5 -10 -11z"/>
<path d="M10090 6400 c0 -5 4 -10 9 -10 6 0 13 5 16 10 3 6 -1 10 -9 10 -9 0
-16 -4 -16 -10z"/>
<path d="M4570 6380 c-12 -8 -10 -10 8 -10 13 0 20 4 17 10 -7 12 -6 12 -25 0z"/>
<path d="M9891 6364 c0 -11 3 -14 6 -6 3 7 2 16 -1 19 -3 4 -6 -2 -5 -13z"/>
<path d="M6535 6320 c4 -6 11 -8 16 -5 5 4 9 1 9 -4 0 -6 9 -11 20 -11 24 0
27 15 4 24 -25 10 -56 7 -49 -4z"/>
<path d="M6874 6314 c3 -9 6 -18 6 -20 0 -2 9 -4 20 -4 24 0 27 25 4 34 -26
10 -36 7 -30 -10z"/>
<path d="M8622 6305 c-8 -9 -22 -12 -41 -9 -16 4 -32 1 -35 -5 -7 -10 35 -17
73 -11 18 2 42 26 34 34 -9 9 -17 7 -31 -9z"/>
<path d="M5370 6295 c0 -8 6 -15 14 -15 22 0 28 17 10 24 -22 9 -24 8 -24 -9z"/>
<path d="M6935 6300 c-4 -6 7 -10 24 -10 17 0 31 5 31 10 0 6 -11 10 -24 10
-14 0 -28 -4 -31 -10z"/>
<path d="M10100 6260 c-8 -5 -10 -10 -5 -10 6 0 17 5 25 10 8 5 11 10 5 10 -5
0 -17 -5 -25 -10z"/>
<path d="M10225 6260 c3 -5 8 -10 11 -10 2 0 4 5 4 10 0 6 -5 10 -11 10 -5 0
-7 -4 -4 -10z"/>
<path d="M10640 6260 c0 -5 10 -10 23 -10 18 0 19 2 7 10 -19 13 -30 13 -30 0z"/>
<path d="M5176 4132 c-3 -6 -1 -14 5 -17 15 -10 25 3 12 16 -7 7 -13 7 -17 1z"/>
<path d="M8796 4121 c-4 -5 -2 -12 3 -15 5 -4 12 -2 15 3 4 5 2 12 -3 15 -5 4
-12 2 -15 -3z"/>
<path d="M5277 3706 c-4 -10 1 -12 14 -9 23 6 24 9 5 16 -8 3 -17 0 -19 -7z"/>
<path d="M1555 3700 c-8 -13 5 -13 25 0 13 8 13 10 -2 10 -9 0 -20 -4 -23 -10z"/>
<path d="M8896 3701 c-4 -5 3 -7 14 -4 23 6 26 13 6 13 -8 0 -17 -4 -20 -9z"/>
<path d="M1570 3649 c0 -5 -4 -8 -9 -5 -5 3 -12 -1 -15 -10 -9 -24 -7 -28 9
-14 12 10 15 9 15 -5 0 -10 3 -15 7 -12 9 10 10 57 1 57 -4 0 -8 -5 -8 -11z"/>
<path d="M8910 3649 c0 -5 -4 -8 -9 -5 -10 6 -25 -24 -16 -32 3 -3 5 0 5 6 0
19 18 14 23 -5 3 -10 5 -3 6 15 0 17 -1 32 -4 32 -3 0 -5 -5 -5 -11z"/>
<path d="M1545 3310 c3 -5 11 -10 16 -10 6 0 7 5 4 10 -3 6 -11 10 -16 10 -6
0 -7 -4 -4 -10z"/>
<path d="M1540 3159 c0 -5 9 -9 20 -9 11 0 20 2 20 4 0 2 -9 6 -20 9 -11 3
-20 1 -20 -4z"/>
<path d="M8885 2936 c-18 -13 -18 -14 1 -24 17 -9 20 -7 22 14 2 28 2 28 -23
10z"/>
<path d="M5130 2670 c0 -5 7 -10 16 -10 8 0 12 5 9 10 -3 6 -10 10 -16 10 -5
0 -9 -4 -9 -10z"/>
<path d="M5132 2630 c0 -14 2 -19 5 -12 2 6 2 18 0 25 -3 6 -5 1 -5 -13z"/>
<path d="M5115 2389 c-11 -16 -1 -19 13 -3 7 8 8 14 3 14 -5 0 -13 -5 -16 -11z"/>
<path d="M8735 2389 c-11 -16 -1 -19 13 -3 7 8 8 14 3 14 -5 0 -13 -5 -16 -11z"/>
<path d="M8763 2268 c4 -10 2 -18 -4 -18 -6 0 -7 -5 -3 -11 5 -8 10 -6 16 6 7
12 6 21 -2 28 -10 9 -12 8 -7 -5z"/>
<path d="M1416 2114 c-4 -14 -5 -29 -2 -31 3 -3 8 7 12 21 3 15 4 29 1 32 -2
3 -8 -7 -11 -22z"/>
<path d="M5136 2114 c-4 -14 -5 -29 -2 -31 3 -3 8 7 12 21 3 15 4 29 1 32 -2
3 -8 -7 -11 -22z"/>
<path d="M8755 2110 c-4 -12 -5 -24 -2 -27 3 -2 8 5 12 17 4 12 5 24 2 27 -3
2 -8 -5 -12 -17z"/>
<path d="M1426 1993 c-4 -9 -2 -21 4 -27 7 -7 10 -2 10 17 0 31 -5 34 -14 10z"/>
<path d="M5145 2000 c-3 -5 -1 -18 4 -27 9 -16 10 -14 11 10 0 28 -5 34 -15
17z"/>
<path d="M8763 1994 c-3 -8 -1 -20 6 -27 8 -8 11 -4 11 16 0 30 -7 35 -17 11z"/>
<path d="M5134 1926 c-3 -8 -4 -23 -2 -33 3 -11 6 -6 9 15 6 34 2 42 -7 18z"/>
<path d="M8754 1926 c-3 -8 -4 -23 -2 -33 3 -11 6 -6 9 15 6 34 2 42 -7 18z"/>
<path d="M1410 1903 c0 -30 9 -27 15 6 2 11 0 21 -6 21 -5 0 -9 -12 -9 -27z"/>
<path d="M1441 1884 c0 -11 3 -14 6 -6 3 7 2 16 -1 19 -3 4 -6 -2 -5 -13z"/>
<path d="M5157 1881 c-4 -17 -3 -21 5 -13 5 5 8 16 6 23 -3 8 -7 3 -11 -10z"/>
<path d="M8777 1881 c-4 -17 -3 -21 5 -13 5 5 8 16 6 23 -3 8 -7 3 -11 -10z"/>
<path d="M5141 1734 c0 -11 3 -14 6 -6 3 7 2 16 -1 19 -3 4 -6 -2 -5 -13z"/>
<path d="M1451 1714 c0 -11 3 -14 6 -6 3 7 2 16 -1 19 -3 4 -6 -2 -5 -13z"/>
<path d="M5137 1684 c-4 -4 -7 -13 -7 -19 0 -16 28 -15 34 2 3 8 2 12 -3 8 -5
-3 -11 0 -13 6 -2 5 -7 7 -11 3z"/>
<path d="M8757 1684 c-4 -4 -7 -13 -7 -19 0 -16 28 -15 34 2 3 8 2 12 -3 8 -5
-3 -11 0 -13 6 -2 5 -7 7 -11 3z"/>
<path d="M8851 1544 c0 -11 3 -14 6 -6 3 7 2 16 -1 19 -3 4 -6 -2 -5 -13z"/>
</g>
</svg>
