<?xml version="1.0" encoding="utf-8"?>
<!-- Generator: Adobe Illustrator 23.0.2, SVG Export Plug-In . SVG Version: 6.00 Build 0)  -->
<svg version="1.1" id="Layer_1" xmlns="http://www.w3.org/2000/svg" xmlns:xlink="http://www.w3.org/1999/xlink" x="0px" y="0px"
	 viewBox="0 0 334 227.7516" enable-background="new 0 0 334 227.7516" xml:space="preserve">
<g>
	<path d="M112.9014,44.4088c6.4111,1.4932,12.8213,0.0806,17.8496-3.3769c0.8799-0.605,1.7178-1.2735,2.5049-1.9991
		c3.207-2.9531,5.5918-6.8662,6.6543-11.4316c2.8183-12.0996-4.7071-24.1934-16.8057-27.0098
		c-12.0996-2.8183-24.1943,4.7071-27.0117,16.8067c-1.9014,8.1655,0.9121,16.3237,6.6592,21.6347
		c0.7812,0.7217,1.6152,1.3897,2.501,1.9991C107.5059,42.5826,110.0762,43.7511,112.9014,44.4088z"/>
	<path d="M210.9014,44.4088c6.4111,1.4932,12.8213,0.0806,17.8496-3.3769c0.8799-0.605,1.7178-1.2735,2.5049-1.9991
		c3.207-2.9531,5.5918-6.8662,6.6543-11.4316c2.8183-12.0996-4.7071-24.1934-16.8057-27.0098
		c-12.0996-2.8183-24.1943,4.7071-27.0117,16.8067c-1.9014,8.1655,0.9121,16.3237,6.6592,21.6347
		c0.7812,0.7217,1.6152,1.3897,2.501,1.9991C205.5059,42.5826,208.0762,43.7511,210.9014,44.4088z"/>
	<path d="M334,120.6705v-9.5h-21.2851h-1.9912c-1.6377-14.7177-4.7696-24.3305-8.6075-31.0088
		c-2.8418-4.8984-6.2236-8.1562-9.5351-10.038c-2.4395-1.4024-4.7461-2.004-6.5156-2.2188
		c-0.5616-0.1309-1.1436-0.2061-1.7452-0.2061h-3.2793c-4.3203,3.7457-9.9316,5.9678-16.0195,5.9678
		c-0.9883,0-1.9785-0.0644-2.9648-0.1845c-0.6953-0.085-1.3877-0.2051-2.0762-0.3497c-0.1777-0.0371-0.3574-0.0669-0.5342-0.1084
		c-4-0.9326-7.539-2.8056-10.4463-5.3252h-3.3164c-0.6006,0-1.1826,0.0752-1.7441,0.2051
		c-1.7696,0.2139-4.0781,0.8155-6.5205,2.2198c-5.0166,2.8574-9.9698,8.6621-13.4619,18.7382
		c-2.0088,5.774-3.6436,13.0274-4.6827,22.3086h-2.0166c0.9893-8.9551,2.584-16.5659,4.8116-22.9648
		c3.2871-9.4903,8.2539-16.3447,14.3603-19.8203c2.833-1.6289,5.4414-2.2344,7.1621-2.4532
		c0.6944-0.1543,1.4004-0.2324,2.0908-0.2324h1.2627c-5.2607-5.7627-7.6992-13.9326-5.8007-22.0888
		c0.0937-0.4039,0.2177-0.793,0.33-1.1875c-1.6416-0.6827-3.1601-1.0342-4.4091-1.1856c-0.5616-0.1299-1.1436-0.206-1.7452-0.206
		h-3.2783c-4.3213,3.746-9.9316,5.9687-16.0205,5.9687c-1.8662,0-3.7412-0.2158-5.5752-0.6426c-4-0.9326-7.54-2.8061-10.4473-5.3261
		h-3.3154c-0.6006,0-1.1826,0.0761-1.7441,0.205c-1.2432,0.1509-2.7539,0.5-4.3887,1.1763
		c1.1436,3.9663,1.2686,8.1782,0.3066,12.3101c-0.9824,4.2221-3,7.9585-5.7451,10.9765h1.209c0.6904,0,1.3945,0.0781,2.0889,0.2324
		c1.7226,0.2207,4.334,0.8262,7.1689,2.4581c3.9199,2.2275,7.4727,5.9521,10.2657,10.7666
		c4.413,7.6801,7.3457,18.2666,8.8701,32.0136h-1.9912c-1.6377-14.7177-4.7696-24.3305-8.6075-31.0088
		c-2.8418-4.8984-6.2236-8.1562-9.5351-10.038c-2.4395-1.4024-4.7461-2.004-6.5156-2.2188
		c-0.5616-0.1309-1.1436-0.2061-1.7452-0.2061h-3.2793c-3.1054,2.6924-6.8789,4.586-11.0205,5.4395
		c-0.6933,0.1431-1.3965,0.2568-2.1093,0.3398c-0.9502,0.1114-1.9112,0.1885-2.8897,0.1885c-0.9883,0-1.9785-0.0644-2.9648-0.1845
		c-0.6953-0.085-1.3877-0.2051-2.0762-0.3497c-0.1777-0.0371-0.3574-0.0669-0.5342-0.1084c-4-0.9326-7.539-2.8056-10.4463-5.3252
		h-3.3164c-0.6006,0-1.1826,0.0752-1.7441,0.2051c-1.7696,0.2139-4.0781,0.8155-6.5205,2.2198
		c-5.0166,2.8574-9.9698,8.6621-13.4619,18.7382c-2.0088,5.774-3.6436,13.0274-4.6827,22.3086h-2.0166
		c0.9893-8.9551,2.584-16.5659,4.8116-22.9648c3.2871-9.4903,8.2539-16.3447,14.3603-19.8203
		c2.833-1.6289,5.4414-2.2344,7.1621-2.4532c0.6944-0.1543,1.4004-0.2324,2.0908-0.2324h1.2627
		c-5.2607-5.7627-7.6992-13.9326-5.8007-22.0888c0.0937-0.4039,0.2177-0.793,0.33-1.1875
		c-1.6416-0.6827-3.1601-1.0342-4.4091-1.1856c-0.5616-0.1299-1.1436-0.206-1.7452-0.206h-3.2783
		c-4.3213,3.746-9.9316,5.9687-16.0205,5.9687c-1.8662,0-3.7412-0.2158-5.5752-0.6426c-4-0.9326-7.54-2.8061-10.4473-5.3261h-3.3154
		c-0.6006,0-1.1826,0.0761-1.7441,0.205c-1.2432,0.1509-2.7539,0.5-4.3887,1.1763c1.1436,3.9663,1.2686,8.1782,0.3066,12.3101
		c-0.9824,4.2221-3,7.9585-5.7451,10.9765h1.209c0.6904,0,1.3945,0.0781,2.0889,0.2324c1.7226,0.2207,4.334,0.8262,7.1689,2.4581
		c3.9199,2.2275,7.4727,5.9521,10.2657,10.7666c4.413,7.6801,7.3457,18.2666,8.8701,32.0136h-1.9912
		c-1.6377-14.7177-4.7696-24.3305-8.6075-31.0088c-2.8418-4.8984-6.2236-8.1562-9.5351-10.038
		c-2.4395-1.4024-4.7461-2.004-6.5156-2.2188c-0.5616-0.1309-1.1436-0.2061-1.7452-0.2061H85.041
		c-3.1054,2.6924-6.8789,4.586-11.0205,5.4395c-0.6933,0.1431-1.3965,0.2568-2.1093,0.3398
		C70.961,73.5895,70,73.6666,69.0215,73.6666c-1.8662,0-3.7412-0.2148-5.5752-0.6426c-4-0.9326-7.539-2.8056-10.4463-5.3252h-3.3164
		c-0.6006,0-1.1826,0.0752-1.7441,0.2051c-1.7696,0.2139-4.0781,0.8155-6.5205,2.2198c-5.0166,2.8574-9.9698,8.6621-13.4619,18.7382
		c-2.0088,5.774-3.6436,13.0274-4.6827,22.3086h-2.0166H0v9.5H334z M292.0469,97.7233c0.9883,3.5605,1.8789,8,2.5615,13.4472
		h-2.5615V97.7233z M237.9571,97.7106v13.4599h-2.5674C236.0781,105.7184,236.9746,101.2765,237.9571,97.7106z M194.0469,97.7233
		c0.9883,3.5605,1.8789,8,2.5615,13.4472h-2.5615V97.7233z M139.9571,97.7106v13.4599h-2.5674
		C138.0781,105.7184,138.9746,101.2765,139.9571,97.7106z M96.0469,97.7233c0.9883,3.5605,1.8789,8,2.5615,13.4472h-2.5615V97.7233z
		 M41.9571,97.7106v13.4599h-2.5674C40.0781,105.7184,40.9746,101.2765,41.9571,97.7106z"/>
	<path d="M6,124.0026v3.6679h7v100.0811h308V127.6705h7v-3.6679H6z M158.1865,139.0026v73H31.8135v-73H158.1865z M302.1865,139.0026
		v73h-126.373v-73H302.1865z"/>
	<rect x="178.8135" y="142.0026" width="120.373" height="67"/>
	<rect x="34.8135" y="142.0026" width="120.373" height="67"/>
	<path d="M63.9014,71.0748c2.8545,0.6651,5.706,0.7476,8.4385,0.3369c0.7246-0.1088,1.4404-0.2529,2.1455-0.4306
		c2.6084-0.6577,5.0693-1.7725,7.2656-3.2823c0.8799-0.6049,1.7168-1.2734,2.5049-1.999c3.207-2.9531,5.5918-6.8662,6.6543-11.4316
		c0.874-3.7505,0.7519-7.5-0.1904-10.9732c-0.1778-0.6557-0.3877-1.3003-0.6221-1.934
		c-2.5401-6.8438-8.3526-12.3238-15.9932-14.1026c-12.0996-2.8183-24.1943,4.707-27.0117,16.8067
		c-1.9014,8.1655,0.9121,16.3242,6.6592,21.6347c0.7812,0.7217,1.6162,1.3897,2.501,1.999
		C58.5059,69.2491,61.0772,70.4176,63.9014,71.0748z"/>
	<path d="M145.0928,44.0651c-1.9014,8.1655,0.9121,16.3242,6.6592,21.6347c0.7812,0.7217,1.6162,1.3897,2.501,1.999
		c2.1503,1.48,4.5937,2.6065,7.2685,3.2774c0.127,0.0317,0.252,0.0688,0.3799,0.0986c0.5781,0.1348,1.1562,0.2383,1.7334,0.3267
		c2.2725,0.3467,4.5264,0.3374,6.7051,0.0102c0.7246-0.1088,1.4404-0.2529,2.1455-0.4306c2.6084-0.6577,5.0693-1.7725,7.2656-3.2823
		c0.8799-0.6049,1.7168-1.2734,2.5049-1.999c3.207-2.9531,5.5918-6.8662,6.6543-11.4316c0.874-3.7505,0.7519-7.5-0.1904-10.9732
		c-0.1778-0.6557-0.3877-1.3003-0.6221-1.934c-2.5401-6.8438-8.3526-12.3238-15.9932-14.1026
		c-11.1699-2.6015-22.3291,3.6153-26.1963,14.1045c-0.2324,0.6314-0.4384,1.2774-0.6172,1.9385
		C145.2227,43.5548,145.1524,43.8072,145.0928,44.0651z"/>
	<path d="M243.0928,44.0651c-1.9014,8.1655,0.9121,16.3242,6.6592,21.6347c0.7812,0.7217,1.6162,1.3897,2.501,1.999
		c2.1503,1.48,4.5937,2.6065,7.2685,3.2774c0.127,0.0317,0.252,0.0688,0.3799,0.0986c0.5781,0.1348,1.1562,0.2383,1.7334,0.3267
		c5.8232,0.8882,11.541-0.5571,16.1162-3.7027c0.8799-0.6049,1.7168-1.2734,2.5049-1.999c3.207-2.9531,5.5918-6.8662,6.6543-11.4316
		c2.8183-12.0996-4.7071-24.1934-16.8057-27.0098c-11.1699-2.6015-22.3291,3.6153-26.1963,14.1045
		c-0.2324,0.6314-0.4384,1.2774-0.6172,1.9385C243.2227,43.5548,243.1524,43.8072,243.0928,44.0651z"/>
</g>
</svg>
