<?xml version="1.0" encoding="utf-8"?>
<!-- Generator: Adobe Illustrator 16.0.0, SVG Export Plug-In . SVG Version: 6.00 Build 0)  -->
<!DOCTYPE svg PUBLIC "-//W3C//DTD SVG 1.1//EN" "http://www.w3.org/Graphics/SVG/1.1/DTD/svg11.dtd">
<svg version="1.1" id="Camada_1" xmlns="http://www.w3.org/2000/svg" xmlns:xlink="http://www.w3.org/1999/xlink" x="0px" y="0px"
	 width="850.394px" height="850.394px" viewBox="-127.557 -4.252 850.394 850.394"
	 enable-background="new -127.557 -4.252 850.394 850.394" xml:space="preserve">
<path fill="#B7B7AB" d="M595.28,420.945c0-12.642-6.996-23.996-18.227-29.642l-44.309-22.215l44.309-22.216l0,0
	c11.23-5.708,18.227-17.061,18.227-29.641c0-12.581-6.996-23.996-18.227-29.642L326.79,162.029c-18.288-9.144-40.074-9.144-58.362,0
	L18.227,287.59C6.996,293.236,0,304.589,0,317.231s6.996,23.995,18.227,29.641l44.309,22.216l-44.309,22.215
	C6.996,396.95,0,408.303,0,420.945s6.996,23.996,18.227,29.64l44.309,22.217l-44.309,22.215C6.996,500.664,0,512.017,0,524.66
	C0,537.3,6.996,548.654,18.227,554.3l250.201,125.561c9.145,4.604,19.147,6.873,29.15,6.873s20.068-2.27,29.15-6.873L576.931,554.3
	c11.353-5.646,18.349-17,18.349-29.641c0-12.643-6.996-23.996-18.227-29.643l-44.309-22.215l44.309-22.217
	C588.283,444.941,595.28,433.587,595.28,420.945z M30.5,322.264c-2.7-1.35-3.13-3.744-3.13-5.094c0-1.289,0.43-3.682,3.13-5.094
	l250.202-125.5c5.277-2.639,11.107-3.989,16.938-3.989s11.66,1.35,16.938,3.989L564.78,312.138c2.7,1.35,3.13,3.744,3.13,5.094
	c0,1.289-0.43,3.682-3.13,5.094l-250.202,125.5c-10.616,5.338-23.259,5.338-33.875,0L30.5,322.264z M564.78,519.626
	c2.7,1.35,3.13,3.744,3.13,5.033c0,1.287-0.43,3.682-3.13,5.094L314.577,655.314c-10.616,5.338-23.259,5.338-33.875,0L30.5,529.753
	c-2.7-1.352-3.13-3.744-3.13-5.094c0-1.289,0.43-3.684,3.13-5.033l62.658-31.42l175.27,87.941c9.145,4.602,19.147,6.873,29.15,6.873
	s20.067-2.271,29.15-6.873l175.271-87.941L564.78,519.626z M564.78,426.039l-250.202,125.5c-10.616,5.34-23.259,5.34-33.875,0
	L30.5,426.039c-2.7-1.35-3.13-3.744-3.13-5.093c0-1.289,0.43-3.683,3.13-5.094l62.658-31.421l175.27,87.942
	c9.145,4.602,19.209,6.873,29.212,6.873s20.067-2.271,29.15-6.873l175.271-87.942l62.657,31.421c2.7,1.35,3.13,3.743,3.13,5.094
	C567.909,422.234,567.48,424.626,564.78,426.039z"/>
</svg>
