<?xml version="1.0" encoding="UTF-8"?>
<svg version="1.1" xmlns="http://www.w3.org/2000/svg" width="180" height="225">
<path d="M0 0 C59.4 0 118.8 0 180 0 C180 74.25 180 148.5 180 225 C120.6 225 61.2 225 0 225 C0 150.75 0 76.5 0 0 Z " fill="#FEFEFE" transform="translate(0,0)"/>
<path d="M0 0 C0.96808594 0.3403125 1.93617187 0.680625 2.93359375 1.03125 C19.76844884 7.37916988 32.87680253 20.07252967 41 36 C46.52776127 49.47491951 48.62254894 65.89597285 44 80 C43.731875 80.86753906 43.46375 81.73507813 43.1875 82.62890625 C37.63907365 99.25106685 26.04871502 112.73759723 10.95703125 121.546875 C-5.5097487 129.63887255 -25.11826124 132.2566793 -42.703125 126.3125 C-61.78572686 118.7156348 -76.24180277 106.52047716 -84.76318359 87.51953125 C-90.1585911 74.84845018 -91.58371708 58.06365123 -87.1640625 44.8046875 C-82.58321626 33.76761501 -77.76177394 24.36968079 -69 16 C-68.30261719 15.29488281 -67.60523437 14.58976562 -66.88671875 13.86328125 C-49.95592327 -2.38656816 -22.13770018 -8.70071259 0 0 Z " fill="#FDFDFE" transform="translate(113,19)"/>
<path d="M0 0 C0.96808594 0.3403125 1.93617187 0.680625 2.93359375 1.03125 C19.76844884 7.37916988 32.87680253 20.07252967 41 36 C46.52776127 49.47491951 48.62254894 65.89597285 44 80 C43.731875 80.86753906 43.46375 81.73507813 43.1875 82.62890625 C37.63907365 99.25106685 26.04871502 112.73759723 10.95703125 121.546875 C-5.5097487 129.63887255 -25.11826124 132.2566793 -42.703125 126.3125 C-61.78572686 118.7156348 -76.24180277 106.52047716 -84.76318359 87.51953125 C-90.1585911 74.84845018 -91.58371708 58.06365123 -87.1640625 44.8046875 C-82.58321626 33.76761501 -77.76177394 24.36968079 -69 16 C-68.30261719 15.29488281 -67.60523437 14.58976562 -66.88671875 13.86328125 C-49.95592327 -2.38656816 -22.13770018 -8.70071259 0 0 Z M-70.75 22.8125 C-74.61445063 27.44254934 -77.32940117 32.61809199 -80 38 C-80.5775 39.11375 -81.155 40.2275 -81.75 41.375 C-87.11993005 56.94779713 -86.21072885 74.30347316 -79.38525391 89.24975586 C-71.35856547 105.63870961 -58.01865705 116.66477547 -40.80078125 122.78125 C-23.63596621 127.22775447 -4.5994677 125.42087781 11 117 C25.95688349 107.87459311 36.06030322 93.89891041 40.9375 77.125 C44.4323205 60.67750101 41.45242814 44.59710647 33.02734375 30.0625 C22.54647957 14.23013484 7.94813064 5.65707134 -10.265625 1.48046875 C-12.45035682 1.10202526 -12.45035682 1.10202526 -16 1 C-16.94875 0.94972656 -17.8975 0.89945313 -18.875 0.84765625 C-39.19914993 0.23695463 -56.87717612 8.00273158 -70.75 22.8125 Z " fill="#0C3E9D" transform="translate(113,19)"/>
<path d="M0 0 C0.94883057 0.00142502 1.89766113 0.00285004 2.87524414 0.00431824 C3.9497583 0.00124161 5.02427246 -0.00183502 6.13134766 -0.00500488 C7.29593506 0.00218063 8.46052246 0.00936615 9.66040039 0.01676941 C10.85141357 0.01722763 12.04242676 0.01768585 13.26953125 0.01815796 C15.79143264 0.02118333 18.31333211 0.02907807 20.83520508 0.04142761 C24.70669131 0.05966182 28.57793825 0.0619375 32.44946289 0.06169128 C34.89477747 0.06660714 37.34009042 0.07243576 39.78540039 0.07926941 C40.94998779 0.08038223 42.1145752 0.08149506 43.31445312 0.0826416 C44.38896729 0.08902145 45.46348145 0.09540131 46.57055664 0.10197449 C47.51938721 0.10578629 48.46821777 0.10959808 49.44580078 0.11352539 C51.72290039 0.24723816 51.72290039 0.24723816 53.72290039 1.24723816 C54.39890454 8.34528177 53.30540208 11.82462945 49.13305664 17.59489441 C48.66770508 18.14016785 48.20235352 18.68544128 47.72290039 19.24723816 C47.39290039 19.24723816 47.06290039 19.24723816 46.72290039 19.24723816 C46.72290039 15.28723816 46.72290039 11.32723816 46.72290039 7.24723816 C32.20290039 7.24723816 17.68290039 7.24723816 2.72290039 7.24723816 C2.72290039 27.37723816 2.72290039 47.50723816 2.72290039 68.24723816 C17.24290039 68.24723816 31.76290039 68.24723816 46.72290039 68.24723816 C46.72290039 65.27723816 46.72290039 62.30723816 46.72290039 59.24723816 C48.25415039 57.27458191 48.25415039 57.27458191 50.22290039 56.18473816 C50.87258789 55.8018866 51.52227539 55.41903503 52.19165039 55.02458191 C52.69696289 54.76805847 53.20227539 54.51153503 53.72290039 54.24723816 C53.75178186 57.55972003 53.76965838 60.87216983 53.78540039 64.18473816 C53.7937793 65.1302655 53.8021582 66.07579285 53.81079102 67.04997253 C53.81401367 67.94909363 53.81723633 68.84821472 53.82055664 69.77458191 C53.82579346 70.60723572 53.83103027 71.43988953 53.83642578 72.29777527 C53.72290039 74.24723816 53.72290039 74.24723816 52.72290039 75.24723816 C50.97361319 75.34088822 49.22053785 75.36468254 47.46875 75.36076355 C46.34766342 75.36068802 45.22657684 75.36061249 44.07151794 75.36053467 C42.24186241 75.35279274 42.24186241 75.35279274 40.37524414 75.34489441 C39.13368057 75.34347946 37.892117 75.34206451 36.6129303 75.34060669 C33.30684548 75.33594407 30.00082893 75.32695313 26.69476318 75.31590271 C23.32328889 75.30568643 19.95180756 75.30110861 16.58032227 75.29606628 C9.96116265 75.28501211 3.34203546 75.26825552 -3.27709961 75.24723816 C-4.73213754 72.3371623 -4.41245801 69.78474156 -4.42236328 66.53434753 C-4.42572189 65.84476456 -4.42908051 65.15518158 -4.43254089 64.44470215 C-4.44205757 62.16011262 -4.44399423 59.87559629 -4.44506836 57.59098816 C-4.44827998 56.00680002 -4.45164398 54.42261219 -4.45515442 52.83842468 C-4.46114715 49.51619275 -4.46299412 46.19398684 -4.46240234 42.87174988 C-4.46230061 38.60764075 -4.47596401 34.34369771 -4.49317455 30.07962799 C-4.50427302 26.80775684 -4.50632223 23.53592614 -4.50579262 20.26403809 C-4.50697556 18.69151231 -4.51141484 17.11898559 -4.51912498 15.54647827 C-4.5288835 13.3509087 -4.52606371 11.15570378 -4.52001953 8.96012878 C-4.52144455 7.70929504 -4.52286957 6.4584613 -4.52433777 5.16972351 C-4.22345625 1.61314536 -3.65752824 0.39711945 0 0 Z " fill="#063194" transform="translate(64.277099609375,47.75276184082031)"/>
<path d="M0 0 C3.77380706 -0.36989804 6.51322459 0.56837426 9.58276367 2.74560547 C12.02026367 5.62060547 12.02026367 5.62060547 11.85693359 8.45751953 C10.98398201 11.7577707 9.8167602 14.17862198 8.07104492 17.10498047 C7.46969727 18.12333984 6.86834961 19.14169922 6.2487793 20.19091797 C5.61649414 21.24021484 4.98420898 22.28951172 4.33276367 23.37060547 C3.41333984 24.92134766 3.41333984 24.92134766 2.4753418 26.50341797 C1.25405239 28.56005379 0.02559946 30.61245365 -1.21020508 32.66040039 C-2.35568214 34.57664065 -3.47967211 36.50595935 -4.57739258 38.44995117 C-7.3879336 43.37704439 -9.85520688 47.01019276 -14.60473633 50.30810547 C-15.52512695 50.97197266 -16.44551758 51.63583984 -17.39379883 52.31982422 C-20.34516574 53.80442419 -20.97315368 53.57129249 -23.97973633 52.62060547 C-24.19974928 40.37188432 -21.70721882 32.41639344 -15.22973633 22.12060547 C-14.50290971 20.91399527 -13.77893909 19.70566001 -13.05786133 18.49560547 C-11.68093498 16.196246 -10.28031313 13.91890974 -8.86083984 11.64477539 C-7.70730355 9.79028427 -6.57690492 7.92083993 -5.48730469 6.02807617 C-2.43099737 0.76206626 -2.43099737 0.76206626 0 0 Z " fill="#053599" transform="translate(122.979736328125,56.37939453125)"/>
<path d="M0 0 C1.95873047 -0.0309375 1.95873047 -0.0309375 3.95703125 -0.0625 C5.20613281 -0.06765625 6.45523438 -0.0728125 7.7421875 -0.078125 C9.46864502 -0.09214355 9.46864502 -0.09214355 11.22998047 -0.10644531 C14.125 0.25 14.125 0.25 16.02392578 1.77050781 C16.38728027 2.25874023 16.75063477 2.74697266 17.125 3.25 C15.375 7.125 15.375 7.125 13.125 8.25 C8.81733051 8.49384581 4.50129384 8.43520176 0.1875 8.4375 C-1.62137695 8.45586914 -1.62137695 8.45586914 -3.46679688 8.47460938 C-5.19833008 8.47750977 -5.19833008 8.47750977 -6.96484375 8.48046875 C-8.55607056 8.48663208 -8.55607056 8.48663208 -10.17944336 8.49291992 C-12.875 8.25 -12.875 8.25 -15.875 6.25 C-14.28953672 -2.58329541 -7.94854355 0.03120135 0 0 Z " fill="#19429E" transform="translate(88.875,60.75)"/>
<path d="M0 0 C1.95873047 -0.01836914 1.95873047 -0.01836914 3.95703125 -0.03710938 C5.83068359 -0.04000977 5.83068359 -0.04000977 7.7421875 -0.04296875 C8.89315918 -0.04707764 10.04413086 -0.05118652 11.22998047 -0.05541992 C14.125 0.1875 14.125 0.1875 17.125 2.1875 C16.25 6.0625 16.25 6.0625 15.125 7.1875 C11.00922411 7.40539186 6.89035077 7.37329188 2.76928711 7.37280273 C0.69949736 7.37498734 -1.36975793 7.39313491 -3.43945312 7.41210938 C-4.73689453 7.41404297 -6.03433594 7.41597656 -7.37109375 7.41796875 C-8.56919678 7.42207764 -9.7672998 7.42618652 -11.00170898 7.43041992 C-13.875 7.1875 -13.875 7.1875 -15.875 5.1875 C-14.67994932 -2.69983447 -6.4533933 0.00316653 0 0 Z " fill="#0C3494" transform="translate(88.875,73.8125)"/>
<path d="M0 0 C1.35544922 -0.01836914 1.35544922 -0.01836914 2.73828125 -0.03710938 C8.71234585 -0.05000304 13.96370032 0.69368998 19.75 2.1875 C19.42 3.8375 19.09 5.4875 18.75 7.1875 C17.96238281 7.043125 17.17476562 6.89875 16.36328125 6.75 C3.08490322 4.48717582 -8.17837034 4.89828941 -21.25 8.1875 C-22.04277344 8.38472656 -22.83554688 8.58195312 -23.65234375 8.78515625 C-24.17957031 8.91792969 -24.70679687 9.05070312 -25.25 9.1875 C-25.91 7.8675 -26.57 6.5475 -27.25 5.1875 C-25.35546779 4.53785977 -23.45931351 3.89294885 -21.5625 3.25 C-20.50675781 2.89035156 -19.45101562 2.53070312 -18.36328125 2.16015625 C-12.15618159 0.22092436 -6.45451936 0.00452631 0 0 Z " fill="#1644A0" transform="translate(91.25,15.8125)"/>
<path d="M0 0 C3.14581423 -0.02888514 6.29159469 -0.04675923 9.4375 -0.0625 C10.33533203 -0.07087891 11.23316406 -0.07925781 12.15820312 -0.08789062 C13.01220703 -0.09111328 13.86621094 -0.09433594 14.74609375 -0.09765625 C15.93223267 -0.10551147 15.93223267 -0.10551147 17.14233398 -0.11352539 C19 0 19 0 20 1 C19.979375 2.093125 19.95875 3.18625 19.9375 4.3125 C19.9951871 7.71603882 20.21500522 9.21094566 22 12 C17.125 11.125 17.125 11.125 16 10 C15.67 10.66 15.34 11.32 15 12 C13.68 12 12.36 12 11 12 C11 9.03 11 6.06 11 3 C9.68 3 8.36 3 7 3 C7 5.97 7 8.94 7 12 C5.68 12 4.36 12 3 12 C3 9.03 3 6.06 3 3 C2.01 3 1.02 3 0 3 C0 2.01 0 1.02 0 0 Z " fill="#2C50AB" transform="translate(66,164)"/>
<path d="M0 0 C0.73734375 0.08765625 1.4746875 0.1753125 2.234375 0.265625 C2.21375 1.07 2.193125 1.874375 2.171875 2.703125 C1.93803879 5.19917385 1.93803879 5.19917385 3.234375 6.265625 C4.91621448 6.49849508 6.6056166 6.67826666 8.296875 6.828125 C9.21597656 6.91191406 10.13507813 6.99570313 11.08203125 7.08203125 C12.14744141 7.17291016 12.14744141 7.17291016 13.234375 7.265625 C13.234375 8.585625 13.234375 9.905625 13.234375 11.265625 C2.76458029 11.61205203 2.76458029 11.61205203 -2.203125 10.015625 C-3.37875 9.768125 -4.554375 9.520625 -5.765625 9.265625 C-8.18421697 11.01628333 -8.18421697 11.01628333 -9.765625 13.265625 C-10.425625 13.265625 -11.085625 13.265625 -11.765625 13.265625 C-11.175507 9.48192723 -9.50117226 7.37493876 -7.015625 4.515625 C-6.34015625 3.71640625 -5.6646875 2.9171875 -4.96875 2.09375 C-2.765625 0.265625 -2.765625 0.265625 0 0 Z " fill="#0F3B9A" transform="translate(82.765625,99.734375)"/>
<path d="M0 0 C0.66 0.33 1.32 0.66 2 1 C-0.93109765 9.70024223 -8.86474168 16.49418769 -16 22 C-16.53625 22.42410156 -17.0725 22.84820312 -17.625 23.28515625 C-21.39280835 26.06391491 -21.39280835 26.06391491 -24.375 25.75 C-24.91125 25.5025 -25.4475 25.255 -26 25 C-23.26110408 21.28201279 -20.59546487 18.84501329 -16.75 16.3125 C-11.75097529 12.80382624 -8.24715815 9.01623764 -4.65625 4.1015625 C-3 2 -3 2 0 0 Z " fill="#0A3B9C" transform="translate(147,114)"/>
<path d="M0 0 C0.78955078 -0.01224609 1.57910156 -0.02449219 2.39257812 -0.03710938 C4.45057435 -0.04237279 6.50812009 0.06543715 8.5625 0.1875 C9.2225 0.8475 9.8825 1.5075 10.5625 2.1875 C10.02678571 5.72321429 10.02678571 5.72321429 8.5625 7.1875 C5.71914952 7.28736975 2.90552837 7.32627881 0.0625 7.3125 C-0.73542969 7.31636719 -1.53335938 7.32023437 -2.35546875 7.32421875 C-8.31089233 7.31410767 -8.31089233 7.31410767 -9.4375 6.1875 C-9.5625 3.6875 -9.5625 3.6875 -9.4375 1.1875 C-7.33618615 -0.91381385 -2.89603678 0.00235259 0 0 Z " fill="#063699" transform="translate(82.4375,86.8125)"/>
<path d="M0 0 C5 1 5 1 7 3 C7.33 2.01 7.66 1.02 8 0 C9.65 0 11.3 0 13 0 C13 3.96 13 7.92 13 12 C11.68 12 10.36 12 9 12 C8.67 11.01 8.34 10.02 8 9 C4.88214887 9.64644661 4.88214887 9.64644661 4 12 C2.68 12 1.36 12 0 12 C0 8.04 0 4.08 0 0 Z " fill="#2248A7" transform="translate(41,164)"/>
<path d="M0 0 C1.32 0 2.64 0 4 0 C4 3.3 4 6.6 4 10 C4.66 9.67 5.32 9.34 6 9 C6.46651207 6.87423218 6.46651207 6.87423218 6.625 4.4375 C6.69976562 3.61121094 6.77453125 2.78492188 6.8515625 1.93359375 C6.90054688 1.29550781 6.94953125 0.65742188 7 0 C7.99 0 8.98 0 10 0 C10.02687279 1.81242052 10.04633715 3.62495233 10.0625 5.4375 C10.07410156 6.44683594 10.08570312 7.45617187 10.09765625 8.49609375 C10 11 10 11 9 12 C6.32941149 12.14115161 3.67567762 12.04247107 1 12 C-0.26237731 9.47524538 -0.09856404 7.68799534 -0.0625 4.875 C-0.05347656 3.96492187 -0.04445313 3.05484375 -0.03515625 2.1171875 C-0.02355469 1.41851562 -0.01195313 0.71984375 0 0 Z " fill="#153DA1" transform="translate(108,164)"/>
<path d="M0 0 C1.32 0 2.64 0 4 0 C4.50833591 1.24663331 5.00631145 2.49749387 5.5 3.75 C5.7784375 4.44609375 6.056875 5.1421875 6.34375 5.859375 C7 8 7 8 7 12 C6.01 12 5.02 12 4 12 C4 11.34 4 10.68 4 10 C2.68 10 1.36 10 0 10 C0 10.66 0 11.32 0 12 C-1.32 12 -2.64 12 -4 12 C-3.52494322 10.18641846 -3.04483958 8.37415821 -2.5625 6.5625 C-2.29566406 5.55316406 -2.02882812 4.54382813 -1.75390625 3.50390625 C-1 1 -1 1 0 0 Z " fill="#1B42A4" transform="translate(59,164)"/>
<path d="M0 0 C1.32 0 2.64 0 4 0 C4.50833591 1.24663331 5.00631145 2.49749387 5.5 3.75 C5.7784375 4.44609375 6.056875 5.1421875 6.34375 5.859375 C7 8 7 8 7 12 C6.01 12 5.02 12 4 12 C4 11.34 4 10.68 4 10 C2.68 10 1.36 10 0 10 C0 10.66 0 11.32 0 12 C-1.32 11.67 -2.64 11.34 -4 11 C-3.5247412 9.35303396 -3.04468109 7.70745272 -2.5625 6.0625 C-2.29566406 5.14597656 -2.02882812 4.22945312 -1.75390625 3.28515625 C-1 1 -1 1 0 0 Z " fill="#1A41A3" transform="translate(133,164)"/>
<path d="M0 0 C2.64 0 5.28 0 8 0 C7.95875 1.0725 7.9175 2.145 7.875 3.25 C7.9885825 6.65747485 8.21273364 8.20739631 10 11 C5.125 10.125 5.125 10.125 4 9 C3.67 9.66 3.34 10.32 3 11 C2.01 11 1.02 11 0 11 C0 7.37 0 3.74 0 0 Z " fill="#1940A3" transform="translate(78,165)"/>
<path d="M0 0 C2.46968633 2.46968633 3.06997969 4.57488587 4.1875 7.875 C4.55230469 8.92429687 4.91710937 9.97359375 5.29296875 11.0546875 C5.99916173 13.99650799 6.21003557 15.272993 5 18 C3.4375 19.75 3.4375 19.75 2 21 C1.35377959 18.58343624 0.70800996 16.16675354 0.0625 13.75 C-0.11990234 13.06808594 -0.30230469 12.38617188 -0.49023438 11.68359375 C-1.35053121 8.46139106 -2.20683134 5.23946777 -3 2 C-2.01 1.34 -1.02 0.68 0 0 Z " fill="#1344A0" transform="translate(152,53)"/>
<path d="M0 0 C0.33 1.32 0.66 2.64 1 4 C-0.98 4 -2.96 4 -5 4 C-5 5.98 -5 7.96 -5 10 C-3.02 9.67 -1.04 9.34 1 9 C1 9.99 1 10.98 1 12 C-5.0546875 12.1953125 -5.0546875 12.1953125 -7 12 C-9.32528287 9.67471713 -9.29511025 9.15334102 -9.3125 6 C-9.32925781 5.29875 -9.34601563 4.5975 -9.36328125 3.875 C-9.24339844 3.25625 -9.12351562 2.6375 -9 2 C-5.5647952 -0.29013653 -4.014669 -0.17842973 0 0 Z " fill="#0F389F" transform="translate(106,164)"/>
<path d="M0 0 C0.66 0.33 1.32 0.66 2 1 C2 6.94 2 12.88 2 19 C1.01 19 0.02 19 -1 19 C-3.41647749 14.16704501 -2.36483465 7.34532779 -1 2.3125 C-0.505 1.1678125 -0.505 1.1678125 0 0 Z " fill="#06399B" transform="translate(26,74)"/>
<path d="M0 0 C2.95064148 -0.2208564 5.68368231 -0.28060989 8.625 -0.1875 C9.42679688 -0.17396484 10.22859375 -0.16042969 11.0546875 -0.14648438 C13.03674378 -0.11109051 15.01845551 -0.05728234 17 0 C16.67 1.32 16.34 2.64 16 4 C9.8894576 4.11269443 4.04829486 3.89604368 -2 3 C-1.34 2.01 -0.68 1.02 0 0 Z " fill="#0E419E" transform="translate(85,144)"/>
<path d="M0 0 C1.32 0 2.64 0 4 0 C4 3.3 4 6.6 4 10 C5.32 10 6.64 10 8 10 C8 10.66 8 11.32 8 12 C5.36 12 2.72 12 0 12 C0 8.04 0 4.08 0 0 Z " fill="#1C42A4" transform="translate(120,164)"/>
<path d="M0 0 C2.31 0 4.62 0 7 0 C7 0.99 7 1.98 7 3 C6.34 3 5.68 3 5 3 C5 5.31 5 7.62 5 10 C5.66 10 6.32 10 7 10 C7 10.66 7 11.32 7 12 C4.69 12 2.38 12 0 12 C0 11.34 0 10.68 0 10 C0.66 10 1.32 10 2 10 C2 7.36 2 4.72 2 2 C1.34 2 0.68 2 0 2 C0 1.34 0 0.68 0 0 Z " fill="#113AA0" transform="translate(89,164)"/>
<path d="M0 0 C0.33 0.66 0.66 1.32 1 2 C1.66 2 2.32 2 3 2 C4.16063604 6.25566547 3.76173392 9.6835078 3 14 C2.34 13.34 1.68 12.68 1 12 C0.34 13.65 -0.32 15.3 -1 17 C-1.33 17 -1.66 17 -2 17 C-2.21824777 10.9981863 -1.5056904 5.80766296 0 0 Z " fill="#214EA5" transform="translate(26,63)"/>
<path d="M0 0 C1.134375 0.020625 2.26875 0.04125 3.4375 0.0625 C3.4375 2.0425 3.4375 4.0225 3.4375 6.0625 C1.1275 6.3925 -1.1825 6.7225 -3.5625 7.0625 C-3.94383299 5.0710944 -4.27575582 3.06970923 -4.5625 1.0625 C-3.5625 0.0625 -3.5625 0.0625 0 0 Z " fill="#F5F6FB" transform="translate(104.5625,166.9375)"/>
<path d="M0 0 C0.33 0.66 0.66 1.32 1 2 C1.66 2 2.32 2 3 2 C3 4.64 3 7.28 3 10 C2.34 10 1.68 10 1 10 C0.67 10.66 0.34 11.32 0 12 C-1.5625 10.375 -1.5625 10.375 -3 8 C-2.77962372 4.32706204 -2.63033454 2.63033454 0 0 Z " fill="#CFD8EC" transform="translate(88,164)"/>
<path d="M0 0 C0.33 0 0.66 0 1 0 C1.66 4.62 2.32 9.24 3 14 C1.02 14.99 1.02 14.99 -1 16 C-2.62950412 11.87831311 -3.26264601 9.29299643 -2 5 C-1.67 5 -1.34 5 -1 5 C-0.67 3.35 -0.34 1.7 0 0 Z " fill="#2351A6" transform="translate(28,87)"/>
<path d="M0 0 C1.16595703 0.20882813 1.16595703 0.20882813 2.35546875 0.421875 C3.14566406 0.55078125 3.93585938 0.6796875 4.75 0.8125 C5.34167969 0.93109375 5.93335937 1.0496875 6.54296875 1.171875 C6.21296875 2.821875 5.88296875 4.471875 5.54296875 6.171875 C1.25296875 5.511875 -3.03703125 4.851875 -7.45703125 4.171875 C-2.45703125 0.171875 -2.45703125 0.171875 0 0 Z " fill="#214FA6" transform="translate(104.45703125,16.828125)"/>
<path d="M0 0 C1.4384798 0.06423833 2.87666999 0.14163547 4.3125 0.25 C2.9925 1.24 1.6725 2.23 0.3125 3.25 C2.6225 3.58 4.9325 3.91 7.3125 4.25 C7.3125 4.58 7.3125 4.91 7.3125 5.25 C-3.24558656 5.43451025 -3.24558656 5.43451025 -7.6875 4.25 C-5.84004374 0.30875998 -4.09551026 -0.02575793 0 0 Z " fill="#3158AC" transform="translate(83.6875,142.75)"/>
<path d="M0 0 C3.00617269 3.00617269 2.59585316 5.82381598 3 10 C2.34 10 1.68 10 1 10 C0.34 10.99 -0.32 11.98 -1 13 C-1.22245393 11.39773045 -1.42746669 9.79303233 -1.625 8.1875 C-1.74101562 7.29417969 -1.85703125 6.40085937 -1.9765625 5.48046875 C-2 3 -2 3 0 0 Z " fill="#1D4BA3" transform="translate(155,61)"/>
<path d="M0 0 C0 0.99 0 1.98 0 3 C-2.31 3.33 -4.62 3.66 -7 4 C-7.33 3.34 -7.66 2.68 -8 2 C-11.02934491 1.34227572 -11.02934491 1.34227572 -14 1 C-14 0.67 -14 0.34 -14 0 C-12.41773035 -0.19627391 -10.83410729 -0.38165538 -9.25 -0.5625 C-8.36828125 -0.66691406 -7.4865625 -0.77132812 -6.578125 -0.87890625 C-4.11567549 -0.99456676 -2.33461936 -0.73638695 0 0 Z " fill="#1F4DA1" transform="translate(109,143)"/>
<path d="M0 0 C-0.33 1.32 -0.66 2.64 -1 4 C-3.97 3.67 -6.94 3.34 -10 3 C-6.68152292 -0.06320961 -4.44849969 -0.3033068 0 0 Z " fill="#1949A2" transform="translate(79,142)"/>
<path d="M0 0 C2.64 0 5.28 0 8 0 C7.34 1.32 6.68 2.64 6 4 C4.35 4 2.7 4 1 4 C0.67 2.68 0.34 1.36 0 0 Z " fill="#1648A3" transform="translate(94,16)"/>
<path d="M0 0 C2.31 0 4.62 0 7 0 C7 1.32 7 2.64 7 4 C5.35 3.67 3.7 3.34 2 3 C2 2.34 2 1.68 2 1 C1.34 0.67 0.68 0.34 0 0 Z " fill="#234CA2" transform="translate(89,107)"/>
<path d="M0 0 C0.66 0.33 1.32 0.66 2 1 C1.01 1 0.02 1 -1 1 C-0.67 0.67 -0.34 0.34 0 0 Z M-3 2 C-2.34 2.33 -1.68 2.66 -1 3 C-1.25 4.875 -1.25 4.875 -2 7 C-4.0625 8.25 -4.0625 8.25 -6 9 C-5.625 6.0625 -5.625 6.0625 -5 3 C-4.34 2.67 -3.68 2.34 -3 2 Z " fill="#11419F" transform="translate(58,24)"/>
<path d="M0 0 C0.99 0.33 1.98 0.66 3 1 C3.33 3.31 3.66 5.62 4 8 C2.68 7.67 1.36 7.34 0 7 C0 4.69 0 2.38 0 0 Z " fill="#E3E8F4" transform="translate(94,167)"/>
<path d="M0 0 C2.31 0.33 4.62 0.66 7 1 C6.67 1.99 6.34 2.98 6 4 C4.35 4 2.7 4 1 4 C0.67 2.68 0.34 1.36 0 0 Z " fill="#06379B" transform="translate(109,19)"/>
<path d="M0 0 C-0.33 0.99 -0.66 1.98 -1 3 C-2.98 3 -4.96 3 -7 3 C-7 2.01 -7 1.02 -7 0 C-4.3333581 -1.33332095 -2.83319697 -0.67102033 0 0 Z " fill="#043599" transform="translate(96,17)"/>
<path d="M0 0 C1.485 0.99 1.485 0.99 3 2 C2.67 3.65 2.34 5.3 2 7 C1.34 7 0.68 7 0 7 C-1.125 2.25 -1.125 2.25 0 0 Z " fill="#05389B" transform="translate(29,100)"/>
<path d="M0 0 C0.99 0.66 1.98 1.32 3 2 C2.67 2.99 2.34 3.98 2 5 C-0.0625 5.6875 -0.0625 5.6875 -2 6 C-2 4.68 -2 3.36 -2 2 C-1.34 2 -0.68 2 0 2 C0 1.34 0 0.68 0 0 Z " fill="#204AA6" transform="translate(155,92)"/>
<path d="M0 0 C0.66 0.33 1.32 0.66 2 1 C2 2.98 2 4.96 2 7 C1.01 7.33 0.02 7.66 -1 8 C-1.04241723 5.66705225 -1.04092937 3.33297433 -1 1 C-0.67 0.67 -0.34 0.34 0 0 Z " fill="#003899" transform="translate(156,70)"/>
<path d="M0 0 C1.65 0.33 3.3 0.66 5 1 C5 1.99 5 2.98 5 4 C2.03 3.505 2.03 3.505 -1 3 C-0.67 2.01 -0.34 1.02 0 0 Z " fill="#254AA8" transform="translate(102,164)"/>
<path d="M0 0 C1.98 0 3.96 0 6 0 C6 0.99 6 1.98 6 3 C4.02 3 2.04 3 0 3 C0 2.01 0 1.02 0 0 Z " fill="#003099" transform="translate(96,144)"/>
<path d="M0 0 C1.98 0.99 3.96 1.98 6 3 C5.67 3.66 5.34 4.32 5 5 C3.35 4.67 1.7 4.34 0 4 C0 2.68 0 1.36 0 0 Z " fill="#FFFFFF" transform="translate(103,98)"/>
<path d="M0 0 C3.3 0 6.6 0 10 0 C9.01 0.495 9.01 0.495 8 1 C8 1.99 8 2.98 8 4 C7.01 4 6.02 4 5 4 C5 3.34 5 2.68 5 2 C3.35 1.67 1.7 1.34 0 1 C0 0.67 0 0.34 0 0 Z " fill="#1F50A4" transform="translate(81,16)"/>
<path d="M0 0 C1.98 0 3.96 0 6 0 C5.67 0.99 5.34 1.98 5 3 C3.02 3 1.04 3 -1 3 C-0.67 2.01 -0.34 1.02 0 0 Z " fill="#003599" transform="translate(81,17)"/>
</svg>
