<?xml version="1.0" encoding="UTF-8" standalone="no"?> <svg xmlns="http://www.w3.org/2000/svg" xmlns:xlink="http://www.w3.org/1999/xlink" viewBox="0 0 512 512"><defs><style>.cls-1{fill:url(#linear-gradient);}</style><linearGradient id="linear-gradient" x1="256" y1="2.12008" x2="256" y2="503.31024" gradientUnits="userSpaceOnUse"><stop offset="0" stop-color="#2ab793"/><stop offset="1" stop-color="#2c98b5"/></linearGradient></defs><g id="_GRADIENT" data-name="/ GRADIENT"><path class="cls-1" d="M248,116.68652l-10.34326-10.34326-11.31348,11.31348,16,16a7.99945,7.99945,0,0,0,11.31348,0l32-32L274.34326,90.34326Z"/><polygon class="cls-1" points="237.657 253.657 256 235.313 274.343 253.657 285.657 242.343 267.313 224 285.657 205.657 274.343 194.343 256 212.687 237.657 194.343 226.343 205.657 244.687 224 226.343 242.343 237.657 253.657"/><path class="cls-1" d="M488,304h-2.58374l-73.6001-184H412a75.10318,75.10318,0,0,0,53.45557-22.14209l8.88769-8.8877A46.32162,46.32162,0,0,0,488,56a24.001,24.001,0,0,0-47.7334-3.58008l-2.12451,2.12451a59.59853,59.59853,0,0,1-84.28418,0L340.28418,40.9707A84.69647,84.69647,0,0,0,280,16H232a84.69647,84.69647,0,0,0-60.28418,24.9707L158.14209,54.54443a59.59853,59.59853,0,0,1-84.28418,0L71.7334,52.41992A24.001,24.001,0,0,0,24,56,46.32162,46.32162,0,0,0,37.65674,88.97021l8.88769,8.8877A75.10318,75.10318,0,0,0,100,120h.18384L26.58374,304H24a7.99977,7.99977,0,0,0-8,8v16a40.04521,40.04521,0,0,0,40,40H168a40.04521,40.04521,0,0,0,40-40V312a7.99977,7.99977,0,0,0-8-8h-2.58374l-73.6001-184H140a75.10318,75.10318,0,0,0,53.45557-22.14209l.18017-.18018A63.88767,63.88767,0,0,0,225.06006,168,63.9485,63.9485,0,0,0,224,279.38977V384H211.10791a39.87432,39.87432,0,0,0-39.45557,33.42383L169.22314,432h-6.11523a39.87432,39.87432,0,0,0-39.45557,33.42383l-3.54345,21.26074A8.00034,8.00034,0,0,0,128,496H384a8.00034,8.00034,0,0,0,7.89111-9.31543l-3.54345-21.26074A39.87432,39.87432,0,0,0,348.89209,432h-6.11523l-2.4292-14.57617A39.87432,39.87432,0,0,0,300.89209,384H288V279.38977A63.9485,63.9485,0,0,0,286.93994,168a63.88767,63.88767,0,0,0,31.42432-70.32227l.18017.18018A75.10318,75.10318,0,0,0,372,120h16.18384l-73.6001,184H312a7.99977,7.99977,0,0,0-8,8v16a40.04521,40.04521,0,0,0,40,40H456a40.04521,40.04521,0,0,0,40-40V312A7.99977,7.99977,0,0,0,488,304ZM192,328a24.0275,24.0275,0,0,1-24,24H56a24.0275,24.0275,0,0,1-24-24v-8H192ZM43.81616,304,112,133.54053,180.18384,304ZM348.89209,448a23.925,23.925,0,0,1,23.67334,20.05469L374.55615,480H137.44385l1.99072-11.94531A23.925,23.925,0,0,1,163.10791,448Zm-24.32666-27.94531L326.5564,432H185.4436l1.991-11.94531A23.925,23.925,0,0,1,211.10791,400h89.78418A23.925,23.925,0,0,1,324.56543,420.05469ZM272,384H240V285.97473a64.21408,64.21408,0,0,0,32,0Zm32-160a48,48,0,1,1-48-48A48.05436,48.05436,0,0,1,304,224Zm-48-64a48,48,0,1,1,48-48A48.05436,48.05436,0,0,1,256,160Zm73.85791-73.45557L316.28418,72.9707a85.25428,85.25428,0,0,0-120.56836,0L182.14209,86.54443A59.20761,59.20761,0,0,1,140,104H100A59.20761,59.20761,0,0,1,57.85791,86.54443l-8.8877-8.88769A30.427,30.427,0,0,1,40,56a8,8,0,0,1,16,0,7.99877,7.99877,0,0,0,2.34326,5.65674l4.20117,4.20117a75.59743,75.59743,0,0,0,106.91114,0L183.0293,52.28418A68.80171,68.80171,0,0,1,232,32h48a68.80171,68.80171,0,0,1,48.9707,20.28418l13.57373,13.57373a75.59743,75.59743,0,0,0,106.91114,0l4.20117-4.20117A7.99877,7.99877,0,0,0,456,56a8,8,0,0,1,16,0,30.427,30.427,0,0,1-8.97021,21.65674l-8.8877,8.88769A59.20761,59.20761,0,0,1,412,104H372A59.20761,59.20761,0,0,1,329.85791,86.54443ZM400,133.54053,468.18384,304H331.81616ZM480,328a24.0275,24.0275,0,0,1-24,24H344a24.0275,24.0275,0,0,1-24-24v-8H480Z"/></g></svg>