<?xml version="1.0" encoding="UTF-8" standalone="no"?> <svg id="Layer_1" data-name="Layer 1" xmlns="http://www.w3.org/2000/svg" viewBox="0 0 128 128"><defs><style>.cls-1{fill:#1d75b8;}.cls-2{fill:#2d3e50;}</style></defs><title>v</title><path class="cls-1" d="M12.1257,65.00166H40.81781A5.82433,5.82433,0,0,0,46.64245,59.177v-1.6122a5.82589,5.82589,0,0,0-5.82464-5.82652h-1.6359v-5.024l1.62311.16923a2.8473,2.8473,0,0,0,3.14434-2.83139v-4.045l65.52135,2.1344a8.64834,8.64834,0,1,0,0-17.27926l-65.52135,2.1344v-4.045A2.8473,2.8473,0,0,0,40.805,20.12022l-1.62311.16923v-5.024h1.6359A5.82589,5.82589,0,0,0,46.64245,9.4389V7.8267a5.82433,5.82433,0,0,0-5.82464-5.82464H12.1257A5.82435,5.82435,0,0,0,6.301,7.8267V9.4389a5.8259,5.8259,0,0,0,5.82471,5.82652h1.63583v7.68981l-1.97428.20564A2.84944,2.84944,0,0,0,9.23607,25.994V41.00973a2.84944,2.84944,0,0,0,2.55118,2.83313l1.97428.20564v7.68981h-1.6359A5.82589,5.82589,0,0,0,6.301,57.56483V59.177A5.82435,5.82435,0,0,0,12.1257,65.00166Z"/><path class="cls-2" d="M112.40958,76.10115h-96.819A9.3,9.3,0,0,0,6.301,85.39051v31.31786a9.30007,9.30007,0,0,0,9.28957,9.28957h96.819a9.3,9.3,0,0,0,9.28943-9.28957V85.39051A9.3,9.3,0,0,0,112.40958,76.10115Zm1.55931,40.60722a1.56107,1.56107,0,0,1-1.55931,1.55938H100.94182a113.6184,113.6184,0,0,0-2.86871-21.26062,3.511,3.511,0,0,0-3.41218-2.66779H91.44418a108.09751,108.09751,0,0,0-3.57411,23.92841H79.59225a113.6184,113.6184,0,0,0-2.86871-21.26062,3.511,3.511,0,0,0-3.41218-2.66779H70.0946a108.09751,108.09751,0,0,0-3.57411,23.92841H15.59056a1.561,1.561,0,0,1-1.55938-1.55938V85.39051a1.561,1.561,0,0,1,1.55938-1.55917h96.819a1.561,1.561,0,0,1,1.55931,1.55917Z"/><rect class="cls-1" x="40.29346" y="91.81728" width="3.97552" height="18.46447"/><rect class="cls-1" x="31.06122" y="91.81728" width="3.97552" height="18.46447"/></svg>