<?xml version="1.0" encoding="utf-8"?>
<!-- Generator: Adobe Illustrator 16.0.0, SVG Export Plug-In . SVG Version: 6.00 Build 0)  -->
<!DOCTYPE svg PUBLIC "-//W3C//DTD SVG 1.1//EN" "http://www.w3.org/Graphics/SVG/1.1/DTD/svg11.dtd">
<svg version="1.1" id="light" xmlns="http://www.w3.org/2000/svg" xmlns:xlink="http://www.w3.org/1999/xlink" x="0px" y="0px"
	 width="512px" height="512px" viewBox="0 0 512 512" enable-background="new 0 0 512 512" xml:space="preserve">
<g>
	<g>
		<path fill="#CF661E" d="M485.961,251.729h-58.931V97.997c-0.028-23.572-19.131-42.674-42.703-42.702H128.11
			C104.538,55.323,85.435,74.426,85.406,98v51.242H38.552C17.27,149.266,0.023,166.512,0,187.794v230.357
			c0.023,21.282,17.27,38.529,38.552,38.553h136.409c16.255-0.049,30.727-10.304,36.162-25.623h147.583
			c4.717,0,8.54-3.822,8.54-8.539V405.46c0-14.15-11.473-25.621-25.621-25.621h-25.623v-34.163h68.325v84.552
			c0,14.623,11.854,26.477,26.476,26.477h75.157c14.623,0,26.476-11.854,26.476-26.477V278.206
			C512.437,263.584,500.583,251.729,485.961,251.729z M196.435,418.151c-0.009,11.854-9.618,21.461-21.472,21.472H38.552
			c-11.855-0.009-21.461-9.618-21.472-21.472v-4.15h179.353L196.435,418.151L196.435,418.151z M196.435,396.919H17.082V209.026
			h179.353V396.919z M196.435,191.945H17.082v-4.15c0.009-11.854,9.617-21.461,21.471-21.471h136.411
			c11.854,0.009,21.461,9.617,21.472,21.471V191.945z M341.625,396.919c4.716,0,8.539,3.824,8.539,8.541V414H213.515v-17.081
			H341.625z M213.515,379.839v-34.163h85.406v34.163H213.515z M384.327,328.594h-76.866h-93.946v-25.621h170.812V328.594z
			 M384.327,278.206v7.687H213.515v-98.098c-0.024-21.282-17.271-38.528-38.552-38.552h-72.476V98
			c0-14.15,11.471-25.623,25.622-25.623h256.218c14.15,0,25.622,11.471,25.622,25.623v153.814
			C395.695,252.275,384.366,263.943,384.327,278.206z M495.356,430.227c0,5.188-4.207,9.396-9.396,9.396h-75.157
			c-5.188,0-9.395-4.207-9.395-9.396v-7.686h93.947V430.227z M495.356,405.46h-93.947V302.972h93.947V405.46z M495.356,285.892
			h-93.947v-7.687c0-5.189,4.207-9.396,9.395-9.396h75.157c5.188,0,9.396,4.206,9.396,9.396V285.892z"/>
	</g>
</g>
</svg>
