<?xml version="1.0" encoding="iso-8859-1"?>
<!-- Generator: Adobe Illustrator 18.0.0, SVG Export Plug-In . SVG Version: 6.00 Build 0)  -->
<!DOCTYPE svg PUBLIC "-//W3C//DTD SVG 1.1//EN" "http://www.w3.org/Graphics/SVG/1.1/DTD/svg11.dtd">
<svg version="1.1" id="Capa_1" xmlns="http://www.w3.org/2000/svg" xmlns:xlink="http://www.w3.org/1999/xlink" x="0px" y="0px"
	 viewBox="0 0 217.109 217.109" style="enable-background:new 0 0 217.109 217.109;" xml:space="preserve">
<path d="M193.666,125.632l-26.579-26.576c-1.407-1.406-3.314-2.196-5.303-2.196h-45.727V84.146h29.597c4.142,0,7.5-3.357,7.5-7.5
	V23.482c0-4.143-3.358-7.5-7.5-7.5h-29.597V7.5c0-4.143-3.358-7.5-7.5-7.5c-4.142,0-7.5,3.357-7.5,7.5v8.482H55.325
	c-1.989,0-3.897,0.79-5.304,2.197L23.442,44.762c-2.928,2.929-2.928,7.677,0,10.605l26.579,26.582
	c1.407,1.407,3.314,2.197,5.304,2.197h45.732v12.713H71.455c-4.142,0-7.5,3.357-7.5,7.5v53.158c0,4.143,3.358,7.5,7.5,7.5h29.603
	v44.592c0,4.143,3.358,7.5,7.5,7.5c4.142,0,7.5-3.357,7.5-7.5v-44.592h45.727c1.989,0,3.897-0.79,5.304-2.197l26.579-26.582
	c1.406-1.406,2.196-3.314,2.196-5.303C195.863,128.946,195.073,127.038,193.666,125.632z M39.352,50.064l19.08-19.082h79.722v38.164
	H58.432L39.352,50.064z M158.677,150.018H78.955v-38.158h79.723l19.079,19.077L158.677,150.018z"/>
<g>
</g>
<g>
</g>
<g>
</g>
<g>
</g>
<g>
</g>
<g>
</g>
<g>
</g>
<g>
</g>
<g>
</g>
<g>
</g>
<g>
</g>
<g>
</g>
<g>
</g>
<g>
</g>
<g>
</g>
</svg>
