<?xml version="1.0" encoding="utf-8"?>
<!-- Svg Vector Icons : http://www.onlinewebfonts.com/icon -->
<!DOCTYPE svg PUBLIC "-//W3C//DTD SVG 1.1//EN" "http://www.w3.org/Graphics/SVG/1.1/DTD/svg11.dtd">
<svg version="1.1" xmlns="http://www.w3.org/2000/svg" xmlns:xlink="http://www.w3.org/1999/xlink" x="0px" y="0px" viewBox="0 0 1000 1000" enable-background="new 0 0 1000 1000" xml:space="preserve">
<metadata> Svg Vector Icons : http://www.onlinewebfonts.com/icon </metadata>
<g><path d="M379.6,11.1H98c-48.6,0-88,39.4-88,88v279.4c0,48.6,39.4,88,88,88h281.6c48.6,0,88-39.4,88-88V99.1C467.6,50.5,428.2,11.1,379.6,11.1z M902,11.1H620.4c-48.6,0-88,39.4-88,88v279.4c0,48.6,39.4,88,88,88H902c48.6,0,88-39.4,88-88V99.1C990,50.5,950.6,11.1,902,11.1z M379.6,533.5H98c-48.6,0-88,39.4-88,88v279.4c0,48.6,39.4,88,88,88h281.6c48.6,0,88-39.4,88-88V621.5C467.6,572.9,428.2,533.5,379.6,533.5z M902,533.5H620.4c-48.6,0-88,39.4-88,88v279.4c0,48.6,39.4,88,88,88H902c48.6,0,88-39.4,88-88V621.5C990,572.9,950.6,533.5,902,533.5z"/></g>
</svg>