<svg xmlns="http://www.w3.org/2000/svg" viewBox="0 0 61.78 61.8"><defs><style>.cls-1{fill:#1c355d;}</style></defs><g id="Capa_2" data-name="Capa 2"><g id="Section_1" data-name="Section 1"><path class="cls-1" d="M29.06,61.8c-1.17-.15-2.35-.27-3.51-.47A30.2,30.2,0,0,1,8.77,52.48,29.23,29.23,0,0,1,.54,36.68C-1.41,25.16,2,15.38,10.66,7.55A28.88,28.88,0,0,1,27.8.15,30.14,30.14,0,0,1,53,9.35a30,30,0,0,1,8.48,17.29c.12.81.2,1.63.29,2.44V32.7c0,.21-.08.43-.11.64-.14,1.12-.23,2.24-.44,3.35a30.17,30.17,0,0,1-8.38,15.92A30.13,30.13,0,0,1,36.2,61.33c-1.16.2-2.34.32-3.51.47ZM59.85,30.92a29,29,0,1,0-29,28.95A29,29,0,0,0,59.85,30.92Z"/><path class="cls-1" d="M15.87,44.6a.75.75,0,0,0-1,0,.78.78,0,0,0-.21.52.73.73,0,0,0,.21.52.74.74,0,0,0,1-1Z"/><path class="cls-1" d="M44.05,24.66a.74.74,0,0,0-1,1,.74.74,0,0,0,1-1Z"/><path class="cls-1" d="M47,11.47a.74.74,0,0,0-.52-.22h-18a.74.74,0,0,0-.74.74v2.09L20.72,16a.71.71,0,0,0-.52.89l3.6,13.44L20.68,33.4a2.18,2.18,0,0,0-1.81-1h-7a2.2,2.2,0,0,0-2.2,2.2V46.58a2.2,2.2,0,0,0,2.2,2.2h7A2.2,2.2,0,0,0,21,47.11l.87.76a3.7,3.7,0,0,0,2.43.91H46.43a.73.73,0,0,0,.73-.73V12A.76.76,0,0,0,47,11.47ZM19.6,46.58a.74.74,0,0,1-.73.74h-7a.74.74,0,0,1-.73-.74V34.64a.74.74,0,0,1,.73-.74h2.79v8.45a.73.73,0,0,0,1.46,0V33.9h2.79a.74.74,0,0,1,.73.74V46.58Zm2.2-29.41,5.86-1.57v2.72l-.49.13a.69.69,0,0,0-.44.34.73.73,0,0,0-.08.56,2,2,0,0,1-1.39,2.41.74.74,0,0,0-.52.9L27.6,33.24H26.13l-.76-3a1,1,0,0,0-.12-.26Zm5.86,4.51v6.18l-1.33-4.95A3.36,3.36,0,0,0,27.66,21.68ZM38.19,47.32H24.3a2.22,2.22,0,0,1-1.46-.55l-1.77-1.54V35.09l3.2-3.2.58,2.27a.73.73,0,0,0,.71.55H40a1,1,0,0,1,0,2H32.58a.74.74,0,0,0,0,1.47h9.68a1,1,0,1,1,0,2.05H32.58a.74.74,0,0,0,0,1.47h8.11a1,1,0,1,1,0,2H32.58a.74.74,0,0,0,0,1.47h5.61a1,1,0,1,1,0,2Zm7.51,0H40.46a2.39,2.39,0,0,0,.23-1,2.35,2.35,0,0,0-.23-1h.23a2.5,2.5,0,0,0,2.5-2.5,2.43,2.43,0,0,0-.27-1.11,2.5,2.5,0,0,0,1.84-2.41,2.47,2.47,0,0,0-.5-1.48V28.48a.73.73,0,1,0-1.46,0v8.34a2.42,2.42,0,0,0-.54-.06h0A2.5,2.5,0,0,0,40,33.24H38.79a3.51,3.51,0,1,0-2.76,0H32V19.31a3.47,3.47,0,0,0,2.63-2.63h5.51a3.45,3.45,0,0,0,2.63,2.63v2.28a.73.73,0,1,0,1.46,0V18.65a.73.73,0,0,0-.73-.73,2,2,0,0,1-2-2,.74.74,0,0,0-.74-.74H34a.74.74,0,0,0-.73.74,2,2,0,0,1-2,2,.73.73,0,0,0-.73.73V33.24H29.13V12.72H45.7ZM37.41,32.06a2,2,0,1,1,2-2A2,2,0,0,1,37.41,32.06Z"/></g></g></svg>