<?xml version="1.0" encoding="utf-8"?>
<!-- Generator: Adobe Illustrator 16.0.0, SVG Export Plug-In . SVG Version: 6.00 Build 0)  -->
<!DOCTYPE svg PUBLIC "-//W3C//DTD SVG 1.1//EN" "http://www.w3.org/Graphics/SVG/1.1/DTD/svg11.dtd">
<svg version="1.1" id="light" xmlns="http://www.w3.org/2000/svg" xmlns:xlink="http://www.w3.org/1999/xlink" x="0px" y="0px"
	 width="512px" height="512px" viewBox="0 0 512 512" enable-background="new 0 0 512 512" xml:space="preserve">
<g>
	<g>
		<path fill="#CF661E" d="M447.34,258.094c5.503,0,9.966-4.461,9.966-9.966V90.57c0-27.475-22.352-49.828-49.826-49.828h-67.549
			c-4.975-6.362-12.714-10.464-21.396-10.464h-16.21c-7.931-17.633-25.652-29.398-45.45-29.398h-1.747
			c-19.798,0-37.519,11.765-45.45,29.398h-16.211c-8.683,0-16.422,4.102-21.396,10.464h-67.548
			c-27.475,0-49.828,22.354-49.828,49.828v370.723c0,27.475,22.354,49.827,49.828,49.827H407.48
			c27.475,0,49.826-22.353,49.826-49.827V331.676c0-5.505-4.463-9.965-9.966-9.965s-9.965,4.46-9.965,9.965v129.617
			c0,16.484-13.411,29.896-29.896,29.896H104.523c-16.484,0-29.896-13.411-29.896-29.896V90.57
			c0-16.485,13.412-29.897,29.896-29.897h61.787v19.932h-51.82c-10.99,0-19.933,8.941-19.933,19.931v350.79
			c0,10.99,8.942,19.932,19.933,19.932h283.023c10.989,0,19.931-8.941,19.931-19.932v-350.79c0-10.99-8.941-19.931-19.931-19.931
			h-51.822V60.673h61.789c16.484,0,29.896,13.412,29.896,29.897v157.559C437.375,253.633,441.837,258.094,447.34,258.094z
			 M186.24,57.434c0-3.983,3.241-7.225,7.226-7.225h23.195c4.499,0,8.439-3.014,9.618-7.355
			c3.522-12.979,15.384-22.043,28.848-22.043h1.747c13.463,0,25.324,9.065,28.847,22.043c1.179,4.34,5.119,7.355,9.618,7.355h23.195
			c3.983,0,7.226,3.241,7.226,7.225v23.17H186.24V57.434z M397.513,100.536l0.012,350.79c0,0-0.004,0-0.012,0H114.49v-350.79h19.931
			v61.787c0,5.504,4.462,9.966,9.964,9.966c5.506,0,9.967-4.462,9.967-9.966v-61.787H397.513z"/>
	</g>
</g>
<g>
	<g>
		<path fill="#F78334" d="M339.712,282.027v-24.227c0-5.503-4.464-9.965-9.967-9.965h-63.778v-19.407
			c21.608-4.598,37.868-23.824,37.868-46.784c0-26.376-21.458-47.835-47.834-47.835c-26.378,0-47.835,21.459-47.835,47.835
			c0,22.959,16.261,42.186,37.868,46.784v19.407h-63.779c-5.503,0-9.967,4.462-9.967,9.965v24.227
			c-18.28,4.483-31.889,21.002-31.889,40.646c0,23.079,18.775,41.857,41.855,41.857c23.079,0,41.855-18.778,41.855-41.857
			c0-19.646-13.607-36.163-31.89-40.646v-14.261h127.56v14.261c-18.282,4.483-31.891,21.002-31.891,40.646
			c0,23.079,18.777,41.857,41.855,41.857c23.08,0,41.856-18.778,41.856-41.857C371.602,303.028,357.993,286.51,339.712,282.027z
			 M204.179,322.674c0,12.089-9.834,21.925-21.924,21.925s-21.924-9.836-21.924-21.925c0-12.088,9.834-21.924,21.924-21.924
			S204.179,310.586,204.179,322.674z M228.097,181.645c0-15.386,12.519-27.904,27.904-27.904s27.904,12.518,27.904,27.904
			s-12.519,27.903-27.904,27.903S228.097,197.032,228.097,181.645z M329.745,344.598c-12.088,0-21.923-9.836-21.923-21.925
			c0-12.088,9.835-21.924,21.923-21.924c12.09,0,21.926,9.836,21.926,21.924C351.671,334.762,341.835,344.598,329.745,344.598z"/>
	</g>
</g>
<g>
	<g>
		<path fill="#F78334" d="M310.553,400.431c-1.854-1.854-4.425-2.92-7.047-2.92c-2.63,0-5.192,1.066-7.045,2.92
			c-1.863,1.854-2.921,4.426-2.921,7.046c0,2.622,1.058,5.192,2.921,7.046c1.853,1.854,4.415,2.921,7.045,2.921
			c2.622,0,5.193-1.067,7.047-2.921c1.852-1.854,2.92-4.424,2.92-7.046C313.473,404.857,312.406,402.285,310.553,400.431z"/>
	</g>
</g>
<g>
	<g>
		<path fill="#F78334" d="M264.681,400.431c-1.854-1.854-4.425-2.92-7.047-2.92c-2.63,0-5.19,1.066-7.045,2.92
			c-1.853,1.854-2.92,4.426-2.92,7.046c0,2.622,1.066,5.192,2.92,7.046c1.854,1.854,4.425,2.921,7.045,2.921
			c2.622,0,5.193-1.067,7.047-2.921c1.853-1.854,2.92-4.424,2.92-7.046C267.601,404.857,266.534,402.285,264.681,400.431z"/>
	</g>
</g>
<g>
	<g>
		<path fill="#F78334" d="M218.369,400.431c-1.853-1.854-4.423-2.92-7.045-2.92c-2.63,0-5.202,1.066-7.046,2.92
			c-1.863,1.854-2.92,4.426-2.92,7.046c0,2.622,1.057,5.192,2.92,7.046c1.854,1.854,4.416,2.921,7.046,2.921
			c2.622,0,5.192-1.067,7.045-2.921c1.854-1.854,2.921-4.424,2.921-7.046C221.29,404.857,220.224,402.285,218.369,400.431z"/>
	</g>
</g>
<g>
	<g>
		<path fill="#F78334" d="M454.385,283.733c-1.853-1.853-4.423-2.919-7.045-2.919c-2.619,0-5.192,1.066-7.044,2.919
			c-1.855,1.854-2.921,4.426-2.921,7.047c0,2.631,1.065,5.191,2.921,7.055c1.852,1.854,4.425,2.911,7.044,2.911
			c2.622,0,5.192-1.057,7.045-2.911c1.853-1.863,2.921-4.434,2.921-7.055S456.24,285.597,454.385,283.733z"/>
	</g>
</g>
</svg>
