<?xml version="1.0" encoding="UTF-8" standalone="no"?>
<svg
   version="1.0"
   width="474.000000pt"
   height="474.000000pt"
   viewBox="0 0 474.000000 474.000000"
   preserveAspectRatio="xMidYMid meet"
   id="svg8"
   sodipodi:docname="PlanificadorDeVenta.svg"
   inkscape:version="1.2 (dc2aedaf03, 2022-05-15)"
   xmlns:inkscape="http://www.inkscape.org/namespaces/inkscape"
   xmlns:sodipodi="http://sodipodi.sourceforge.net/DTD/sodipodi-0.dtd"
   xmlns="http://www.w3.org/2000/svg"
   xmlns:svg="http://www.w3.org/2000/svg"
   xmlns:rdf="http://www.w3.org/1999/02/22-rdf-syntax-ns#"
   xmlns:cc="http://creativecommons.org/ns#"
   xmlns:dc="http://purl.org/dc/elements/1.1/">
  <metadata
     id="metadata14">
    <rdf:RDF>
      <cc:Work
         rdf:about="">
        <dc:format>image/svg+xml</dc:format>
        <dc:type
           rdf:resource="http://purl.org/dc/dcmitype/StillImage" />
        <dc:title />
      </cc:Work>
    </rdf:RDF>
  </metadata>
  <defs
     id="defs12" />
  <sodipodi:namedview
     pagecolor="#ffffff"
     bordercolor="#666666"
     borderopacity="1"
     objecttolerance="10"
     gridtolerance="10"
     guidetolerance="10"
     inkscape:pageopacity="0"
     inkscape:pageshadow="2"
     inkscape:window-width="1920"
     inkscape:window-height="1009"
     id="namedview10"
     showgrid="false"
     inkscape:zoom="0.37341772"
     inkscape:cx="1494.3051"
     inkscape:cy="519.52543"
     inkscape:window-x="-8"
     inkscape:window-y="-8"
     inkscape:window-maximized="1"
     inkscape:current-layer="g6"
     inkscape:showpageshadow="2"
     inkscape:pagecheckerboard="0"
     inkscape:deskcolor="#d1d1d1"
     inkscape:document-units="pt" />
  <g
     transform="matrix(0.1,0,0,-0.1,0,476.00847)"
     id="g6"
     style="fill:#000000;stroke:none">
    <path
       d="m 1505,4641 c -74,-18 -145,-78 -179,-151 -21,-45 -21,-53 -24,-1071 l -2,-1026 -72,-6 c -85,-7 -108,-25 -126,-94 -38,-141 -43,-153 -73,-169 -29,-15 -32,-14 -123,36 -142,76 -130,80 -323,-113 -194,-193 -190,-183 -112,-322 49,-87 50,-91 36,-121 -13,-27 -25,-34 -99,-54 -98,-27 -134,-44 -147,-68 -12,-22 -21,-440 -10,-469 12,-32 53,-54 154,-82 77,-22 89,-28 102,-55 14,-30 13,-34 -36,-123 -59,-106 -63,-137 -24,-184 55,-65 294,-294 316,-302 17,-6 46,4 126,43 90,45 108,51 135,43 29,-8 33,-15 61,-111 45,-153 32,-146 290,-150 183,-3 220,-1 249,13 38,18 38,18 76,145 l 25,85 53,3 c 44,3 64,-3 135,-38 93,-46 115,-45 172,10 l 31,30 1094,2 1095,3 40,22 c 61,33 123,106 138,163 4,14 7,731 7,1595 v 1570 l -462,463 c -255,255 -475,470 -490,478 -23,12 -174,14 -1015,13 -543,-1 -1001,-4 -1018,-8 z m 1907,-178 c 2,-5 1,-118 -2,-252 -4,-187 -8,-245 -18,-249 -10,-3 -10,-7 -2,-17 6,-8 10,-31 7,-52 l -4,-38 -1,43 c -1,23 -6,42 -12,42 -5,0 -10,9 -10,20 0,20 -7,20 -461,20 -304,0 -458,-3 -454,-10 3,-6 -4,-10 -17,-10 -18,0 -20,2 -8,10 10,7 -17,10 -85,10 -66,0 -105,-4 -113,-12 -15,-15 -17,-214 -3,-223 6,-3 276,-6 601,-6 h 590 l 24,-38 c 33,-51 102,-109 146,-121 19,-6 190,-11 380,-13 l 345,-2 V 2067 568 l -28,-24 -28,-24 h -975 c -536,0 -974,4 -974,8 0,5 9,17 20,27 10,9 24,32 30,50 13,39 4,65 -54,159 -39,64 -42,81 -25,119 9,20 28,29 93,47 106,29 141,46 155,76 7,16 11,100 11,239 0,264 3,257 -147,299 -142,40 -150,60 -79,184 55,95 62,121 43,158 -8,16 -83,95 -165,177 -180,176 -174,174 -313,98 -86,-48 -91,-49 -122,-36 -30,12 -34,21 -61,114 -37,128 -52,144 -146,149 l -70,4 v 1010 1010 l 29,29 29,29 h 936 c 514,0 936,-3 938,-7 z m 480,-420 c 159,-159 288,-291 288,-295 0,-5 -115,-8 -255,-8 -279,0 -306,5 -325,56 -12,29 -14,534 -3,534 5,0 137,-129 295,-287 z m -565,-80 c -20,-2 -52,-2 -70,0 -17,2 0,4 38,4 39,0 53,-2 32,-4 z m -322,-33 c -3,-5 -13,-10 -21,-10 -8,0 -14,-5 -14,-12 0,-6 -3,-8 -6,-5 -10,9 16,37 33,37 8,0 11,-4 8,-10 z m 275,-6 c 0,-2 -18,-4 -40,-4 -22,0 -40,3 -40,8 0,4 18,6 40,4 22,-2 40,-6 40,-8 z m 117,-126 c -3,-7 -5,-2 -5,12 0,14 2,19 5,13 2,-7 2,-19 0,-25 z m -550,-24 c -3,-3 -12,-4 -19,-1 -8,3 -5,6 6,6 11,1 17,-2 13,-5 z M 1546,2113 c 14,-49 33,-96 42,-105 19,-19 152,-77 194,-85 18,-4 52,8 115,41 l 88,46 87,-87 c 49,-48 88,-91 88,-96 0,-5 -18,-39 -39,-76 -57,-97 -58,-104 -16,-207 21,-49 44,-97 53,-107 8,-9 47,-26 86,-37 128,-37 117,-22 114,-161 -3,-139 4,-127 -108,-160 -41,-12 -83,-29 -92,-38 -17,-16 -88,-181 -88,-204 0,-7 21,-52 46,-101 l 46,-89 -90,-90 -90,-89 -84,46 c -47,25 -94,46 -105,46 -18,0 -105,-35 -183,-73 -26,-13 -48,-60 -76,-160 l -15,-57 h -117 c -64,0 -122,4 -129,8 -6,4 -23,45 -36,90 -13,46 -32,91 -43,101 -22,22 -181,91 -208,91 -11,0 -50,-18 -87,-39 -37,-22 -76,-42 -86,-45 -14,-4 -41,17 -107,83 l -88,88 42,74 c 52,92 58,123 32,180 -11,24 -28,64 -39,89 -11,25 -26,50 -34,57 -8,6 -53,23 -101,38 l -88,26 v 128 128 l 63,18 c 107,29 142,49 156,86 7,19 23,58 37,87 29,64 30,96 4,142 -11,19 -32,57 -46,84 l -26,49 90,90 90,89 84,-46 c 47,-25 96,-46 109,-46 28,0 174,62 201,84 10,9 30,56 45,106 l 27,90 h 127 128 z"
       id="path2"
       inkscape:connector-curvature="0" />
    <path
       d="m 1230,1781 c -98,-32 -163,-72 -235,-145 -116,-118 -167,-239 -167,-400 -1,-179 79,-339 224,-448 55,-42 132,-80 198,-99 69,-20 234,-17 300,5 145,48 274,153 338,273 39,74 72,197 72,267 -1,256 -176,483 -425,552 -72,20 -237,17 -305,-5 z m 325,-193 c 155,-80 245,-248 217,-406 -30,-169 -154,-293 -325,-322 -163,-29 -326,60 -404,219 -25,50 -28,67 -28,161 0,94 3,111 27,160 51,103 120,166 221,202 79,28 224,21 292,-14 z"
       id="path4"
       inkscape:connector-curvature="0" />
    <path
       style="fill:#2375d7;fill-opacity:1;stroke:#000000;stroke-width:1.25102365;stroke-miterlimit:4;stroke-dasharray:none;stroke-dashoffset:0;stroke-opacity:1"
       d=""
       id="path833"
       inkscape:connector-curvature="0"
       transform="matrix(7.5,0,0,-7.5,0,4760.0847)" />
    <path
       style="fill:#2375d7;fill-opacity:1;stroke:#000000;stroke-width:1.25102365;stroke-miterlimit:4;stroke-dasharray:none;stroke-dashoffset:0;stroke-opacity:1"
       d="m 169.75716,594.10678 c -0.62996,-1.10466 -2.64471,-6.65648 -4.47724,-12.33737 -2.82992,-8.77286 -5.54774,-11.34337 -18.04072,-17.06284 l -14.70886,-6.73394 -13.22491,6.19422 -13.22492,6.19422 -10.777102,-10.7771 -10.7771,-10.7771 6.074659,-12.50348 c 5.500432,-11.32154 5.743455,-13.45228 2.570917,-22.54072 C 87.36176,497.11829 83.22562,492.654 70.248482,489.02062 l -12.372409,-3.46405 0.787387,-16.14371 0.787386,-16.1437 11.600946,-3.85636 c 20.65006,-6.86446 29.505188,-29.71752 18.770596,-48.44262 l -6.269847,-10.93692 11.00015,-11.02147 11.000149,-11.02146 11.4422,5.83737 c 19.68745,10.04379 42.02375,1.26902 48.82115,-19.1793 l 3.85636,-11.60094 16.1437,-0.78739 16.1437,-0.78738 3.49174,12.47126 c 5.91548,21.12803 27.89893,30.23231 48.10675,19.92305 l 11.36516,-5.79807 7.96018,7.57401 c 12.81799,12.19616 13.58672,15.29793 7.10024,28.64905 l -5.80813,11.9549 5.30792,12.94265 c 5.18238,12.63655 10.00923,16.82809 25.67043,22.29175 6.80805,2.3751 7.3644,3.66215 7.3644,17.03639 0,15.37908 -2.11341,18.6474 -13.87206,21.45268 -9.63288,2.29813 -14.22771,7.34255 -19.67109,21.59583 -4.45233,11.65827 -4.41591,12.26515 1.46533,24.41417 l 6.03117,12.45872 -10.961,10.961 -10.96099,10.96099 -13.08061,-6.12663 -13.08061,-6.12663 -13.82469,5.94722 c -12.38606,5.32834 -14.30724,7.3059 -18.46194,19.00372 l -4.63726,13.05651 h -15.28118 c -8.40465,0 -15.7966,-0.90382 -16.42655,-2.00848 z m 45.52536,-54.08513 c 17.85524,-8.10637 34.6839,-25.38869 40.89992,-42.0025 16.1654,-43.2059 -6.24538,-88.96956 -49.76444,-101.6209 -26.21849,-7.62192 -53.01628,-0.85153 -72.87459,18.41156 -15.06068,14.60928 -22.13967,28.68762 -23.83697,47.40578 -2.8904,31.87588 13.85777,61.73108 42.68986,76.09872 17.64861,8.79467 45.60381,9.55365 62.88622,1.70734 z"
       id="path835"
       inkscape:connector-curvature="0"
       transform="matrix(7.5,0,0,-7.5,0,4760.0847)" />
    <path
       style="fill:#000080;stroke-width:1.33898"
       d="m 171.91861,593.48374 c -0.81383,-0.54106 -2.25109,-3.39391 -3.19391,-6.33967 -4.64154,-14.50211 -9.24057,-18.98524 -27.3884,-26.69817 l -8.96085,-3.80842 -13.15379,6.05499 -13.1538,6.05499 L 96.027343,558.53051 85.986825,548.31356 91.29089,537.6017 c 6.279553,-12.68193 6.290138,-17.94819 0.06367,-31.68037 -5.589,-12.32627 -9.880644,-15.49784 -26.917333,-19.8922 l -5.859378,-1.51134 0.838192,-6.11527 c 0.461012,-3.3634 0.838198,-10.13893 0.838198,-15.05674 v -8.94147 l 7.277934,-2.29416 c 17.93791,-5.65443 27.535625,-17.64583 27.535625,-34.40304 0,-7.83513 -0.666974,-10.40229 -4.72569,-18.18901 l -4.725692,-9.06633 10.296357,-10.3571 10.296357,-10.3571 7.93256,4.00434 c 24.25517,12.24397 47.34753,2.1989 54.61479,-23.75719 1.56311,-5.58287 1.88282,-5.86607 6.62229,-5.86607 2.73895,0 9.5393,-0.38542 15.11191,-0.85647 l 10.13202,-0.85647 2.7536,9.24612 c 3.67998,12.35669 9.17343,19.56285 18.32745,24.0415 10.08161,4.93247 22.84901,4.2561 34.88604,-1.84814 l 8.20844,-4.16267 8.8636,9.18109 c 10.60431,10.98417 10.82837,12.50007 3.99863,27.05401 l -4.86497,10.36708 4.32559,10.73077 c 5.04467,12.51467 11.85935,19.74354 22.22016,23.57065 10.80194,3.99006 11.30283,4.78629 11.30283,17.96754 0,13.98876 -1.36757,16.41344 -11.04733,19.58671 -10.50088,3.44245 -13.82191,6.42313 -19.13549,17.17442 -7.17974,14.5272 -7.27895,18.02316 -0.90321,31.82342 l 5.33472,11.54699 -10.22181,10.08132 -10.2218,10.08132 -13.07637,-6.11777 -13.07638,-6.11776 -11.45113,5.10244 c -6.29813,2.80633 -12.89132,6.23528 -14.65155,7.61988 -1.86807,1.46942 -4.99178,7.2334 -7.50347,13.84565 l -4.30305,11.3282 -13.49445,-0.0205 c -7.42194,-0.0107 -14.16031,-0.46318 -14.97414,-1.00424 z m 34.93365,-49.23801 c 11.61891,-3.02634 21.50082,-9.20257 32.9783,-20.61159 15.87502,-15.78032 22.5489,-31.84409 22.59033,-54.37401 0.0395,-21.46686 -7.22138,-38.81646 -22.67658,-54.18512 -15.39664,-15.31043 -33.09303,-22.71339 -54.29516,-22.71339 -21.60406,0 -37.16318,6.88411 -54.2657,24.00977 -12.38433,12.40109 -17.18173,20.42435 -20.84248,34.85742 -2.94326,11.60421 -1.96993,32.20336 2.06453,43.69278 8.31361,23.67569 29.82914,43.61643 53.15299,49.26256 10.66857,2.58261 31.49567,2.61366 41.29377,0.0616 z"
       id="path258"
       transform="matrix(7.5,0,0,-7.5,0,4760.0847)" />
    <path
       style="fill:#000080;stroke-width:12.2821"
       d="m 1616.8221,3866.3135 v 120.5085 h 893.7712 893.7712 V 3866.3135 3745.805 h -893.7712 -893.7712 z"
       id="path260" />
    <path
       style="fill:#d40000;stroke-width:7.5"
       d="m 3032.7966,743.13555 c 10.5039,52.5192 -10.5038,108.1587 0,160.67798 1.8569,9.28417 17.7884,10.89937 20.0848,20.0847 4.8712,19.48507 -4.357,40.64774 0,60.25425 16.5591,74.51602 39.2837,147.53542 60.2542,220.93222 8.2254,28.7885 34.2977,50.9798 40.1695,80.339 18.812,94.0597 18.3254,123.0984 60.2543,220.9322 45.6876,106.6045 103.9112,211.3099 140.5932,321.3559 69.5094,208.5285 144.9517,413.6809 220.9322,622.6272 29.116,80.0691 23.5484,187.6901 60.2542,261.1017 10.7952,21.5904 30.6607,38.067 40.1695,60.2541 13.4474,31.3774 4.818,69.8903 20.0847,100.4238 10.7953,21.5904 31.2046,37.8419 40.1696,60.2542 4.9728,12.4322 0,26.7797 0,40.1696 6.6948,13.3898 13.3898,26.7796 20.0847,40.1694"
       id="path684" />
    <path
       style="fill:#d40000;stroke-width:7.5"
       d="m 2811.8645,1305.5084 c 67.2812,109.8617 112.8622,221.9014 160.6778,341.4407 54.6453,136.6132 151.8938,277.4345 180.7628,421.7797 6.5649,32.8245 -4.734,67.2855 0,100.4237 5.0987,35.6908 33.0988,65.0707 40.1695,100.4237 11.2899,56.4496 -7.9766,124.926 0,180.7628 2.1171,14.8197 17.6236,25.4028 20.0848,40.1694 4.4025,26.4153 -5.252,54.0794 0,80.339 3.1443,15.7216 37.0251,64.6174 40.1694,80.339 5.252,26.2596 -11.9762,56.3865 0,80.339 8.4685,16.9369 29.6657,24.4137 40.1695,40.1694 11.141,16.7116 -6.3513,41.2002 0,60.2543 11.0244,33.0733 98.1156,158.3698 120.5085,180.7627"
       id="path686" />
    <path
       style="fill:#d40000;stroke-width:7.5"
       d="m 3555,964.0677 c 6.695,33.4746 10.7065,67.5998 20.0848,100.4238 12.3379,43.1828 43.5748,78.8098 60.2542,120.5084 41.9761,104.9403 69.7143,219.7677 120.5085,321.356 120.5928,241.1856 -31.7486,-86.3889 80.339,100.4237 31.6573,52.7623 12.678,105.695 40.1694,160.678 38.4451,76.8902 81.6982,163.3963 120.5086,241.0169 16.9292,33.8585 4.815,89.9691 20.0847,120.5085 14.499,28.9982 25.6703,51.3408 40.1694,80.339 7.9305,15.8609 -5.6461,43.3158 0,60.2542 15.3728,46.1182 40.1696,70.9516 40.1696,120.5085"
       id="path688" />
    <path
       style="fill:#d40000;stroke-width:7.5"
       d="m 2450.339,2209.322 c 101.474,75.2224 153.353,179.8176 220.9322,281.1864 23.7791,35.6687 61.1677,62.0811 80.339,100.4238 5.9881,11.9762 -5.9882,28.1932 0,40.1694 11.1243,22.2487 28.7702,83.3248 40.1695,100.4238 3.7137,5.5705 17.9676,-6.3513 20.0848,0 6.3512,19.054 0,40.1694 0,60.2542 13.3898,26.7797 30.7014,51.9349 40.1694,80.339 22.1807,66.542 -10.4772,210.455 40.1695,261.1017"
       id="path690" />
  </g>
</svg>
