<?xml version="1.0" encoding="UTF-8" standalone="no"?>
<svg
   version="1.0"
   width="474.000000pt"
   height="474.000000pt"
   viewBox="0 0 474.000000 474.000000"
   preserveAspectRatio="xMidYMid meet"
   id="svg8"
   sodipodi:docname="PlanificacionDeVenta.svg"
   inkscape:version="1.2 (dc2aedaf03, 2022-05-15)"
   xmlns:inkscape="http://www.inkscape.org/namespaces/inkscape"
   xmlns:sodipodi="http://sodipodi.sourceforge.net/DTD/sodipodi-0.dtd"
   xmlns="http://www.w3.org/2000/svg"
   xmlns:svg="http://www.w3.org/2000/svg"
   xmlns:rdf="http://www.w3.org/1999/02/22-rdf-syntax-ns#"
   xmlns:cc="http://creativecommons.org/ns#"
   xmlns:dc="http://purl.org/dc/elements/1.1/">
  <metadata
     id="metadata14">
    <rdf:RDF>
      <cc:Work
         rdf:about="">
        <dc:format>image/svg+xml</dc:format>
        <dc:type
           rdf:resource="http://purl.org/dc/dcmitype/StillImage" />
        <dc:title />
      </cc:Work>
    </rdf:RDF>
  </metadata>
  <defs
     id="defs12" />
  <sodipodi:namedview
     pagecolor="#ffffff"
     bordercolor="#666666"
     borderopacity="1"
     objecttolerance="10"
     gridtolerance="10"
     guidetolerance="10"
     inkscape:pageopacity="0"
     inkscape:pageshadow="2"
     inkscape:window-width="1920"
     inkscape:window-height="1009"
     id="namedview10"
     showgrid="false"
     inkscape:zoom="0.74683544"
     inkscape:cx="697.61017"
     inkscape:cy="495.42373"
     inkscape:window-x="1912"
     inkscape:window-y="-8"
     inkscape:window-maximized="1"
     inkscape:current-layer="g6"
     inkscape:showpageshadow="2"
     inkscape:pagecheckerboard="0"
     inkscape:deskcolor="#d1d1d1"
     inkscape:document-units="pt" />
  <g
     transform="matrix(0.1,0,0,-0.1,0,476.00847)"
     id="g6"
     style="fill:#000000;stroke:none">
    <path
       d="m 1505,4641 c -74,-18 -145,-78 -179,-151 -21,-45 -21,-53 -24,-1071 l -2,-1026 -72,-6 c -85,-7 -108,-25 -126,-94 -38,-141 -43,-153 -73,-169 -29,-15 -32,-14 -123,36 -142,76 -130,80 -323,-113 -194,-193 -190,-183 -112,-322 49,-87 50,-91 36,-121 -13,-27 -25,-34 -99,-54 -98,-27 -134,-44 -147,-68 -12,-22 -21,-440 -10,-469 12,-32 53,-54 154,-82 77,-22 89,-28 102,-55 14,-30 13,-34 -36,-123 -59,-106 -63,-137 -24,-184 55,-65 294,-294 316,-302 17,-6 46,4 126,43 90,45 108,51 135,43 29,-8 33,-15 61,-111 45,-153 32,-146 290,-150 183,-3 220,-1 249,13 38,18 38,18 76,145 l 25,85 53,3 c 44,3 64,-3 135,-38 93,-46 115,-45 172,10 l 31,30 1094,2 1095,3 40,22 c 61,33 123,106 138,163 4,14 7,731 7,1595 v 1570 l -462,463 c -255,255 -475,470 -490,478 -23,12 -174,14 -1015,13 -543,-1 -1001,-4 -1018,-8 z m 1907,-178 c 2,-5 1,-118 -2,-252 -4,-187 -8,-245 -18,-249 -10,-3 -10,-7 -2,-17 6,-8 10,-31 7,-52 l -4,-38 -1,43 c -1,23 -6,42 -12,42 -5,0 -10,9 -10,20 0,20 -7,20 -461,20 -304,0 -458,-3 -454,-10 3,-6 -4,-10 -17,-10 -18,0 -20,2 -8,10 10,7 -17,10 -85,10 -66,0 -105,-4 -113,-12 -15,-15 -17,-214 -3,-223 6,-3 276,-6 601,-6 h 590 l 24,-38 c 33,-51 102,-109 146,-121 19,-6 190,-11 380,-13 l 345,-2 V 2067 568 l -28,-24 -28,-24 h -975 c -536,0 -974,4 -974,8 0,5 9,17 20,27 10,9 24,32 30,50 13,39 4,65 -54,159 -39,64 -42,81 -25,119 9,20 28,29 93,47 106,29 141,46 155,76 7,16 11,100 11,239 0,264 3,257 -147,299 -142,40 -150,60 -79,184 55,95 62,121 43,158 -8,16 -83,95 -165,177 -180,176 -174,174 -313,98 -86,-48 -91,-49 -122,-36 -30,12 -34,21 -61,114 -37,128 -52,144 -146,149 l -70,4 v 1010 1010 l 29,29 29,29 h 936 c 514,0 936,-3 938,-7 z m 480,-420 c 159,-159 288,-291 288,-295 0,-5 -115,-8 -255,-8 -279,0 -306,5 -325,56 -12,29 -14,534 -3,534 5,0 137,-129 295,-287 z m -565,-80 c -20,-2 -52,-2 -70,0 -17,2 0,4 38,4 39,0 53,-2 32,-4 z m -322,-33 c -3,-5 -13,-10 -21,-10 -8,0 -14,-5 -14,-12 0,-6 -3,-8 -6,-5 -10,9 16,37 33,37 8,0 11,-4 8,-10 z m 275,-6 c 0,-2 -18,-4 -40,-4 -22,0 -40,3 -40,8 0,4 18,6 40,4 22,-2 40,-6 40,-8 z m 117,-126 c -3,-7 -5,-2 -5,12 0,14 2,19 5,13 2,-7 2,-19 0,-25 z m -550,-24 c -3,-3 -12,-4 -19,-1 -8,3 -5,6 6,6 11,1 17,-2 13,-5 z M 1546,2113 c 14,-49 33,-96 42,-105 19,-19 152,-77 194,-85 18,-4 52,8 115,41 l 88,46 87,-87 c 49,-48 88,-91 88,-96 0,-5 -18,-39 -39,-76 -57,-97 -58,-104 -16,-207 21,-49 44,-97 53,-107 8,-9 47,-26 86,-37 128,-37 117,-22 114,-161 -3,-139 4,-127 -108,-160 -41,-12 -83,-29 -92,-38 -17,-16 -88,-181 -88,-204 0,-7 21,-52 46,-101 l 46,-89 -90,-90 -90,-89 -84,46 c -47,25 -94,46 -105,46 -18,0 -105,-35 -183,-73 -26,-13 -48,-60 -76,-160 l -15,-57 h -117 c -64,0 -122,4 -129,8 -6,4 -23,45 -36,90 -13,46 -32,91 -43,101 -22,22 -181,91 -208,91 -11,0 -50,-18 -87,-39 -37,-22 -76,-42 -86,-45 -14,-4 -41,17 -107,83 l -88,88 42,74 c 52,92 58,123 32,180 -11,24 -28,64 -39,89 -11,25 -26,50 -34,57 -8,6 -53,23 -101,38 l -88,26 v 128 128 l 63,18 c 107,29 142,49 156,86 7,19 23,58 37,87 29,64 30,96 4,142 -11,19 -32,57 -46,84 l -26,49 90,90 90,89 84,-46 c 47,-25 96,-46 109,-46 28,0 174,62 201,84 10,9 30,56 45,106 l 27,90 h 127 128 z"
       id="path2"
       inkscape:connector-curvature="0" />
    <rect
       style="fill:#00ff00;fill-opacity:1;stroke:#000000;stroke-width:11.3373;stroke-miterlimit:4;stroke-dasharray:none;stroke-dashoffset:0;stroke-opacity:1"
       id="rect821"
       width="1781.1385"
       height="255.90977"
       x="1637.884"
       y="-3995.887"
       transform="scale(1,-1)" />
    <rect
       style="fill:#00ff00;fill-opacity:1;stroke:#000000;stroke-width:14.5723;stroke-miterlimit:4;stroke-dasharray:none;stroke-dashoffset:0;stroke-opacity:1"
       id="rect823"
       width="2575.7002"
       height="265.9545"
       x="1619.4167"
       y="-3412.4478"
       transform="scale(1,-1)" />
    <rect
       style="fill:#00ff00;fill-opacity:1;stroke:#000000;stroke-width:14.3567;stroke-miterlimit:4;stroke-dasharray:none;stroke-dashoffset:0;stroke-opacity:1"
       id="rect823-3"
       width="2596.0005"
       height="256.12766"
       x="1609.2667"
       y="-2830.3518"
       transform="scale(1,-1)" />
    <rect
       style="fill:#00ff00;fill-opacity:1;stroke:#000000;stroke-width:12.5042;stroke-miterlimit:4;stroke-dasharray:none;stroke-dashoffset:0;stroke-opacity:1"
       id="rect823-7"
       width="1955.141"
       height="257.98013"
       x="2281.1797"
       y="-2223.6514"
       transform="scale(1,-1)" />
    <rect
       style="fill:#00ff00;fill-opacity:1;stroke:#000000;stroke-width:10.7745;stroke-miterlimit:4;stroke-dasharray:none;stroke-dashoffset:0;stroke-opacity:1"
       id="rect823-7-1"
       width="1705.8114"
       height="219.54037"
       x="2531.3738"
       y="-1475.5328"
       transform="scale(1,-1)" />
    <path
       style="fill:#00ff00;stroke-width:2.67797"
       d="m 166.20383,584.30824 c -3.64823,-10.98381 -6.05401,-13.74133 -16.35465,-18.74576 -14.83553,-7.20766 -20.02764,-7.31209 -33.0572,-0.66491 l -10.19804,5.20265 -10.925309,-11.22808 -10.925315,-11.22807 5.049994,-9.37288 c 6.469262,-12.00708 6.481717,-18.16334 0.067,-33.12824 -4.635768,-10.8148 -6.620277,-12.55935 -18.07627,-15.89049 L 58.915252,485.5105 58.124191,469.28287 57.33313,453.05523 66.15809,451.2139 c 13.099845,-2.73329 20.3727,-8.31741 24.878788,-19.102 5.498924,-13.16078 5.065094,-21.41655 -1.700683,-32.36381 l -5.7316,-9.27392 10.970162,-10.97016 10.970163,-10.97016 13.36679,6.26067 13.36679,6.26067 12.86075,-5.23868 c 12.38297,-5.04406 18.75137,-12.77372 23.35765,-28.35041 1.11334,-3.76491 4.43831,-4.68644 16.90913,-4.68644 h 15.52327 l 4.63726,13.0565 c 4.16222,11.719 6.06466,13.67056 18.57137,19.0508 l 13.9341,5.99429 13.45874,-5.68615 13.45874,-5.68615 10.63339,10.63339 10.63339,10.6334 -6.16996,12.35415 c -6.02646,12.06683 -6.06426,12.63092 -1.62528,24.25422 5.70817,14.94664 9.66453,18.89207 22.92977,22.86643 l 10.59223,3.17351 v 15.71019 c 0,14.73024 -0.45936,15.87045 -7.3644,18.27938 -15.57057,5.43205 -20.21137,9.58606 -25.3075,22.65294 l -5.18855,13.30384 6.05313,12.9237 6.05314,12.9237 -10.78214,10.78213 -10.78214,10.78214 -11.19333,-5.83429 c -20.01498,-10.4324 -42.62844,-1.16497 -48.52215,19.88529 l -3.45873,12.35337 h -15.50455 -15.50454 z"
       id="path240"
       transform="matrix(7.5,0,0,-7.5,0,4760.0847)" />
  </g>
</svg>
