<?xml version="1.0" encoding="UTF-8" standalone="no"?> <svg xmlns="http://www.w3.org/2000/svg" viewBox="0 0 64 64"><defs><style>.cls-1{fill:red;}</style></defs><title>1</title><g id="Layer_71" data-name="Layer 71"><path d="M5.41,2.59A2,2,0,0,0,2.59,5.41l24,24a2,2,0,0,0,2.83-2.83Z"/><path d="M61.41,58.59l-24-24a2,2,0,0,0-2.83,2.83l24,24a2,2,0,0,0,2.83-2.83Z"/><path class="cls-1" d="M28,11.5a2,2,0,0,0-2,2V26H13.5a2,2,0,0,0,0,4H28a2,2,0,0,0,2-2V13.5A2,2,0,0,0,28,11.5Z"/><path class="cls-1" d="M50.5,34H36a2,2,0,0,0-2,2V50.5a2,2,0,0,0,4,0V38H50.5a2,2,0,0,0,0-4Z"/></g></svg>