<?xml version="1.0" encoding="UTF-8"?>
<!DOCTYPE svg PUBLIC "-//W3C//DTD SVG 1.1//EN" "http://www.w3.org/Graphics/SVG/1.1/DTD/svg11.dtd">
<svg xmlns="http://www.w3.org/2000/svg" version="1.1" width="362px" height="444px" style="shape-rendering:geometricPrecision; text-rendering:geometricPrecision; image-rendering:optimizeQuality; fill-rule:evenodd; clip-rule:evenodd" xmlns:xlink="http://www.w3.org/1999/xlink">
<g><path style="opacity:1" fill="#fefefe" d="M -0.5,-0.5 C 120.167,-0.5 240.833,-0.5 361.5,-0.5C 361.5,147.5 361.5,295.5 361.5,443.5C 240.833,443.5 120.167,443.5 -0.5,443.5C -0.5,322.833 -0.5,202.167 -0.5,81.5C 0.833333,80.8333 0.833333,80.1667 -0.5,79.5C -0.5,78.8333 -0.5,78.1667 -0.5,77.5C 0.833333,76.5 0.833333,75.5 -0.5,74.5C -0.5,62.8333 -0.5,51.1667 -0.5,39.5C 0.833333,38.8333 0.833333,38.1667 -0.5,37.5C -0.5,24.8333 -0.5,12.1667 -0.5,-0.5 Z"/></g>
<g><path style="opacity:1" fill="#000000" d="M 344.5,191.5 C 304.5,191.5 264.5,191.5 224.5,191.5C 224.5,232.167 224.5,272.833 224.5,313.5C 197.167,313.5 169.833,313.5 142.5,313.5C 142.5,272.833 142.5,232.167 142.5,191.5C 102.5,191.5 62.5,191.5 22.5,191.5C 75.7975,127.535 129.464,63.868 183.5,0.5C 237.536,63.868 291.202,127.535 344.5,191.5 Z"/></g>
<g><path style="opacity:1" fill="#a9a9a9" d="M 22.5,191.5 C 62.5,191.5 102.5,191.5 142.5,191.5C 142.5,232.167 142.5,272.833 142.5,313.5C 141.501,273.337 141.168,233.003 141.5,192.5C 101.094,192.833 61.4274,192.5 22.5,191.5 Z"/></g>
<g><path style="opacity:1" fill="#ababab" d="M 344.5,191.5 C 305.573,192.5 265.906,192.833 225.5,192.5C 225.832,233.003 225.499,273.337 224.5,313.5C 224.5,272.833 224.5,232.167 224.5,191.5C 264.5,191.5 304.5,191.5 344.5,191.5 Z"/></g>
<g><path style="opacity:1" fill="#000000" d="M 85.5,367.5 C 150.833,367.5 216.167,367.5 281.5,367.5C 281.5,388.833 281.5,410.167 281.5,431.5C 216.167,431.5 150.833,431.5 85.5,431.5C 85.5,410.167 85.5,388.833 85.5,367.5 Z"/></g>
</svg>
