<?xml version="1.0" encoding="UTF-8"?>
<!DOCTYPE svg PUBLIC "-//W3C//DTD SVG 1.1//EN" "http://www.w3.org/Graphics/SVG/1.1/DTD/svg11.dtd">
<svg xmlns="http://www.w3.org/2000/svg" version="1.1" width="209px" height="241px" style="shape-rendering:geometricPrecision; text-rendering:geometricPrecision; image-rendering:optimizeQuality; fill-rule:evenodd; clip-rule:evenodd" xmlns:xlink="http://www.w3.org/1999/xlink">
<g><path style="opacity:1" fill="#fdfdfd" d="M -0.5,-0.5 C 69.1667,-0.5 138.833,-0.5 208.5,-0.5C 208.5,79.8333 208.5,160.167 208.5,240.5C 138.833,240.5 69.1667,240.5 -0.5,240.5C -0.5,160.167 -0.5,79.8333 -0.5,-0.5 Z"/></g>
<g><path style="opacity:1" fill="#000000" d="M 96.5,12.5 C 98.8586,13.3887 99.0253,14.722 97,16.5C 96.51,15.2068 96.3433,13.8734 96.5,12.5 Z"/></g>
<g><path style="opacity:1" fill="#131313" d="M 130.5,13.5 C 129.909,14.1515 129.243,14.8182 128.5,15.5C 128.957,16.2975 129.624,16.6309 130.5,16.5C 129.791,17.404 128.791,17.7373 127.5,17.5C 127.338,15.4727 127.505,13.4727 128,11.5C 128.417,12.756 129.25,13.4226 130.5,13.5 Z"/></g>
<g><path style="opacity:1" fill="#161616" d="M 82.5,15.5 C 81.9569,15.44 81.6236,15.1067 81.5,14.5C 82.365,13.4173 83.365,13.2506 84.5,14C 83.5842,14.2784 82.9175,14.7784 82.5,15.5 Z"/></g>
<g><path style="opacity:1" fill="#020202" d="M 115.5,13.5 C 116.5,13.5 117.5,13.5 118.5,13.5C 118.657,14.8734 118.49,16.2068 118,17.5C 117.768,16.2625 117.268,15.2625 116.5,14.5C 115.833,14.5 115.5,14.1667 115.5,13.5 Z"/></g>
<g><path style="opacity:1" fill="#848484" d="M 130.5,16.5 C 129.624,16.6309 128.957,16.2975 128.5,15.5C 129.243,14.8182 129.909,14.1515 130.5,13.5C 132.245,10.597 133.245,10.9303 133.5,14.5C 133.453,17.2386 132.453,17.9053 130.5,16.5 Z"/></g>
<g><path style="opacity:1" fill="#2f2f2f" d="M 77.5,12.5 C 79.1852,13.1837 80.1852,14.517 80.5,16.5C 79.4425,16.9059 78.1092,16.9059 76.5,16.5C 76.4326,15.0413 76.7659,13.7079 77.5,12.5 Z"/></g>
<g><path style="opacity:1" fill="#4d4d4d" d="M 87.5,13.5 C 90.0618,14.3715 92.7284,14.3715 95.5,13.5C 95.5432,17.8926 95.0432,18.2259 94,14.5C 93.7508,15.624 93.2508,16.624 92.5,17.5C 91.4805,16.3128 90.3139,15.3128 89,14.5C 87.9125,16.9316 87.4125,16.5983 87.5,13.5 Z"/></g>
<g><path style="opacity:1" fill="#555555" d="M 100.5,13.5 C 103.861,14.2032 104.194,15.5365 101.5,17.5C 99.3576,16.5629 99.0243,15.2296 100.5,13.5 Z"/></g>
<g><path style="opacity:1" fill="#0e0e0e" d="M 106.5,13.5 C 107.552,13.3505 108.552,13.5172 109.5,14C 108.333,14.5 107.5,15.3333 107,16.5C 106.517,15.552 106.351,14.552 106.5,13.5 Z"/></g>
<g><path style="opacity:1" fill="#656565" d="M 115.5,13.5 C 115.5,14.1667 115.833,14.5 116.5,14.5C 116.719,15.675 116.386,16.675 115.5,17.5C 114.5,16.1667 113.5,16.1667 112.5,17.5C 110.889,16.6798 110.222,15.3464 110.5,13.5C 112.36,14.0715 114.027,14.0715 115.5,13.5 Z"/></g>
<g><path style="opacity:1" fill="#505050" d="M 119.5,12.5 C 122.34,12.807 123.174,14.1403 122,16.5C 122.75,15.8742 123.584,15.3742 124.5,15C 124.167,14.6667 123.833,14.3333 123.5,14C 124.448,13.5172 125.448,13.3505 126.5,13.5C 126.5,14.8333 126.5,16.1667 126.5,17.5C 124.473,17.6621 122.473,17.4955 120.5,17C 119.62,15.6439 119.286,14.1439 119.5,12.5 Z"/></g>
<g><path style="opacity:1" fill="#6c6c6c" d="M 134.5,13.5 C 137.5,13.1667 138.833,14.5 138.5,17.5C 135.5,17.8333 134.167,16.5 134.5,13.5 Z"/></g>
<g><path style="opacity:1" fill="#262626" d="M 82.5,15.5 C 84.9752,15.7467 84.9752,16.4134 82.5,17.5C 81.537,17.0302 81.537,16.3635 82.5,15.5 Z"/></g>
<g><path style="opacity:1" fill="#030303" d="M 12.5,27.5 C 74.7379,27.1688 136.905,27.5022 199,28.5C 202.583,44.9938 203.916,61.6605 203,78.5C 202.626,79.4162 202.126,80.2496 201.5,81C 198.331,81.9782 195.497,81.4782 193,79.5C 190.037,68.7354 184.87,59.2354 177.5,51C 169.6,45.8824 160.933,42.8824 151.5,42C 141.5,41.3333 131.5,41.3333 121.5,42C 120.584,42.3742 119.75,42.8742 119,43.5C 118.333,97.5 118.333,151.5 119,205.5C 120.406,210.573 123.572,214.073 128.5,216C 135.654,218.94 142.987,221.274 150.5,223C 151.683,225.155 151.35,227.155 149.5,229C 134.756,230.151 119.923,230.651 105,230.5C 90.5938,230.496 76.2605,230.163 62,229.5C 59.9833,226.873 60.1499,224.373 62.5,222C 69.9138,219.195 77.2471,216.195 84.5,213C 87.8071,210.222 89.9738,206.722 91,202.5C 91.6667,149.833 91.6667,97.1667 91,44.5C 90.5,43.3333 89.6667,42.5 88.5,42C 73.2098,40.4135 58.2098,41.7469 43.5,46C 28.9912,53.1914 19.4912,64.6914 15,80.5C 12.7155,83.925 9.88213,84.425 6.5,82C 5.19551,81.196 4.52884,80.0293 4.5,78.5C 5.76794,74.5295 6.93461,70.5295 8,66.5C 9.40759,54.2014 10.4076,41.868 11,29.5C 11.7172,28.9558 12.2172,28.2891 12.5,27.5 Z"/></g>
<g><path style="opacity:1" fill="#f5f5f5" d="M 139.5,31.5 C 139.784,33.4147 139.451,35.0813 138.5,36.5C 137.905,33.8875 137.071,33.8875 136,36.5C 135.333,34.8333 135.333,33.1667 136,31.5C 137.092,33.9312 138.259,33.9312 139.5,31.5 Z"/></g>
<g><path style="opacity:1" fill="#9a9a9a" d="M 139.5,31.5 C 141.042,32.3007 142.708,32.634 144.5,32.5C 144.5,33.8333 144.5,35.1667 144.5,36.5C 142.259,36.9539 140.259,36.9539 138.5,36.5C 139.451,35.0813 139.784,33.4147 139.5,31.5 Z"/></g>
<g><path style="opacity:1" fill="#838383" d="M 145.5,31.5 C 145.56,30.9569 145.893,30.6236 146.5,30.5C 147.548,31.548 148.548,32.548 149.5,33.5C 148.849,34.0906 148.182,34.7573 147.5,35.5C 146.828,34.0508 146.161,32.7175 145.5,31.5 Z"/></g>
<g><path style="opacity:1" fill="#bcbcbc" d="M 66.5,30.5 C 68.1321,31.4457 69.7988,32.4457 71.5,33.5C 72.7362,32.7542 74.0695,32.4208 75.5,32.5C 75.5,33.8333 75.5,35.1667 75.5,36.5C 69.012,36.1685 62.6786,36.1685 56.5,36.5C 56.5,34.8333 56.5,33.1667 56.5,31.5C 59.0444,31.1043 61.2111,31.771 63,33.5C 64.7286,33.0257 65.8953,32.0257 66.5,30.5 Z"/></g>
<g><path style="opacity:1" fill="#0d0d0d" d="M 58.5,32.5 C 60.4646,32.9483 60.7979,33.9483 59.5,35.5C 58.6143,34.675 58.281,33.675 58.5,32.5 Z"/></g>
<g><path style="opacity:1" fill="#cbcbcb" d="M 145.5,31.5 C 146.161,32.7175 146.828,34.0508 147.5,35.5C 148.182,34.7573 148.849,34.0906 149.5,33.5C 151.712,32.89 153.879,32.5567 156,32.5C 157.713,33.1374 157.879,34.1374 156.5,35.5C 152.742,35.9043 149.075,36.2377 145.5,36.5C 145.5,34.8333 145.5,33.1667 145.5,31.5 Z"/></g>
<g><path style="opacity:1" fill="#777777" d="M 154.5,59.5 C 154.5,60.5 154.5,61.5 154.5,62.5C 151.728,64.4338 149.895,63.7671 149,60.5C 148.517,61.448 148.351,62.448 148.5,63.5C 145.412,63.3614 142.745,62.3614 140.5,60.5C 142.65,59.3299 144.984,58.3299 147.5,57.5C 149.432,58.1455 150.599,59.4788 151,61.5C 151.667,58.8333 152.333,58.8333 153,61.5C 153.278,60.5842 153.778,59.9175 154.5,59.5 Z"/></g>
<g><path style="opacity:1" fill="#484848" d="M 58.5,57.5 C 60.7409,58.2998 61.7409,59.9664 61.5,62.5C 60.1779,62.33 59.0113,62.6634 58,63.5C 57.8195,61.5116 57.9862,59.5116 58.5,57.5 Z"/></g>
<g><path style="opacity:1" fill="#555555" d="M 72.5,61.5 C 72.5,60.8333 72.8333,60.5 73.5,60.5C 76.614,59.5809 79.9474,59.2476 83.5,59.5C 83.5,60.8333 83.5,62.1667 83.5,63.5C 81.0072,63.6709 79.1739,62.6709 78,60.5C 77.6758,62.5689 76.8425,62.9023 75.5,61.5C 74.12,63.9767 73.12,63.9767 72.5,61.5 Z"/></g>
<g><path style="opacity:1" fill="#282828" d="M 67.5,61.5 C 67.5654,61.9382 67.3988,62.2716 67,62.5C 65.6243,59.8753 64.4577,59.8753 63.5,62.5C 62.596,61.791 62.2627,60.791 62.5,59.5C 64.2624,59.6427 65.9291,59.3094 67.5,58.5C 68.5624,59.4246 68.5624,60.4246 67.5,61.5 Z"/></g>
<g><path style="opacity:1" fill="#4e4e4e" d="M 140.5,60.5 C 140.953,61.4584 141.619,62.2917 142.5,63C 142.167,63.1667 141.833,63.3333 141.5,63.5C 139.027,63.3926 136.693,63.0593 134.5,62.5C 135.645,56.7603 137.145,56.4269 139,61.5C 139.383,60.944 139.883,60.6107 140.5,60.5 Z"/></g>
<g><path style="opacity:1" fill="#828282" d="M 154.5,62.5 C 154.5,61.5 154.5,60.5 154.5,59.5C 157.106,58.7592 159.439,59.5925 161.5,62C 160.892,62.8699 160.059,63.3699 159,63.5C 157.402,63.0695 155.902,62.7362 154.5,62.5 Z"/></g>
<g><path style="opacity:1" fill="#a8a8a8" d="M 73.5,60.5 C 72.8333,60.5 72.5,60.8333 72.5,61.5C 69.6543,63.6335 66.6543,63.9668 63.5,62.5C 64.4577,59.8753 65.6243,59.8753 67,62.5C 67.3988,62.2716 67.5654,61.9382 67.5,61.5C 68.9432,60.6649 69.9432,59.3316 70.5,57.5C 71.8549,58.1882 72.8549,59.1882 73.5,60.5 Z"/></g>
<g><path style="opacity:1" fill="#515151" d="M 137.5,66.5 C 139.346,66.2222 140.68,66.8888 141.5,68.5C 138.03,74.0959 136.696,73.4292 137.5,66.5 Z"/></g>
<g><path style="opacity:1" fill="#2d2d2d" d="M 148.5,70.5 C 147.624,70.6309 146.957,70.2975 146.5,69.5C 148.808,68.1266 149.475,68.4599 148.5,70.5 Z"/></g>
<g><path style="opacity:1" fill="#757575" d="M 56.5,66.5 C 58.7224,66.178 60.5557,66.8446 62,68.5C 64.8268,68.7229 67.6601,68.0563 70.5,66.5C 71.8333,68.5 71.8333,70.5 70.5,72.5C 67.6711,71.4991 64.6711,71.4991 61.5,72.5C 61.1782,69.188 59.8449,69.188 57.5,72.5C 56.5344,70.604 56.2011,68.604 56.5,66.5 Z"/></g>
<g><path style="opacity:1" fill="#6b6b6b" d="M 152.5,68.5 C 155.272,69.3715 157.938,69.3715 160.5,68.5C 160.5,69.8333 160.5,71.1667 160.5,72.5C 158.61,72.7035 157.11,72.0368 156,70.5C 153.987,72.7508 152.82,72.0841 152.5,68.5 Z"/></g>
<g><path style="opacity:1" fill="#252525" d="M 76.5,68.5 C 77.8333,68.5 79.1667,68.5 80.5,68.5C 80.6713,71.7973 80.0046,72.1306 78.5,69.5C 76.9954,72.1306 76.3287,71.7973 76.5,68.5 Z"/></g>
<g><path style="opacity:1" fill="#282828" d="M 133.5,67.5 C 136.061,70.7749 135.394,71.6082 131.5,70C 132.756,69.5831 133.423,68.7498 133.5,67.5 Z"/></g>
<g><path style="opacity:1" fill="#515151" d="M 74.5,68.5 C 75.7965,69.8488 75.6298,71.1821 74,72.5C 73.805,71.1807 73.9717,69.8474 74.5,68.5 Z"/></g>
<g><path style="opacity:1" fill="#474747" d="M 142.5,68.5 C 143.5,68.5 144.5,68.5 145.5,68.5C 145.5,69.8333 145.5,71.1667 145.5,72.5C 144.5,72.5 143.5,72.5 142.5,72.5C 142.5,71.1667 142.5,69.8333 142.5,68.5 Z"/></g>
<g><path style="opacity:1" fill="#515151" d="M 148.5,70.5 C 149.043,70.56 149.376,70.8933 149.5,71.5C 148.635,72.5827 147.635,72.7494 146.5,72C 147.416,71.7216 148.082,71.2216 148.5,70.5 Z"/></g>
<g><path style="opacity:1" fill="#0b0b0b" d="M 59.5,78.5 C 60.2679,77.7375 60.7679,76.7375 61,75.5C 61.7975,77.2588 61.6309,78.9255 60.5,80.5C 59.7025,80.0431 59.3691,79.3764 59.5,78.5 Z"/></g>
<g><path style="opacity:1" fill="#636363" d="M 59.5,78.5 C 58.8485,79.0906 58.1818,79.7573 57.5,80.5C 56.1667,78.8333 56.1667,77.1667 57.5,75.5C 58.9185,76.0047 59.5852,77.0047 59.5,78.5 Z"/></g>
<g><path style="opacity:1" fill="#1b1b1b" d="M 130.5,78.5 C 133.775,78.2328 134.608,79.2328 133,81.5C 132.667,80.8333 132.333,80.1667 132,79.5C 131.79,81.0581 131.29,82.3915 130.5,83.5C 130.5,81.8333 130.5,80.1667 130.5,78.5 Z"/></g>
<g><path style="opacity:1" fill="#101010" d="M 139.5,78.5 C 140.289,78.7828 140.956,79.2828 141.5,80C 140.888,81.3033 140.554,82.4699 140.5,83.5C 139.548,81.9547 139.215,80.288 139.5,78.5 Z"/></g>
<g><path style="opacity:1" fill="#575757" d="M 145.5,78.5 C 146.613,79.9464 146.78,81.6131 146,83.5C 145.389,79.7279 144.389,79.7279 143,83.5C 142.51,82.2068 142.343,80.8734 142.5,79.5C 143.791,79.7373 144.791,79.404 145.5,78.5 Z"/></g>
<g><path style="opacity:1" fill="#5c5c5c" d="M 159.5,79.5 C 160.833,79.5 162.167,79.5 163.5,79.5C 163.543,83.8926 163.043,84.2259 162,80.5C 160.059,84.5537 159.225,84.2203 159.5,79.5 Z"/></g>
<g><path style="opacity:1" fill="#3e3e3e" d="M 173.5,78.5 C 174.94,79.3629 176.274,79.3629 177.5,78.5C 178.833,80.1667 178.833,81.8333 177.5,83.5C 175.793,79.8642 174.626,79.8642 174,83.5C 173.506,81.8659 173.34,80.1992 173.5,78.5 Z"/></g>
<g><path style="opacity:1" fill="#8a8a8a" d="M 67.5,75.5 C 68.4584,75.9528 69.2917,76.6195 70,77.5C 72.9461,76.2434 74.2794,77.2434 74,80.5C 72.1114,81.0974 70.2781,81.4307 68.5,81.5C 67.7492,80.624 67.2492,79.624 67,78.5C 66.5756,80.6145 65.4089,81.4479 63.5,81C 62.4829,79.9505 62.3162,78.7839 63,77.5C 64,76.1667 65,76.1667 66,77.5C 66.7172,76.9558 67.2172,76.2891 67.5,75.5 Z"/></g>
<g><path style="opacity:1" fill="#838383" d="M 130.5,78.5 C 130.5,80.1667 130.5,81.8333 130.5,83.5C 129.238,80.9292 127.905,80.9292 126.5,83.5C 125.713,82.7579 125.047,81.9246 124.5,81C 126.845,80.7635 128.845,79.9302 130.5,78.5 Z"/></g>
<g><path style="opacity:1" fill="#686868" d="M 148.5,79.5 C 151.914,80.2466 155.247,80.2466 158.5,79.5C 158.5,80.8333 158.5,82.1667 158.5,83.5C 156.669,82.9478 155.003,82.9478 153.5,83.5C 152.459,81.0087 151.626,81.0087 151,83.5C 150.333,79.5 149.667,79.5 149,83.5C 148.51,82.2068 148.343,80.8734 148.5,79.5 Z"/></g>
<g><path style="opacity:1" fill="#626262" d="M 183.5,78.5 C 185.017,78.5106 186.184,79.1772 187,80.5C 189.658,79.306 190.824,80.306 190.5,83.5C 188.167,82.1667 185.833,82.1667 183.5,83.5C 183.5,81.8333 183.5,80.1667 183.5,78.5 Z"/></g>
<g><path style="opacity:1" fill="#393939" d="M 135.5,80.5 C 137.817,79.4655 138.817,80.4655 138.5,83.5C 137.022,83.762 135.689,83.4287 134.5,82.5C 135.025,81.8076 135.692,81.3076 136.5,81C 136.272,80.6012 135.938,80.4346 135.5,80.5 Z"/></g>
<g><path style="opacity:1" fill="#131313" d="M 166.5,80.5 C 167.741,82.9312 168.908,82.9312 170,80.5C 170.483,81.448 170.649,82.448 170.5,83.5C 169.167,83.5 167.833,83.5 166.5,83.5C 166.5,82.5 166.5,81.5 166.5,80.5 Z"/></g>
<g><path style="opacity:1" fill="#303030" d="M 179.5,79.5 C 180.675,79.281 181.675,79.6143 182.5,80.5C 181.833,80.8333 181.167,81.1667 180.5,81.5C 183.131,83.0046 182.797,83.6713 179.5,83.5C 179.5,82.1667 179.5,80.8333 179.5,79.5 Z"/></g>
<g><path style="opacity:1" fill="#474747" d="M 22.5,156.5 C 23.8734,156.343 25.2068,156.51 26.5,157C 23.8333,157.667 23.8333,158.333 26.5,159C 23.4034,162.33 22.07,161.496 22.5,156.5 Z"/></g>
<g><path style="opacity:1" fill="#373737" d="M 27.5,158.5 C 28.8333,158.5 30.1667,158.5 31.5,158.5C 31.6713,161.797 31.0046,162.131 29.5,159.5C 27.9954,162.131 27.3287,161.797 27.5,158.5 Z"/></g>
<g><path style="opacity:1" fill="#777777" d="M 45.5,156.5 C 46.6129,157.946 46.7796,159.613 46,161.5C 45.6667,160.833 45.3333,160.167 45,159.5C 43.5347,161.915 41.368,162.915 38.5,162.5C 38.3433,161.127 38.51,159.793 39,158.5C 39.3333,158.833 39.6667,159.167 40,159.5C 42.3258,159.12 44.1591,158.12 45.5,156.5 Z"/></g>
<g><path style="opacity:1" fill="#707070" d="M 52.5,157.5 C 53.5,157.5 54.5,157.5 55.5,157.5C 55.8841,159.665 55.2174,161.332 53.5,162.5C 51.556,161.811 49.556,161.311 47.5,161C 49.0293,158.264 50.5293,158.098 52,160.5C 52.4828,159.552 52.6495,158.552 52.5,157.5 Z"/></g>
<g><path style="opacity:1" fill="#3e3e3e" d="M 31.5,165.5 C 34.5983,165.413 34.9316,165.913 32.5,167C 35.165,169.711 34.4984,170.711 30.5,170C 32.9913,169.374 32.9913,168.541 30.5,167.5C 30.8627,166.817 31.1961,166.15 31.5,165.5 Z"/></g>
<g><path style="opacity:1" fill="#979797" d="M 35.5,170.5 C 36.397,169.402 37.2303,169.402 38,170.5C 38.4828,169.552 38.6495,168.552 38.5,167.5C 39.1515,166.909 39.8182,166.243 40.5,165.5C 41.4656,167.396 41.7989,169.396 41.5,171.5C 39.2646,171.795 37.2646,171.461 35.5,170.5 Z"/></g>
<g><path style="opacity:1" fill="#5e5e5e" d="M 46.5,165.5 C 47.6491,165.791 48.3158,166.624 48.5,168C 48.1667,168.833 47.8333,169.667 47.5,170.5C 47.1667,169.833 46.8333,169.167 46.5,168.5C 45.8076,169.025 45.3076,169.692 45,170.5C 44.3872,168.505 44.8872,166.838 46.5,165.5 Z"/></g>
<g><path style="opacity:1" fill="#2f2f2f" d="M 38.5,167.5 C 38.6495,168.552 38.4828,169.552 38,170.5C 37.2303,169.402 36.397,169.402 35.5,170.5C 35.8102,168.856 36.8102,167.856 38.5,167.5 Z"/></g>
<g><path style="opacity:1" fill="#323232" d="M 51.5,167.5 C 52.5735,168.251 52.7401,169.251 52,170.5C 51.3333,169.167 50.6667,169.167 50,170.5C 49.7613,169.212 50.2613,168.212 51.5,167.5 Z"/></g>
<g><path style="opacity:1" fill="#858585" d="M 53.5,167.5 C 55.9118,167.694 56.9118,169.027 56.5,171.5C 55.5,171.5 54.5,171.5 53.5,171.5C 53.5,170.167 53.5,168.833 53.5,167.5 Z"/></g>
</svg>
