<?xml version="1.0" encoding="UTF-8" standalone="no"?> <svg xmlns="http://www.w3.org/2000/svg" viewBox="0 0 60 60"><defs><style>.a,.b{fill:none;stroke-linecap:round;stroke-linejoin:round;stroke-width:1.5px;}.a{stroke:#1c4db8;}.b{stroke:#e82e5f;}.c{fill:#e82e5f;}</style></defs><title>137-justice</title><polyline class="a" points="20.823 28.826 23.248 38.594 20.488 42.171"/><polyline class="a" points="18.09 42.171 15.33 38.594 17.754 28.832"/><path class="a" d="M22.047,25.6v.931a2.763,2.763,0,0,1-5.526,0V25.6"/><line class="b" x1="41.498" y1="50.101" x2="41.498" y2="30.33"/><path class="c" d="M43.824,28a2.326,2.326,0,1,1-4.652,0,14.506,14.506,0,0,1,1.637-4.141.776.776,0,0,1,1.378,0A14.531,14.531,0,0,1,43.824,28Z"/><line class="b" x1="27.542" y1="33.431" x2="55.454" y2="33.431"/><line class="b" x1="30.643" y1="33.431" x2="30.643" y2="41.185"/><path class="c" d="M36.015,41.185a.777.777,0,0,1,.768.885,6.2,6.2,0,0,1-12.28,0,.775.775,0,0,1,.769-.885Z"/><line class="b" x1="52.352" y1="33.431" x2="52.352" y2="41.185"/><path class="c" d="M46.6,41.185a.437.437,0,0,0-.435.468,6.2,6.2,0,0,0,12.325.417.775.775,0,0,0-.768-.885Z"/><path class="a" d="M22.245,25.533A17.7,17.7,0,0,1,26.8,26.947"/><path class="a" d="M16.312,25.537A17.818,17.818,0,0,0,1.5,42.2"/><line class="a" x1="9.876" y1="35.386" x2="9.876" y2="42.171"/><circle class="a" cx="19.289" cy="15.609" r="10.362"/><path class="a" d="M26.858,8.548A10.352,10.352,0,0,0,8.927,15.609c0,.311.02.616.046.92a14.679,14.679,0,0,0,6.4.571A14.736,14.736,0,0,0,26.858,8.548Z"/><path class="c" d="M48.911,53.732a.776.776,0,0,1-.736,1.021H34.82a.775.775,0,0,1-.735-1.021l.72-2.16A2.151,2.151,0,0,1,36.846,50.1h9.3a2.151,2.151,0,0,1,2.042,1.471Z"/></svg>