<?xml version="1.0" encoding="UTF-8" standalone="no"?>
<svg
   xmlns:dc="http://purl.org/dc/elements/1.1/"
   xmlns:cc="http://creativecommons.org/ns#"
   xmlns:rdf="http://www.w3.org/1999/02/22-rdf-syntax-ns#"
   xmlns:svg="http://www.w3.org/2000/svg"
   xmlns="http://www.w3.org/2000/svg"
   xmlns:sodipodi="http://sodipodi.sourceforge.net/DTD/sodipodi-0.dtd"
   xmlns:inkscape="http://www.inkscape.org/namespaces/inkscape"
   inkscape:version="1.0 (4035a4fb49, 2020-05-01)"
   sodipodi:docname="puestoDeTrabajo.svg"
   version="1.1"
   width="512"
   viewBox="0 0 512 512"
   height="512"
   enable-background="new 0 0 512 512"
   id="Capa_1">
  <metadata
     id="metadata67">
    <rdf:RDF>
      <cc:Work
         rdf:about="">
        <dc:format>image/svg+xml</dc:format>
        <dc:type
           rdf:resource="http://purl.org/dc/dcmitype/StillImage" />
        <dc:title></dc:title>
      </cc:Work>
    </rdf:RDF>
  </metadata>
  <defs
     id="defs65" />
  <sodipodi:namedview
     inkscape:current-layer="Capa_1"
     inkscape:window-maximized="1"
     inkscape:window-y="-8"
     inkscape:window-x="1358"
     inkscape:cy="273.39783"
     inkscape:cx="144.7674"
     inkscape:zoom="1.1739077"
     showgrid="false"
     id="namedview63"
     inkscape:window-height="1017"
     inkscape:window-width="1920"
     inkscape:pageshadow="2"
     inkscape:pageopacity="0"
     guidetolerance="10"
     gridtolerance="10"
     objecttolerance="10"
     borderopacity="1"
     bordercolor="#666666"
     pagecolor="#ffffff" />
  <path
     id="path83"
     d="M 95.652662,431.87701 C 108.186,373.33119 104.6814,342.1487 82.329582,313.33362 35.806446,253.35781 24.592348,182.4034 52.32187,123.46726 71.857444,81.946474 90.831082,62.879286 130.50718,44.89647 c 41.86763,-18.976102 77.68792,-17.500579 120.46426,4.962213 43.69592,22.945681 65.7614,54.735927 78.73215,113.431257 5.38983,24.39011 14.91707,59.71735 21.17163,78.50497 14.40324,43.2648 14.28329,51.91315 -0.72007,51.91315 -8.69838,0 -12.80053,13.3495 -14.61659,47.56635 l -2.52458,47.56637 -37.58552,4.53013 c -35.34048,4.25953 -38.04768,6.55957 -45.32284,38.5061 l -7.73732,33.97597 H 165.37374 88.379182 Z M 194.99805,262.26164 c 5.60745,-7.32925 18.28296,-12.42564 28.16779,-11.32533 13.91851,1.54933 18.0133,-2.95303 18.15362,-19.96056 0.0996,-12.07864 4.79786,-23.63047 10.44042,-25.67074 13.25566,-4.79306 13.20656,-31.61934 -0.0843,-46.03665 -5.68892,-6.1711 -10.38711,-18.19858 -10.44043,-26.72776 -0.0602,-9.62639 -8.01592,-16.69718 -20.97777,-18.6443 -11.48446,-1.7252 -23.88653,-8.86014 -27.56012,-15.855464 -8.64993,-16.471244 -27.83553,-16.34701 -33.69552,0.21817 -2.51706,7.115324 -15.13448,14.250284 -28.03871,15.855464 -18.96058,2.35853 -22.959,6.84168 -20.83947,23.36587 1.56564,12.20605 -2.64237,22.63904 -10.440418,25.88506 -16.66589,6.93736 -16.73614,25.15436 -0.15461,40.08222 7.099738,6.39168 11.081708,16.78561 8.848818,23.09761 -4.94982,13.99229 16.07746,34.62377 27.49002,26.97259 4.51964,-3.03003 13.14102,0.54099 19.15865,7.93563 14.05891,17.27604 27.16988,17.54112 39.97195,0.80817 z m -45.87699,-68.69997 c -7.70211,-26.32399 13.01407,-48.79601 37.28124,-40.44109 13.64995,4.69951 17.48655,12.19533 15.54795,30.37703 -3.46299,32.47852 -44.01089,40.20297 -52.82919,10.06406 z m 229.83078,-49.9359 c -11.48445,-6.82095 -21.20545,-15.5947 -21.60221,-19.49725 -0.39674,-3.90254 -3.19759,-13.21119 -6.22409,-20.68591 -7.75877,-19.162214 6.73462,-68.476051 19.212,-65.368979 5.70495,1.420627 15.61485,-2.136433 22.02199,-7.904575 8.84722,-7.964884 14.57491,-7.853731 23.81196,0.462099 6.68945,6.022301 16.11239,8.301664 20.93985,5.065253 4.82746,-3.23641 10.90429,1.508986 13.50409,10.545328 2.59977,9.036339 8.04274,23.216973 12.09547,31.512525 4.96393,10.160717 3.43213,18.626685 -4.69392,25.942299 -6.63437,5.97272 -10.1851,14.15465 -7.8905,18.18207 3.12417,5.48345 -45.24142,39.72535 -49.48893,35.0372 -0.44267,-0.48859 -10.20124,-6.46912 -21.68571,-13.29006 z m 45.93788,-58.303671 c 0,-16.604994 -5.02593,-23.424822 -18.83011,-25.551175 -11.2947,-1.739796 -20.84398,2.792361 -23.86254,11.325328 -8.31616,23.508384 3.33996,42.938238 23.86254,39.777018 13.80418,-2.12636 18.83011,-8.94618 18.83011,-25.551171 z"
     style="fill:#000000;stroke-width:8.69911" />
</svg>
