<?xml version="1.0" encoding="UTF-8"?>
<!DOCTYPE svg PUBLIC "-//W3C//DTD SVG 1.1//EN" "http://www.w3.org/Graphics/SVG/1.1/DTD/svg11.dtd">
<svg xmlns="http://www.w3.org/2000/svg" version="1.1" width="269px" height="255px" style="shape-rendering:geometricPrecision; text-rendering:geometricPrecision; image-rendering:optimizeQuality; fill-rule:evenodd; clip-rule:evenodd" xmlns:xlink="http://www.w3.org/1999/xlink">
<g><path style="opacity:1" fill="#fefcfc" d="M -0.5,-0.5 C 36.5,-0.5 73.5,-0.5 110.5,-0.5C 110.389,0.117425 110.056,0.617425 109.5,1C 101.244,1.4792 93.5776,3.64586 86.5,7.5C 74.7075,12.416 63.7075,18.916 53.5,27C 51.244,29.0829 49.244,31.2496 47.5,33.5C 44.6814,35.7393 41.8481,38.0726 39,40.5C 37.5787,42.4048 36.412,44.4048 35.5,46.5C 33.2729,47.4006 32.2729,49.0672 32.5,51.5C 27.0356,56.8681 23.0356,63.2014 20.5,70.5C 18.4552,73.5788 16.6219,76.9121 15,80.5C 10.5006,95.0048 7.66731,109.838 6.5,125C 7.0402,134.095 8.37353,142.929 10.5,151.5C 10.2069,154.754 10.8736,157.754 12.5,160.5C 16.2943,175.423 22.7943,189.09 32,201.5C 47.7204,221.694 67.5537,236.527 91.5,246C 104.341,250.199 117.341,253.032 130.5,254.5C 86.8333,254.5 43.1667,254.5 -0.5,254.5C -0.5,169.5 -0.5,84.5 -0.5,-0.5 Z"/></g>
<g><path style="opacity:1" fill="#fefcfc" d="M 159.5,-0.5 C 195.833,-0.5 232.167,-0.5 268.5,-0.5C 268.5,84.5 268.5,169.5 268.5,254.5C 226.167,254.5 183.833,254.5 141.5,254.5C 195.84,248.27 233.674,220.27 255,170.5C 260.63,156.387 263.13,141.72 262.5,126.5C 262.5,126.167 262.5,125.833 262.5,125.5C 262.5,124.833 262.5,124.167 262.5,123.5C 262.961,110.813 261.128,98.4794 257,86.5C 253.591,79.3942 250.591,72.0609 248,64.5C 246.303,61.98 244.47,59.6467 242.5,57.5C 242.723,54.8858 241.556,53.2191 239,52.5C 237.372,50.3466 236.039,48.0132 235,45.5C 230.991,41.6575 227.157,37.6575 223.5,33.5C 217.356,28.1975 211.022,23.0308 204.5,18C 201.936,16.6039 199.269,15.4373 196.5,14.5C 192.037,10.389 186.704,7.88898 180.5,7C 179.833,6.33333 179.167,5.66667 178.5,5C 172.036,3.21684 165.703,1.38351 159.5,-0.5 Z"/></g>
<g><path style="opacity:1" fill="#c72d28" d="M 110.5,-0.5 C 126.833,-0.5 143.167,-0.5 159.5,-0.5C 165.703,1.38351 172.036,3.21684 178.5,5C 179.167,5.66667 179.833,6.33333 180.5,7C 186.704,7.88898 192.037,10.389 196.5,14.5C 191.941,14.0562 187.941,12.2229 184.5,9C 182.167,8.33333 179.833,8.33333 177.5,9C 179.388,10.6995 181.388,11.1995 183.5,10.5C 185.033,13.2585 187.033,15.5918 189.5,17.5C 189.167,17.5 188.833,17.5 188.5,17.5C 184.28,15.2229 179.947,13.2229 175.5,11.5C 173.967,9.75488 171.967,8.75488 169.5,8.5C 169.167,8.5 168.833,8.5 168.5,8.5C 166.898,6.92606 164.898,6.25939 162.5,6.5C 159.193,5.9492 155.86,5.61587 152.5,5.5C 136.69,2.4737 121.024,3.14037 105.5,7.5C 103.139,7.67412 100.806,8.00745 98.5,8.5C 100.967,6.53719 103.967,5.37053 107.5,5C 106.127,4.12515 104.627,3.62515 103,3.5C 97.5919,5.06173 92.0919,6.39507 86.5,7.5C 93.5776,3.64586 101.244,1.4792 109.5,1C 110.056,0.617425 110.389,0.117425 110.5,-0.5 Z"/></g>
<g><path style="opacity:1" fill="#fccdbc" d="M 152.5,5.5 C 141.828,5.3335 131.161,5.50016 120.5,6C 119.069,6.46524 117.903,7.29857 117,8.5C 116.311,7.64332 115.478,6.97665 114.5,6.5C 111.579,7.40661 108.579,7.73994 105.5,7.5C 121.024,3.14037 136.69,2.4737 152.5,5.5 Z"/></g>
<g><path style="opacity:1" fill="#d76f5c" d="M 162.5,6.5 C 164.898,6.25939 166.898,6.92606 168.5,8.5C 167.833,8.5 167.167,8.5 166.5,8.5C 164.847,8.3404 163.514,7.67373 162.5,6.5 Z"/></g>
<g><path style="opacity:1" fill="#fadec3" d="M 152.5,5.5 C 155.86,5.61587 159.193,5.9492 162.5,6.5C 163.514,7.67373 164.847,8.3404 166.5,8.5C 162.127,10.4478 157.294,11.4478 152,11.5C 137.227,11.1724 122.394,11.1724 107.5,11.5C 104.777,11.4289 103.777,10.4289 104.5,8.5C 105.167,8.5 105.5,8.16667 105.5,7.5C 108.579,7.73994 111.579,7.40661 114.5,6.5C 115.478,6.97665 116.311,7.64332 117,8.5C 117.903,7.29857 119.069,6.46524 120.5,6C 131.161,5.50016 141.828,5.3335 152.5,5.5 Z"/></g>
<g><path style="opacity:1" fill="#e7917f" d="M 169.5,8.5 C 171.967,8.75488 173.967,9.75488 175.5,11.5C 173.033,11.2451 171.033,10.2451 169.5,8.5 Z"/></g>
<g><path style="opacity:1" fill="#d1362c" d="M 98.5,8.5 C 95.3707,9.89879 92.3707,11.5655 89.5,13.5C 86.5152,14.3257 83.8485,15.659 81.5,17.5C 78.2189,18.794 75.5523,20.794 73.5,23.5C 71.5,24.8333 69.8333,26.5 68.5,28.5C 65.6356,30.0233 63.969,32.3567 63.5,35.5C 62.1302,37.2504 61.1302,39.2504 60.5,41.5C 59.8333,41.5 59.5,41.8333 59.5,42.5C 58.596,43.209 58.2627,44.209 58.5,45.5C 58.1667,45.5 57.8333,45.5 57.5,45.5C 59.1848,40.2214 61.1848,35.0547 63.5,30C 62.6633,28.413 61.3299,27.5796 59.5,27.5C 57.8653,28.0463 56.1986,28.3796 54.5,28.5C 54.7163,30.6807 53.883,32.3474 52,33.5C 51.6667,32.8333 51.3333,32.1667 51,31.5C 49.8873,32.305 48.7206,32.9717 47.5,33.5C 49.244,31.2496 51.244,29.0829 53.5,27C 63.7075,18.916 74.7075,12.416 86.5,7.5C 92.0919,6.39507 97.5919,5.06173 103,3.5C 104.627,3.62515 106.127,4.12515 107.5,5C 103.967,5.37053 100.967,6.53719 98.5,8.5 Z"/></g>
<g><path style="opacity:1" fill="#f9cdb3" d="M 104.5,8.5 C 103.777,10.4289 104.777,11.4289 107.5,11.5C 122.394,11.1724 137.227,11.1724 152,11.5C 157.294,11.4478 162.127,10.4478 166.5,8.5C 167.167,8.5 167.833,8.5 168.5,8.5C 168.833,8.5 169.167,8.5 169.5,8.5C 171.033,10.2451 173.033,11.2451 175.5,11.5C 175.881,12.9311 176.881,13.7645 178.5,14C 176.756,15.341 174.923,16.5077 173,17.5C 156.086,16.3115 139.086,16.3115 122,17.5C 117.185,16.7106 112.352,16.044 107.5,15.5C 102.68,17.2916 97.68,17.4583 92.5,16C 91.3777,14.3866 91.8777,13.2199 94,12.5C 96.6944,15.3783 98.1944,14.7117 98.5,10.5C 100.45,9.62791 102.45,8.96124 104.5,8.5 Z"/></g>
<g><path style="opacity:1" fill="#f5c1a6" d="M 105.5,7.5 C 105.5,8.16667 105.167,8.5 104.5,8.5C 102.45,8.96124 100.45,9.62791 98.5,10.5C 98.1944,14.7117 96.6944,15.3783 94,12.5C 91.8777,13.2199 91.3777,14.3866 92.5,16C 97.68,17.4583 102.68,17.2916 107.5,15.5C 112.352,16.044 117.185,16.7106 122,17.5C 139.086,16.3115 156.086,16.3115 173,17.5C 174.923,16.5077 176.756,15.341 178.5,14C 176.881,13.7645 175.881,12.9311 175.5,11.5C 179.947,13.2229 184.28,15.2229 188.5,17.5C 188.751,19.1703 189.418,20.6703 190.5,22C 189.207,22.49 187.873,22.6567 186.5,22.5C 185.129,21.2132 183.295,20.5465 181,20.5C 174.145,21.7603 167.311,21.5936 160.5,20C 135.928,19.8282 111.428,19.3282 87,18.5C 86.237,21.0635 85.737,21.0635 85.5,18.5C 86.9059,16.8223 88.2392,15.1557 89.5,13.5C 92.3707,11.5655 95.3707,9.89879 98.5,8.5C 100.806,8.00745 103.139,7.67412 105.5,7.5 Z"/></g>
<g><path style="opacity:1" fill="#f6b79b" d="M 89.5,13.5 C 88.2392,15.1557 86.9059,16.8223 85.5,18.5C 85.737,21.0635 86.237,21.0635 87,18.5C 111.428,19.3282 135.928,19.8282 160.5,20C 167.311,21.5936 174.145,21.7603 181,20.5C 183.295,20.5465 185.129,21.2132 186.5,22.5C 151.352,22.8807 116.019,22.8807 80.5,22.5C 81.3007,20.9582 81.634,19.2915 81.5,17.5C 83.8485,15.659 86.5152,14.3257 89.5,13.5 Z"/></g>
<g><path style="opacity:1" fill="#f3b190" d="M 188.5,17.5 C 188.833,17.5 189.167,17.5 189.5,17.5C 191.46,19.1563 193.46,20.823 195.5,22.5C 196.167,24.5 196.833,26.5 197.5,28.5C 195.532,26.2684 193.365,24.9351 191,24.5C 186.307,25.7492 181.473,26.4159 176.5,26.5C 144.466,25.1933 112.466,24.8599 80.5,25.5C 80.5,24.5 80.5,23.5 80.5,22.5C 116.019,22.8807 151.352,22.8807 186.5,22.5C 187.873,22.6567 189.207,22.49 190.5,22C 189.418,20.6703 188.751,19.1703 188.5,17.5 Z"/></g>
<g><path style="opacity:1" fill="#f0a785" d="M 81.5,17.5 C 81.634,19.2915 81.3007,20.9582 80.5,22.5C 80.5,23.5 80.5,24.5 80.5,25.5C 112.466,24.8599 144.466,25.1933 176.5,26.5C 181.473,26.4159 186.307,25.7492 191,24.5C 193.365,24.9351 195.532,26.2684 197.5,28.5C 197.082,29.2216 196.416,29.7216 195.5,30C 188,30.1667 180.5,30.3333 173,30.5C 156.298,29.6799 139.631,29.3465 123,29.5C 120.865,30.1271 118.698,30.6271 116.5,31C 102.967,31.1929 89.4674,31.6929 76,32.5C 74.5,31 73,29.5 71.5,28C 72.4138,26.5936 73.0805,25.0936 73.5,23.5C 75.5523,20.794 78.2189,18.794 81.5,17.5 Z"/></g>
<g><path style="opacity:1" fill="#f09b7c" d="M 195.5,22.5 C 197.167,23.5 198.5,24.8333 199.5,26.5C 199.586,27.4959 199.252,28.3292 198.5,29C 201.876,29.3071 203.21,31.1405 202.5,34.5C 179.426,34.1218 156.259,34.1218 133,34.5C 112.117,34.4942 91.4499,33.8275 71,32.5C 70.6322,33.91 69.7989,34.91 68.5,35.5C 67.4249,33.1889 67.4249,30.8555 68.5,28.5C 69.8333,26.5 71.5,24.8333 73.5,23.5C 73.0805,25.0936 72.4138,26.5936 71.5,28C 73,29.5 74.5,31 76,32.5C 89.4674,31.6929 102.967,31.1929 116.5,31C 118.698,30.6271 120.865,30.1271 123,29.5C 139.631,29.3465 156.298,29.6799 173,30.5C 180.5,30.3333 188,30.1667 195.5,30C 196.416,29.7216 197.082,29.2216 197.5,28.5C 196.833,26.5 196.167,24.5 195.5,22.5 Z"/></g>
<g><path style="opacity:1" fill="#ee8e6e" d="M 199.5,26.5 C 201.167,27.5 202.5,28.8333 203.5,30.5C 204.535,32.205 204.535,33.8716 203.5,35.5C 206.824,36.1592 208.157,38.1592 207.5,41.5C 188.819,40.9991 170.152,40.9991 151.5,41.5C 148.713,41.4262 146.213,40.7595 144,39.5C 142.36,41.9234 140.027,42.9234 137,42.5C 131.727,42.6012 131.393,41.9345 136,40.5C 141.923,41.4152 141.923,41.0819 136,39.5C 132.613,39.9107 129.28,40.5774 126,41.5C 105.228,40.9618 84.3946,40.6284 63.5,40.5C 63.5,38.8333 63.5,37.1667 63.5,35.5C 63.969,32.3567 65.6356,30.0233 68.5,28.5C 67.4249,30.8555 67.4249,33.1889 68.5,35.5C 69.7989,34.91 70.6322,33.91 71,32.5C 91.4499,33.8275 112.117,34.4942 133,34.5C 156.259,34.1218 179.426,34.1218 202.5,34.5C 203.21,31.1405 201.876,29.3071 198.5,29C 199.252,28.3292 199.586,27.4959 199.5,26.5 Z"/></g>
<g><path style="opacity:1" fill="#ea8162" d="M 203.5,30.5 C 205.664,32.822 207.331,35.4887 208.5,38.5C 210.097,41.3188 210.597,44.3188 210,47.5C 209.25,48.1258 208.416,48.6258 207.5,49C 190.51,49.1537 173.676,49.3204 157,49.5C 154.913,48.6028 152.746,47.9361 150.5,47.5C 139.558,41.8518 128.891,42.1852 118.5,48.5C 99.5746,49.7117 80.2412,49.7117 60.5,48.5C 60.5,46.1667 60.5,43.8333 60.5,41.5C 61.1302,39.2504 62.1302,37.2504 63.5,35.5C 63.5,37.1667 63.5,38.8333 63.5,40.5C 84.3946,40.6284 105.228,40.9618 126,41.5C 129.28,40.5774 132.613,39.9107 136,39.5C 141.923,41.0819 141.923,41.4152 136,40.5C 131.393,41.9345 131.727,42.6012 137,42.5C 140.027,42.9234 142.36,41.9234 144,39.5C 146.213,40.7595 148.713,41.4262 151.5,41.5C 170.152,40.9991 188.819,40.9991 207.5,41.5C 208.157,38.1592 206.824,36.1592 203.5,35.5C 204.535,33.8716 204.535,32.205 203.5,30.5 Z"/></g>
<g><path style="opacity:1" fill="#e77255" d="M 60.5,41.5 C 60.5,43.8333 60.5,46.1667 60.5,48.5C 80.2412,49.7117 99.5746,49.7117 118.5,48.5C 117.833,49.8333 116.833,50.8333 115.5,51.5C 98.5296,52.7647 81.1963,53.7647 63.5,54.5C 62.5,53.8333 61.5,53.1667 60.5,52.5C 59.513,49.2317 59.1796,45.8984 59.5,42.5C 59.5,41.8333 59.8333,41.5 60.5,41.5 Z"/></g>
<g><path style="opacity:1" fill="#fefcfc" d="M 150.5,57.5 C 151.109,74.3144 151.776,90.981 152.5,107.5C 167.837,107.333 183.17,107.5 198.5,108C 202.309,109.22 205.309,111.387 207.5,114.5C 209.775,120.979 210.108,127.646 208.5,134.5C 207.811,137.189 206.144,138.856 203.5,139.5C 201.011,139.298 198.677,139.798 196.5,141C 181.661,141.169 166.994,141.669 152.5,142.5C 151.669,158.328 151.169,174.328 151,190.5C 149.732,192.812 148.565,195.146 147.5,197.5C 140.18,202.203 132.513,202.703 124.5,199C 122.641,197.442 121.141,195.609 120,193.5C 118.543,176.57 118.043,159.57 118.5,142.5C 103.5,142.5 88.5,142.5 73.5,142.5C 69.9368,141.718 66.6035,140.384 63.5,138.5C 63.5,137.833 63.1667,137.5 62.5,137.5C 59.5743,131.22 58.741,124.553 60,117.5C 60.6622,116.016 61.4955,114.683 62.5,113.5C 63.1667,113.5 63.5,113.167 63.5,112.5C 64.922,111.075 66.5887,110.075 68.5,109.5C 84.9811,108.892 101.314,108.225 117.5,107.5C 117.833,107.5 118.167,107.5 118.5,107.5C 119.331,93.0057 119.831,78.3391 120,63.5C 120.201,60.2472 121.034,57.2472 122.5,54.5C 123.673,52.4959 125.34,50.9959 127.5,50C 132.167,49.3333 136.833,49.3333 141.5,50C 145.354,51.5777 148.354,54.0777 150.5,57.5 Z"/></g>
<g><path style="opacity:1" fill="#e96f51" d="M 208.5,38.5 C 210.982,40.5027 211.982,43.1694 211.5,46.5C 212.663,52.3007 210.496,55.9674 205,57.5C 199.001,55.6947 192.834,54.6947 186.5,54.5C 176.574,55.9757 166.907,56.9757 157.5,57.5C 157.5,56.8333 157.167,56.5 156.5,56.5C 155.255,53.0127 153.255,50.0127 150.5,47.5C 152.746,47.9361 154.913,48.6028 157,49.5C 173.676,49.3204 190.51,49.1537 207.5,49C 208.416,48.6258 209.25,48.1258 210,47.5C 210.597,44.3188 210.097,41.3188 208.5,38.5 Z"/></g>
<g><path style="opacity:1" fill="#e9694e" d="M 59.5,42.5 C 59.1796,45.8984 59.513,49.2317 60.5,52.5C 61.5,53.1667 62.5,53.8333 63.5,54.5C 81.1963,53.7647 98.5296,52.7647 115.5,51.5C 115.267,53.0618 114.6,54.3951 113.5,55.5C 105.208,56.3332 96.5409,57.3332 87.5,58.5C 79.8126,57.8663 72.1459,57.1996 64.5,56.5C 63.914,56.7093 63.414,57.0426 63,57.5C 61.6667,56.1667 60.3333,54.8333 59,53.5C 58.5026,50.854 58.3359,48.1873 58.5,45.5C 58.2627,44.209 58.596,43.209 59.5,42.5 Z"/></g>
<g><path style="opacity:1" fill="#9a1714" d="M 150.5,47.5 C 153.255,50.0127 155.255,53.0127 156.5,56.5C 156.631,57.2389 156.464,57.9056 156,58.5C 154.647,57.3147 153.48,55.9814 152.5,54.5C 152.167,54.6667 151.833,54.8333 151.5,55C 152.191,56.0674 152.691,57.2341 153,58.5C 153.5,70.8288 153.667,83.1622 153.5,95.5C 153.5,98.8333 153.5,102.167 153.5,105.5C 153.5,106.167 153.167,106.5 152.5,106.5C 152.667,91.163 152.5,75.8297 152,60.5C 151.768,59.2625 151.268,58.2625 150.5,57.5C 148.354,54.0777 145.354,51.5777 141.5,50C 136.833,49.3333 132.167,49.3333 127.5,50C 125.34,50.9959 123.673,52.4959 122.5,54.5C 120.178,55.8021 118.845,57.8021 118.5,60.5C 117.504,75.6576 117.17,90.9909 117.5,106.5C 102.657,106.171 87.9905,106.504 73.5,107.5C 71.4471,107.402 69.7804,108.069 68.5,109.5C 66.5887,110.075 64.922,111.075 63.5,112.5C 63.5271,110.801 64.1938,109.467 65.5,108.5C 68.1931,107.448 70.8598,106.448 73.5,105.5C 87.8333,105.5 102.167,105.5 116.5,105.5C 116.667,91.1628 116.5,76.8295 116,62.5C 113.825,66.0974 112.658,65.4308 112.5,60.5C 112.366,58.7085 112.699,57.0418 113.5,55.5C 114.6,54.3951 115.267,53.0618 115.5,51.5C 116.833,50.8333 117.833,49.8333 118.5,48.5C 128.891,42.1852 139.558,41.8518 150.5,47.5 Z"/></g>
<g><path style="opacity:1" fill="#e55f44" d="M 57.5,45.5 C 57.8333,45.5 58.1667,45.5 58.5,45.5C 58.3359,48.1873 58.5026,50.854 59,53.5C 60.3333,54.8333 61.6667,56.1667 63,57.5C 63.414,57.0426 63.914,56.7093 64.5,56.5C 72.1459,57.1996 79.8126,57.8663 87.5,58.5C 96.5409,57.3332 105.208,56.3332 113.5,55.5C 112.699,57.0418 112.366,58.7085 112.5,60.5C 111.662,60.8417 111.328,61.5084 111.5,62.5C 110.698,63.9516 110.198,65.6183 110,67.5C 109.311,66.6433 108.478,65.9767 107.5,65.5C 104.89,66.1161 102.223,66.4495 99.5,66.5C 87.5081,65.8279 75.5081,65.3279 63.5,65C 60.6193,63.7494 58.786,61.5827 58,58.5C 57.501,54.1794 57.3343,49.8461 57.5,45.5 Z"/></g>
<g><path style="opacity:1" fill="#e65e44" d="M 211.5,46.5 C 212.841,52.4508 212.508,58.4508 210.5,64.5C 209.279,65.0283 208.113,65.695 207,66.5C 200.417,65.5309 193.75,64.8642 187,64.5C 180.527,65.0766 174.36,65.41 168.5,65.5C 166.407,65.5142 164.574,64.8476 163,63.5C 161.184,64.7432 159.684,64.4099 158.5,62.5C 158.634,60.7085 158.301,59.0418 157.5,57.5C 166.907,56.9757 176.574,55.9757 186.5,54.5C 192.834,54.6947 199.001,55.6947 205,57.5C 210.496,55.9674 212.663,52.3007 211.5,46.5 Z"/></g>
<g><path style="opacity:1" fill="#df4131" d="M 196.5,14.5 C 199.269,15.4373 201.936,16.6039 204.5,18C 211.022,23.0308 217.356,28.1975 223.5,33.5C 223.666,36.1684 224.666,38.5017 226.5,40.5C 225.975,41.1924 225.308,41.6924 224.5,42C 225.357,42.6891 226.023,43.5224 226.5,44.5C 225.263,45.2807 224.263,46.2807 223.5,47.5C 225.5,48.8333 227.167,50.5 228.5,52.5C 227.787,54.7759 227.287,57.1093 227,59.5C 225.992,59.9817 224.825,60.1484 223.5,60C 226.474,63.7049 226.808,67.5382 224.5,71.5C 225.81,85.3821 225.81,99.2154 224.5,113C 225.5,114.667 226.5,116.333 227.5,118C 229.382,118.198 231.048,118.698 232.5,119.5C 227.504,119.742 222.671,119.075 218,117.5C 217.667,117.833 217.333,118.167 217,118.5C 215.455,113.319 213.455,108.319 211,103.5C 209.951,104.517 208.784,104.684 207.5,104C 209.754,103.376 211.421,102.043 212.5,100C 210.734,91.6414 210.067,83.1414 210.5,74.5C 206.379,72.5574 203.046,73.3907 200.5,77C 196.736,78.7662 192.903,78.9328 189,77.5C 186.277,78.6098 183.444,79.2765 180.5,79.5C 176.182,78.6305 171.849,78.4639 167.5,79C 166.244,79.4169 165.577,80.2502 165.5,81.5C 164.064,81.6776 162.564,82.0109 161,82.5C 159.989,81.9444 159.156,81.2778 158.5,80.5C 158.5,79.5 158.5,78.5 158.5,77.5C 158.5,76.1667 158.5,74.8333 158.5,73.5C 159.75,73.4226 160.583,72.756 161,71.5C 162,71.8333 163,72.1667 164,72.5C 164.333,71.8333 164.667,71.1667 165,70.5C 168.686,70.908 172.519,70.908 176.5,70.5C 178.432,71.3661 180.432,72.0328 182.5,72.5C 190.094,72.2855 197.761,71.7855 205.5,71C 207.406,68.9385 209.073,66.7718 210.5,64.5C 212.508,58.4508 212.841,52.4508 211.5,46.5C 211.982,43.1694 210.982,40.5027 208.5,38.5C 207.331,35.4887 205.664,32.822 203.5,30.5C 202.5,28.8333 201.167,27.5 199.5,26.5C 198.5,24.8333 197.167,23.5 195.5,22.5C 193.46,20.823 191.46,19.1563 189.5,17.5C 187.033,15.5918 185.033,13.2585 183.5,10.5C 181.388,11.1995 179.388,10.6995 177.5,9C 179.833,8.33333 182.167,8.33333 184.5,9C 187.941,12.2229 191.941,14.0562 196.5,14.5 Z"/></g>
<g><path style="opacity:1" fill="#e5503a" d="M 158.5,62.5 C 159.684,64.4099 161.184,64.7432 163,63.5C 164.574,64.8476 166.407,65.5142 168.5,65.5C 174.36,65.41 180.527,65.0766 187,64.5C 193.75,64.8642 200.417,65.5309 207,66.5C 208.113,65.695 209.279,65.0283 210.5,64.5C 209.073,66.7718 207.406,68.9385 205.5,71C 197.761,71.7855 190.094,72.2855 182.5,72.5C 180.432,72.0328 178.432,71.3661 176.5,70.5C 172.519,70.908 168.686,70.908 165,70.5C 164.667,71.1667 164.333,71.8333 164,72.5C 163,72.1667 162,71.8333 161,71.5C 160.583,72.756 159.75,73.4226 158.5,73.5C 158.5,69.8333 158.5,66.1667 158.5,62.5 Z"/></g>
<g><path style="opacity:1" fill="#e44c38" d="M 223.5,33.5 C 227.157,37.6575 230.991,41.6575 235,45.5C 236.039,48.0132 237.372,50.3466 239,52.5C 241.556,53.2191 242.723,54.8858 242.5,57.5C 244.226,62.9431 245.892,68.4431 247.5,74C 244.844,86.6143 243.177,99.4476 242.5,112.5C 245.5,112.833 247.167,114.5 247.5,117.5C 245.326,117.08 243.326,117.08 241.5,117.5C 246.928,118.27 251.928,120.103 256.5,123C 258.473,123.495 260.473,123.662 262.5,123.5C 262.5,124.167 262.5,124.833 262.5,125.5C 261.5,125.5 260.5,125.5 259.5,125.5C 257.626,124.715 255.626,124.048 253.5,123.5C 250.689,122.525 247.689,121.858 244.5,121.5C 243.791,120.596 242.791,120.263 241.5,120.5C 238.713,119.523 235.713,119.19 232.5,119.5C 231.048,118.698 229.382,118.198 227.5,118C 226.5,116.333 225.5,114.667 224.5,113C 225.81,99.2154 225.81,85.3821 224.5,71.5C 226.808,67.5382 226.474,63.7049 223.5,60C 224.825,60.1484 225.992,59.9817 227,59.5C 227.287,57.1093 227.787,54.7759 228.5,52.5C 227.167,50.5 225.5,48.8333 223.5,47.5C 224.263,46.2807 225.263,45.2807 226.5,44.5C 226.023,43.5224 225.357,42.6891 224.5,42C 225.308,41.6924 225.975,41.1924 226.5,40.5C 224.666,38.5017 223.666,36.1684 223.5,33.5 Z"/></g>
<g><path style="opacity:1" fill="#db3a2c" d="M 232.5,119.5 C 235.713,119.19 238.713,119.523 241.5,120.5C 235.5,120.833 229.5,121.167 223.5,121.5C 222.833,132.167 222.167,132.167 221.5,121.5C 220.178,121.33 219.011,121.663 218,122.5C 214.444,119.677 212.277,116.011 211.5,111.5C 207.988,109.883 205.322,107.383 203.5,104C 202.552,103.517 201.552,103.351 200.5,103.5C 199.587,101.438 198.087,101.105 196,102.5C 193.541,101.25 191.041,100.083 188.5,99C 189.167,95 189.833,91 190.5,87C 194.559,85.8944 197.725,87.0611 200,90.5C 199.245,87.9749 198.411,85.3082 197.5,82.5C 186.539,81.5766 175.873,81.2432 165.5,81.5C 165.577,80.2502 166.244,79.4169 167.5,79C 171.849,78.4639 176.182,78.6305 180.5,79.5C 183.444,79.2765 186.277,78.6098 189,77.5C 192.903,78.9328 196.736,78.7662 200.5,77C 203.046,73.3907 206.379,72.5574 210.5,74.5C 210.067,83.1414 210.734,91.6414 212.5,100C 211.421,102.043 209.754,103.376 207.5,104C 208.784,104.684 209.951,104.517 211,103.5C 213.455,108.319 215.455,113.319 217,118.5C 217.333,118.167 217.667,117.833 218,117.5C 222.671,119.075 227.504,119.742 232.5,119.5 Z"/></g>
<g><path style="opacity:1" fill="#e8543e" d="M 242.5,57.5 C 244.47,59.6467 246.303,61.98 248,64.5C 250.591,72.0609 253.591,79.3942 257,86.5C 261.128,98.4794 262.961,110.813 262.5,123.5C 260.473,123.662 258.473,123.495 256.5,123C 251.928,120.103 246.928,118.27 241.5,117.5C 243.326,117.08 245.326,117.08 247.5,117.5C 247.167,114.5 245.5,112.833 242.5,112.5C 243.177,99.4476 244.844,86.6143 247.5,74C 245.892,68.4431 244.226,62.9431 242.5,57.5 Z"/></g>
<g><path style="opacity:1" fill="#fde2e0" d="M 122.5,54.5 C 121.034,57.2472 120.201,60.2472 120,63.5C 119.831,78.3391 119.331,93.0057 118.5,107.5C 118.5,91.8333 118.5,76.1667 118.5,60.5C 118.845,57.8021 120.178,55.8021 122.5,54.5 Z"/></g>
<g><path style="opacity:1" fill="#d48d8e" d="M 150.5,57.5 C 151.268,58.2625 151.768,59.2625 152,60.5C 152.5,75.8297 152.667,91.163 152.5,106.5C 152.5,106.833 152.5,107.167 152.5,107.5C 151.776,90.981 151.109,74.3144 150.5,57.5 Z"/></g>
<g><path style="opacity:1" fill="#d73028" d="M 111.5,80.5 C 112.757,87.8267 113.09,95.1601 112.5,102.5C 109.756,103.491 107.089,103.157 104.5,101.5C 102.78,102.934 100.78,103.767 98.5,104C 89.9899,104.171 81.6566,104.671 73.5,105.5C 70.8598,106.448 68.1931,107.448 65.5,108.5C 64.0582,107.18 63.3915,105.514 63.5,103.5C 65.4286,103.769 67.0953,103.269 68.5,102C 66.835,100.342 65.1683,98.675 63.5,97C 63.7995,94.9757 64.6329,94.4757 66,95.5C 66.4599,90.7714 66.2932,86.2714 65.5,82C 66.5505,80.6152 67.8839,79.6152 69.5,79C 68.8333,78.6667 68.1667,78.3333 67.5,78C 75.3725,78.4305 83.3725,78.2638 91.5,77.5C 97.3161,79.4013 103.149,79.7346 109,78.5C 109.708,79.3805 110.542,80.0472 111.5,80.5 Z"/></g>
<g><path style="opacity:1" fill="#e02826" d="M 79.5,85.5 C 89.3194,84.506 99.3194,84.1726 109.5,84.5C 110.229,89.1304 110.563,93.7971 110.5,98.5C 107.42,97.3042 104.587,97.3042 102,98.5C 96.2801,96.1821 90.4467,94.1821 84.5,92.5C 84.313,90.4357 83.813,88.4357 83,86.5C 81.9887,85.6634 80.8221,85.33 79.5,85.5 Z"/></g>
<g><path style="opacity:1" fill="#b4201d" d="M 156.5,56.5 C 157.167,56.5 157.5,56.8333 157.5,57.5C 158.301,59.0418 158.634,60.7085 158.5,62.5C 158.5,66.1667 158.5,69.8333 158.5,73.5C 158.5,74.8333 158.5,76.1667 158.5,77.5C 157.017,83.541 155.35,89.541 153.5,95.5C 153.667,83.1622 153.5,70.8288 153,58.5C 152.691,57.2341 152.191,56.0674 151.5,55C 151.833,54.8333 152.167,54.6667 152.5,54.5C 153.48,55.9814 154.647,57.3147 156,58.5C 156.464,57.9056 156.631,57.2389 156.5,56.5 Z"/></g>
<g><path style="opacity:1" fill="#d72e28" d="M 158.5,80.5 C 159.156,81.2778 159.989,81.9444 161,82.5C 162.564,82.0109 164.064,81.6776 165.5,81.5C 175.873,81.2432 186.539,81.5766 197.5,82.5C 198.411,85.3082 199.245,87.9749 200,90.5C 197.725,87.0611 194.559,85.8944 190.5,87C 189.833,91 189.167,95 188.5,99C 191.041,100.083 193.541,101.25 196,102.5C 198.087,101.105 199.587,101.438 200.5,103.5C 186.14,104.742 171.807,104.742 157.5,103.5C 157.167,102.167 156.833,100.833 156.5,99.5C 157.314,93.1751 157.981,86.8417 158.5,80.5 Z"/></g>
<g><path style="opacity:1" fill="#de2626" d="M 160.5,86.5 C 165.631,86.4643 170.965,86.6309 176.5,87C 178.596,88.7658 180.929,90.0991 183.5,91C 181.947,92.0968 180.614,93.4301 179.5,95C 173.954,95.4139 168.621,96.5806 163.5,98.5C 161.68,98.3507 160.18,97.6841 159,96.5C 158.037,92.8513 158.537,89.518 160.5,86.5 Z"/></g>
<g><path style="opacity:1" fill="#e75a45" d="M 20.5,70.5 C 17.523,80.2092 15.3563,90.2092 14,100.5C 12.6322,103.186 11.2989,105.853 10,108.5C 9.39798,115.66 8.89798,122.826 8.5,130C 9.24933,137.162 9.916,144.329 10.5,151.5C 8.37353,142.929 7.0402,134.095 6.5,125C 7.66731,109.838 10.5006,95.0048 15,80.5C 16.6219,76.9121 18.4552,73.5788 20.5,70.5 Z"/></g>
<g><path style="opacity:1" fill="#e54e37" d="M 26.5,136.5 C 26.5,134.167 26.5,131.833 26.5,129.5C 24.1432,129.663 21.8098,129.497 19.5,129C 19.9574,128.586 20.2907,128.086 20.5,127.5C 19.0967,122.608 18.4301,117.608 18.5,112.5C 19.8333,112.5 21.1667,112.5 22.5,112.5C 23.1779,120.113 25.0112,120.113 28,112.5C 28.4955,110.527 28.6621,108.527 28.5,106.5C 23.637,106.108 22.4703,103.774 25,99.5C 30.8607,97.1005 33.0274,92.7672 31.5,86.5C 30.5,86.5 29.5,86.5 28.5,86.5C 28.5,83.5 28.5,80.5 28.5,77.5C 29.5,77.5 30.5,77.5 31.5,77.5C 32.0271,74.7686 32.8604,72.1019 34,69.5C 35.0113,68.6634 36.1779,68.33 37.5,68.5C 37.6641,65.8127 37.4974,63.146 37,60.5C 35.5354,61.3685 34.3687,60.8685 33.5,59C 31.8769,57.1237 32.2102,55.7904 34.5,55C 33.0267,54.2904 32.3601,53.1238 32.5,51.5C 32.2729,49.0672 33.2729,47.4006 35.5,46.5C 38.6267,45.3127 39.2934,46.3127 37.5,49.5C 40.3102,51.4302 40.9768,53.9302 39.5,57C 40.0223,57.9503 40.689,58.7836 41.5,59.5C 39.5626,66.1077 38.5626,72.941 38.5,80C 38.6048,82.8653 38.9382,85.6986 39.5,88.5C 36.675,91.4952 34.0083,94.6619 31.5,98C 35.161,104.501 33.9944,110.334 28,115.5C 27.5983,116.872 27.0983,118.205 26.5,119.5C 30.4327,125.311 30.4327,130.977 26.5,136.5 Z"/></g>
<g><path style="opacity:1" fill="#c02924" d="M 112.5,60.5 C 112.658,65.4308 113.825,66.0974 116,62.5C 116.5,76.8295 116.667,91.1628 116.5,105.5C 102.167,105.5 87.8333,105.5 73.5,105.5C 81.6566,104.671 89.9899,104.171 98.5,104C 100.78,103.767 102.78,102.934 104.5,101.5C 107.089,103.157 109.756,103.491 112.5,102.5C 113.09,95.1601 112.757,87.8267 111.5,80.5C 111.5,74.5 111.5,68.5 111.5,62.5C 111.328,61.5084 111.662,60.8417 112.5,60.5 Z"/></g>
<g><path style="opacity:1" fill="#ea573e" d="M 32.5,51.5 C 32.3601,53.1238 33.0267,54.2904 34.5,55C 32.2102,55.7904 31.8769,57.1237 33.5,59C 34.3687,60.8685 35.5354,61.3685 37,60.5C 37.4974,63.146 37.6641,65.8127 37.5,68.5C 36.1779,68.33 35.0113,68.6634 34,69.5C 32.8604,72.1019 32.0271,74.7686 31.5,77.5C 30.5,77.5 29.5,77.5 28.5,77.5C 28.5,80.5 28.5,83.5 28.5,86.5C 29.5,86.5 30.5,86.5 31.5,86.5C 33.0274,92.7672 30.8607,97.1005 25,99.5C 22.4703,103.774 23.637,106.108 28.5,106.5C 28.6621,108.527 28.4955,110.527 28,112.5C 25.0112,120.113 23.1779,120.113 22.5,112.5C 21.1667,112.5 19.8333,112.5 18.5,112.5C 18.4301,117.608 19.0967,122.608 20.5,127.5C 20.2907,128.086 19.9574,128.586 19.5,129C 21.8098,129.497 24.1432,129.663 26.5,129.5C 26.5,131.833 26.5,134.167 26.5,136.5C 25.7784,136.918 25.2784,137.584 25,138.5C 22.4869,134.827 18.9869,133.161 14.5,133.5C 14.2865,135.144 14.6198,136.644 15.5,138C 14.062,138.219 12.7287,138.719 11.5,139.5C 13.6917,139.927 16.1917,140.594 19,141.5C 19.1575,143.995 19.3241,146.328 19.5,148.5C 11.2652,154.523 12.5985,157.023 23.5,156C 25.3937,157.079 25.727,158.413 24.5,160C 25.5,160.333 26.5,160.667 27.5,161C 26.5842,161.278 25.9175,161.778 25.5,162.5C 22.8333,162.167 20.1667,161.833 17.5,161.5C 16.1667,161.167 14.8333,160.833 13.5,160.5C 13.1667,160.5 12.8333,160.5 12.5,160.5C 10.8736,157.754 10.2069,154.754 10.5,151.5C 9.916,144.329 9.24933,137.162 8.5,130C 8.89798,122.826 9.39798,115.66 10,108.5C 11.2989,105.853 12.6322,103.186 14,100.5C 15.3563,90.2092 17.523,80.2092 20.5,70.5C 23.0356,63.2014 27.0356,56.8681 32.5,51.5 Z"/></g>
<g><path style="opacity:1" fill="#af3232" d="M 153.5,105.5 C 170.223,105.059 186.89,105.559 203.5,107C 206,109.833 208.5,112.667 211,115.5C 212.252,118.014 212.752,120.68 212.5,123.5C 212.81,126.713 212.477,129.713 211.5,132.5C 211.815,128.629 211.482,124.962 210.5,121.5C 211.092,118.369 210.092,116.036 207.5,114.5C 205.309,111.387 202.309,109.22 198.5,108C 183.17,107.5 167.837,107.333 152.5,107.5C 152.5,107.167 152.5,106.833 152.5,106.5C 153.167,106.5 153.5,106.167 153.5,105.5 Z"/></g>
<g><path style="opacity:1" fill="#bb555b" d="M 118.5,60.5 C 118.5,76.1667 118.5,91.8333 118.5,107.5C 118.167,107.5 117.833,107.5 117.5,107.5C 102.833,107.5 88.1667,107.5 73.5,107.5C 87.9905,106.504 102.657,106.171 117.5,106.5C 117.17,90.9909 117.504,75.6576 118.5,60.5 Z"/></g>
<g><path style="opacity:1" fill="#fbcccd" d="M 73.5,107.5 C 88.1667,107.5 102.833,107.5 117.5,107.5C 101.314,108.225 84.9811,108.892 68.5,109.5C 69.7804,108.069 71.4471,107.402 73.5,107.5 Z"/></g>
<g><path style="opacity:1" fill="#cc302a" d="M 158.5,77.5 C 158.5,78.5 158.5,79.5 158.5,80.5C 157.981,86.8417 157.314,93.1751 156.5,99.5C 156.833,100.833 157.167,102.167 157.5,103.5C 171.807,104.742 186.14,104.742 200.5,103.5C 201.552,103.351 202.552,103.517 203.5,104C 205.322,107.383 207.988,109.883 211.5,111.5C 212.277,116.011 214.444,119.677 218,122.5C 219.011,121.663 220.178,121.33 221.5,121.5C 222.167,132.167 222.833,132.167 223.5,121.5C 229.5,121.167 235.5,120.833 241.5,120.5C 242.791,120.263 243.791,120.596 244.5,121.5C 243.391,121.557 242.391,121.89 241.5,122.5C 240.603,123.598 239.77,123.598 239,122.5C 238.402,126.057 237.569,129.557 236.5,133C 237.443,136.708 236.777,140.208 234.5,143.5C 235.506,149.31 234.506,154.81 231.5,160C 232.38,161.356 232.714,162.856 232.5,164.5C 231.5,164.5 230.5,164.5 229.5,164.5C 229.657,165.873 229.49,167.207 229,168.5C 225.138,172.921 222.305,177.921 220.5,183.5C 219.675,184.386 218.675,184.719 217.5,184.5C 217.462,188.723 215.462,191.556 211.5,193C 210.345,196.254 208.011,198.087 204.5,198.5C 205.025,199.192 205.692,199.692 206.5,200C 194.589,209.212 181.756,217.045 168,223.5C 166.612,222.446 165.112,222.28 163.5,223C 152.157,228.146 140.323,230.312 128,229.5C 122.407,227.32 116.574,226.153 110.5,226C 107.473,225.139 104.806,223.639 102.5,221.5C 98.3961,220.533 94.3961,219.366 90.5,218C 91.1667,217.667 91.8333,217.333 92.5,217C 91.1011,216.405 89.7678,216.572 88.5,217.5C 86.3577,215.095 83.691,213.762 80.5,213.5C 80.5,212.5 80.5,211.5 80.5,210.5C 79.0222,210.762 77.6888,210.429 76.5,209.5C 75.8721,207.742 74.8721,206.242 73.5,205C 72.5509,204.383 71.7175,204.549 71,205.5C 68.0186,201.518 64.6853,197.852 61,194.5C 60.6667,195.167 60.3333,195.833 60,196.5C 59.6824,194.939 58.8491,193.772 57.5,193C 58.1667,192.333 58.8333,191.667 59.5,191C 57.8659,190.506 56.1992,190.34 54.5,190.5C 53.4954,185.512 50.9954,180.845 47,176.5C 46.9071,173.993 46.0738,171.826 44.5,170C 45.3613,167.679 44.3613,166.513 41.5,166.5C 40.1667,165.833 38.8333,165.167 37.5,164.5C 43.8333,164.5 50.1667,164.5 56.5,164.5C 57.562,167.516 58.7286,170.516 60,173.5C 60.6025,170.094 61.7692,169.761 63.5,172.5C 65.0453,173.452 66.712,173.785 68.5,173.5C 68.6661,179.176 68.4994,184.843 68,190.5C 67.2515,188.668 66.2515,187.001 65,185.5C 64.8333,186.333 64.6667,187.167 64.5,188C 67.2227,190.588 69.2227,193.755 70.5,197.5C 83.9507,208.556 98.9507,216.39 115.5,221C 122.783,221.473 129.95,222.639 137,224.5C 143.781,223.68 150.281,222.013 156.5,219.5C 155.359,218.575 155.359,217.741 156.5,217C 158.701,216.175 160.534,216.675 162,218.5C 166.731,216.256 171.731,214.59 177,213.5C 182.705,208.898 189.205,205.732 196.5,204C 197.743,201.884 198.909,199.718 200,197.5C 204.353,194.376 208.186,190.709 211.5,186.5C 212.325,185.614 213.325,185.281 214.5,185.5C 215.813,179.903 217.479,174.57 219.5,169.5C 223.188,169.822 225.855,168.322 227.5,165C 226.903,163.111 226.569,161.278 226.5,159.5C 228.316,155.95 228.316,152.616 226.5,149.5C 224.703,151.131 223.536,153.131 223,155.5C 222.667,152.833 222.333,150.167 222,147.5C 221.333,146.833 220.667,146.167 220,145.5C 219.29,146.973 218.124,147.64 216.5,147.5C 216.81,144.287 216.477,141.287 215.5,138.5C 216.607,133.919 216.773,129.252 216,124.5C 215.667,124.833 215.333,125.167 215,125.5C 214.292,124.619 213.458,123.953 212.5,123.5C 212.752,120.68 212.252,118.014 211,115.5C 208.5,112.667 206,109.833 203.5,107C 186.89,105.559 170.223,105.059 153.5,105.5C 153.5,102.167 153.5,98.8333 153.5,95.5C 155.35,89.541 157.017,83.541 158.5,77.5 Z"/></g>
<g><path style="opacity:1" fill="#f2cdcb" d="M 207.5,114.5 C 210.092,116.036 211.092,118.369 210.5,121.5C 210.666,125.514 210.499,129.514 210,133.5C 209.617,134.056 209.117,134.389 208.5,134.5C 210.108,127.646 209.775,120.979 207.5,114.5 Z"/></g>
<g><path style="opacity:1" fill="#b8463b" d="M 62.5,113.5 C 61.4955,114.683 60.6622,116.016 60,117.5C 58.741,124.553 59.5743,131.22 62.5,137.5C 60.9826,137.489 59.8159,136.823 59,135.5C 57.7338,131.605 57.2338,127.605 57.5,123.5C 57.278,120.61 57.9447,117.943 59.5,115.5C 59.2907,114.914 58.9574,114.414 58.5,114C 59.7932,113.51 61.1266,113.343 62.5,113.5 Z"/></g>
<g><path style="opacity:1" fill="#b8584b" d="M 210.5,121.5 C 211.482,124.962 211.815,128.629 211.5,132.5C 209.066,139.594 204.066,143.26 196.5,143.5C 196.5,143.167 196.5,142.833 196.5,142.5C 199.241,142.293 201.574,141.293 203.5,139.5C 206.144,138.856 207.811,137.189 208.5,134.5C 209.117,134.389 209.617,134.056 210,133.5C 210.499,129.514 210.666,125.514 210.5,121.5 Z"/></g>
<g><path style="opacity:1" fill="#e34a35" d="M 30.5,163.5 C 28.5853,163.784 26.9187,163.451 25.5,162.5C 25.9175,161.778 26.5842,161.278 27.5,161C 26.5,160.667 25.5,160.333 24.5,160C 25.727,158.413 25.3937,157.079 23.5,156C 12.5985,157.023 11.2652,154.523 19.5,148.5C 19.3241,146.328 19.1575,143.995 19,141.5C 16.1917,140.594 13.6917,139.927 11.5,139.5C 12.7287,138.719 14.062,138.219 15.5,138C 14.6198,136.644 14.2865,135.144 14.5,133.5C 18.9869,133.161 22.4869,134.827 25,138.5C 25.2784,137.584 25.7784,136.918 26.5,136.5C 26.7899,141.457 29.4565,144.123 34.5,144.5C 34.281,145.675 34.6143,146.675 35.5,147.5C 38.4412,144.733 40.7746,141.567 42.5,138C 42.0774,135.624 42.9107,133.457 45,131.5C 45.6221,127.971 45.4554,124.471 44.5,121C 46.4884,118.522 47.4884,115.688 47.5,112.5C 48.552,112.351 49.552,112.517 50.5,113C 51.2567,114.512 52.2567,115.846 53.5,117C 52.0751,122.06 51.0751,127.227 50.5,132.5C 51.0253,133.192 51.6919,133.692 52.5,134C 51.6919,134.308 51.0253,134.808 50.5,135.5C 54.5581,139.344 53.5581,141.177 47.5,141C 46.782,142.987 45.782,144.821 44.5,146.5C 46.2506,148.49 47.2506,150.823 47.5,153.5C 45.6703,157.183 46.6703,159.683 50.5,161C 44.0618,163.238 37.3951,164.072 30.5,163.5 Z"/></g>
<g><path style="opacity:1" fill="#de4230" d="M 57.5,45.5 C 57.3343,49.8461 57.501,54.1794 58,58.5C 58.786,61.5827 60.6193,63.7494 63.5,65C 75.5081,65.3279 87.5081,65.8279 99.5,66.5C 102.223,66.4495 104.89,66.1161 107.5,65.5C 108.478,65.9767 109.311,66.6433 110,67.5C 110.198,65.6183 110.698,63.9516 111.5,62.5C 111.5,68.5 111.5,74.5 111.5,80.5C 110.542,80.0472 109.708,79.3805 109,78.5C 103.149,79.7346 97.3161,79.4013 91.5,77.5C 83.3725,78.2638 75.3725,78.4305 67.5,78C 68.1667,78.3333 68.8333,78.6667 69.5,79C 67.8839,79.6152 66.5505,80.6152 65.5,82C 66.2932,86.2714 66.4599,90.7714 66,95.5C 64.6329,94.4757 63.7995,94.9757 63.5,97C 65.1683,98.675 66.835,100.342 68.5,102C 67.0953,103.269 65.4286,103.769 63.5,103.5C 63.3915,105.514 64.0582,107.18 65.5,108.5C 64.1938,109.467 63.5271,110.801 63.5,112.5C 63.5,113.167 63.1667,113.5 62.5,113.5C 61.1266,113.343 59.7932,113.51 58.5,114C 58.9574,114.414 59.2907,114.914 59.5,115.5C 57.9447,117.943 57.278,120.61 57.5,123.5C 56.8501,123.804 56.1835,124.137 55.5,124.5C 53.8348,130.215 54.5015,135.548 57.5,140.5C 57.9612,142.55 58.6279,144.55 59.5,146.5C 61.5435,148.208 63.2101,150.208 64.5,152.5C 63.27,154.933 62.27,157.433 61.5,160C 62.1667,160.333 62.8333,160.667 63.5,161C 61.0748,162.213 58.7415,163.379 56.5,164.5C 50.1667,164.5 43.8333,164.5 37.5,164.5C 34.9407,164.802 32.6074,164.468 30.5,163.5C 37.3951,164.072 44.0618,163.238 50.5,161C 46.6703,159.683 45.6703,157.183 47.5,153.5C 47.2506,150.823 46.2506,148.49 44.5,146.5C 45.782,144.821 46.782,142.987 47.5,141C 53.5581,141.177 54.5581,139.344 50.5,135.5C 51.0253,134.808 51.6919,134.308 52.5,134C 51.6919,133.692 51.0253,133.192 50.5,132.5C 51.0751,127.227 52.0751,122.06 53.5,117C 52.2567,115.846 51.2567,114.512 50.5,113C 49.552,112.517 48.552,112.351 47.5,112.5C 47.4884,115.688 46.4884,118.522 44.5,121C 45.4554,124.471 45.6221,127.971 45,131.5C 42.9107,133.457 42.0774,135.624 42.5,138C 40.7746,141.567 38.4412,144.733 35.5,147.5C 34.6143,146.675 34.281,145.675 34.5,144.5C 29.4565,144.123 26.7899,141.457 26.5,136.5C 30.4327,130.977 30.4327,125.311 26.5,119.5C 27.0983,118.205 27.5983,116.872 28,115.5C 33.9944,110.334 35.161,104.501 31.5,98C 34.0083,94.6619 36.675,91.4952 39.5,88.5C 38.9382,85.6986 38.6048,82.8653 38.5,80C 38.5626,72.941 39.5626,66.1077 41.5,59.5C 40.689,58.7836 40.0223,57.9503 39.5,57C 40.9768,53.9302 40.3102,51.4302 37.5,49.5C 39.2934,46.3127 38.6267,45.3127 35.5,46.5C 36.412,44.4048 37.5787,42.4048 39,40.5C 41.8481,38.0726 44.6814,35.7393 47.5,33.5C 48.7206,32.9717 49.8873,32.305 51,31.5C 51.3333,32.1667 51.6667,32.8333 52,33.5C 53.883,32.3474 54.7163,30.6807 54.5,28.5C 56.1986,28.3796 57.8653,28.0463 59.5,27.5C 61.3299,27.5796 62.6633,28.413 63.5,30C 61.1848,35.0547 59.1848,40.2214 57.5,45.5 Z"/></g>
<g><path style="opacity:1" fill="#fee0da" d="M 203.5,139.5 C 201.574,141.293 199.241,142.293 196.5,142.5C 181.833,142.5 167.167,142.5 152.5,142.5C 166.994,141.669 181.661,141.169 196.5,141C 198.677,139.798 201.011,139.298 203.5,139.5 Z"/></g>
<g><path style="opacity:1" fill="#bc533f" d="M 63.5,138.5 C 66.6035,140.384 69.9368,141.718 73.5,142.5C 87.9905,143.496 102.657,143.829 117.5,143.5C 117.5,152.5 117.5,161.5 117.5,170.5C 116.662,170.158 116.328,169.492 116.5,168.5C 116.5,161.5 116.5,154.5 116.5,147.5C 116.5,146.5 116.5,145.5 116.5,144.5C 101.163,144.667 85.8297,144.5 70.5,144C 67.3827,143.037 65.0494,141.204 63.5,138.5 Z"/></g>
<g><path style="opacity:1" fill="#e1634d" d="M 57.5,123.5 C 57.2338,127.605 57.7338,131.605 59,135.5C 59.8159,136.823 60.9826,137.489 62.5,137.5C 63.1667,137.5 63.5,137.833 63.5,138.5C 65.0494,141.204 67.3827,143.037 70.5,144C 85.8297,144.5 101.163,144.667 116.5,144.5C 116.5,145.5 116.5,146.5 116.5,147.5C 115.5,147.5 114.5,147.5 113.5,147.5C 113.404,153.373 112.737,159.04 111.5,164.5C 111.324,159.12 111.658,153.787 112.5,148.5C 97.8295,148.667 83.1629,148.5 68.5,148C 64.1274,146.448 60.4608,143.948 57.5,140.5C 54.5015,135.548 53.8348,130.215 55.5,124.5C 56.1835,124.137 56.8501,123.804 57.5,123.5 Z"/></g>
<g><path style="opacity:1" fill="#d55642" d="M 212.5,123.5 C 213.458,123.953 214.292,124.619 215,125.5C 215.333,125.167 215.667,124.833 216,124.5C 216.773,129.252 216.607,133.919 215.5,138.5C 211.738,142.083 207.738,145.583 203.5,149C 188.504,149.5 173.504,149.667 158.5,149.5C 172.421,148.965 186.421,148.132 200.5,147C 199.167,146.333 197.833,145.667 196.5,145C 182.171,144.5 167.837,144.333 153.5,144.5C 167.657,143.504 181.99,143.171 196.5,143.5C 204.066,143.26 209.066,139.594 211.5,132.5C 212.477,129.713 212.81,126.713 212.5,123.5 Z"/></g>
<g><path style="opacity:1" fill="#d2352a" d="M 215.5,138.5 C 216.477,141.287 216.81,144.287 216.5,147.5C 218.124,147.64 219.29,146.973 220,145.5C 220.667,146.167 221.333,146.833 222,147.5C 222.333,150.167 222.667,152.833 223,155.5C 223.536,153.131 224.703,151.131 226.5,149.5C 228.316,152.616 228.316,155.95 226.5,159.5C 226.569,161.278 226.903,163.111 227.5,165C 225.855,168.322 223.188,169.822 219.5,169.5C 217.479,174.57 215.813,179.903 214.5,185.5C 213.325,185.281 212.325,185.614 211.5,186.5C 208.186,190.709 204.353,194.376 200,197.5C 198.909,199.718 197.743,201.884 196.5,204C 189.205,205.732 182.705,208.898 177,213.5C 171.731,214.59 166.731,216.256 162,218.5C 160.534,216.675 158.701,216.175 156.5,217C 155.359,217.741 155.359,218.575 156.5,219.5C 150.281,222.013 143.781,223.68 137,224.5C 129.95,222.639 122.783,221.473 115.5,221C 98.9507,216.39 83.9507,208.556 70.5,197.5C 69.2227,193.755 67.2227,190.588 64.5,188C 64.6667,187.167 64.8333,186.333 65,185.5C 66.2515,187.001 67.2515,188.668 68,190.5C 68.4994,184.843 68.6661,179.176 68.5,173.5C 66.712,173.785 65.0453,173.452 63.5,172.5C 61.7692,169.761 60.6025,170.094 60,173.5C 58.7286,170.516 57.562,167.516 56.5,164.5C 58.7415,163.379 61.0748,162.213 63.5,161C 62.8333,160.667 62.1667,160.333 61.5,160C 62.27,157.433 63.27,154.933 64.5,152.5C 63.2101,150.208 61.5435,148.208 59.5,146.5C 58.6279,144.55 57.9612,142.55 57.5,140.5C 60.4608,143.948 64.1274,146.448 68.5,148C 83.1629,148.5 97.8295,148.667 112.5,148.5C 111.658,153.787 111.324,159.12 111.5,164.5C 111.174,173.349 111.507,182.016 112.5,190.5C 112.692,194.102 114.026,197.102 116.5,199.5C 119.163,204.161 123.163,206.828 128.5,207.5C 133.65,208.651 138.984,208.817 144.5,208C 147.274,207.376 149.274,205.876 150.5,203.5C 150.833,202.833 151.167,202.167 151.5,201.5C 155.175,198.806 157.175,195.14 157.5,190.5C 158.496,177.01 158.829,163.344 158.5,149.5C 173.504,149.667 188.504,149.5 203.5,149C 207.738,145.583 211.738,142.083 215.5,138.5 Z"/></g>
<g><path style="opacity:1" fill="#e46a53" d="M 153.5,144.5 C 167.837,144.333 182.171,144.5 196.5,145C 197.833,145.667 199.167,146.333 200.5,147C 186.421,148.132 172.421,148.965 158.5,149.5C 158.829,163.344 158.496,177.01 157.5,190.5C 157.5,187.5 157.5,184.5 157.5,181.5C 157.5,175.833 157.5,170.167 157.5,164.5C 157.665,161.482 157.498,158.482 157,155.5C 155.908,153.069 154.741,153.069 153.5,155.5C 153.5,151.833 153.5,148.167 153.5,144.5 Z"/></g>
<g><path style="opacity:1" fill="#e47d66" d="M 157.5,164.5 C 156.542,164.953 155.708,165.619 155,166.5C 154.809,168.708 154.309,170.708 153.5,172.5C 153.5,166.833 153.5,161.167 153.5,155.5C 154.741,153.069 155.908,153.069 157,155.5C 157.498,158.482 157.665,161.482 157.5,164.5 Z"/></g>
<g><path style="opacity:1" fill="#c26c5d" d="M 152.5,142.5 C 167.167,142.5 181.833,142.5 196.5,142.5C 196.5,142.833 196.5,143.167 196.5,143.5C 181.99,143.171 167.657,143.504 153.5,144.5C 153.5,148.167 153.5,151.833 153.5,155.5C 153.5,161.167 153.5,166.833 153.5,172.5C 153.5,176.167 153.5,179.833 153.5,183.5C 152.501,170.58 152.168,156.913 152.5,142.5 Z"/></g>
<g><path style="opacity:1" fill="#e57963" d="M 116.5,147.5 C 116.5,154.5 116.5,161.5 116.5,168.5C 115.685,167.571 114.852,166.571 114,165.5C 113.667,165.833 113.333,166.167 113,166.5C 112.501,171.489 112.334,176.489 112.5,181.5C 112.5,184.5 112.5,187.5 112.5,190.5C 111.507,182.016 111.174,173.349 111.5,164.5C 112.737,159.04 113.404,153.373 113.5,147.5C 114.5,147.5 115.5,147.5 116.5,147.5 Z"/></g>
<g><path style="opacity:1" fill="#b6201f" d="M 253.5,123.5 C 255.626,124.048 257.626,124.715 259.5,125.5C 253.352,123.788 250.019,125.954 249.5,132C 249.605,137.364 249.938,142.698 250.5,148C 249.073,150.713 247.906,153.546 247,156.5C 246.256,161.552 245.256,166.552 244,171.5C 243.333,170.167 242.667,170.167 242,171.5C 237.066,181.04 231.9,190.374 226.5,199.5C 225.264,200.246 223.93,200.579 222.5,200.5C 222.649,201.552 222.483,202.552 222,203.5C 217.798,207.367 213.965,211.533 210.5,216C 198.431,224.461 186.765,231.128 175.5,236C 168.48,236.939 161.813,238.272 155.5,240C 156.833,240.667 156.833,241.333 155.5,242C 141.359,243.23 127.359,243.23 113.5,242C 110.71,241.439 108.377,240.106 106.5,238C 102.914,236.892 99.247,236.392 95.5,236.5C 95.5,235.5 95.5,234.5 95.5,233.5C 92.7508,233.726 90.0841,233.393 87.5,232.5C 86.9478,230.997 86.9478,229.331 87.5,227.5C 85.0607,226.947 82.7273,226.947 80.5,227.5C 79.069,227.023 77.7357,226.357 76.5,225.5C 76.8333,224.833 77.1667,224.167 77.5,223.5C 73.5596,222.196 69.893,220.363 66.5,218C 66.8333,217.667 67.1667,217.333 67.5,217C 64.3142,213.818 60.8142,210.985 57,208.5C 56.5172,207.552 56.3505,206.552 56.5,205.5C 55.1266,205.657 53.7932,205.49 52.5,205C 52.8333,204.667 53.1667,204.333 53.5,204C 48.6639,199.396 44.6639,194.729 41.5,190C 38.6982,185.776 36.3649,181.276 34.5,176.5C 33.0807,173.472 31.0807,170.972 28.5,169C 27.4848,167.627 27.4848,166.46 28.5,165.5C 32.2969,166.106 35.6302,167.606 38.5,170C 37.3774,171.044 36.0441,171.71 34.5,172C 35.3333,172.833 36.1667,173.667 37,174.5C 38.1731,178.531 39.3397,182.531 40.5,186.5C 41.552,186.351 42.552,186.517 43.5,187C 47.0227,193.906 52.0227,199.406 58.5,203.5C 60.4597,205.291 61.793,207.457 62.5,210C 63.448,210.483 64.448,210.649 65.5,210.5C 65.33,211.822 65.6634,212.989 66.5,214C 68.1012,214.273 69.6012,214.773 71,215.5C 70.8516,216.825 71.0183,217.992 71.5,219C 75.425,220.584 79.425,221.917 83.5,223C 82.8333,223.667 82.1667,224.333 81.5,225C 86.393,226.512 91.393,227.512 96.5,228C 96.1667,228.333 95.8333,228.667 95.5,229C 99.1141,229.945 102.781,230.612 106.5,231C 109.996,233.744 113.996,235.411 118.5,236C 136.181,237.611 153.515,236.278 170.5,232C 173.183,228.566 176.516,227.233 180.5,228C 183.319,226.278 185.986,224.278 188.5,222C 190.025,220.991 191.692,220.491 193.5,220.5C 193.5,219.167 193.5,217.833 193.5,216.5C 195.604,216.799 197.604,216.466 199.5,215.5C 202.197,213.8 204.197,211.466 205.5,208.5C 207.776,207.787 210.109,207.287 212.5,207C 213.227,205.601 213.727,204.101 214,202.5C 218.236,198.719 222.236,194.719 226,190.5C 227.302,187.625 228.135,184.625 228.5,181.5C 229.833,181.5 231.167,181.5 232.5,181.5C 234.57,175.252 236.403,168.919 238,162.5C 240.892,161.158 242.225,158.825 242,155.5C 242.645,154.354 243.478,153.354 244.5,152.5C 243.061,150.657 243.228,148.99 245,147.5C 245.169,139.812 245.669,132.145 246.5,124.5C 248.747,123.626 251.08,123.292 253.5,123.5 Z"/></g>
<g><path style="opacity:1" fill="#eea993" d="M 152.5,142.5 C 152.168,156.913 152.501,170.58 153.5,183.5C 154.222,183.082 154.722,182.416 155,181.5C 155.333,178.167 155.667,174.833 156,171.5C 156.179,175.025 156.679,178.359 157.5,181.5C 157.5,184.5 157.5,187.5 157.5,190.5C 157.175,195.14 155.175,198.806 151.5,201.5C 151.719,200.325 151.386,199.325 150.5,198.5C 149.378,199.63 148.044,200.297 146.5,200.5C 146.953,199.542 147.619,198.708 148.5,198C 148.272,197.601 147.938,197.435 147.5,197.5C 148.565,195.146 149.732,192.812 151,190.5C 151.169,174.328 151.669,158.328 152.5,142.5 Z"/></g>
<g><path style="opacity:1" fill="#be2622" d="M 244.5,121.5 C 247.689,121.858 250.689,122.525 253.5,123.5C 251.08,123.292 248.747,123.626 246.5,124.5C 245.669,132.145 245.169,139.812 245,147.5C 243.228,148.99 243.061,150.657 244.5,152.5C 243.478,153.354 242.645,154.354 242,155.5C 242.225,158.825 240.892,161.158 238,162.5C 236.403,168.919 234.57,175.252 232.5,181.5C 231.167,181.5 229.833,181.5 228.5,181.5C 228.135,184.625 227.302,187.625 226,190.5C 222.236,194.719 218.236,198.719 214,202.5C 213.727,204.101 213.227,205.601 212.5,207C 210.109,207.287 207.776,207.787 205.5,208.5C 204.197,211.466 202.197,213.8 199.5,215.5C 197.604,216.466 195.604,216.799 193.5,216.5C 193.5,217.833 193.5,219.167 193.5,220.5C 191.692,220.491 190.025,220.991 188.5,222C 185.986,224.278 183.319,226.278 180.5,228C 176.516,227.233 173.183,228.566 170.5,232C 153.515,236.278 136.181,237.611 118.5,236C 113.996,235.411 109.996,233.744 106.5,231C 102.781,230.612 99.1141,229.945 95.5,229C 95.8333,228.667 96.1667,228.333 96.5,228C 91.393,227.512 86.393,226.512 81.5,225C 82.1667,224.333 82.8333,223.667 83.5,223C 79.425,221.917 75.425,220.584 71.5,219C 71.0183,217.992 70.8516,216.825 71,215.5C 69.6012,214.773 68.1012,214.273 66.5,214C 65.6634,212.989 65.33,211.822 65.5,210.5C 64.448,210.649 63.448,210.483 62.5,210C 61.793,207.457 60.4597,205.291 58.5,203.5C 52.0227,199.406 47.0227,193.906 43.5,187C 42.552,186.517 41.552,186.351 40.5,186.5C 39.3397,182.531 38.1731,178.531 37,174.5C 36.1667,173.667 35.3333,172.833 34.5,172C 36.0441,171.71 37.3774,171.044 38.5,170C 35.6302,167.606 32.2969,166.106 28.5,165.5C 27.4324,164.566 26.099,164.232 24.5,164.5C 22.1124,163.651 19.7791,162.651 17.5,161.5C 20.1667,161.833 22.8333,162.167 25.5,162.5C 26.9187,163.451 28.5853,163.784 30.5,163.5C 32.6074,164.468 34.9407,164.802 37.5,164.5C 38.8333,165.167 40.1667,165.833 41.5,166.5C 41.5315,167.63 41.1981,168.963 40.5,170.5C 44.2682,174.78 46.4349,179.78 47,185.5C 49.1785,186.116 51.0118,187.283 52.5,189C 51.3279,189.419 50.3279,190.085 49.5,191C 52.7118,193.019 54.3784,195.853 54.5,199.5C 57.394,199.556 60.0607,200.39 62.5,202C 62.1321,203.473 62.6321,204.973 64,206.5C 72.3884,214.015 81.8884,219.515 92.5,223C 95.3778,224.599 98.0445,226.433 100.5,228.5C 101.554,228.32 102.554,227.987 103.5,227.5C 108.725,228.923 114.058,229.757 119.5,230C 121.516,230.899 123.183,232.233 124.5,234C 130.157,234.499 135.824,234.666 141.5,234.5C 141.5,233.5 141.5,232.5 141.5,231.5C 146.099,231.8 150.599,231.467 155,230.5C 156.836,232.604 159.002,232.938 161.5,231.5C 160.975,230.808 160.308,230.308 159.5,230C 162.226,229.818 164.893,229.318 167.5,228.5C 173.674,224.413 180.341,221.413 187.5,219.5C 187.977,218.522 188.643,217.689 189.5,217C 189.167,216.667 188.833,216.333 188.5,216C 191.669,215.193 194.669,214.36 197.5,213.5C 200.659,208.92 204.659,205.253 209.5,202.5C 210.386,201.675 210.719,200.675 210.5,199.5C 211.552,199.649 212.552,199.483 213.5,199C 213.167,198.667 212.833,198.333 212.5,198C 221.021,191.952 226.688,183.786 229.5,173.5C 231.472,172.695 232.972,171.361 234,169.5C 233.777,164.667 235.277,160.5 238.5,157C 237.76,154.728 237.76,152.728 238.5,151C 239.167,150.333 239.833,149.667 240.5,149C 241.148,141.19 241.148,133.524 240.5,126C 241.328,125.085 242.328,124.419 243.5,124C 242.584,123.722 241.918,123.222 241.5,122.5C 242.391,121.89 243.391,121.557 244.5,121.5 Z"/></g>
<g><path style="opacity:1" fill="#d89786" d="M 73.5,142.5 C 88.5,142.5 103.5,142.5 118.5,142.5C 118.043,159.57 118.543,176.57 120,193.5C 121.141,195.609 122.641,197.442 124.5,199C 132.513,202.703 140.18,202.203 147.5,197.5C 147.938,197.435 148.272,197.601 148.5,198C 147.619,198.708 146.953,199.542 146.5,200.5C 135.34,206.144 126.006,204.144 118.5,194.5C 118.167,193.167 117.833,191.833 117.5,190.5C 117.5,183.833 117.5,177.167 117.5,170.5C 117.5,161.5 117.5,152.5 117.5,143.5C 102.657,143.829 87.9905,143.496 73.5,142.5 Z"/></g>
<g><path style="opacity:1" fill="#ac1a19" d="M 259.5,125.5 C 260.5,125.5 261.5,125.5 262.5,125.5C 262.5,125.833 262.5,126.167 262.5,126.5C 261.5,126.5 260.5,126.5 259.5,126.5C 257.856,126.286 256.356,126.62 255,127.5C 254.362,130.536 254.528,133.536 255.5,136.5C 254.939,139.535 254.273,142.535 253.5,145.5C 253.709,146.086 254.043,146.586 254.5,147C 253.484,147.519 252.818,148.353 252.5,149.5C 249.777,158.838 246.944,168.171 244,177.5C 243.333,176.167 242.667,176.167 242,177.5C 239.391,183.753 236.391,189.753 233,195.5C 232,196.167 231,196.833 230,197.5C 227.774,201.326 225.274,204.992 222.5,208.5C 218.121,211.7 214.121,215.367 210.5,219.5C 208.677,220.747 206.677,221.414 204.5,221.5C 204.5,222.5 204.5,223.5 204.5,224.5C 195.331,229.601 185.998,234.601 176.5,239.5C 175.914,239.291 175.414,238.957 175,238.5C 168.852,239.588 163.019,241.421 157.5,244C 151.313,244.214 145.313,245.38 139.5,247.5C 125.973,245.56 112.639,243.06 99.5,240C 98.1667,239.333 98.1667,238.667 99.5,238C 98.2161,237.316 97.0495,237.483 96,238.5C 92.5301,236.303 88.6967,234.969 84.5,234.5C 82.4926,233.092 80.4926,231.592 78.5,230C 71.4373,226.972 65.104,222.639 59.5,217C 59.8333,216.667 60.1667,216.333 60.5,216C 54.6132,215.938 50.9465,213.105 49.5,207.5C 42.4839,202.488 37.6506,195.821 35,187.5C 32.6377,185.598 31.4711,183.432 31.5,181C 29.4852,179.879 27.1519,178.713 24.5,177.5C 24.2739,174.751 24.6072,172.084 25.5,169.5C 24.8721,167.742 23.8721,166.242 22.5,165C 23.0944,164.536 23.7611,164.369 24.5,164.5C 26.099,164.232 27.4324,164.566 28.5,165.5C 27.4848,166.46 27.4848,167.627 28.5,169C 31.0807,170.972 33.0807,173.472 34.5,176.5C 36.3649,181.276 38.6982,185.776 41.5,190C 44.6639,194.729 48.6639,199.396 53.5,204C 53.1667,204.333 52.8333,204.667 52.5,205C 53.7932,205.49 55.1266,205.657 56.5,205.5C 56.3505,206.552 56.5172,207.552 57,208.5C 60.8142,210.985 64.3142,213.818 67.5,217C 67.1667,217.333 66.8333,217.667 66.5,218C 69.893,220.363 73.5596,222.196 77.5,223.5C 77.1667,224.167 76.8333,224.833 76.5,225.5C 77.7357,226.357 79.069,227.023 80.5,227.5C 82.7273,226.947 85.0607,226.947 87.5,227.5C 86.9478,229.331 86.9478,230.997 87.5,232.5C 90.0841,233.393 92.7508,233.726 95.5,233.5C 95.5,234.5 95.5,235.5 95.5,236.5C 99.247,236.392 102.914,236.892 106.5,238C 108.377,240.106 110.71,241.439 113.5,242C 127.359,243.23 141.359,243.23 155.5,242C 156.833,241.333 156.833,240.667 155.5,240C 161.813,238.272 168.48,236.939 175.5,236C 186.765,231.128 198.431,224.461 210.5,216C 213.965,211.533 217.798,207.367 222,203.5C 222.483,202.552 222.649,201.552 222.5,200.5C 223.93,200.579 225.264,200.246 226.5,199.5C 231.9,190.374 237.066,181.04 242,171.5C 242.667,170.167 243.333,170.167 244,171.5C 245.256,166.552 246.256,161.552 247,156.5C 247.906,153.546 249.073,150.713 250.5,148C 249.938,142.698 249.605,137.364 249.5,132C 250.019,125.954 253.352,123.788 259.5,125.5 Z"/></g>
<g><path style="opacity:1" fill="#c42a25" d="M 241.5,122.5 C 241.918,123.222 242.584,123.722 243.5,124C 242.328,124.419 241.328,125.085 240.5,126C 241.148,133.524 241.148,141.19 240.5,149C 239.833,149.667 239.167,150.333 238.5,151C 237.76,152.728 237.76,154.728 238.5,157C 235.277,160.5 233.777,164.667 234,169.5C 232.972,171.361 231.472,172.695 229.5,173.5C 226.688,183.786 221.021,191.952 212.5,198C 212.833,198.333 213.167,198.667 213.5,199C 212.552,199.483 211.552,199.649 210.5,199.5C 210.719,200.675 210.386,201.675 209.5,202.5C 204.659,205.253 200.659,208.92 197.5,213.5C 194.669,214.36 191.669,215.193 188.5,216C 188.833,216.333 189.167,216.667 189.5,217C 188.643,217.689 187.977,218.522 187.5,219.5C 180.341,221.413 173.674,224.413 167.5,228.5C 164.893,229.318 162.226,229.818 159.5,230C 160.308,230.308 160.975,230.808 161.5,231.5C 159.002,232.938 156.836,232.604 155,230.5C 150.599,231.467 146.099,231.8 141.5,231.5C 141.5,232.5 141.5,233.5 141.5,234.5C 135.824,234.666 130.157,234.499 124.5,234C 123.183,232.233 121.516,230.899 119.5,230C 114.058,229.757 108.725,228.923 103.5,227.5C 102.554,227.987 101.554,228.32 100.5,228.5C 98.0445,226.433 95.3778,224.599 92.5,223C 81.8884,219.515 72.3884,214.015 64,206.5C 62.6321,204.973 62.1321,203.473 62.5,202C 60.0607,200.39 57.394,199.556 54.5,199.5C 54.3784,195.853 52.7118,193.019 49.5,191C 50.3279,190.085 51.3279,189.419 52.5,189C 51.0118,187.283 49.1785,186.116 47,185.5C 46.4349,179.78 44.2682,174.78 40.5,170.5C 41.1981,168.963 41.5315,167.63 41.5,166.5C 44.3613,166.513 45.3613,167.679 44.5,170C 46.0738,171.826 46.9071,173.993 47,176.5C 50.9954,180.845 53.4954,185.512 54.5,190.5C 56.1992,190.34 57.8659,190.506 59.5,191C 58.8333,191.667 58.1667,192.333 57.5,193C 58.8491,193.772 59.6824,194.939 60,196.5C 60.3333,195.833 60.6667,195.167 61,194.5C 64.6853,197.852 68.0186,201.518 71,205.5C 71.7175,204.549 72.5509,204.383 73.5,205C 74.8721,206.242 75.8721,207.742 76.5,209.5C 77.6888,210.429 79.0222,210.762 80.5,210.5C 80.5,211.5 80.5,212.5 80.5,213.5C 83.691,213.762 86.3577,215.095 88.5,217.5C 89.7678,216.572 91.1011,216.405 92.5,217C 91.8333,217.333 91.1667,217.667 90.5,218C 94.3961,219.366 98.3961,220.533 102.5,221.5C 104.806,223.639 107.473,225.139 110.5,226C 116.574,226.153 122.407,227.32 128,229.5C 140.323,230.312 152.157,228.146 163.5,223C 165.112,222.28 166.612,222.446 168,223.5C 181.756,217.045 194.589,209.212 206.5,200C 205.692,199.692 205.025,199.192 204.5,198.5C 208.011,198.087 210.345,196.254 211.5,193C 215.462,191.556 217.462,188.723 217.5,184.5C 218.675,184.719 219.675,184.386 220.5,183.5C 222.305,177.921 225.138,172.921 229,168.5C 229.49,167.207 229.657,165.873 229.5,164.5C 230.5,164.5 231.5,164.5 232.5,164.5C 232.714,162.856 232.38,161.356 231.5,160C 234.506,154.81 235.506,149.31 234.5,143.5C 236.777,140.208 237.443,136.708 236.5,133C 237.569,129.557 238.402,126.057 239,122.5C 239.77,123.598 240.603,123.598 241.5,122.5 Z"/></g>
<g><path style="opacity:1" fill="#a41414" d="M 259.5,126.5 C 258.91,128.097 257.91,129.431 256.5,130.5C 256.977,131.478 257.643,132.311 258.5,133C 255.855,140.191 254.855,147.524 255.5,155C 253.997,157.774 252.497,160.607 251,163.5C 250.685,166.372 250.185,169.205 249.5,172C 245.221,179.827 240.887,187.66 236.5,195.5C 236.709,196.086 237.043,196.586 237.5,197C 235.974,198.887 233.974,199.887 231.5,200C 229.031,206.597 224.698,211.597 218.5,215C 216.787,216.378 215.453,218.045 214.5,220C 212.541,220.931 210.541,221.764 208.5,222.5C 207.289,223.274 207.289,224.107 208.5,225C 202.851,228.64 197.185,232.306 191.5,236C 179.642,240.502 167.642,244.502 155.5,248C 156.5,248.333 157.5,248.667 158.5,249C 155.131,249.663 151.797,249.496 148.5,248.5C 146.559,248.804 144.893,249.637 143.5,251C 136.833,251.667 130.167,251.667 123.5,251C 121.226,250.53 119.226,249.53 117.5,248C 114.11,247.754 110.777,247.254 107.5,246.5C 106.914,246.709 106.414,247.043 106,247.5C 102.646,246.189 99.1461,245.356 95.5,245C 94.7454,241.793 92.7454,240.293 89.5,240.5C 89.5,239.5 89.5,238.5 89.5,237.5C 86.059,237.699 82.7256,237.199 79.5,236C 79.9574,235.586 80.2907,235.086 80.5,234.5C 75.7789,231.473 70.7789,228.973 65.5,227C 64.1587,223.994 61.8254,222.494 58.5,222.5C 58.6427,220.738 58.3094,219.071 57.5,217.5C 53.8032,216.298 50.4699,214.464 47.5,212C 46.7734,210.601 46.2734,209.101 46,207.5C 41.5369,205.586 38.7036,202.253 37.5,197.5C 31.9477,193.038 28.1144,187.372 26,180.5C 24.984,181.634 24.3173,181.301 24,179.5C 23.5026,176.854 23.3359,174.187 23.5,171.5C 22.5,171.5 21.5,171.5 20.5,171.5C 21.4236,167.164 19.7569,164.664 15.5,164C 14.1772,163.184 13.5106,162.017 13.5,160.5C 14.8333,160.833 16.1667,161.167 17.5,161.5C 19.7791,162.651 22.1124,163.651 24.5,164.5C 23.7611,164.369 23.0944,164.536 22.5,165C 23.8721,166.242 24.8721,167.742 25.5,169.5C 24.6072,172.084 24.2739,174.751 24.5,177.5C 27.1519,178.713 29.4852,179.879 31.5,181C 31.4711,183.432 32.6377,185.598 35,187.5C 37.6506,195.821 42.4839,202.488 49.5,207.5C 50.9465,213.105 54.6132,215.938 60.5,216C 60.1667,216.333 59.8333,216.667 59.5,217C 65.104,222.639 71.4373,226.972 78.5,230C 80.4926,231.592 82.4926,233.092 84.5,234.5C 88.6967,234.969 92.5301,236.303 96,238.5C 97.0495,237.483 98.2161,237.316 99.5,238C 98.1667,238.667 98.1667,239.333 99.5,240C 112.639,243.06 125.973,245.56 139.5,247.5C 145.313,245.38 151.313,244.214 157.5,244C 163.019,241.421 168.852,239.588 175,238.5C 175.414,238.957 175.914,239.291 176.5,239.5C 185.998,234.601 195.331,229.601 204.5,224.5C 204.5,223.5 204.5,222.5 204.5,221.5C 206.677,221.414 208.677,220.747 210.5,219.5C 214.121,215.367 218.121,211.7 222.5,208.5C 225.274,204.992 227.774,201.326 230,197.5C 231,196.833 232,196.167 233,195.5C 236.391,189.753 239.391,183.753 242,177.5C 242.667,176.167 243.333,176.167 244,177.5C 246.944,168.171 249.777,158.838 252.5,149.5C 252.818,148.353 253.484,147.519 254.5,147C 254.043,146.586 253.709,146.086 253.5,145.5C 254.273,142.535 254.939,139.535 255.5,136.5C 254.528,133.536 254.362,130.536 255,127.5C 256.356,126.62 257.856,126.286 259.5,126.5 Z"/></g>
<g><path style="opacity:1" fill="#9b1310" d="M 259.5,126.5 C 260.5,126.5 261.5,126.5 262.5,126.5C 263.13,141.72 260.63,156.387 255,170.5C 233.674,220.27 195.84,248.27 141.5,254.5C 137.833,254.5 134.167,254.5 130.5,254.5C 117.341,253.032 104.341,250.199 91.5,246C 67.5537,236.527 47.7204,221.694 32,201.5C 22.7943,189.09 16.2943,175.423 12.5,160.5C 12.8333,160.5 13.1667,160.5 13.5,160.5C 13.5106,162.017 14.1772,163.184 15.5,164C 19.7569,164.664 21.4236,167.164 20.5,171.5C 21.5,171.5 22.5,171.5 23.5,171.5C 23.3359,174.187 23.5026,176.854 24,179.5C 24.3173,181.301 24.984,181.634 26,180.5C 28.1144,187.372 31.9477,193.038 37.5,197.5C 38.7036,202.253 41.5369,205.586 46,207.5C 46.2734,209.101 46.7734,210.601 47.5,212C 50.4699,214.464 53.8032,216.298 57.5,217.5C 58.3094,219.071 58.6427,220.738 58.5,222.5C 61.8254,222.494 64.1587,223.994 65.5,227C 70.7789,228.973 75.7789,231.473 80.5,234.5C 80.2907,235.086 79.9574,235.586 79.5,236C 82.7256,237.199 86.059,237.699 89.5,237.5C 89.5,238.5 89.5,239.5 89.5,240.5C 92.7454,240.293 94.7454,241.793 95.5,245C 99.1461,245.356 102.646,246.189 106,247.5C 106.414,247.043 106.914,246.709 107.5,246.5C 110.777,247.254 114.11,247.754 117.5,248C 119.226,249.53 121.226,250.53 123.5,251C 130.167,251.667 136.833,251.667 143.5,251C 144.893,249.637 146.559,248.804 148.5,248.5C 151.797,249.496 155.131,249.663 158.5,249C 157.5,248.667 156.5,248.333 155.5,248C 167.642,244.502 179.642,240.502 191.5,236C 197.185,232.306 202.851,228.64 208.5,225C 207.289,224.107 207.289,223.274 208.5,222.5C 210.541,221.764 212.541,220.931 214.5,220C 215.453,218.045 216.787,216.378 218.5,215C 224.698,211.597 229.031,206.597 231.5,200C 233.974,199.887 235.974,198.887 237.5,197C 237.043,196.586 236.709,196.086 236.5,195.5C 240.887,187.66 245.221,179.827 249.5,172C 250.185,169.205 250.685,166.372 251,163.5C 252.497,160.607 253.997,157.774 255.5,155C 254.855,147.524 255.855,140.191 258.5,133C 257.643,132.311 256.977,131.478 256.5,130.5C 257.91,129.431 258.91,128.097 259.5,126.5 Z"/></g>
<g><path style="opacity:1" fill="#d15248" d="M 150.5,203.5 C 149.274,205.876 147.274,207.376 144.5,208C 138.984,208.817 133.65,208.651 128.5,207.5C 136.39,208.499 143.724,207.166 150.5,203.5 Z"/></g>
<g><path style="opacity:1" fill="#fac2b0" d="M 118.5,194.5 C 126.006,204.144 135.34,206.144 146.5,200.5C 148.044,200.297 149.378,199.63 150.5,198.5C 151.386,199.325 151.719,200.325 151.5,201.5C 151.167,202.167 150.833,202.833 150.5,203.5C 143.724,207.166 136.39,208.499 128.5,207.5C 123.163,206.828 119.163,204.161 116.5,199.5C 115.939,197.092 115.439,194.759 115,192.5C 115.333,192.167 115.667,191.833 116,191.5C 116.236,193.119 117.069,194.119 118.5,194.5 Z"/></g>
<g><path style="opacity:1" fill="#f8a98f" d="M 117.5,190.5 C 117.833,191.833 118.167,193.167 118.5,194.5C 117.069,194.119 116.236,193.119 116,191.5C 115.667,191.833 115.333,192.167 115,192.5C 115.439,194.759 115.939,197.092 116.5,199.5C 114.026,197.102 112.692,194.102 112.5,190.5C 112.5,187.5 112.5,184.5 112.5,181.5C 113.161,180.282 113.828,178.949 114.5,177.5C 115.861,181.87 116.861,186.203 117.5,190.5 Z"/></g>
<g><path style="opacity:1" fill="#ef937a" d="M 157.5,164.5 C 157.5,170.167 157.5,175.833 157.5,181.5C 156.679,178.359 156.179,175.025 156,171.5C 155.667,174.833 155.333,178.167 155,181.5C 154.722,182.416 154.222,183.082 153.5,183.5C 153.5,179.833 153.5,176.167 153.5,172.5C 154.309,170.708 154.809,168.708 155,166.5C 155.708,165.619 156.542,164.953 157.5,164.5 Z"/></g>
<g><path style="opacity:1" fill="#e88d76" d="M 116.5,168.5 C 116.328,169.492 116.662,170.158 117.5,170.5C 117.5,177.167 117.5,183.833 117.5,190.5C 116.861,186.203 115.861,181.87 114.5,177.5C 113.828,178.949 113.161,180.282 112.5,181.5C 112.334,176.489 112.501,171.489 113,166.5C 113.333,166.167 113.667,165.833 114,165.5C 114.852,166.571 115.685,167.571 116.5,168.5 Z"/></g>
</svg>
