<?xml version="1.0" encoding="UTF-8"?>
<svg width="512px" height="512px" viewBox="0 0 512 512" version="1.1" xmlns="http://www.w3.org/2000/svg" xmlns:xlink="http://www.w3.org/1999/xlink">
    <title>ECM</title>
    <g id="ECM" stroke="none" stroke-width="1" fill="none" fill-rule="evenodd">
        <g id="content-management-system" transform="translate(0.000000, 7.000000)" fill-rule="nonzero">
            <polygon id="Path" fill="#80B7E4" points="250 95 250 32 302 63.5"></polygon>
            <polygon id="Path" fill="#80B7E4" points="370 214 433 214 433 277 370 277"></polygon>
            <path d="M432.178059,405.371125 C431.627576,404.650195 430.90917,404.220919 430.017792,404.084561 L411.194049,401.204625 C410.16505,397.91309 408.758541,394.553376 406.975784,391.12422 C408.20932,389.409642 410.060256,386.993072 412.528592,383.871984 C414.996928,380.750897 416.745595,378.471948 417.774594,377.031349 C418.323815,376.276328 418.596531,375.488481 418.596531,374.665282 C418.596531,373.705724 418.357904,372.951966 417.876863,372.402746 C415.408527,368.904148 409.750925,363.076098 400.904057,354.914808 C400.083382,354.229229 399.224831,353.887071 398.334715,353.887071 C397.305716,353.887071 396.482516,354.19514 395.865117,354.811277 L381.25964,365.818413 C378.446621,364.377814 375.360886,363.108925 372.001172,362.011747 L369.121237,343.085735 C369.053058,342.194357 368.657871,341.457012 367.938203,340.873702 C367.217272,340.290392 366.378922,340 365.416839,340 L342.581894,340 C340.593337,340 339.358538,340.959558 338.878759,342.879935 C337.98738,346.307829 336.992471,352.685099 335.895292,362.011747 C332.671936,363.042009 329.552112,364.344987 326.534556,365.921944 L312.339416,354.914808 C311.448038,354.229229 310.556659,353.887071 309.665281,353.887071 C308.156503,353.887071 304.916733,356.337731 299.94471,361.241576 C294.972686,366.14542 291.596559,369.830879 289.812539,372.299214 C289.195139,373.190593 288.887071,373.979703 288.887071,374.665282 C288.887071,375.488481 289.229229,376.31168 289.914808,377.133617 C294.509321,382.688951 298.178366,387.419822 300.921943,391.33002 C299.207365,394.483934 297.870298,397.639111 296.91074,400.793025 L277.777667,403.672961 C277.023909,403.810582 276.37242,404.256271 275.823199,405.011291 C275.273979,405.765049 275,406.554159 275,407.376096 L275,430.212305 C275,431.104946 275.273979,431.909206 275.823199,432.628875 C276.37242,433.349805 277.092088,433.780344 277.983467,433.916702 L296.808471,436.694369 C297.768029,440.054083 299.173276,443.447887 301.025475,446.87578 C299.791938,448.590358 297.939739,451.006928 295.471404,454.128016 C293.003068,457.249103 291.253138,459.528052 290.225401,460.968651 C289.676181,461.724934 289.402202,462.511519 289.402202,463.334718 C289.402202,464.226097 289.642091,465.013944 290.12187,465.699523 C292.796006,469.40392 298.453608,475.165054 307.094676,482.981661 C307.849697,483.736681 308.706986,484.112929 309.666543,484.112929 C310.695542,484.112929 311.552831,483.80486 312.23841,483.188723 L326.742881,472.180325 C329.555899,473.620924 332.641635,474.889812 336.001349,475.988253 L338.881284,494.914265 C338.950726,495.805643 339.344649,496.542988 340.064318,497.126298 C340.783986,497.71087 341.624861,498 342.584419,498 L365.420627,498 C367.411709,498 368.645246,497.040442 369.126287,495.120065 C370.016403,491.690909 371.01005,485.314901 372.107228,475.988253 C375.330584,474.959254 378.451672,473.655013 381.467965,472.078056 L395.664367,483.188723 C396.623925,483.80486 397.516566,484.112929 398.338503,484.112929 C399.846018,484.112929 403.069374,481.679945 408.006046,476.81019 C412.945242,471.941698 416.339046,468.2373 418.188719,465.699523 C418.806119,465.013944 419.11545,464.226097 419.11545,463.334718 C419.11545,462.44334 418.773292,461.583526 418.086451,460.762852 C413.149779,454.727739 409.480734,449.996868 407.079315,446.567712 C408.450472,444.029934 409.788803,440.910109 411.091781,437.206975 L430.121323,434.328302 C430.94326,434.190681 431.631363,433.743729 432.179321,432.988709 C432.727279,432.233688 432.999996,431.444579 432.999996,430.622642 L432.999996,407.787695 C433.001258,406.896317 432.728542,406.092056 432.178059,405.371125 L432.178059,405.371125 Z M354,450.600003 C336.5489,450.600003 322.4,436.451103 322.4,419.000002 C322.4,401.548902 336.5489,387.400001 354,387.400001 C371.4511,387.400001 385.6,401.548902 385.6,419.000002 C385.6,436.451103 371.4511,450.600003 354,450.600003 Z" id="Shape" fill="#80B7E4"></path>
            <g id="Group" fill="#000000">
                <path d="M354.157996,379.034483 C332.399476,379.034483 314.697495,396.746448 314.697495,418.517241 C314.697495,440.288034 332.399476,458 354.157996,458 C375.916516,458 393.618497,440.288034 393.618497,418.517241 C393.618497,396.746448 375.916516,379.034483 354.157996,379.034483 Z M354.157996,442.206897 C341.104462,442.206897 330.481696,431.578138 330.481696,418.517241 C330.481696,405.456345 341.104462,394.827586 354.157996,394.827586 C367.21153,394.827586 377.834297,405.456345 377.834297,418.517241 C377.834297,431.578138 367.21153,442.206897 354.157996,442.206897 Z" id="Shape"></path>
                <path d="M267.344894,0 C302.156948,0 330.481696,28.3407241 330.481696,63.1724138 C330.481696,64.1831724 330.379098,65.1623448 330.323854,66.1573103 C363.357975,77.7976962 392.215171,98.1371793 414.399032,125.513102 L415.069225,126.344828 L512,126.344828 L512,284.275862 L464.647399,284.275862 L464.647399,315.862069 L442.912555,315.862069 C435.52906,334.14565 425.346566,350.876803 412.722802,365.95641 C412.362235,366.202586 400.202102,355.328849 400.524085,355.344828 C409.85769,343.878227 418.955239,330.408296 425.087902,316.97121 L425.589395,315.862069 L338.373796,315.862069 L338.373796,173.724138 L369.942197,173.724138 L369.942197,126.344828 L394.241973,126.344828 C375.750782,106.46131 353.084671,91.3552069 327.632647,81.9425172 C319.630058,107.637897 295.630181,126.344828 267.344894,126.344828 C239.083283,126.344828 215.107083,107.669483 207.080817,82.0056897 C175.515573,93.7007986 148.003494,114.249793 127.921624,141.315758 L127.31536,142.137931 L189.410405,142.137931 C211.203838,142.137931 228.870906,159.814964 228.870906,181.62069 L228.870906,276.37931 C228.870906,298.185036 211.203838,315.862069 189.410405,315.862069 L173.626204,315.862069 L173.626204,331.655172 L188.423892,331.655172 L188.423892,347.448276 L126.759023,347.448269 C128.455089,349.66822 130.266308,351.971383 132.192678,354.357759 C146.003854,371.466954 166.204999,387.217943 192.796116,401.610724 C218.352517,413.735005 246.928606,419.426436 275.247418,418.207109 L275.236994,434.310345 C272.322167,434.475194 270.690023,434.332325 267.949895,434.312543 L267.344894,434.310345 C237.283884,434.310345 202.235067,425.426724 179.545279,413.581897 C156.855491,401.737069 130.219653,380.021552 116.408478,363.241379 C112.693227,358.727458 109.031516,353.463553 105.423344,347.449665 L40.4470135,347.448276 L40.4470135,331.655172 L55.2447013,331.655172 L55.2447013,315.862069 L39.460501,315.862069 C17.6670681,315.862069 0,298.185036 0,276.37931 L0,181.62069 C0,159.814964 17.6670681,142.137931 39.460501,142.137931 L108.271723,142.137931 C131.111461,106.792966 164.881757,80.1342069 204.358042,66.1967931 C204.31069,65.1860345 204.208092,64.191069 204.208092,63.1724138 C204.208092,28.3407241 232.53284,0 267.344894,0 Z M157.842004,315.862069 L72.0154143,315.862069 L72.0154143,331.655172 L157.842004,331.655172 L157.842004,315.862069 Z M448.863198,189.517241 L354.157996,189.517241 L354.157996,300.068966 L448.863198,300.068966 L448.863198,189.517241 Z M213.086705,284.275862 L15.7842004,284.275862 C15.7842004,292.998152 22.8550136,300.068966 31.5773038,300.068966 L197.293602,300.068966 C205.910804,300.068966 212.916084,293.167507 213.083636,284.590397 L213.086705,284.275862 Z M496.2158,142.137931 L385.726397,142.137931 L385.726397,173.724138 L464.647399,173.724138 L464.647399,268.482759 L496.2158,268.482759 L496.2158,142.137931 Z M189.086705,157.931034 L39.7842004,157.931034 C26.5293664,157.931034 15.7842004,168.6762 15.7842004,181.931034 L15.7842004,181.931034 L15.7842004,268.482759 L213.086705,268.482759 L213.086705,181.931034 C213.086705,168.6762 202.341539,157.931034 189.086705,157.931034 L189.086705,157.931034 Z M267.344894,15.7931034 C241.229934,15.7931034 219.992293,37.0427241 219.992293,63.1724138 C219.992293,89.3021034 241.229934,110.551724 267.344894,110.551724 C293.459854,110.551724 314.697495,89.3021034 314.697495,63.1724138 C314.697495,37.0427241 293.459854,15.7931034 267.344894,15.7931034 Z M433.078998,268.482759 L433.078998,284.275862 L369.942197,284.275862 L369.942197,268.482759 L433.078998,268.482759 Z M433.078998,236.896552 L433.078998,252.689655 L369.942197,252.689655 L369.942197,236.896552 L433.078998,236.896552 Z M433.078998,205.310345 L433.078998,221.103448 L369.942197,221.103448 L369.942197,205.310345 L433.078998,205.310345 Z" id="Shape"></path>
            </g>
        </g>
    </g>
</svg>