<?xml version="1.0"?>
<svg xmlns="http://www.w3.org/2000/svg" xmlns:xlink="http://www.w3.org/1999/xlink" xmlns:svgjs="http://svgjs.com/svgjs" version="1.1" width="512" height="512" x="0" y="0" viewBox="0 0 512.001 512.001" style="enable-background:new 0 0 512 512" xml:space="preserve" class=""><g>
<g xmlns="http://www.w3.org/2000/svg">
	<g>
		<rect x="247.467" y="213.247" width="17.067" height="85.333" fill="#000000" data-original="#000000" style="" class=""/>
	</g>
</g>
<g xmlns="http://www.w3.org/2000/svg">
	<g>
		<path d="M460.8,247.372H51.2c-4.71,0-8.533,3.823-8.533,8.533v42.667h17.067v-34.125h392.533v34.125h17.067v-42.667    C469.333,251.195,465.519,247.372,460.8,247.372z" fill="#000000" data-original="#000000" style="" class=""/>
	</g>
</g>
<g xmlns="http://www.w3.org/2000/svg">
	<g>
		<path d="M422.588,72.404c-13.67-13.705-31.846-21.265-51.2-21.291c-0.034,0-0.068,0-0.102,0c-10.001,0-19.849,2.065-28.937,6.025    c-18.5-43.477-67.354-66.995-113.579-53.009c-24.994,7.578-45.346,24.875-56.815,48.009c-3.209-0.666-6.485-1.007-9.822-1.024    c-28.237,0-51.2,22.963-51.2,51.26c0,0.043,0,0.085,0,0.128c-23.885,2.167-42.667,22.306-42.667,46.746    c0,25.882,21.052,46.933,46.933,46.933l260.821-0.009c38.144-2.458,67.891-34.313,67.721-72.533    C443.759,104.293,436.25,86.1,422.588,72.404z M375.467,179.114H115.2c-16.469,0-29.867-13.397-29.867-29.867    c0-16.469,13.397-29.867,29.867-29.867h5.12c2.551,0,4.958-1.135,6.579-3.106s2.278-4.557,1.792-7.057    c-0.452-2.304-0.683-4.651-0.7-6.912c0-18.825,15.309-34.133,34.074-34.133c3.985,0.026,7.893,0.759,11.622,2.176    c4.343,1.647,9.233-0.486,10.957-4.821c8.695-21.828,26.581-38.255,49.067-45.073C274.227,8.2,317.21,31.137,329.489,71.671    c0.768,2.543,2.679,4.574,5.154,5.513c2.475,0.93,5.248,0.666,7.509-0.725c8.747-5.419,18.825-8.277,29.124-8.277    c0.026,0,0.06,0,0.085,0c14.78,0.026,28.681,5.803,39.134,16.273c10.445,10.479,16.196,24.397,16.171,39.185    c0,0.017,0,0.034,0,0.051C426.803,152.899,404.079,177.253,375.467,179.114z" fill="#000000" data-original="#000000" style="" class=""/>
	</g>
</g>
<g xmlns="http://www.w3.org/2000/svg">
	<g>
		<path d="M332.8,315.639H179.2c-14.114,0-25.6,11.486-25.6,25.6v102.4c0,14.114,11.486,25.6,25.6,25.6h153.6    c14.114,0,25.6-11.477,25.6-25.6v-102.4C358.4,327.124,346.914,315.639,332.8,315.639z M341.333,443.639    c0,4.71-3.823,8.533-8.533,8.533H179.2c-4.702,0-8.533-3.823-8.533-8.533v-102.4c0-4.71,3.831-8.533,8.533-8.533h153.6    c4.71,0,8.533,3.823,8.533,8.533V443.639z" fill="#000000" data-original="#000000" style="" class=""/>
	</g>
</g>
<g xmlns="http://www.w3.org/2000/svg">
	<g>
		<path d="M289.963,501.699l-8.533-42.667c-0.794-3.985-4.292-6.861-8.363-6.861h-34.133c-4.062,0-7.569,2.876-8.363,6.861    l-8.533,42.667c-0.503,2.509,0.145,5.111,1.766,7.083c1.621,1.971,4.036,3.123,6.596,3.123h51.2c2.56,0,4.975-1.143,6.596-3.123    C289.809,506.811,290.466,504.208,289.963,501.699z M240.811,494.839l5.12-25.6h20.147l5.12,25.6H240.811z" fill="#000000" data-original="#000000" style="" class=""/>
	</g>
</g>
<g xmlns="http://www.w3.org/2000/svg">
	<g>
		<rect x="213.333" y="494.839" width="85.333" height="17.067" fill="#000000" data-original="#000000" style="" class=""/>
	</g>
</g>
<g xmlns="http://www.w3.org/2000/svg">
	<g>
		<rect x="162.133" y="418.039" width="187.733" height="17.067" fill="#000000" data-original="#000000" style="" class=""/>
	</g>
</g>
<g xmlns="http://www.w3.org/2000/svg">
	<g>
		<path d="M81.92,324.18H20.48C9.19,324.18,0,333.371,0,344.66v95.573c0,11.29,9.19,20.471,20.48,20.471h61.44    c11.29,0,20.48-9.182,20.48-20.471V344.66C102.4,333.371,93.21,324.18,81.92,324.18z M85.333,440.225    c0,1.877-1.527,3.405-3.413,3.405H20.48c-1.886,0-3.413-1.519-3.413-3.405v-95.573c0-1.877,1.527-3.413,3.413-3.413h61.44    c1.886,0,3.413,1.528,3.413,3.413V440.225z" fill="#000000" data-original="#000000" style="" class=""/>
	</g>
</g>
<g xmlns="http://www.w3.org/2000/svg">
	<g>
		<rect x="34.133" y="409.505" width="34.133" height="17.067" fill="#000000" data-original="#000000" style="" class=""/>
	</g>
</g>
<g xmlns="http://www.w3.org/2000/svg">
	<g>
		<path d="M503.467,324.172H409.6c-4.719,0-8.533,3.814-8.533,8.533v76.8c0,4.719,3.814,8.533,8.533,8.533h93.867    c4.719,0,8.533-3.814,8.533-8.533v-76.8C512,327.986,508.186,324.172,503.467,324.172z M494.933,400.972h-76.8v-59.733h76.8    V400.972z" fill="#000000" data-original="#000000" style="" class=""/>
	</g>
</g>
<g xmlns="http://www.w3.org/2000/svg">
	<g>
		<path d="M510.891,405.298c-1.519-2.679-4.352-4.326-7.424-4.326H409.6c-2.995,0-5.769,1.57-7.313,4.139l-25.6,42.667    c-1.587,2.637-1.63,5.922-0.111,8.602c1.519,2.679,4.352,4.326,7.424,4.326h93.867c3.004,0,5.777-1.57,7.313-4.139l25.6-42.667    C512.367,411.263,512.41,407.978,510.891,405.298z M473.037,443.639h-73.958l15.36-25.6h73.958L473.037,443.639z" fill="#000000" data-original="#000000" style="" class=""/>
	</g>
</g>
<g xmlns="http://www.w3.org/2000/svg">
</g>
<g xmlns="http://www.w3.org/2000/svg">
</g>
<g xmlns="http://www.w3.org/2000/svg">
</g>
<g xmlns="http://www.w3.org/2000/svg">
</g>
<g xmlns="http://www.w3.org/2000/svg">
</g>
<g xmlns="http://www.w3.org/2000/svg">
</g>
<g xmlns="http://www.w3.org/2000/svg">
</g>
<g xmlns="http://www.w3.org/2000/svg">
</g>
<g xmlns="http://www.w3.org/2000/svg">
</g>
<g xmlns="http://www.w3.org/2000/svg">
</g>
<g xmlns="http://www.w3.org/2000/svg">
</g>
<g xmlns="http://www.w3.org/2000/svg">
</g>
<g xmlns="http://www.w3.org/2000/svg">
</g>
<g xmlns="http://www.w3.org/2000/svg">
</g>
<g xmlns="http://www.w3.org/2000/svg">
</g>
</g></svg>
