<?xml version="1.0"?>
<svg xmlns="http://www.w3.org/2000/svg" xmlns:xlink="http://www.w3.org/1999/xlink" xmlns:svgjs="http://svgjs.com/svgjs" version="1.1" width="512" height="512" x="0" y="0" viewBox="0 0 484 484" style="enable-background:new 0 0 512 512" xml:space="preserve" class=""><g>
<g xmlns="http://www.w3.org/2000/svg">
	<g>
		<path d="M412.1,156.4H71.9c-6.6,0-12,5.4-12,12v240.9c0,6.6,5.4,12,12,12H230V460h-60.7c-6.6,0-12,5.4-12,12s5.4,12,12,12h145.5    c6.6,0,12-5.4,12-12s-5.4-12-12-12H254v-38.7h158.1c6.6,0,12-5.4,12-12V168.4C424.1,161.8,418.7,156.4,412.1,156.4z M400.1,397.3    H83.9V180.4h316.2V397.3z" fill="#000000" data-original="#000000" style="" class=""/>
		<path d="M317,128.5c3.2,0,6.3-1.3,8.5-3.5s3.5-5.3,3.5-8.5s-1.3-6.3-3.5-8.5s-5.3-3.5-8.5-3.5s-6.3,1.3-8.5,3.5s-3.5,5.3-3.5,8.5    s1.3,6.3,3.5,8.5S313.8,128.5,317,128.5z" fill="#000000" data-original="#000000" style="" class=""/>
		<path d="M278.7,98.3c1.8,0.9,3.7,1.4,5.6,1.4c4.3,0,8.5-2.3,10.6-6.4c3.1-5.9,0.8-13.1-5.1-16.2s-13.1-0.8-16.2,5.1    C270.6,88,272.9,95.2,278.7,98.3z" fill="#000000" data-original="#000000" style="" class=""/>
		<path d="M194.1,77c-5.9,3.1-8.1,10.3-5.1,16.2c2.1,4.1,6.3,6.4,10.6,6.4c1.9,0,3.8-0.4,5.6-1.4c5.9-3.1,8.1-10.3,5.1-16.2    C207.3,76.2,200,74,194.1,77z" fill="#000000" data-original="#000000" style="" class=""/>
		<path d="M242,89.3c6.6,0,12-5.4,12-12s-5.4-12-12-12s-12,5.4-12,12S235.4,89.3,242,89.3z" fill="#000000" data-original="#000000" style="" class=""/>
		<path d="M155,116.5c0,3.2,1.3,6.3,3.5,8.5s5.3,3.5,8.5,3.5s6.3-1.3,8.5-3.5s3.5-5.3,3.5-8.5s-1.3-6.3-3.5-8.5s-5.3-3.5-8.5-3.5    s-6.3,1.3-8.5,3.5S155,113.3,155,116.5z" fill="#000000" data-original="#000000" style="" class=""/>
		<path d="M361.8,86.6c3.2,0,6.3-1.3,8.5-3.5s3.5-5.3,3.5-8.5s-1.3-6.3-3.5-8.5s-5.3-3.5-8.5-3.5s-6.3,1.3-8.5,3.5s-3.5,5.3-3.5,8.5    s1.3,6.3,3.5,8.5C355.5,85.3,358.6,86.6,361.8,86.6z" fill="#000000" data-original="#000000" style="" class=""/>
		<path d="M154.7,53c2.5,0,5-0.8,7.2-2.4c5.3-4,6.4-11.5,2.4-16.8s-11.5-6.4-16.8-2.4s-6.4,11.5-2.4,16.8    C147.4,51.4,151,53,154.7,53z" fill="#000000" data-original="#000000" style="" class=""/>
		<path d="M242,24c6.6,0,12-5.4,12-12s-5.4-12-12-12s-12,5.4-12,12S235.4,24,242,24z" fill="#000000" data-original="#000000" style="" class=""/>
		<path d="M322.2,50.7c2.2,1.6,4.7,2.4,7.2,2.4c3.7,0,7.3-1.7,9.6-4.8c4-5.3,2.9-12.8-2.4-16.8s-12.8-2.9-16.8,2.4    C315.8,39.2,316.9,46.7,322.2,50.7z" fill="#000000" data-original="#000000" style="" class=""/>
		<path d="M284.3,30.8c1.3,0.4,2.5,0.6,3.8,0.6c5,0,9.7-3.2,11.4-8.2c2.1-6.3-1.3-13.1-7.6-15.2c-6.3-2.1-13.1,1.3-15.2,7.6    C274.6,21.9,278,28.7,284.3,30.8z" fill="#000000" data-original="#000000" style="" class=""/>
		<path d="M196,31.4c1.3,0,2.5-0.2,3.8-0.6c6.3-2.1,9.7-8.9,7.6-15.2s-8.9-9.7-15.2-7.6s-9.7,8.9-7.6,15.2    C186.3,28.2,191,31.4,196,31.4z" fill="#000000" data-original="#000000" style="" class=""/>
		<path d="M122.2,86.6c3.2,0,6.3-1.3,8.5-3.5s3.5-5.3,3.5-8.5s-1.3-6.3-3.5-8.5s-5.3-3.5-8.5-3.5s-6.3,1.3-8.5,3.5s-3.5,5.3-3.5,8.5    s1.3,6.3,3.5,8.5C116,85.3,119.1,86.6,122.2,86.6z" fill="#000000" data-original="#000000" style="" class=""/>
	</g>
</g>
<g xmlns="http://www.w3.org/2000/svg">
</g>
<g xmlns="http://www.w3.org/2000/svg">
</g>
<g xmlns="http://www.w3.org/2000/svg">
</g>
<g xmlns="http://www.w3.org/2000/svg">
</g>
<g xmlns="http://www.w3.org/2000/svg">
</g>
<g xmlns="http://www.w3.org/2000/svg">
</g>
<g xmlns="http://www.w3.org/2000/svg">
</g>
<g xmlns="http://www.w3.org/2000/svg">
</g>
<g xmlns="http://www.w3.org/2000/svg">
</g>
<g xmlns="http://www.w3.org/2000/svg">
</g>
<g xmlns="http://www.w3.org/2000/svg">
</g>
<g xmlns="http://www.w3.org/2000/svg">
</g>
<g xmlns="http://www.w3.org/2000/svg">
</g>
<g xmlns="http://www.w3.org/2000/svg">
</g>
<g xmlns="http://www.w3.org/2000/svg">
</g>
</g></svg>
