<?xml version="1.0" encoding="utf-8"?>
<!-- Generator: Adobe Illustrator 21.0.2, SVG Export Plug-In . SVG Version: 6.00 Build 0)  -->
<svg version="1.1" id="Layer_1" xmlns="http://www.w3.org/2000/svg" xmlns:xlink="http://www.w3.org/1999/xlink" x="0px" y="0px"
	 viewBox="0 0 100 100" style="enable-background:new 0 0 100 100;" xml:space="preserve">
<path d="M35.1,29.8c2.4-2,3.9-5,3.9-8.3c0-6.1-4.9-11-11-11s-11,4.9-11,11c0,3.3,1.5,6.3,3.9,8.3C13.3,32.7,8,40,8,48.5v1
	c0,1.1,0.9,2,2,2h36c1.1,0,2-0.9,2-2v-1C48,40,42.7,32.7,35.1,29.8z M21,21.5c0-3.9,3.1-7,7-7s7,3.1,7,7s-3.1,7-7,7S21,25.4,21,21.5
	z M12,47.5c0.5-8.4,7.5-15,16-15s15.5,6.6,16,15H12z M79.1,67.8c2.4-2,3.9-5,3.9-8.3c0-6.1-4.9-11-11-11s-11,4.9-11,11
	c0,3.3,1.5,6.3,3.9,8.3C57.3,70.7,52,78,52,86.5v1c0,1.1,0.9,2,2,2h36c1.1,0,2-0.9,2-2v-1C92,78,86.7,70.7,79.1,67.8z M65,59.5
	c0-3.9,3.1-7,7-7s7,3.1,7,7s-3.1,7-7,7S65,63.4,65,59.5z M56,85.5c0.5-8.4,7.5-15,16-15s15.5,6.6,16,15H56z M50.1,21.1
	c0-0.1,0-0.1-0.1-0.2c-0.1-0.3-0.1-0.5,0-0.8c0-0.1,0-0.1,0.1-0.2c0-0.1,0-0.1,0.1-0.2c0-0.1,0.1-0.1,0.1-0.2c0-0.1,0.1-0.1,0.1-0.2
	c0.1-0.1,0.2-0.2,0.3-0.3l8-8c0.8-0.8,2-0.8,2.8,0c0.8,0.8,0.8,2,0,2.8l-4.6,4.6H72c1.1,0,2,0.9,2,2c0,0.1,0,0.2,0,0.2
	c0,0.1,0,0.2,0,0.2v19.5c0,1.1-0.9,2-2,2s-2-0.9-2-2v-18H56.8l4.6,4.6c0.8,0.8,0.8,2,0,2.8c-0.4,0.4-0.9,0.6-1.4,0.6s-1-0.2-1.4-0.6
	l-8-8c-0.1-0.1-0.2-0.2-0.3-0.3c0,0-0.1-0.1-0.1-0.2c0-0.1-0.1-0.1-0.1-0.2C50.1,21.2,50.1,21.1,50.1,21.1z M41.7,80.5
	c0,0,0,0.1-0.1,0.1c-0.1,0.1-0.2,0.2-0.3,0.3l-8,8c-0.4,0.4-0.9,0.6-1.4,0.6s-1-0.2-1.4-0.6c-0.8-0.8-0.8-2,0-2.8l4.6-4.6H20
	c-1.1,0-2-0.9-2-2c0-0.1,0-0.2,0-0.2c0-0.1,0-0.2,0-0.2V59.5c0-1.1,0.9-2,2-2s2,0.9,2,2v18h13.2l-4.6-4.6c-0.8-0.8-0.8-2,0-2.8
	c0.8-0.8,2-0.8,2.8,0l8,8c0.1,0.1,0.2,0.2,0.3,0.3c0,0,0.1,0.1,0.1,0.1c0,0.1,0.1,0.1,0.1,0.2c0,0.1,0,0.1,0.1,0.2
	c0,0.1,0,0.1,0.1,0.2c0.1,0.3,0.1,0.5,0,0.8c0,0.1,0,0.1-0.1,0.2c0,0.1,0,0.1-0.1,0.2C41.8,80.3,41.8,80.4,41.7,80.5z"/>
</svg>
