<?xml version="1.0" encoding="utf-8"?>
<!-- Svg Vector Icons : http://www.onlinewebfonts.com/icon -->
<!DOCTYPE svg PUBLIC "-//W3C//DTD SVG 1.1//EN" "http://www.w3.org/Graphics/SVG/1.1/DTD/svg11.dtd">
<svg version="1.1" xmlns="http://www.w3.org/2000/svg" xmlns:xlink="http://www.w3.org/1999/xlink" x="0px" y="0px" viewBox="0 0 1000 1000" enable-background="new 0 0 1000 1000" xml:space="preserve">
<metadata> Svg Vector Icons : http://www.onlinewebfonts.com/icon </metadata>
<g><g transform="translate(0.000000,511.000000) scale(0.100000,-0.100000)"><path d="M4413.2,4987.4C3302.9,4853.6,2324.3,4373.5,1526,3571.1C782.4,2825.5,310.3,1897.5,148.2,864.2C65.2,335.4,91.5-420.4,211-957.3c362.7-1624.9,1548-2970.3,3118.2-3543.7c500.5-182.3,958.3-265.4,1556.1-281.6l419.4-12.1v2962.2v2960.2h1061.7h1061.7l20.3-125.6c54.7-320.1,68.9-571.4,60.8-1023.2l-8.1-472.1h297.8h297.8l14.2,133.7c22.3,192.5-4.1,1100.2-36.5,1310.9l-26.3,176.3h561.2c320.1,0,567.3-8.1,573.4-18.2c8.1-10.1,32.4-131.7,56.7-269.5c36.5-206.7,44.6-326.2,46.6-705.1c0-251.3-6.1-494.4-16.2-543l-14.2-87.1l308,6.1l310,6.1l16.2,152c24.3,218.8,2,948.2-34.5,1185.3c-166.1,1049.5-638.2,1975.5-1389.9,2725.1c-794.2,796.3-1787,1278.5-2889.2,1408.2C5266.2,5023.8,4711,5023.8,4413.2,4987.4z M5458.7,4284.3c745.6-528.8,1331.2-1282.5,1685.7-2174c72.9-180.3,186.4-526.8,186.4-563.3c0-8.1-455.9-14.2-1013.1-14.2H5304.7v1418.3c0,780.1,8.1,1418.3,16.2,1418.3C5331,4369.4,5391.8,4330.9,5458.7,4284.3z M4690.8,1538.9c-4.1-4-449.8-4-990.8-2l-982.7,6.1l54.7,182.3c299.9,990.8,919.9,1888.3,1710,2475.9l204.6,154l6.1-1404.1C4694.8,2179.2,4694.8,1543,4690.8,1538.9z M3400.2,4051.3c-520.7-622-794.2-1059.7-1041.4-1669.5c-85.1-210.7-275.6-792.2-275.6-842.9c0-2-255.3-6.1-567.3-6.1s-567.3,4.1-567.3,10.1c0,34.4,115.5,303.9,212.7,498.4c206.7,411.3,415.4,705.1,749.7,1049.5c389,401.2,725.3,646.3,1215.7,887.4c166.1,81,310,147.9,320.1,147.9C3456.9,4126.3,3436.6,4091.8,3400.2,4051.3z M6905.3,3964.2c431.6-216.8,727.4-425.5,1071.8-759.8c380.9-368.8,638.2-717.2,863.1-1165c99.3-196.5,212.7-464,212.7-496.4c0-6.1-245.2-10.1-543-10.1h-545l-46.6,178.3c-212.7,812.5-644.3,1627-1201.5,2259.1C6579.1,4126.3,6581.2,4126.3,6905.3,3964.2z M1994,1062.8c-87.1-504.5-87.1-1391.9,0-1894.4l12.2-66.9h-587.6c-334.3,0-593.7,8.1-599.7,18.2c-8.1,10.1-32.4,131.7-56.7,269.5c-38.5,210.7-46.6,322.1-46.6,725.3c0,403.2,8.1,514.6,46.6,725.3c24.3,137.8,48.6,259.3,56.7,269.5c6.1,10.1,265.4,18.2,599.7,18.2h587.6L1994,1062.8z M4696.9,114.6V-898.5H3665.6c-569.3,0-1037.4,8.1-1043.4,16.2c-6.1,8.1-26.3,125.6-44.6,259.3c-50.7,338.4-50.7,1136.7,0,1475c18.2,133.7,38.5,251.2,44.6,259.3c6.1,8.1,474.1,16.2,1043.4,16.2h1031.3V114.6z M2083.2-1309.8c0-4.1,36.5-133.7,81-287.7c233-796.3,646.3-1554,1173.1-2145.7c68.9-77,119.5-143.8,115.5-149.9c-6.1-4.1-129.7,50.6-279.6,121.6c-478.2,231-778,439.7-1148.8,796.3c-380.9,366.7-636.2,711.2-857.1,1150.8c-103.3,208.7-218.8,476.1-218.8,510.6c0,6.1,255.3,10.1,567.3,10.1S2083.2-1307.8,2083.2-1309.8z M4696.9-2713.9c0-1120.5-6.1-1406.1-24.3-1394c-239.1,137.8-804.4,660.5-1033.3,950.3c-389,496.4-723.3,1140.7-883.4,1708l-40.5,145.9h990.8h990.8V-2713.9z"/><path d="M6406.9-961.3c-143.9-54.7-277.6-178.3-346.5-318.1l-56.7-115.5v-1448.7c0-1375.7,2-1452.7,38.5-1547.9c48.6-127.7,174.3-263.4,306-332.3l101.3-54.7l1450.7-6.1c1434.5-4,1454.8-4,1566.2,38.5c154,56.7,297.8,200.6,354.6,354.6c42.5,111.4,42.5,131.7,38.5,1564.2l-6.1,1452.7l-46.6,95.2c-60.8,121.6-180.3,241.1-303.9,301.9l-95.2,48.6l-1448.7,4.1C6554.8-920.8,6506.2-920.8,6406.9-961.3z M7436.2-1348.3c160-72.9,287.7-198.6,366.7-358.6c58.8-121.6,64.8-149.9,64.8-326.2c0-158-8.1-210.7-46.6-291.8c-265.4-577.5-1041.4-605.8-1343.3-48.6c-66.9,121.6-68.9,135.8-68.9,340.4c0,253.3,34.5,346.5,186.4,508.6c160,170.2,338.4,245.2,573.4,235C7280.2-1295.6,7353.1-1309.8,7436.2-1348.3z M9184.7-1607.6l121.6-121.6L8074.4-2961.1L6844.6-4190.9l-125.6,127.6l-127.6,125.6l1225.8,1225.8C8491.8-2037.2,9047-1486.1,9053-1486.1S9117.9-1540.8,9184.7-1607.6z M9123.9-3036.1c152-72.9,281.6-204.6,350.5-350.5c48.6-101.3,54.7-141.8,54.7-318.1c0-180.3-6.1-214.8-56.7-318.1c-73-149.9-206.7-281.6-354.6-354.6c-101.3-50.6-137.8-56.7-308-56.7c-166.1,0-208.7,8.1-308,54.7c-160.1,75-287.7,198.6-366.7,358.6c-58.8,119.5-64.8,149.9-64.8,316.1c0,156,8.1,198.6,54.7,297.9c93.2,198.6,269.5,354.6,482.2,423.4c28.4,10.1,129.7,14.2,224.9,12.2C8976-2977.3,9026.7-2987.4,9123.9-3036.1z"/><path d="M7043.1-1668.4c-277.6-83.1-374.8-409.3-182.3-616c141.8-149.9,417.4-149.9,555.2,2.1c52.7,56.7,97.3,178.3,97.3,259.3c0,147.9-129.7,312-279.6,354.6C7148.5-1646.2,7120.1-1646.2,7043.1-1668.4z"/><path d="M8621.5-3372.4c-40.5-22.3-99.3-77-129.7-119.6c-160-245.1-8.1-559.2,285.7-583.5c162.1-12.2,322.1,83.1,374.8,224.9c30.4,81,28.4,249.2-6.1,314c-38.5,72.9-131.7,158-200.6,184.4C8856.5-3317.7,8706.6-3327.8,8621.5-3372.4z"/></g></g>
</svg>