<?xml version="1.0" encoding="utf-8"?>
<!-- Svg Vector Icons : http://www.onlinewebfonts.com/icon -->
<!DOCTYPE svg PUBLIC "-//W3C//DTD SVG 1.1//EN" "http://www.w3.org/Graphics/SVG/1.1/DTD/svg11.dtd">
<svg version="1.1" xmlns="http://www.w3.org/2000/svg" xmlns:xlink="http://www.w3.org/1999/xlink" x="0px" y="0px" viewBox="0 0 1000 1000" enable-background="new 0 0 1000 1000" xml:space="preserve">
<metadata> Svg Vector Icons : http://www.onlinewebfonts.com/icon </metadata>
<g><g transform="translate(0.000000,511.000000) scale(0.100000,-0.100000)"><path d="M5234.6,4984.1c-17.8-13.8-41.5-43.5-53.3-67.2c-31.6-59.3-33.6-2373.8-2-2443c27.7-63.3,75.1-85,245.1-114.6c77.1-11.9,213.5-49.4,306.4-81c235.2-83,314.3-90.9,367.6-31.6c49.4,53.4,1187.9,1935.1,1225.5,2022c19.8,47.5,19.8,71.2,0,118.6c-21.7,49.4-67.2,79.1-260.9,172c-421,201.6-948.8,353.8-1456.7,421C5329.5,5015.7,5276.2,5015.7,5234.6,4984.1z"/><path d="M4442,4029.4c-399.3-57.3-1033.7-257-1106.9-345.9c-19.8-23.7-35.6-67.2-35.6-96.9c0-59.3,622.6-1215.6,697.7-1298.6c49.4-55.3,112.7-57.3,255-7.9c92.9,31.6,195.7,57.3,464.5,112.7c23.7,3.9,63.2,27.7,85,51.4c37.6,41.5,39.5,67.2,39.5,774.8c-2,770.9-2,770.9-92.9,818.3C4697,4065,4691.1,4065,4442,4029.4z"/><path d="M2388.4,3879.2c-318.2-221.4-612.7-486.2-857.8-770.9c-312.3-363.7-349.9-440.8-260.9-537.6c23.7-25.7,428.9-280.7,897.4-563.3c650.3-391.4,871.7-515.9,919.1-515.9c55.3,0,88.9,25.7,233.2,173.9c92.9,96.9,215.4,215.5,274.7,262.9c83,69.2,106.7,100.8,108.7,146.3c2,71.2-956.7,1832.3-1021.9,1877.7C2607.8,4003.7,2542.6,3986,2388.4,3879.2z"/><path d="M6960.2,3017.4c-19.8-19.8-158.1-237.2-306.4-484.3C6458.1,2209,6383,2066.7,6383,2021.2c0-51.4,27.7-88.9,183.8-241.1c100.8-98.8,219.4-223.4,262.9-276.7c63.3-79.1,90.9-96.9,140.4-96.9c63.3,0,986.3,492.2,1035.7,551.5c55.4,67.2,29.6,156.1-90.9,316.2c-142.3,191.7-446.7,506-638.4,662.1C7118.3,3064.9,7029.4,3086.6,6960.2,3017.4z"/><path d="M684.6,2416.6c-45.5-35.6-233.2-436.8-318.2-685.8C263.6,1438.2,184.6,1112,139.1,789.9C85.7,424.2,85.7,374.8,147,315.5l47.4-49.4H1408c1128.6,0,1217.6,2,1257.1,35.6c31.6,23.7,53.4,85,81,225.3c21.7,104.8,67.2,266.8,98.8,359.7c67.2,191.7,73.1,268.8,25.7,314.3c-19.8,15.8-484.3,302.4-1033.7,634.5C817,2454.1,767.6,2477.8,684.6,2416.6z"/><path d="M8250.9,1716.9c-565.3-312.3-1047.6-585.1-1071.3-606.8c-57.3-51.4-57.3-108.7,4-284.6c25.7-79.1,61.3-215.4,79.1-306.4c23.7-128.5,41.5-173.9,81-207.5l49.4-45.5h1205.7h1205.7l47.4,49.4c59.3,57.3,61.3,98.8,19.8,419c-61.3,458.6-211.5,1008-373.6,1357.9c-65.2,144.3-114.6,189.7-195.7,189.7C9288.6,2282.2,8816.2,2027.2,8250.9,1716.9z"/><path d="M1744-101.6c-47.4-47.4-49.4-59.3-37.6-181.8c31.6-298.4,195.7-879.6,270.8-954.7c81-81.1,116.6-71.2,466.5,120.6c183.8,98.8,351.8,199.6,377.5,223.3c53.4,49.4,55.4,112.7,5.9,255c-31.6,92.9-57.3,195.7-112.7,464.5c-4,23.7-27.7,63.3-51.4,85c-39.5,37.6-69.2,39.5-454.6,39.5h-413.1L1744-101.6z"/><path d="M7357.5-73.9c-49.4-23.7-77.1-87-94.9-223.3c-5.9-53.4-47.4-203.6-90.9-334c-87-264.9-90.9-288.6-41.5-343.9c17.8-23.7,300.4-201.6,624.6-397.3c632.5-383.5,676-401.3,759-312.3c148.2,158.1,413.1,1059.4,421,1437c4,92.9-3.9,112.7-49.4,152.2L8832-50.2l-715.5-2C7657.9-52.2,7385.1-60.1,7357.5-73.9z"/><path d="M2971.5-1196.6c-96.8-37.5-2037.8-1114.8-2077.4-1152.3c-77.1-69.2-61.3-154.2,67.2-338c256.9-369.6,583.1-725.4,905.3-990.3c338-276.7,409.2-310.3,500.1-233.2c23.7,19.8,312.3,486.2,644.4,1035.7c464.5,766.9,604.8,1016,604.8,1065.4c0,53.4-25.7,88.9-183.8,245.1c-100.8,98.8-219.4,221.4-262.9,272.8C3086.1-1192.6,3038.7-1168.9,2971.5-1196.6z"/><path d="M6655.8-1477.3c-112.7-112.6-237.2-231.2-276.7-264.8c-59.3-47.4-75.1-75.1-75.1-126.5c0-45.5,132.4-302.4,484.2-946.8c266.8-484.3,508-901.3,535.6-927c27.7-23.7,69.2-43.5,94.9-43.5c47.4,0,256.9,136.4,476.3,312.3c300.4,239.2,786.7,770.9,871.7,948.7c61.3,132.4,65.2,128.5-901.3,713.5c-644.3,391.4-901.3,535.6-944.8,535.6C6869.2-1275.7,6825.8-1309.3,6655.8-1477.3z"/><path d="M3916.3-2020.8c-57.3-49.4-596.9-950.7-596.9-998.2c0-77.1,45.5-120.6,207.5-195.7c304.4-142.3,695.8-251,1099-304.4c79.1-9.9,100.8-4,154.2,39.5l61.3,53.4v577.2c0,553.4-2,579.1-39.5,620.6c-21.7,23.7-61.3,47.4-85,51.4c-290.6,59.3-383.5,83-515.9,132.4C4017.1-1977.3,3971.6-1975.3,3916.3-2020.8z"/><path d="M5746.6-2068.2c-53.4-19.8-185.8-55.3-296.5-77.1c-162.1-31.6-213.5-51.4-247.1-90.9l-45.5-49.4v-1184c0-838.1,5.9-1197.8,21.7-1233.4c41.5-90.9,110.7-100.8,407.2-65.2c480.3,59.3,1033.7,207.5,1395.4,375.5c144.3,67.2,191.7,112.7,191.7,185.8c0,43.5-1112.8,2073.4-1172.1,2136.6C5952.1-2016.9,5877-2016.9,5746.6-2068.2z"/></g></g>
</svg>