<?xml version="1.0" encoding="UTF-8" standalone="no"?>
<svg
   xmlns:dc="http://purl.org/dc/elements/1.1/"
   xmlns:cc="http://creativecommons.org/ns#"
   xmlns:rdf="http://www.w3.org/1999/02/22-rdf-syntax-ns#"
   xmlns:svg="http://www.w3.org/2000/svg"
   xmlns="http://www.w3.org/2000/svg"
   xmlns:sodipodi="http://sodipodi.sourceforge.net/DTD/sodipodi-0.dtd"
   xmlns:inkscape="http://www.inkscape.org/namespaces/inkscape"
   sodipodi:docname="vista.svg"
   inkscape:version="1.0 (4035a4fb49, 2020-05-01)"
   id="svg8"
   version="1.1"
   viewBox="0 0 297 297"
   height="297mm"
   width="297mm">
  <defs
     id="defs2" />
  <sodipodi:namedview
     inkscape:window-maximized="0"
     inkscape:window-y="0"
     inkscape:window-x="104"
     inkscape:window-height="1040"
     inkscape:window-width="1260"
     showgrid="false"
     inkscape:document-rotation="0"
     inkscape:current-layer="layer1"
     inkscape:document-units="mm"
     inkscape:cy="560"
     inkscape:cx="400"
     inkscape:zoom="0.35"
     inkscape:pageshadow="2"
     inkscape:pageopacity="0.0"
     borderopacity="1.0"
     bordercolor="#666666"
     pagecolor="#ffffff"
     id="base" />
  <metadata
     id="metadata5">
    <rdf:RDF>
      <cc:Work
         rdf:about="">
        <dc:format>image/svg+xml</dc:format>
        <dc:type
           rdf:resource="http://purl.org/dc/dcmitype/StillImage" />
        <dc:title></dc:title>
      </cc:Work>
    </rdf:RDF>
  </metadata>
  <g
     id="layer1"
     inkscape:groupmode="layer"
     inkscape:label="Capa 1">
    <g
       transform="matrix(10.859945,0,0,12.055901,-54.956708,-49.297523)"
       id="g120">
      <path
         id="path144"
         d="M 5.4050622,16.630952 V 4.4601188 H 18.898812 32.392561 V 16.630952 28.801786 H 18.898812 5.4050622 Z"
         style="fill:#fcfcfc;stroke-width:0.264583" />
      <path
         id="path142"
         d="M 8.095406,27.699314 C 6.7632863,26.84644 6.7276862,26.555281 6.7318793,16.547582 6.7372286,3.7800795 5.3789181,5.0614465 18.961994,5.0102594 32.832497,4.9579892 31.596433,3.8264132 31.597822,16.577946 31.598907,26.60299 31.576788,26.751473 29.93232,27.754164 28.561039,28.590283 9.4119004,28.542185 8.095406,27.699314 Z m 20.961556,-2.226459 c 0.08833,-0.230184 0.160599,-3.498215 0.160599,-7.262292 v -6.843778 l -10.054166,0.0175 -10.0541663,0.01749 v 7.068409 c 0,3.887625 0.079375,7.147784 0.176389,7.244798 0.4290639,0.429064 19.6038943,0.194244 19.7713443,-0.242125 z M 14.832365,23.548346 c -0.642023,-0.709428 -0.533062,-9.491128 0.122891,-9.904399 0.713211,-0.449345 3.626027,0.9671 7.956235,3.868957 1.649543,1.10543 1.088729,1.792282 -3.690842,4.520332 -3.927156,2.241514 -3.777621,2.189885 -4.388284,1.51511 z M 11.587807,8.9276608 C 12.027384,8.3000776 11.917472,7.7540565 11.304194,7.5187196 10.431186,7.1837148 9.7904649,8.4751051 10.485062,9.1697022 c 0.445219,0.4452189 0.65337,0.3995317 1.102745,-0.2420414 z m 3.549241,0.024281 c 0.423358,-0.6779035 3.34e-4,-1.5814061 -0.740421,-1.5814061 -0.640005,0 -0.990905,1.1582882 -0.522047,1.7232276 0.448128,0.5399617 0.866004,0.4930187 1.262468,-0.1418215 z m 4.820097,-0.5230727 c 0,-0.4586111 -0.176389,-0.5291667 -1.322917,-0.5291667 -1.146527,0 -1.322916,0.070556 -1.322916,0.5291667 0,0.458611 0.176389,0.5291666 1.322916,0.5291666 1.146528,0 1.322917,-0.070556 1.322917,-0.5291666 z"
         style="fill:#e9e9e9;stroke-width:0.264583" />
      <path
         id="path140"
         d="M 8.6662345,27.981623 C 6.3889772,27.292842 6.3864291,27.280184 6.3864291,16.656691 c 0,-12.6794431 -1.4511825,-11.3603386 12.4978159,-11.3603386 13.99761,0 12.714149,-1.1612989 12.714149,11.5040046 0,12.449016 1.069682,11.483111 -12.678463,11.448456 -5.196982,-0.01311 -9.811146,-0.133336 -10.2536965,-0.26719 z M 29.12174,18.567133 29.19311,11.370541 H 18.862616 8.5321283 v 6.945702 c 0,8.626378 -1.4446244,7.600436 10.5841867,7.516665 l 9.934062,-0.06918 z m -14.635297,4.898966 c -0.411103,-0.404793 -0.449936,-8.725492 -0.04421,-9.471968 0.416718,-0.766692 1.141145,-0.628011 3.28073,0.628047 1.066986,0.626381 2.815017,1.650179 3.884514,2.275108 3.054897,1.785037 3.054846,1.785124 -3.186389,5.392733 -2.630876,1.520719 -3.362533,1.739414 -3.93465,1.17608 z M 11.587807,8.9276608 c 0.213502,-0.3353583 0.213502,-0.5889747 0,-0.9243331 C 10.835832,6.8221608 9.2132022,7.7794161 9.8819011,9.0097109 10.232301,9.6543883 11.153349,9.6100882 11.587807,8.9276608 Z m 3.486761,0 c 0.213502,-0.3353583 0.213502,-0.5889747 0,-0.9243331 -0.434459,-0.6824274 -1.355506,-0.7267275 -1.705906,-0.08205 -0.668699,1.230295 0.953931,2.1875503 1.705906,1.0063831 z m 4.990693,-0.4621665 c 0,-0.4695026 -0.178808,-0.5281903 -1.609275,-0.5281903 -1.430466,0 -1.609274,0.058687 -1.609274,0.5281903 0,0.4695025 0.178808,0.5281903 1.609274,0.5281903 1.430467,0 1.609275,-0.058688 1.609275,-0.5281903 z"
         style="fill:#d7d7d7;stroke-width:0.266145" />
      <path
         id="path138"
         d="M 8.252659,27.598693 C 6.7706109,26.784653 6.7279788,26.47798 6.7279788,16.630952 6.7279788,3.9927922 5.3639128,5.2087823 19.426259,5.3111303 l 10.308948,0.07503 0.733365,0.7336174 0.733364,0.7336174 v 9.7775569 9.777557 l -0.733369,0.733618 -0.733369,0.733617 -10.379131,0.06039 C 10.536771,27.98744 8.8680885,27.936739 8.252659,27.598693 Z m 20.903009,-9.049512 0.0704,-7.209895 H 19.035356 8.8446454 v 7.099652 c 0,3.90481 0.080786,7.180439 0.1795246,7.279178 0.098738,0.09874 4.652879,0.148348 10.120312,0.110243 l 9.940788,-0.06928 z m -14.313801,5.049132 c -0.09701,-0.09701 -0.176388,-2.351178 -0.176388,-5.009253 0,-6.130562 -0.260836,-5.969629 4.816898,-2.971987 5.35618,3.162023 5.362921,2.931594 -0.180181,6.158853 -3.26438,1.90056 -4.05793,2.224786 -4.460329,1.822387 z M 11.742976,9.1048904 C 11.917485,8.8946189 12.021361,8.4481345 11.97381,8.1127029 11.815264,6.9942982 9.9029787,7.2673094 9.9029787,8.4083491 c 0,0.9732682 1.2253593,1.4371349 1.8399973,0.6965413 z m 3.448818,-0.011128 c 0.187277,-0.2256554 0.255359,-0.6769859 0.159647,-1.0583333 -0.275893,-1.0992463 -2.008879,-0.759841 -2.008879,0.3934402 0,0.9630042 1.233688,1.4065787 1.849232,0.6648942 z m 4.981363,-0.731039 c 0.08319,-0.7229906 0.07354,-0.7276042 -1.521354,-0.7276042 -1.505118,0 -1.605075,0.038446 -1.605075,0.6173611 0,1.3276186 2.974287,1.4324968 3.126429,0.1102431 z"
         style="fill:#a9a9a9;stroke-width:0.264583" />
      <path
         id="path136"
         d="M 8.400406,27.581185 C 6.791334,26.78766 6.7279788,26.372841 6.7279788,16.630952 6.7279788,4.1892071 5.4374544,5.4126661 18.674214,5.3055334 32.631588,5.1925685 31.334228,4.0179418 31.334228,16.767885 c 0,9.753803 -0.0423,10.044224 -1.578839,10.838797 -1.175388,0.607817 -20.1166388,0.585201 -21.354983,-0.0255 z m 20.812408,-2.210112 c 0.179475,-0.335352 0.25332,-2.898189 0.207747,-7.209896 l -0.07071,-6.6896 -10.252604,-0.06925 -10.2526036,-0.06925 v 7.10276 c 0,3.906518 0.079375,7.182135 0.176389,7.279149 0.5132884,0.513289 19.9098266,0.182926 20.1917796,-0.343907 z m -14.256738,-1.9619 c -0.503706,-0.606929 -0.274776,-9.425931 0.253322,-9.758639 0.313548,-0.19754 1.337988,0.292157 4.299479,2.055213 5.096873,3.034308 5.094471,2.841431 0.07239,5.812059 -4.083041,2.415171 -4.163248,2.44797 -4.625188,1.891367 z M 12.081949,8.7946625 C 12.35858,8.1875228 12.325373,8.0437252 11.812659,7.6285551 11.072655,7.0293358 10.210875,7.2381301 10.002831,8.0670453 9.6556899,9.4501656 11.490684,10.092348 12.081949,8.7946625 Z m 3.377279,0.163373 C 16.003646,7.9407817 14.875524,6.8333203 13.852562,7.3807934 13.354444,7.647378 13.133534,8.925396 13.518951,9.3108132 c 0.39414,0.39414 1.664116,0.1632355 1.940277,-0.3527777 z m 4.829681,-0.066146 c 0.31707,-0.9423654 -0.1046,-1.2567709 -1.685539,-1.2567709 -1.553213,0 -1.556642,0.00175 -1.556642,0.7937501 0,0.8678042 2.963585,1.2910383 3.242181,0.4630208 z"
         style="fill:#979797;stroke-width:0.264583" />
      <path
         id="path134"
         d="M 8.7123537,27.755616 C 6.8776611,26.996737 6.8682186,26.945923 6.7764117,17.337627 6.6508248,4.1939887 5.4490994,5.4117007 18.65064,5.3054354 32.592324,5.1932124 31.334228,4.0715764 31.334228,16.613291 c 0,9.886573 -0.06773,10.324645 -1.701771,11.007392 -1.040524,0.434759 -19.901131,0.556408 -20.9201033,0.134933 z M 29.066371,25.740179 c 0.357009,-0.35701 0.415774,-1.404518 0.415774,-7.411405 v -6.995631 l -10.337453,0.06922 -10.3374536,0.06922 0.014102,7.011459 c 0.012666,6.297298 0.060146,7.045145 0.4661482,7.342187 0.7509854,0.549441 19.2238254,0.470012 19.7788824,-0.08504 z M 14.983764,23.457988 c -0.923094,-0.923095 -0.289032,-10.436616 0.662312,-9.937374 3.757528,1.971857 7.750652,4.602574 7.750652,5.10622 0,1.008536 -7.772319,5.471799 -8.412964,4.831154 z M 11.966729,9.1697022 C 12.831937,8.3044938 11.547887,6.7734088 10.449888,7.3610401 9.9172813,7.6460824 9.6773288,8.9087746 10.079368,9.3108132 c 0.292321,0.2923217 1.547795,0.1984545 1.887361,-0.141111 z m 3.482242,-0.1924997 c 0.537158,-1.0036892 -0.557123,-2.1526183 -1.546114,-1.6233262 -1.176192,0.6294787 -0.825109,2.1333259 0.498038,2.1333259 0.494632,0 0.873903,-0.1845553 1.048076,-0.5099997 z M 20.35402,8.4288689 c 0,-0.8260768 -3.168051,-1.1998831 -3.471316,-0.4095891 -0.363837,0.9481453 0.08437,1.2322318 1.814245,1.1499073 1.570124,-0.074722 1.657071,-0.1135666 1.657071,-0.7403182 z"
         style="fill:#898989;stroke-width:0.264583" />
      <path
         id="path132"
         d="M 8.9198225,27.828375 C 7.0658713,27.450933 6.9925621,27.023459 6.9925621,16.5903 V 7.065247 L 7.7412968,6.3165123 C 8.777714,5.2800951 9.737073,5.2033212 20.415426,5.3022502 l 9.05724,0.08391 0.864635,0.8648879 0.864635,0.8648878 v 9.3474061 c 0,9.912541 -0.03387,10.205992 -1.272764,11.028016 -0.563883,0.374144 -19.347006,0.67545 -21.0093495,0.337017 z M 29.066371,25.740179 c 0.357,-0.357001 0.415774,-1.404239 0.415774,-7.408334 V 11.339286 H 19.031103 8.5800621 v 6.992559 c 0,6.004095 0.058774,7.051333 0.4157739,7.408334 0.6281737,0.628173 19.442361,0.628173 20.070535,0 z m -14.07761,-2.277194 c -0.586297,-0.586297 -0.444619,-9.394311 0.156282,-9.715903 0.792951,-0.424374 8.251685,4.085477 8.251685,4.989301 0,0.844106 -7.867621,5.266948 -8.407967,4.726602 z M 11.765637,9.2672588 C 12.933762,8.3213684 11.772879,6.6529971 10.442139,7.365187 9.7577529,7.7314595 9.7087618,9.0832036 10.366,9.4660093 c 0.631364,0.367736 0.714664,0.3559072 1.399637,-0.1987505 z m 3.370137,0.072649 c 0.699033,-0.489622 0.750284,-1.086967 0.150156,-1.7501012 -0.564696,-0.6239815 -1.02183,-0.6116429 -1.678785,0.045312 -1.132259,1.1322596 0.209554,2.6287044 1.528629,1.7047892 z M 20.35402,8.4288689 c 0,-0.8260768 -3.168051,-1.1998831 -3.471316,-0.4095891 -0.363837,0.9481453 0.08437,1.2322318 1.814245,1.1499073 1.570124,-0.074722 1.657071,-0.1135666 1.657071,-0.7403182 z"
         style="fill:#777777;stroke-width:0.264583" />
      <path
         id="path130"
         d="M 7.7659595,26.970055 6.9925621,26.196658 V 16.679286 7.1619145 L 7.7601739,6.3401832 8.5277857,5.5184521 H 19.025318 29.52285 l 0.773397,0.7733975 0.773398,0.7733974 v 9.565705 9.565706 l -0.773398,0.773397 -0.773397,0.773397 H 19.031103 8.539357 Z M 29.164645,25.838452 c 0.231148,-0.231148 0.3175,-2.246018 0.3175,-7.408333 V 11.339286 H 19.031103 8.5800621 v 6.992559 c 0,6.004095 0.058774,7.051333 0.4157739,7.408334 0.5443558,0.544356 19.629732,0.63735 20.168809,0.09827 z M 15.090891,23.431413 c -0.384375,-0.281062 -0.429501,-0.891662 -0.365793,-4.9496 0.08475,-5.398034 0.09882,-5.419058 2.618829,-3.913045 0.802108,0.479358 2.205431,1.288278 3.118494,1.797601 3.808075,2.124213 3.792823,2.262286 -0.533413,4.829027 -4.566886,2.709517 -4.336305,2.60295 -4.838117,2.236017 z M 11.867608,9.2444377 C 12.53071,8.5117181 12.308018,7.5681504 11.396639,7.2488991 10.096184,6.7933564 9.191343,8.2463997 10.167562,9.2226189 c 0.663169,0.6631688 1.114391,0.66896 1.700046,0.021817 z m 3.449681,-0.011157 C 16.395932,8.041393 14.788371,6.4338326 13.596484,7.5124759 c -0.683342,0.6184162 -0.656694,1.318763 0.06953,1.8274321 0.770764,0.5398643 1.084541,0.5196028 1.651272,-0.1066273 z m 5.169023,-0.8044114 c 0,-0.7937501 0,-0.7937501 -1.852084,-0.7937501 -1.827541,0 -2.511142,0.5756635 -1.675694,1.4111111 0.660353,0.6603534 3.527778,0.1585542 3.527778,-0.617361 z"
         style="fill:#686868;stroke-width:0.264583" />
      <path
         id="path128"
         d="m 8.2493271,27.457673 c -1.1862747,-0.690941 -1.256765,-1.298881 -1.256765,-10.838904 0,-9.7041881 0.034345,-9.9696044 1.4004576,-10.822756 0.4653653,-0.2906254 0.5962684,-0.2703786 0.8952216,0.1384642 0.3164504,0.4327719 0.3501541,0.4357962 0.3501541,0.03142 0,-0.4122658 0.7816766,-0.4474448 9.9422276,-0.4474448 h 9.942227 l 0.773397,0.7733975 0.773398,0.7733974 v 9.5657047 9.565706 l -0.773398,0.773397 -0.773397,0.773397 -10.405248,-0.008 C 12.543649,27.730324 8.5418637,27.62806 8.2493271,27.457673 Z M 29.18955,25.79283 c 0.212956,-0.256597 0.280674,-2.449326 0.230834,-7.47448 l -0.07053,-7.111356 H 19.031103 8.7123537 l -0.070557,6.954465 c -0.045596,4.494202 0.027898,7.138429 0.2077466,7.474479 0.3629152,0.678114 19.7831107,0.82791 20.3400067,0.156892 z M 14.826078,23.091605 c -0.209268,-0.545343 -0.209268,-8.407212 0,-8.952555 0.304207,-0.792751 0.900933,-0.537422 6.163973,2.637463 3.25782,1.965253 3.46762,1.632401 -3.762466,5.969214 -1.430936,0.858316 -2.164333,0.963944 -2.401507,0.345878 z M 11.772456,9.4778931 C 12.352481,9.1674733 12.469826,7.9265492 11.966729,7.4234522 11.518668,6.9753918 10.690657,7.0294329 10.12225,7.5438344 8.9195148,8.6322943 10.309191,10.261009 11.772456,9.4778931 Z m 3.439583,0 c 0.714885,-0.3825946 0.688179,-1.7297464 -0.04204,-2.1205463 -1.370372,-0.7334006 -2.703819,0.7507039 -1.6855,1.8759335 0.527039,0.5823712 0.977302,0.6461267 1.727537,0.2446128 z m 5.274273,-1.0207167 c 0,-1.0010723 -1.781593,-1.5032037 -3.285652,-0.9260417 -1.417103,0.5437934 -0.444411,1.6914842 1.433568,1.6914842 1.852084,0 1.852084,0 1.852084,-0.7654425 z"
         style="fill:#535353;stroke-width:0.264583" />
      <path
         id="path126"
         d="M 8.3464014,27.311998 C 7.0793842,26.424545 6.9925323,25.735424 6.9929733,16.573305 6.9933396,8.9640532 7.0438661,7.9331029 7.4559941,7.1257663 8.0735657,5.9159769 8.781278,5.4897938 9.136507,6.1137647 c 0.3541779,0.6221248 0.7664717,0.5865442 0.7664717,-0.066146 0,-0.5194923 0.1763893,-0.5291667 9.6480853,-0.5291667 h 9.648084 l 0.935249,0.8211588 0.935248,0.8211587 v 9.4456885 9.445689 L 30.197153,26.8978 29.324661,27.743452 H 19.143525 c -8.984334,0 -10.2535467,-0.05072 -10.7971236,-0.431454 z M 29.221875,25.887056 c 0.512052,-0.512053 0.53065,-0.817582 0.463021,-7.606771 L 29.614436,11.206994 19.097249,11.137812 8.5800621,11.06863 v 7.192099 c 0,6.321027 0.053034,7.2507 0.4378822,7.675952 0.7127975,0.787633 19.4126037,0.741702 20.2039307,-0.04962 z m -14.282504,-2.88871 c -0.695344,-1.299261 -0.248297,-9.27781 0.519846,-9.27781 0.135274,0 1.411007,0.697771 2.834961,1.550602 1.423955,0.852831 2.964682,1.743024 3.423838,1.978207 2.13744,1.09481 2.047188,1.620585 -0.528334,3.077888 -1.041698,0.589421 -2.072589,1.187242 -2.29087,1.328492 -2.748835,1.778766 -3.575926,2.059227 -3.959441,1.342621 z M 11.966729,9.4342855 c 0.832635,-0.832635 0.186765,-2.3283333 -1.005417,-2.3283333 -0.885691,0 -1.3229166,0.45037 -1.3229166,1.3626862 0,1.0940478 1.5550116,1.7389696 2.3283336,0.9656471 z M 15.604225,9.1080696 C 16.365103,7.9468239 15.109054,6.5733997 13.854973,7.1953525 13.126706,7.5565318 12.850215,8.7616684 13.355841,9.3709104 13.86915,9.9894102 15.122772,9.8428591 15.604225,9.1080696 Z m 4.302861,0.2363341 c 0.506912,-0.1160259 0.597345,-0.2853442 0.529166,-0.9907591 -0.123254,-1.2752525 -3.4643,-1.3546573 -3.609148,-0.085777 -0.118893,1.0415117 1.207503,1.505122 3.079982,1.0765361 z"
         style="fill:#444444;stroke-width:0.264583" />
      <path
         id="path124"
         d="M 8.0305429,26.970055 7.2571455,26.196658 v -9.55738 c 0,-9.5573789 0,-9.5573789 0.6494318,-10.2068107 C 8.669831,5.6692137 9.2227368,5.5849878 9.046527,6.2588152 c -0.084841,0.324433 0.03159,0.4875315 0.3660163,0.5127231 0.3470574,0.026143 0.4904354,-0.1422982 0.4904354,-0.576166 0,-0.6641224 18.7806303,-1.0622382 19.1857723,-0.406704 0.08802,0.1424228 0.04197,0.2589505 -0.102328,0.2589505 -0.144303,0 -0.328319,0.2083594 -0.408926,0.4630209 -0.132966,0.4200868 -0.533061,0.4550744 -4.314811,0.3773232 -2.292541,-0.047134 -4.095041,-0.012483 -4.005556,0.077002 0.422087,0.4220876 8.244606,0.200548 8.491419,-0.2404833 0.162819,-0.2909408 0.434769,-0.3819644 0.819379,-0.2742524 0.454983,0.1274204 0.492469,0.102966 0.1788,-0.1166432 -0.237568,-0.1663285 -0.271828,-0.27949 -0.08535,-0.2819153 1.298296,-0.016885 1.408266,0.8202134 1.408266,10.7198453 v 9.329619 l -0.935248,0.821159 -0.935249,0.821158 H 19.001544 8.8039403 Z m 2.5091691,0.204226 c -0.07634,-0.123518 -0.01271,-0.224579 0.141402,-0.224579 0.154109,0 0.280198,0.119063 0.280198,0.264584 0,0.480272 17.108756,0.349394 17.293596,-0.132292 0.133613,-0.348188 -1.000853,-0.396875 -9.247723,-0.396875 -5.686198,0 -9.3403038,0.09662 -9.2488736,0.244559 0.08313,0.134508 -0.058671,0.295663 -0.3151142,0.358122 -0.2564432,0.06246 -0.083407,0.112999 0.3845261,0.112311 0.4679327,-6.88e-4 0.7883277,-0.102313 0.7119887,-0.22583 z m 19.184967,-0.35687 c 0.206155,0 0.433876,-0.178594 0.506048,-0.396875 0.103955,-0.314408 0.05356,-0.332758 -0.242535,-0.08831 -0.320797,0.264845 -0.361844,-0.794242 -0.289688,-7.474479 0.06098,-5.645757 0.0022,-7.783047 -0.214052,-7.783047 -0.163966,0 -0.225119,-0.118119 -0.135894,-0.262488 0.08922,-0.144368 0.03103,-0.47179 -0.12931,-0.727604 -0.252621,-0.4030295 -0.269812,-0.3856504 -0.128782,0.130196 0.08952,0.327422 0.06543,0.595865 -0.05351,0.596539 -0.118948,6.75e-4 -4.740642,0.03044 -10.270434,0.06615 l -10.0541663,0.06492 -0.070415,7.219312 c -0.092005,9.432778 -1.5636657,8.285943 10.5210303,8.19882 6.333913,-0.04566 9.93586,0.0203 9.776981,0.179055 -0.138355,0.138245 -0.247769,0.435901 -0.243141,0.661459 0.0075,0.36321 0.04527,0.364723 0.330729,0.01323 0.177274,-0.218281 0.490987,-0.396875 0.697141,-0.396875 z M 15.090661,23.091605 c -0.247717,-0.645542 -0.190244,-1.218537 0.103984,-1.036694 0.169341,0.104658 0.264583,-0.746906 0.264583,-2.365635 0,-1.509716 -0.106647,-2.529157 -0.264583,-2.529157 -0.14759,0 -0.264583,-0.71658 -0.264583,-1.620573 0,-1.620573 0,-1.620573 0.727604,-1.474389 1.105629,0.222134 3.241146,1.50205 3.241146,1.942572 0,0.214429 0.118595,0.316574 0.263544,0.22699 0.301823,-0.186537 3.969789,1.668982 3.969789,2.008203 0,0.122928 -0.178594,0.154973 -0.396875,0.07121 -0.218281,-0.08376 -0.396875,-0.239508 -0.396875,-0.346102 0,-0.106593 -0.293404,-0.32749 -0.65201,-0.490882 -0.770498,-0.351062 -1.105528,-0.0121 -0.665249,0.673062 0.282621,0.439813 0.291048,0.439927 0.154915,0.0021 -0.175168,-0.563377 0.323159,-0.624702 0.537497,-0.06615 0.08376,0.218282 0.347916,0.400662 0.587009,0.40529 0.391517,0.0076 0.389113,0.04304 -0.0242,0.35689 -0.252399,0.191662 -0.381124,0.42626 -0.286054,0.52133 0.09507,0.09507 0.390875,-0.02445 0.657345,-0.265606 0.282923,-0.256035 0.484494,-0.312899 0.484494,-0.136673 0,0.363012 -3.100896,1.973928 -3.420017,1.7767 -0.123194,-0.07614 -0.280045,0.06859 -0.348557,0.321613 -0.06851,0.253025 -0.853997,0.817233 -1.74552,1.253795 -0.891522,0.436563 -1.622909,0.883047 -1.625303,0.992188 -0.0083,0.37641 -0.741873,0.197433 -0.902087,-0.220077 z m 0.633151,-0.110653 c 0,-0.14552 -0.126089,-0.264583 -0.280198,-0.264583 -0.154109,0 -0.206614,0.119063 -0.116677,0.264583 0.08994,0.145521 0.216026,0.264584 0.280198,0.264584 0.06417,0 0.116677,-0.119063 0.116677,-0.264584 z m 1.745628,-0.988399 c -0.156837,-0.156837 -0.951878,0.252246 -0.951878,0.489782 0,0.131185 0.23271,0.09319 0.517134,-0.08444 0.284423,-0.177626 0.480058,-0.360031 0.434744,-0.405345 z m 1.376455,-0.652017 c 0.174625,-0.174625 0.3081,-0.502047 0.296612,-0.727604 -0.01815,-0.356367 -0.04111,-0.358101 -0.175215,-0.01323 -0.08488,0.218282 -0.34337,0.541917 -0.574424,0.71919 -0.231054,0.177273 -0.295082,0.326101 -0.142285,0.330729 0.152796,0.0046 0.420687,-0.13446 0.595312,-0.309085 z m 1.550571,-1.152915 c 0.08697,-0.226644 0.302392,-0.356722 0.478711,-0.289062 0.176319,0.06766 0.48504,0.02138 0.686046,-0.102853 0.297775,-0.184034 0.28136,-0.258145 -0.08862,-0.40012 -0.249748,-0.09584 -0.376843,-0.299232 -0.282434,-0.451988 0.101089,-0.163566 0.04431,-0.199036 -0.138127,-0.08629 -0.170379,0.1053 -0.24128,0.302289 -0.157557,0.437755 0.152599,0.24691 -0.195276,0.34586 -0.937341,0.266617 -0.352778,-0.03767 -0.352778,-0.01221 0,0.229183 0.267471,0.183019 0.289038,0.272886 0.06615,0.275616 -0.181901,0.0022 -0.330729,0.123114 -0.330729,0.268635 0,0.41854 0.529252,0.30764 0.703904,-0.147498 z m -3.787445,-3.818896 c 0.271181,-0.543596 0.305871,-0.846355 0.11079,-0.966922 -0.16021,-0.09902 -0.207806,-0.05223 -0.109189,0.107337 0.09615,0.155576 0.03462,0.3296 -0.136742,0.38672 -0.171359,0.05712 -0.330797,0.364945 -0.354306,0.684057 -0.0564,0.765516 0.01827,0.733296 0.489447,-0.211192 z m 2.818957,0.68741 c 0,-0.05719 -0.184777,-0.17489 -0.410617,-0.261553 -0.235459,-0.09035 -0.341662,-0.046 -0.248968,0.103984 0.155379,0.251408 0.659585,0.371858 0.659585,0.157569 z m 0.79375,-0.264584 c 0,-0.05719 -0.184777,-0.17489 -0.410617,-0.261552 -0.235459,-0.09035 -0.341662,-0.046 -0.248968,0.103984 0.155379,0.251408 0.659585,0.371858 0.659585,0.157568 z m -2.645833,-0.425182 c 0,-0.145521 -0.119062,-0.264583 -0.264583,-0.264583 -0.145521,0 -0.264584,0.119062 -0.264584,0.264583 0,0.145521 0.119063,0.264583 0.264584,0.264583 0.145521,0 0.264583,-0.119062 0.264583,-0.264583 z m -0.264583,-1.322917 c -0.800365,-0.422832 -1.633802,-0.771787 -1.852084,-0.775456 -0.218281,-0.0037 0.109141,0.223017 0.727605,0.503748 0.618463,0.280731 1.124479,0.635303 1.124479,0.787939 0,0.152636 0.327422,0.271902 0.727604,0.265037 0.634834,-0.01089 0.542064,-0.110503 -0.727604,-0.781268 z m -9.2604166,11.1125 c -0.1691011,-0.315968 -0.3655909,-0.516353 -0.436644,-0.4453 -0.071053,0.07105 0.023383,0.373492 0.2098583,0.672086 0.4409395,0.706056 0.6266423,0.520354 0.2267857,-0.226786 z m 0.7322016,-2.33e-4 c -0.3903747,-0.625089 -0.493459,-0.552608 -0.2947519,0.20725 0.083533,0.31943 0.254966,0.51707 0.3809624,0.4392 0.1259967,-0.07787 0.087202,-0.368773 -0.08621,-0.64645 z m 21.823527,-0.439578 c -0.181901,-0.0734 -0.479558,-0.0734 -0.661459,0 -0.181901,0.0734 -0.03307,0.133452 0.33073,0.133452 0.363802,0 0.51263,-0.06005 0.330729,-0.133452 z M 8.0416172,18.843235 c 0.01286,-3.585432 0.086767,-6.621526 0.1642368,-6.746875 0.07747,-0.125349 0.014765,-0.227908 -0.1393437,-0.227908 -0.154109,0 -0.2801982,-0.18562 -0.2801982,-0.41249 0,-0.226869 0.1065866,-0.346615 0.236859,-0.266103 0.1302726,0.08051 0.3102165,-0.04478 0.3998756,-0.278427 C 8.5330033,10.624889 8.4704103,10.530998 8.2307412,10.622968 7.9651862,10.724871 7.8679154,10.429893 7.8457174,9.4553654 7.8284653,8.6979715 7.9206919,8.2161071 8.0657473,8.3057561 8.2030996,8.3906445 8.3154788,8.3439313 8.3154788,8.201949 8.3154788,8.0599667 8.1781563,7.8980253 8.010318,7.8420791 7.8032358,7.7730517 7.863676,7.4895951 8.198371,6.9601347 8.691585,6.1799105 8.691585,6.1799105 8.1066569,6.6839385 7.4742285,7.2288972 7.1473765,25.362202 7.7699819,25.362202 c 0.1472655,0 0.2577649,-2.651871 0.2716353,-6.518967 z M 30.805061,16.498661 c 0,-6.151899 -0.08713,-8.8635422 -0.28479,-8.8635422 -0.178623,0 -0.246282,0.4830321 -0.181494,1.2957318 0.08677,1.0884374 0.03709,1.2717394 -0.310523,1.1457604 -0.310468,-0.1125159 -0.28166,0.0046 0.115349,0.468925 0.371209,0.434153 0.410699,0.57601 0.132292,0.47523 -0.347748,-0.125882 -0.387675,0.752867 -0.322554,7.098885 0.06321,6.160007 0.13242,7.242551 0.463021,7.242551 0.334142,0 0.388699,-1.24408 0.388699,-8.863541 z M 12.481522,10.121456 c 0.190953,-0.1909524 0.552101,-0.2704218 0.802551,-0.1765987 0.396805,0.1486507 0.409006,0.1135887 0.09487,-0.27265 -0.335295,-0.4122584 -0.412119,-0.4064746 -1.099177,0.082754 -0.406277,0.2892947 -0.988197,0.5259907 -1.293155,0.5259907 -0.304958,0 -0.554469,0.09844 -0.554469,0.21876 0,0.326515 1.648956,0.02217 2.049377,-0.378256 z M 10.84954,10.016369 c 0.31688,0 0.723277,-0.1772829 0.903104,-0.3939621 0.179828,-0.2166789 0.424304,-0.3337991 0.543282,-0.2602674 0.315791,0.1951701 0.486635,-0.1923997 0.559096,-1.2683451 0.04761,-0.7069391 0.224099,-1.0239756 0.68759,-1.2351562 0.342946,-0.1562569 0.545863,-0.4097844 0.450928,-0.5633943 -0.108525,-0.1755964 -0.307408,-0.1015031 -0.535672,0.1995629 -0.199683,0.2633695 -0.366847,0.3749783 -0.371475,0.2480194 -0.0046,-0.1269589 -0.174717,-0.092816 -0.377975,0.075874 -0.203259,0.1686896 -0.315477,0.5702213 -0.249374,0.8922928 0.101197,0.4930616 0.05374,0.4706226 -0.300348,-0.1420199 -1.052127,-1.820379 -3.2452277,0.069312 -2.2464082,1.9356232 0.1888012,0.3527779 0.1888012,0.5117727 0,0.5117727 -0.1506408,0 -0.2738924,0.142875 -0.2738924,0.3175 0,0.246944 0.070556,0.246944 0.3175,0 0.1746246,-0.174625 0.5767656,-0.3175 0.8936446,-0.3175 z m 3.88712,0.355617 c -0.179132,-0.07248 -0.536319,-0.07689 -0.79375,-0.0098 -0.257431,0.06708 -0.110869,0.12638 0.325694,0.131772 0.436562,0.0054 0.647187,-0.04949 0.468056,-0.121969 z m 0.670173,-0.9613026 c 0.605286,-0.644298 0.721543,-2.3407739 0.145304,-2.1203476 -0.167182,0.063951 -0.382567,-0.010904 -0.478636,-0.1663459 -0.489012,-0.7912392 -1.995522,0.1591664 -1.995522,1.2589068 0,1.4754059 1.349024,2.0707673 2.328854,1.0277867 z m 0.793229,0.023602 c 0.369464,-0.3694639 0.431197,-1.7991667 0.07769,-1.7991667 -0.131898,0 -0.176519,0.2420401 -0.09916,0.5378667 0.08203,0.3136935 -0.05566,0.7547875 -0.330361,1.0583334 -0.501948,0.5546466 -0.183536,0.7383343 0.351832,0.2029666 z M 9.6383954,9.347566 c 0,-0.3856673 -1.0322541,-0.7824161 -1.1238973,-0.4319723 -0.082891,0.3169756 0.057604,0.4393168 0.5045067,0.4393168 0.3406647,0 0.6193906,-0.00331 0.6193906,-0.00734 z m 10.7984856,-0.9973128 0.08286,-1.0046573 -1.802653,0.078616 c -1.882192,0.082084 -2.298599,0.4691065 -1.827001,1.6980718 0.385905,1.0056523 3.455279,0.3375425 3.546793,-0.7720301 z m 0.843181,-0.038061 c 0,-0.355214 -0.119063,-0.719428 -0.264584,-0.8093649 -0.154364,-0.095402 -0.264583,0.1736413 -0.264583,0.6458434 0,0.4451506 0.119062,0.8093649 0.264583,0.8093649 0.145521,0 0.264584,-0.2906294 0.264584,-0.6458434 z M 9.6343438,7.3043897 C 9.6365721,7.195249 9.5123061,7.1059522 9.3581971,7.1059522 c -0.1541089,0 -0.1987301,0.131818 -0.099158,0.2929292 C 9.3828825,7.5992641 9.2415315,7.632414 8.8116331,7.503808 8.2012666,7.3212137 8.1983623,7.3273611 8.7106779,7.7174916 9.2144744,8.1011345 9.6217962,7.9189633 9.6343438,7.3043897 Z M 16.782145,6.9736605 c 0.267126,-0.3218674 0.256581,-0.396875 -0.0558,-0.396875 -0.211846,0 -0.385174,0.1785937 -0.385174,0.396875 0,0.2182813 0.02511,0.396875 0.0558,0.396875 0.03069,0 0.204017,-0.1785937 0.385174,-0.396875 z M 15.963969,6.0835741 c -0.165747,-0.055249 -0.404827,0.062887 -0.531289,0.2625252 -0.167279,0.2640723 -0.231036,0.2728596 -0.233983,0.032249 -0.0022,-0.1819011 -0.182646,-0.3307292 -0.400927,-0.3307292 -0.218281,0 -0.396875,0.1260892 -0.396875,0.2801983 0,0.154109 0.119904,0.2060938 0.266452,0.1155218 0.146549,-0.090572 0.334394,0.012377 0.417434,0.2287758 0.130736,0.3406934 0.22001,0.3343484 0.665764,-0.047318 0.315058,-0.2697608 0.397862,-0.4797436 0.213424,-0.5412229 z m 3.530155,0.5825663 c -0.181901,-0.073399 -0.479557,-0.073399 -0.661458,0 -0.181901,0.073399 -0.03307,0.1334521 0.330729,0.1334521 0.363802,0 0.51263,-0.060053 0.330729,-0.1334521 z M 13.077979,6.1490518 c 0,-0.055788 -0.304683,-0.101433 -0.677074,-0.101433 -0.37239,0 -0.610396,0.1078849 -0.528903,0.2397442 0.135556,0.2193332 1.205977,0.096569 1.205977,-0.1383112 z m 14.971059,0.097005 C 28.15815,6.1369157 26.292813,6.0617057 23.903846,6.0789229 c -2.388967,0.017217 -3.986389,0.111763 -3.549826,0.2101015 1.072433,0.2415725 7.446134,0.2059825 7.695018,-0.042968 z M 17.906624,6.1369737 c -0.181901,-0.073399 -0.479557,-0.073399 -0.661458,0 -0.181901,0.073399 -0.03307,0.1334522 0.330729,0.1334522 0.363802,0 0.51263,-0.060054 0.330729,-0.1334522 z"
         style="fill:#424242;stroke-width:0.264583" />
      <path
         id="path122"
         d="m 13.788062,27.545423 c 2.791639,-0.04282 7.435077,-0.04288 10.318749,-1.36e-4 2.883673,0.04275 0.599605,0.07778 -5.075708,0.07786 -5.675312,7.4e-5 -8.034681,-0.0349 -5.243041,-0.07772 z M 30.924336,16.630952 c 0,-5.165989 0.03544,-7.2793488 0.07876,-4.696354 0.04332,2.582995 0.04332,6.809714 0,9.392709 -0.04332,2.582994 -0.07876,0.469635 -0.07876,-4.696355 z M 8.4310334,18.483036 c 0,-3.856302 0.036987,-5.433881 0.082194,-3.50573 0.045207,1.928152 0.045207,5.083308 0,7.011459 -0.045207,1.928151 -0.082194,0.350573 -0.082194,-3.505729 z M 29.860831,18.350744 c 1.73e-4,-3.4925 0.03782,-4.884656 0.08366,-3.093681 0.04584,1.790976 0.0457,4.648476 -3.18e-4,6.35 -0.04601,1.701525 -0.08352,0.236181 -0.08334,-3.256319 z m -8.316186,1.606118 c 0,-0.07276 0.238125,-0.259732 0.529167,-0.415493 0.291041,-0.155761 0.529166,-0.22367 0.529166,-0.15091 0,0.07276 -0.238125,0.259733 -0.529166,0.415493 -0.291042,0.155761 -0.529167,0.223671 -0.529167,0.15091 z m -0.529167,-2.796743 c -0.238467,-0.154109 -0.271101,-0.258097 -0.08176,-0.260532 0.173312,-0.0022 0.388698,0.115011 0.478635,0.260532 0.203016,0.328487 0.111422,0.328487 -0.396875,0 z m -8.84653,-8.0150569 c 0.09936,-0.2609377 0.247304,-0.4077814 0.328765,-0.3263194 0.08146,0.081462 1.68e-4,0.2949559 -0.180653,0.4744318 -0.261306,0.2593623 -0.291698,0.2289712 -0.148112,-0.1481124 z m 4.451678,-0.035493 c -0.0797,-0.2076982 -0.100554,-0.6541826 -0.04634,-0.9921875 0.07252,-0.4521089 0.13394,-0.352289 0.232378,0.3776329 0.138533,1.0272308 0.06523,1.2693624 -0.186038,0.6145546 z m 3.92707,-0.6807004 c 0,-0.509323 0.05445,-0.7176823 0.121,-0.4630209 0.06655,0.2546615 0.06655,0.6713802 0,0.9260417 -0.06655,0.2546615 -0.121,0.046302 -0.121,-0.4630208 z M 12.813395,8.3121921 c 0,-0.355214 0.09752,-0.7061134 0.216709,-0.7797766 0.11919,-0.073663 0.165207,0.2169663 0.102262,0.6458435 -0.138784,0.9455912 -0.318971,1.0212504 -0.318971,0.1339331 z m 5.225521,-1.1283818 c 0.327422,-0.063064 0.863203,-0.063064 1.190625,0 0.327422,0.063064 0.05953,0.1146622 -0.595313,0.1146622 -0.654843,0 -0.922734,-0.051598 -0.595312,-0.1146622 z"
         style="fill:#3b3b3b;stroke-width:0.264583" />
    </g>
  </g>
</svg>
