<?xml version="1.0" standalone="no"?>
<!DOCTYPE svg PUBLIC "-//W3C//DTD SVG 20010904//EN"
 "http://www.w3.org/TR/2001/REC-SVG-20010904/DTD/svg10.dtd">
<svg version="1.0" xmlns="http://www.w3.org/2000/svg"
 width="1280.000000pt" height="640.000000pt" viewBox="0 0 1280.000000 640.000000"
 preserveAspectRatio="xMidYMid meet">
<metadata>
Created by potrace 1.15, written by Peter Selinger 2001-2017
</metadata>
<g transform="translate(0.000000,640.000000) scale(0.100000,-0.100000)"
fill="#000000" stroke="none">
<path d="M11190 5445 c-147 -41 -287 -134 -351 -234 -34 -52 -54 -136 -45
-182 6 -29 15 -38 58 -58 61 -28 126 -91 151 -143 12 -25 17 -61 17 -116 l0
-79 29 -6 c16 -4 46 -23 67 -43 63 -63 97 -76 183 -69 158 14 294 70 381 158
63 63 98 136 112 236 10 66 9 92 -5 165 -33 164 -95 254 -219 317 -109 55
-282 80 -378 54z"/>
<path d="M7865 4831 c-67 -17 -94 -40 -142 -122 -25 -44 -50 -82 -54 -85 -5
-3 -21 4 -37 16 -85 63 -214 15 -253 -95 -12 -33 -16 -35 -58 -35 -31 0 -51
-6 -67 -21 -21 -20 -23 -20 -70 -4 -168 57 -365 -106 -364 -303 0 -33 8 -74
19 -97 23 -53 98 -117 158 -139 27 -10 56 -21 65 -27 29 -15 64 -10 143 21 42
17 78 30 80 30 2 0 12 -14 20 -31 31 -59 49 -69 124 -69 41 0 73 -5 77 -11 4
-8 28 -10 70 -6 l63 6 21 -34 c62 -100 208 -109 325 -19 47 35 47 35 102 24
62 -13 108 -8 134 16 15 13 30 15 81 8 81 -10 95 -8 140 22 l37 24 68 -33 c67
-31 71 -32 209 -32 l141 0 60 38 c34 20 69 37 80 37 10 0 45 -19 78 -41 73
-49 144 -70 230 -70 99 0 154 11 217 44 55 29 58 29 157 22 l101 -7 0 -44 c0
-58 20 -104 58 -136 68 -57 127 -59 319 -13 128 31 138 31 181 -2 48 -36 97
-52 162 -53 52 0 59 -3 94 -39 71 -72 177 -77 229 -9 l25 31 15 -29 c42 -81
172 -161 308 -190 89 -19 231 -14 301 11 65 23 144 96 160 146 10 34 15 40 36
37 20 -2 34 -20 67 -83 45 -85 79 -116 147 -137 41 -12 49 -10 178 37 43 16
47 16 98 -5 39 -16 74 -22 135 -23 89 0 137 14 188 57 37 31 74 43 177 55 97
12 102 14 102 47 0 28 2 28 -43 9 -49 -20 -169 -20 -209 1 -39 20 -60 5 -39
-28 13 -20 11 -24 -20 -50 -19 -16 -52 -33 -74 -39 -75 -21 -182 7 -229 60
l-19 21 -35 -31 c-80 -70 -171 -87 -252 -45 -39 19 -89 80 -90 108 0 3 20 16
45 28 29 14 45 28 45 40 0 27 -18 34 -39 16 -22 -20 -65 -21 -81 -1 -8 10 -30
15 -61 15 -49 0 -72 14 -84 50 -7 21 -30 27 -40 10 -8 -14 22 -68 45 -80 24
-13 25 -40 5 -80 -45 -87 -289 -123 -474 -71 -102 29 -152 65 -201 146 -41 68
-74 83 -89 42 -22 -58 -114 -91 -171 -62 -47 24 -60 52 -60 128 0 76 -12 81
-31 14 -15 -53 -33 -67 -81 -67 -49 0 -110 31 -138 70 -25 35 -31 36 -85 10
-34 -17 -47 -18 -80 -9 -22 6 -55 20 -73 31 -39 24 -50 18 -28 -14 22 -32 21
-37 -19 -54 -119 -49 -240 26 -233 146 l3 45 135 0 c147 1 178 9 213 57 12 15
19 30 16 32 -3 3 -53 -10 -112 -29 -124 -41 -161 -43 -218 -13 -39 20 -45 20
-88 8 -25 -7 -67 -15 -93 -18 -44 -4 -47 -3 -50 23 l-3 27 -49 -38 c-64 -48
-126 -71 -217 -79 -123 -11 -253 29 -318 99 -31 33 -44 33 -101 -4 -141 -90
-324 -94 -462 -10 -43 26 -50 25 -88 -10 -38 -36 -65 -37 -139 -9 l-54 20 -31
-30 c-38 -37 -79 -40 -136 -11 -51 26 -67 25 -75 -2 -17 -55 -81 -98 -145 -98
-112 0 -160 34 -180 126 -23 103 -29 107 -56 32 -23 -65 -51 -74 -94 -33 l-29
27 -51 -18 c-57 -20 -76 -15 -97 28 -7 14 -23 32 -36 40 -19 13 -29 13 -77 1
-135 -36 -263 3 -317 95 -24 40 -28 58 -28 123 0 70 3 81 31 120 37 51 109
104 164 120 52 16 107 4 142 -31 33 -33 55 -30 60 8 4 36 51 44 68 13 6 -12
17 -21 24 -21 13 0 42 57 65 132 9 25 22 41 45 52 65 31 97 21 179 -51 21 -19
43 -33 50 -30 6 2 19 41 29 86 31 148 68 181 198 181 103 0 143 -23 190 -110
40 -72 60 -87 60 -43 0 40 -51 117 -98 147 -77 48 -154 64 -227 47z"/>
<path d="M6170 3190 l0 -121 153 3 152 3 3 118 3 117 -156 0 -155 0 0 -120z"/>
<path d="M1581 3152 c-44 -22 -67 -55 -83 -117 -7 -27 -13 -52 -15 -54 -1 -2
-12 8 -24 23 -17 22 -27 26 -48 21 -31 -7 -71 -49 -71 -75 0 -45 -8 -49 -80
-43 -63 5 -68 4 -75 -16 -4 -12 -4 -39 -1 -59 7 -44 3 -51 -48 -77 -81 -41
-100 -110 -73 -266 18 -98 78 -237 128 -294 29 -33 35 -36 70 -30 31 5 44 2
65 -14 15 -12 35 -21 45 -21 9 0 41 -22 71 -48 60 -55 94 -76 108 -67 6 3 10
1 10 -4 0 -6 -4 -11 -10 -11 -5 0 -10 -10 -10 -22 0 -23 -1 -23 -134 -20
l-135 3 -3 37 c-3 33 -6 37 -34 40 -18 2 -39 -4 -53 -15 -20 -17 -22 -28 -28
-201 -4 -119 -10 -185 -17 -187 -6 -2 -180 -8 -386 -14 -679 -20 -694 -26 -80
-31 311 -3 580 -3 599 -1 l34 4 -23 17 c-32 24 -20 47 27 54 64 10 263 -8 274
-25 6 -10 3 -17 -11 -23 -40 -18 -14 -34 68 -40 47 -4 57 5 54 45 -2 30 3 33
109 45 70 8 170 -12 162 -33 -3 -7 -10 -12 -17 -11 -20 4 -57 -14 -53 -25 5
-16 33 -19 193 -17 55 0 108 -2 117 -6 9 -3 23 -2 32 4 26 14 -63 36 -113 27
-30 -5 -41 -3 -45 9 -14 36 17 40 204 29 169 -11 209 -19 209 -44 0 -12 -53
-11 -86 1 -36 14 -44 3 -15 -21 18 -15 38 -19 75 -18 28 1 82 -6 121 -15 44
-10 71 -12 73 -6 2 5 12 10 23 10 10 0 19 5 19 10 0 6 -20 10 -45 10 -41 0
-45 2 -45 25 0 33 31 45 118 45 69 -1 308 -33 319 -43 3 -4 3 -12 0 -20 -4
-11 -22 -13 -81 -9 -53 3 -76 1 -76 -7 0 -6 3 -11 8 -11 101 -6 195 -15 247
-22 17 -3 20 4 23 40 l3 42 42 0 c87 -1 384 -20 400 -26 10 -3 17 -17 17 -30
0 -21 -5 -24 -35 -24 -34 0 -46 -12 -25 -25 16 -10 290 -16 290 -7 0 12 -46
32 -71 32 -15 0 -20 6 -17 23 4 29 43 33 127 14 33 -8 61 -10 61 -6 0 5 83 9
185 9 l185 0 0 -27 c0 -40 14 -58 36 -48 21 9 115 16 187 15 27 -1 47 4 47 9
0 7 -29 11 -76 11 -66 0 -75 2 -72 18 4 22 132 40 294 41 118 1 140 -7 132
-46 -3 -15 -11 -17 -46 -15 -26 2 -42 -1 -42 -7 0 -6 9 -11 19 -11 11 0 21 -5
23 -11 2 -7 23 -6 68 2 36 7 90 12 119 11 35 -1 64 4 78 13 37 25 27 32 -32
22 -61 -11 -77 -5 -52 21 15 14 44 17 197 20 132 3 184 1 195 -8 25 -20 7 -30
-58 -31 -54 -1 -129 -14 -102 -18 30 -5 351 -8 358 -4 4 2 -3 13 -15 23 -15
12 -27 15 -34 9 -8 -6 -14 -4 -18 7 -4 9 -5 18 -3 20 10 10 127 16 201 9 79
-6 86 -9 81 -26 -4 -10 -3 -28 0 -40 6 -19 13 -21 71 -17 70 4 88 13 61 32
-21 16 -22 32 -1 40 20 8 272 8 302 0 28 -8 29 -40 2 -49 -11 -3 -20 -11 -20
-17 0 -5 7 -7 17 -4 9 4 31 2 49 -4 46 -16 97 -1 104 31 l6 24 179 6 180 6
127 -55 c71 -31 127 -57 125 -58 -6 -6 -324 -35 -602 -54 -652 -44 -748 -52
-960 -71 -223 -21 -361 -40 -410 -59 -63 -24 -6 -47 260 -105 260 -56 324 -76
332 -101 10 -29 -167 -66 -407 -85 -167 -13 -1171 -6 -1465 10 -332 19 -396
21 -335 11 192 -30 853 -60 1344 -60 532 0 798 22 887 72 109 61 21 109 -345
188 -105 22 -194 40 -198 40 -4 0 -8 4 -8 9 0 28 538 78 1240 116 336 18 398
23 545 41 168 21 250 27 400 28 94 1 146 7 190 20 47 14 116 20 310 27 138 4
264 11 280 15 17 4 62 28 100 54 66 44 77 48 190 65 123 19 184 36 104 29
-158 -13 -171 -13 -152 2 10 7 25 14 33 14 32 0 59 30 62 67 4 44 37 68 111
78 39 6 47 5 47 -9 0 -14 16 -16 113 -16 130 0 144 -5 130 -46 l-10 -29 -114
-3 -114 -3 3 -65 c4 -62 5 -65 26 -60 59 15 136 18 150 7 21 -18 8 -41 -23
-41 -31 0 -59 -16 -48 -26 4 -5 24 -8 45 -7 181 5 226 9 230 21 2 8 -8 12 -32
12 -29 0 -36 4 -36 20 0 34 40 40 245 40 l194 0 3 -37 c2 -32 6 -37 23 -35 43
7 142 14 187 13 25 -1 49 3 53 9 4 6 -20 10 -69 10 -76 0 -91 6 -76 29 10 17
183 33 318 29 l97 -3 3 -32 c3 -31 3 -31 -37 -26 -46 6 -54 -6 -15 -24 19 -9
40 -9 82 -1 31 6 84 12 117 12 66 2 95 11 95 31 0 10 -10 10 -46 3 -31 -7 -49
-7 -56 0 -30 30 36 42 241 43 96 0 147 -3 156 -11 25 -21 6 -30 -63 -31 -56 0
-130 -15 -97 -19 60 -7 355 -5 355 3 0 18 -34 36 -47 25 -9 -7 -15 -6 -19 6
-4 9 -4 19 -1 22 12 12 138 18 205 10 68 -9 72 -11 72 -35 0 -47 12 -54 80
-48 73 6 82 13 52 35 -43 33 -11 42 142 42 78 0 151 -3 164 -6 28 -8 29 -40 2
-49 -47 -15 -17 -23 89 -26 39 0 66 14 56 31 -2 3 -11 88 -20 190 -19 217 -24
230 -90 230 l-45 0 0 -40 0 -40 -145 0 c-135 0 -145 1 -145 19 0 10 -7 24 -15
31 -22 18 -19 23 20 44 27 15 38 17 47 8 8 -8 21 -3 49 23 21 18 55 38 76 44
21 6 45 21 55 33 15 20 20 21 37 11 31 -19 42 -16 89 25 36 31 44 45 49 82 5
50 26 101 57 143 18 24 21 43 21 117 0 83 -2 90 -27 117 -16 16 -28 39 -28 51
0 27 -33 62 -60 62 -16 0 -20 7 -20 36 0 52 -57 108 -103 102 -17 -3 -40 -8
-49 -13 -15 -6 -18 -2 -18 24 0 59 -90 112 -129 77 -10 -9 -21 -16 -25 -16 -4
0 -18 24 -30 53 -39 85 -86 117 -176 117 -90 0 -190 -63 -190 -120 0 -25 -5
-29 -39 -35 -33 -5 -41 -12 -56 -45 -10 -22 -36 -55 -58 -75 -39 -35 -40 -37
-34 -91 l6 -55 -47 6 c-68 8 -93 -8 -117 -79 -18 -55 -23 -60 -62 -73 -114
-38 -127 -168 -29 -288 25 -30 33 -48 29 -67 -9 -46 51 -138 91 -138 12 -1 44
-9 73 -19 49 -16 51 -19 35 -34 -15 -16 -15 -17 1 -17 18 0 21 -8 11 -34 -5
-14 -27 -16 -138 -16 -72 0 -162 3 -199 7 -63 6 -68 8 -74 32 -3 17 -17 32
-38 42 -30 14 -33 14 -44 -3 -6 -10 -9 -29 -5 -42 5 -22 3 -23 -72 -29 -118
-10 -230 -8 -259 5 l-25 11 0 162 0 162 45 13 c54 15 56 26 25 144 -38 150
-145 316 -250 389 -51 35 -70 40 -260 77 -377 74 -605 110 -691 110 l-57 0
-67 -72 c-145 -156 -264 -348 -309 -495 -6 -20 -4 -23 21 -23 16 0 37 -6 47
-13 16 -12 16 -29 9 -230 l-8 -218 -100 -34 c-55 -18 -103 -32 -106 -29 -3 2
-9 135 -13 296 -3 161 -9 317 -13 346 -6 51 -5 52 21 52 35 0 41 20 26 88 -21
96 -58 161 -140 243 -90 90 -143 113 -256 113 -58 -1 -79 -6 -124 -30 -62 -33
-132 -113 -173 -198 -35 -72 -38 -166 -6 -188 21 -14 21 -14 9 -263 -6 -138
-10 -331 -9 -429 l3 -179 -45 -12 c-25 -6 -74 -29 -110 -51 -117 -73 -146 -78
-264 -44 -92 26 -101 26 -229 -15 -60 -19 -110 -34 -112 -32 -1 1 -9 76 -18
166 -18 186 -24 200 -87 199 -42 0 -56 -20 -44 -58 6 -19 2 -20 -137 -20
l-143 1 -22 34 -21 34 41 28 c45 30 161 83 182 83 7 0 20 11 29 25 16 24 18
25 46 10 40 -21 76 -19 116 6 30 18 34 26 40 80 4 32 11 59 15 59 5 0 9 9 9
19 0 11 9 26 19 33 50 35 71 190 36 272 -25 58 -65 107 -101 122 -25 11 -33
21 -37 52 -11 66 -75 107 -121 77 -27 -18 -46 -13 -46 12 0 23 -38 72 -70 88
-42 21 -68 19 -95 -10 l-23 -26 -7 33 c-18 82 -63 138 -133 169 -102 45 -269
0 -288 -77 -5 -19 -15 -25 -46 -30 -32 -6 -45 -15 -66 -46 -14 -22 -40 -45
-59 -53 -30 -13 -33 -18 -33 -58 0 -52 -10 -62 -70 -71 -25 -4 -59 -14 -76
-23 -30 -15 -33 -15 -59 5 -35 28 -83 36 -120 22 l-30 -12 37 -13 c44 -16 84
-40 120 -73 23 -21 30 -23 43 -12 13 11 15 6 15 -36 0 -27 3 -65 6 -85 6 -35
5 -37 -29 -43 -23 -4 -47 -19 -66 -42 -27 -30 -31 -42 -31 -95 0 -69 23 -123
69 -161 28 -24 29 -27 19 -72 -8 -39 -7 -51 9 -79 17 -29 25 -33 79 -39 129
-15 133 -17 140 -55 3 -18 4 -36 1 -39 -7 -8 -275 -6 -348 2 -52 6 -57 9 -62
33 -4 19 -16 31 -41 41 l-36 14 1 180 c1 100 4 192 8 205 4 16 18 28 39 35 17
6 31 16 30 21 -1 6 -102 98 -224 206 l-222 196 -333 13 c-252 10 -346 11 -387
2 -55 -11 -133 -55 -167 -92 -26 -29 -32 -25 -39 25 -7 41 -10 45 -36 45 -33
0 -160 -38 -160 -48 0 -4 9 -63 20 -131 l20 -124 -27 -34 c-79 -99 -113 -146
-113 -153 0 -5 20 -12 45 -16 42 -6 45 -8 46 -38 0 -17 6 -99 12 -182 l12
-152 -44 -6 c-57 -8 -120 -8 -160 0 l-32 7 2 171 2 171 -29 17 c-16 10 -33 19
-39 21 -5 2 -1 20 8 40 15 32 16 41 5 65 -25 53 -120 78 -197 51 -23 -8 -39
-25 -58 -63 -14 -28 -36 -65 -49 -82 -33 -42 -32 -97 1 -130 14 -14 25 -37 25
-51 0 -14 9 -40 19 -57 11 -17 22 -58 26 -90 l8 -59 -123 6 c-68 4 -143 7
-167 7 -42 0 -43 1 -43 34 0 39 -24 66 -42 48 -7 -7 -20 -12 -30 -12 -13 0
-18 -8 -18 -30 0 -17 -6 -32 -12 -34 -7 -3 -97 -7 -200 -10 l-188 -5 0 37 0
38 64 17 c35 9 77 17 94 17 60 0 76 54 47 155 l-16 53 40 54 c85 112 65 221
-47 251 -38 10 -43 15 -53 52 -25 93 -74 133 -149 121 l-39 -6 6 50 c6 49 5
52 -35 89 -22 21 -50 58 -62 81 -14 28 -32 46 -55 56 -24 10 -36 22 -40 42
-10 46 -19 56 -75 85 -64 32 -137 36 -189 9z m269 -732 c0 -18 -23 -75 -36
-89 -6 -7 -33 32 -34 48 0 19 39 61 57 61 7 0 13 -9 13 -20z m8826 -69 c9 -12
7 -21 -9 -42 l-20 -28 -24 36 c-17 25 -23 44 -18 60 6 24 6 25 33 7 15 -10 32
-24 38 -33z m-8906 -110 c0 -77 -17 -114 -39 -87 -7 9 -19 45 -25 80 l-13 64
31 9 c17 6 34 8 39 6 4 -2 7 -35 7 -72z m138 6 c18 -19 52 -85 52 -101 0 -16
-37 -36 -66 -36 l-34 0 0 64 c0 98 10 114 48 73z m8860 8 c3 -2 -1 -24 -7 -49
-6 -25 -11 -56 -11 -70 0 -28 -6 -31 -30 -16 -10 6 -16 32 -18 81 l-4 72 33
-7 c18 -3 35 -8 37 -11z m-5009 -78 c-1 -29 -4 -65 -8 -80 -5 -26 -8 -27 -25
-14 -25 18 -26 95 -2 132 24 36 36 23 35 -38z m4843 -38 c3 -60 2 -64 -19 -67
-23 -3 -83 32 -83 49 0 5 17 33 37 63 33 50 38 54 49 37 7 -10 14 -47 16 -82z
m-9026 57 c28 -28 34 -42 34 -75 0 -38 -2 -41 -19 -31 -28 15 -91 91 -91 110
0 41 32 40 76 -4z m-138 -56 c4 -12 -67 17 -90 38 -10 8 -18 19 -18 24 0 11
104 -48 108 -62z m4160 43 c5 -10 12 -44 16 -75 5 -48 3 -59 -11 -67 -22 -12
-93 22 -93 44 0 17 61 115 72 115 4 0 11 -8 16 -17z m5382 -8 c10 -12 8 -21
-8 -47 -28 -45 -81 -83 -95 -69 -19 19 10 89 46 111 38 24 41 24 57 5z m190
-14 c0 -14 -29 -34 -68 -48 -49 -16 -55 -7 -8 12 20 9 39 22 43 30 6 16 33 21
33 6z m-5186 -27 c8 -21 -17 -66 -54 -98 -38 -31 -47 -32 -55 -7 -19 59 87
162 109 105z m174 -23 c-6 -11 -28 -24 -47 -31 -20 -6 -43 -14 -51 -17 -13 -5
-13 -4 -1 10 7 10 19 17 27 17 7 0 25 11 41 24 31 27 49 25 31 -3z m-4108 -40
c14 -27 14 -27 -20 -41 -25 -10 -30 -18 -30 -45 l0 -32 -67 -6 c-119 -12 -183
-9 -189 8 -10 26 16 75 40 76 11 0 59 13 106 29 104 34 145 37 160 11z m8440
-16 c13 -14 35 -25 49 -25 14 0 58 -7 96 -16 75 -18 105 -40 105 -80 0 -23 -3
-24 -67 -24 -38 0 -98 3 -135 7 l-68 6 0 33 c0 32 -2 34 -35 34 -43 0 -47 23
-10 63 32 33 36 33 65 2z m-4941 -55 c17 0 48 -6 68 -14 21 -8 51 -17 67 -21
28 -6 55 -30 56 -48 0 -4 -18 -4 -40 -1 -32 5 -41 3 -46 -11 -4 -10 -1 -21 7
-26 17 -10 -60 -12 -138 -3 -52 7 -53 8 -53 39 0 27 -5 35 -30 45 -35 15 -37
23 -10 50 18 18 22 18 54 5 20 -8 49 -15 65 -15z m-3991 -187 l3 -33 -149 0
c-147 0 -150 0 -156 23 -12 46 -14 46 147 44 l152 -2 3 -32z m406 31 c10 -4
16 -18 16 -35 l0 -29 -135 0 c-74 0 -135 2 -135 4 0 3 4 16 10 30 9 24 13 25
107 29 54 1 103 4 110 5 6 1 18 -1 27 -4z m491 -13 c31 -6 41 -26 26 -50 -8
-12 -44 -14 -198 -12 -204 2 -226 8 -204 50 11 20 18 21 179 20 92 -1 180 -4
197 -8z m7940 -31 c15 -16 15 -22 5 -35 -10 -12 -44 -15 -195 -15 -101 0 -190
3 -199 6 -9 3 -16 17 -16 29 0 31 8 32 216 34 159 1 172 0 189 -19z m373 -8
c30 -38 18 -42 -128 -42 l-140 0 0 35 0 36 128 -7 c98 -5 130 -10 140 -22z
m388 18 l114 0 0 -30 0 -30 -165 0 -165 0 0 29 c0 33 21 42 74 35 16 -2 80 -4
142 -4z m-5761 -46 c9 -9 15 -24 13 -33 -3 -14 -27 -16 -208 -16 l-205 0 -3
27 c-4 33 2 34 225 36 137 2 164 0 178 -14z m363 0 c16 -3 22 -11 22 -29 l0
-26 -137 3 c-124 3 -138 5 -141 21 -9 44 1 47 120 41 62 -3 123 -7 136 -10z
m388 6 l124 0 0 -30 0 -30 -166 0 -166 0 6 23 c3 12 6 25 6 29 0 8 40 16 58
12 8 -2 70 -4 138 -4z m-2370 -68 c-41 -4 -66 2 -66 16 0 5 24 4 53 -2 l52
-11 -39 -3z"/>
<path d="M1315 1609 c-4 -6 -5 -13 -2 -16 7 -7 27 6 27 18 0 12 -17 12 -25 -2z"/>
<path d="M1490 1605 c0 -8 2 -15 4 -15 2 0 11 -3 20 -6 23 -9 20 13 -4 26 -16
9 -20 8 -20 -5z"/>
<path d="M1442 1599 c2 -7 10 -15 17 -17 8 -3 12 1 9 9 -2 7 -10 15 -17 17 -8
3 -12 -1 -9 -9z"/>
<path d="M1830 1600 c0 -5 5 -10 11 -10 5 0 7 5 4 10 -3 6 -8 10 -11 10 -2 0
-4 -4 -4 -10z"/>
<path d="M1770 1585 c0 -10 7 -15 18 -13 21 4 19 22 -2 26 -10 2 -16 -3 -16
-13z"/>
<path d="M2332 1579 c2 -7 10 -15 17 -17 8 -3 12 1 9 9 -2 7 -10 15 -17 17 -8
3 -12 -1 -9 -9z"/>
<path d="M10650 1580 c0 -5 5 -10 11 -10 5 0 7 5 4 10 -3 6 -8 10 -11 10 -2 0
-4 -4 -4 -10z"/>
<path d="M10991 1577 c-6 -8 -8 -17 -5 -20 10 -9 45 13 39 24 -9 13 -21 11
-34 -4z"/>
<path d="M11190 1576 c0 -8 5 -18 10 -21 6 -3 10 3 10 14 0 12 -4 21 -10 21
-5 0 -10 -6 -10 -14z"/>
<path d="M10135 1569 c-4 -6 -5 -13 -2 -16 7 -7 27 6 27 18 0 12 -17 12 -25
-2z"/>
<path d="M10695 1570 c-3 -6 1 -13 10 -16 19 -8 30 0 20 15 -8 14 -22 14 -30
1z"/>
<path d="M11050 1564 c0 -9 5 -14 12 -12 18 6 21 28 4 28 -9 0 -16 -7 -16 -16z"/>
<path d="M5995 1537 c-13 -10 -15 -16 -6 -21 12 -8 41 10 41 25 0 13 -13 11
-35 -4z"/>
<path d="M6192 1536 c1 -10 8 -17 13 -17 15 1 12 24 -3 29 -9 3 -13 -2 -10
-12z"/>
<path d="M5135 1529 c-4 -6 -5 -13 -2 -16 7 -7 27 6 27 18 0 12 -17 12 -25 -2z"/>
<path d="M5700 1526 c0 -14 24 -29 33 -19 3 3 3 11 0 19 -7 18 -33 18 -33 0z"/>
<path d="M6055 1529 c-4 -6 -5 -13 -2 -16 7 -7 27 6 27 18 0 12 -17 12 -25 -2z"/>
<path d="M8985 1520 c-4 -6 5 -10 20 -10 15 0 24 4 20 10 -3 6 -12 10 -20 10
-8 0 -17 -4 -20 -10z"/>
<path d="M3495 1500 c-4 -6 5 -10 20 -10 15 0 24 4 20 10 -3 6 -12 10 -20 10
-8 0 -17 -4 -20 -10z"/>
<path d="M3985 1480 c-4 -6 5 -10 20 -10 15 0 24 4 20 10 -3 6 -12 10 -20 10
-8 0 -17 -4 -20 -10z"/>
</g>
</svg>
